<?xml version="1.0" encoding="utf-8"?>
<!-- Generated by IcoMoon.io -->
<!DOCTYPE svg PUBLIC "-//W3C//DTD SVG 1.1//EN" "http://www.w3.org/Graphics/SVG/1.1/DTD/svg11.dtd">
<svg version="1.1" xmlns="http://www.w3.org/2000/svg" xmlns:xlink="http://www.w3.org/1999/xlink" width="19" height="32" viewBox="0 0 19 32">
<path d="M9.467 32c0.467 0 0.8-0.4 0.8-0.8v-27.2l7.067 7.067c0.133 0.133 0.4 0.267 0.6 0.267s0.4-0.067 0.6-0.267c0.333-0.333 0.333-0.867 0-1.133l-8.333-8.333c-0.333-0.333-0.867-0.333-1.133 0l-8.333 8.333c-0.333 0.333-0.333 0.867 0 1.133 0.333 0.333 0.867 0.333 1.133 0l6.8-6.8v27c0 0.4 0.4 0.733 0.8 0.733z"></path>
</svg>
