<?xml version="1.0" encoding="utf-8"?>
<!-- Generated by IcoMoon.io -->
<!DOCTYPE svg PUBLIC "-//W3C//DTD SVG 1.1//EN" "http://www.w3.org/Graphics/SVG/1.1/DTD/svg11.dtd">
<svg version="1.1" xmlns="http://www.w3.org/2000/svg" xmlns:xlink="http://www.w3.org/1999/xlink" width="32" height="32" viewBox="0 0 32 32">
<path d="M13.4 14.667h-11.6c-0.4 0-0.6-0.2-0.6-0.6v-7.4c0-0.4 0.2-0.6 0.6-0.6h11.6c0.2 0 0.6 0.4 0.6 0.6v7.4c0 0.4-0.4 0.6-0.6 0.6zM30.2 14.667h-11.6c-0.4 0-0.6-0.2-0.6-0.6v-7.4c0-0.4 0.2-0.6 0.6-0.6h11.6c0.4 0 0.6 0.2 0.6 0.6v7.4c0 0.4-0.2 0.6-0.6 0.6zM13.4 27.267h-11.6c-0.4 0-0.6-0.2-0.6-0.6v-7.4c0-0.4 0.2-0.6 0.6-0.6h11.6c0.4 0 0.6 0.2 0.6 0.6v7.4c0 0.2-0.2 0.6-0.6 0.6zM30.2 27.267h-11.6c-0.2 0-0.6-0.4-0.6-0.6v-7.4c0-0.4 0.4-0.6 0.6-0.6h11.6c0.4 0 0.6 0.2 0.6 0.6v7.4c0 0.2-0.2 0.6-0.6 0.6z"></path>
</svg>
