<?xml version="1.0" encoding="utf-8"?>
<!-- Generated by IcoMoon.io -->
<!DOCTYPE svg PUBLIC "-//W3C//DTD SVG 1.1//EN" "http://www.w3.org/Graphics/SVG/1.1/DTD/svg11.dtd">
<svg version="1.1" xmlns="http://www.w3.org/2000/svg" xmlns:xlink="http://www.w3.org/1999/xlink" width="32" height="32" viewBox="0 0 32 32">
<path d="M11.316 22.811l-3.92 6.788c-4.188-2.788-6.952-7.548-6.952-12.956 0-8.264 6.448-15 14.584-15.508v7.828c-3.828 0.484-6.804 3.724-6.804 7.68-0.004 2.524 1.224 4.748 3.092 6.168zM22.168 11.959l6.788-3.92c-2.62-3.936-6.98-6.596-11.984-6.904v7.828c2.12 0.268 3.96 1.376 5.196 2.996zM29.92 9.727l-6.752 3.9c0.392 0.928 0.608 1.948 0.608 3.016 0 4.288-3.488 7.78-7.78 7.78-1.068 0-2.088-0.216-3.016-0.608l-3.9 6.752c2.084 1.040 4.428 1.636 6.916 1.636 8.592 0 15.556-6.964 15.556-15.556 0.004-2.492-0.592-4.832-1.632-6.92z"></path>
</svg>
