<?xml version="1.0" encoding="utf-8"?>
<!-- Generated by IcoMoon.io -->
<!DOCTYPE svg PUBLIC "-//W3C//DTD SVG 1.1//EN" "http://www.w3.org/Graphics/SVG/1.1/DTD/svg11.dtd">
<svg version="1.1" xmlns="http://www.w3.org/2000/svg" xmlns:xlink="http://www.w3.org/1999/xlink" width="32" height="32" viewBox="0 0 32 32">
<path d="M15.933 10.4c-0.467 0-0.8 0.333-0.8 0.8s0.333 0.8 0.8 0.8 0.8-0.333 0.8-0.8c0-0.4-0.4-0.8-0.8-0.8zM10.067 11.8c-0.2 0.067-0.333 0.267-0.4 0.467s-0.067 0.4 0.067 0.6c0.133 0.267 0.4 0.467 0.733 0.467 0.133 0 0.267 0 0.333-0.067 0.2-0.067 0.333-0.267 0.4-0.467s0.067-0.4-0.067-0.6c-0.2-0.467-0.667-0.6-1.067-0.4zM3.8 20.4c-0.4-0.067-0.867 0.2-0.933 0.6-0.067 0.467 0.2 0.867 0.6 0.933 0.067 0 0.133 0 0.133 0 0.4 0 0.733-0.267 0.8-0.667 0.067-0.2 0-0.4-0.133-0.6-0.067-0.133-0.267-0.267-0.467-0.267zM5.4 15.533c-0.267 0.333-0.2 0.867 0.133 1.133 0.133 0.133 0.333 0.2 0.533 0.2 0.267 0 0.467-0.133 0.667-0.333 0.267-0.333 0.2-0.867-0.133-1.133-0.4-0.267-0.933-0.2-1.2 0.133zM25.333 15.4c-0.333 0.267-0.4 0.8-0.133 1.133 0.133 0.2 0.4 0.333 0.667 0.333 0.2 0 0.333-0.067 0.533-0.2 0.333-0.267 0.4-0.8 0.133-1.133-0.333-0.333-0.867-0.4-1.2-0.133zM21.8 11.8c-0.4-0.2-0.867 0-1.067 0.4-0.067 0.2-0.133 0.4-0.067 0.6s0.2 0.4 0.4 0.467c0.133 0.067 0.267 0.067 0.333 0.067 0.333 0 0.6-0.2 0.733-0.467 0.2-0.4 0.067-0.867-0.333-1.067zM28.2 22c0.067 0 0.133 0 0.2 0 0.467-0.067 0.733-0.533 0.6-0.933-0.067-0.4-0.533-0.733-0.933-0.6-0.2 0.067-0.4 0.2-0.533 0.333-0.133 0.2-0.133 0.4-0.133 0.6 0.067 0.333 0.4 0.6 0.8 0.6zM15.933 7.867c-8.8 0-15.933 7.133-15.933 15.933 0 0.267 0.267 0.533 0.533 0.533h30.8c0.267 0 0.533-0.267 0.533-0.533 0-8.8-7.133-15.933-15.933-15.933zM13.8 23.267c0.267-0.933 1.067-1.667 2.133-1.667s1.867 0.667 2.133 1.667h-4.267zM19 22.867c-0.133-0.6-0.4-1.067-0.733-1.533l4.267-5.133c0.2-0.2 0.133-0.6-0.067-0.667-0.2-0.2-0.6-0.133-0.733 0.067l-4.2 5.067c-0.467-0.267-0.933-0.467-1.533-0.467-1.533 0-2.8 1.133-3.067 2.6h-11.2c0.267-7.467 6.533-13.533 14.2-13.533s13.867 6.067 14.133 13.6h-11.067z"></path>
</svg>
