<?xml version="1.0" encoding="utf-8"?>
<!-- Generated by IcoMoon.io -->
<!DOCTYPE svg PUBLIC "-//W3C//DTD SVG 1.1//EN" "http://www.w3.org/Graphics/SVG/1.1/DTD/svg11.dtd">
<svg version="1.1" xmlns="http://www.w3.org/2000/svg" xmlns:xlink="http://www.w3.org/1999/xlink" width="40" height="32" viewBox="0 0 40 32">
<path d="M17.040 27.345l-0.581 5.322h6.865l-0.581-5.322zM0 26.651c0 0.581 0.492 1.073 1.073 1.073h37.658c0.581 0 1.073-0.492 1.073-1.073v-2.147h-39.804v2.147zM19.902 25.332c0.38 0 0.693 0.313 0.693 0.693s-0.313 0.693-0.693 0.693c-0.38 0-0.693-0.313-0.693-0.693s0.291-0.693 0.693-0.693zM39.782 1.74c0-0.581-0.492-1.073-1.073-1.073h-37.635c-0.604 0-1.073 0.492-1.073 1.073v22.138h39.804v-22.138zM38.172 22.447h-36.562v-20.081h36.562v20.081zM39.782 24.505v-0.626h-39.782v0.626zM38.709 0.667h-37.635c-0.604 0-1.073 0.492-1.073 1.073v20.528c0 0.581 0.492 1.073 1.073 1.073h37.658c0.581 0 1.073-0.492 1.073-1.073v-20.528c-0.022-0.581-0.492-1.073-1.096-1.073zM38.172 22.447h-36.562v-20.081h36.562v20.081zM0 22.805h39.804v1.073h-39.804v-1.073zM0 23.878h39.804v0.335h-39.804v-0.335z"></path>
</svg>
