<?xml version="1.0" encoding="utf-8"?>
<!-- Generated by IcoMoon.io -->
<!DOCTYPE svg PUBLIC "-//W3C//DTD SVG 1.1//EN" "http://www.w3.org/Graphics/SVG/1.1/DTD/svg11.dtd">
<svg version="1.1" xmlns="http://www.w3.org/2000/svg" xmlns:xlink="http://www.w3.org/1999/xlink" width="32" height="32" viewBox="0 0 32 32">
<path d="M18.333 17.333c0 1.289-1.045 2.333-2.333 2.333s-2.333-1.045-2.333-2.333c0-1.289 1.045-2.333 2.333-2.333s2.333 1.045 2.333 2.333zM8.333 17.333c0 1.289-1.045 2.333-2.333 2.333s-2.333-1.045-2.333-2.333c0-1.289 1.045-2.333 2.333-2.333s2.333 1.045 2.333 2.333zM28.333 17.333c0 1.289-1.045 2.333-2.333 2.333s-2.333-1.045-2.333-2.333c0-1.289 1.045-2.333 2.333-2.333s2.333 1.045 2.333 2.333z"></path>
</svg>
