<?xml version="1.0" encoding="utf-8"?>
<!-- Generated by IcoMoon.io -->
<!DOCTYPE svg PUBLIC "-//W3C//DTD SVG 1.1//EN" "http://www.w3.org/Graphics/SVG/1.1/DTD/svg11.dtd">
<svg version="1.1" xmlns="http://www.w3.org/2000/svg" xmlns:xlink="http://www.w3.org/1999/xlink" width="37" height="32" viewBox="0 0 37 32">
<path d="M21.6 1.139c-0.69-0.672-1.779-0.617-2.396 0.073-0.672 0.672-0.599 1.761 0.073 2.378l13.813 13.141-13.885 13.069c-0.69 0.69-0.69 1.706-0.073 2.378 0.345 0.345 0.744 0.472 1.289 0.472 0.417 0 0.817-0.145 1.162-0.417l15.174-14.357c0.345-0.345 0.472-0.744 0.472-1.289s-0.145-0.962-0.472-1.289l-15.156-14.158zM2.904 1.139c-0.69-0.672-1.779-0.617-2.396 0.073-0.69 0.69-0.617 1.779 0.073 2.378l13.813 13.141-13.885 13.069c-0.69 0.69-0.69 1.706-0.073 2.378 0.345 0.345 0.744 0.472 1.289 0.472 0.417 0 0.817-0.145 1.162-0.417l15.174-14.357c0.345-0.345 0.472-0.744 0.472-1.289s-0.145-0.962-0.472-1.289l-15.156-14.158z"></path>
</svg>
