<?xml version="1.0" encoding="utf-8"?>
<!-- Generated by IcoMoon.io -->
<!DOCTYPE svg PUBLIC "-//W3C//DTD SVG 1.1//EN" "http://www.w3.org/Graphics/SVG/1.1/DTD/svg11.dtd">
<svg version="1.1" xmlns="http://www.w3.org/2000/svg" xmlns:xlink="http://www.w3.org/1999/xlink" width="32" height="32" viewBox="0 0 32 32">
<path d="M30.867 19.533c-0.533 0-1.067 0.4-1.067 1.067v7.4h-27.4v-7.4c0-0.533-0.4-1.067-1.067-1.067s-1.067 0.4-1.067 1.067v8.467c0 0.533 0.4 1.067 1.067 1.067h29.467c0.533 0 1.067-0.4 1.067-1.067v-8.467c-0.067-0.533-0.467-1.067-1-1.067zM15.267 23.467c0.267 0.267 0.533 0.267 0.8 0.267s0.533-0.133 0.8-0.267l6.333-7.4c0.4-0.4 0.4-1.067 0-1.533-0.4-0.4-1.067-0.4-1.533 0l-4.533 5.2v-16c0-0.667-0.533-1.067-1.067-1.067s-1.067 0.4-1.067 1.067v16.2l-4.533-5.2c-0.4-0.4-1.067-0.4-1.533 0-0.4 0.4-0.4 1.067 0 1.533l6.333 7.2z"></path>
</svg>
