<?xml version="1.0" encoding="utf-8"?>
<!-- Generated by IcoMoon.io -->
<!DOCTYPE svg PUBLIC "-//W3C//DTD SVG 1.1//EN" "http://www.w3.org/Graphics/SVG/1.1/DTD/svg11.dtd">
<svg version="1.1" xmlns="http://www.w3.org/2000/svg" xmlns:xlink="http://www.w3.org/1999/xlink" width="32" height="32" viewBox="0 0 32 32">
<path d="M16 0.867c-8.667 0-15.8 7.133-15.8 15.8s7.133 15.8 15.8 15.8c8.667 0 15.8-7.133 15.8-15.8s-7.133-15.8-15.8-15.8zM22.067 20.8h-12.133c-0.4 0-0.867-0.267-0.867-0.733s0.333-0.867 0.8-0.867h12.2c0.4-0.133 0.867 0.333 0.867 0.733 0 0.467-0.4 0.867-0.867 0.867zM22.067 14.133h-12.133c-0.4 0-0.867-0.267-0.867-0.733s0.333-0.867 0.8-0.867h12.2c0.4-0.133 0.867 0.333 0.867 0.733 0 0.467-0.4 0.867-0.867 0.867z"></path>
</svg>
