<?xml version="1.0" encoding="utf-8"?>
<!-- Generated by IcoMoon.io -->
<!DOCTYPE svg PUBLIC "-//W3C//DTD SVG 1.1//EN" "http://www.w3.org/Graphics/SVG/1.1/DTD/svg11.dtd">
<svg version="1.1" xmlns="http://www.w3.org/2000/svg" xmlns:xlink="http://www.w3.org/1999/xlink" width="32" height="32" viewBox="0 0 32 32">
<path d="M24 3.667c-0.733 0-1.533 0.267-2.133 0.867l-14.267 14.333c-1.133 1.133-1.133 3 0 4.133l4.867 4.867c1.133 1.133 3 1.133 4.133 0l14.4-14.267c1.133-1.133 1.133-3 0-4.133l-4.867-4.867c-0.6-0.667-1.333-0.933-2.133-0.933v0zM24 5.533c0.267 0 0.533 0.133 0.733 0.267l4.867 4.867c0.4 0.4 0.4 1 0 1.533l-1.4 1.533-6.333-6.4 1.533-1.533c0.133-0.133 0.4-0.267 0.6-0.267v0zM20.533 8.667l6.4 6.4-8.667 8.667-6.4-6.4 8.667-8.667zM10.467 18.733l6.4 6.4-1.533 1.533c-0.4 0.4-1 0.4-1.533 0l-4.867-4.867c-0.4-0.4-0.4-1 0-1.533l1.533-1.533zM1 26.867c-0.533 0-0.867 0.467-0.867 1s0.533 0.867 1 0.867h8.4c0.533 0 1-0.533 1-1 0-0.533-0.533-1-1-0.867h-8.533z"></path>
</svg>
