<?xml version="1.0" encoding="utf-8"?>
<!-- Generated by IcoMoon.io -->
<!DOCTYPE svg PUBLIC "-//W3C//DTD SVG 1.1//EN" "http://www.w3.org/Graphics/SVG/1.1/DTD/svg11.dtd">
<svg version="1.1" xmlns="http://www.w3.org/2000/svg" xmlns:xlink="http://www.w3.org/1999/xlink" width="36" height="32" viewBox="0 0 36 32">
<path d="M35.347 16.487c-0.319-0.359-7.851-8.966-17.415-8.966s-17.116 8.608-17.415 8.966l-0.518 0.578 0.518 0.578c0.319 0.359 7.851 8.966 17.415 8.966s17.116-8.608 17.415-8.966l0.518-0.578-0.518-0.578zM17.933 24.198c-3.945 0-7.133-3.188-7.133-7.133s3.188-7.133 7.133-7.133 7.133 3.188 7.133 7.133c0 3.945-3.188 7.133-7.133 7.133zM2.451 17.065c1.295-1.335 4.762-4.563 9.186-6.396-1.654 1.634-2.71 3.885-2.71 6.396s1.036 4.762 2.67 6.396c-4.384-1.833-7.851-5.061-9.146-6.396zM24.229 23.461c1.654-1.634 2.67-3.885 2.67-6.396s-1.036-4.762-2.67-6.396c4.443 1.833 7.89 5.061 9.186 6.396-1.295 1.335-4.762 4.563-9.186 6.396zM17.933 13.777c-1.833 0-3.288 1.474-3.288 3.288s1.474 3.288 3.288 3.288 3.288-1.474 3.288-3.288c0-1.813-1.455-3.288-3.288-3.288zM29.137 0.672l1.894 1.459-23.514 30.532-1.894-1.459 23.514-30.532z"></path>
</svg>
