<?xml version="1.0" encoding="utf-8"?>
<!-- Generated by IcoMoon.io -->
<!DOCTYPE svg PUBLIC "-//W3C//DTD SVG 1.1//EN" "http://www.w3.org/Graphics/SVG/1.1/DTD/svg11.dtd">
<svg version="1.1" xmlns="http://www.w3.org/2000/svg" xmlns:xlink="http://www.w3.org/1999/xlink" width="32" height="32" viewBox="0 0 32 32">
<path d="M31.538 16.471c-0.284-0.32-7.004-8-15.538-8s-15.271 7.68-15.538 8l-0.462 0.516 0.462 0.516c0.284 0.32 7.004 8 15.538 8s15.271-7.68 15.538-8l0.462-0.516-0.462-0.516zM16 23.351c-3.52 0-6.364-2.844-6.364-6.364s2.844-6.364 6.364-6.364 6.364 2.844 6.364 6.364-2.844 6.364-6.364 6.364zM2.187 16.987c1.156-1.191 4.249-4.071 8.196-5.707-1.476 1.458-2.418 3.467-2.418 5.707s0.924 4.249 2.382 5.707c-3.911-1.636-7.004-4.516-8.16-5.707zM21.618 22.693c1.476-1.458 2.382-3.467 2.382-5.707s-0.924-4.249-2.382-5.707c3.964 1.636 7.040 4.516 8.196 5.707-1.156 1.191-4.249 4.071-8.196 5.707zM16 14.053c-1.636 0-2.933 1.316-2.933 2.933s1.316 2.933 2.933 2.933 2.933-1.316 2.933-2.933-1.298-2.933-2.933-2.933z"></path>
</svg>
