<?xml version="1.0" encoding="utf-8"?>
<!-- Generated by IcoMoon.io -->
<!DOCTYPE svg PUBLIC "-//W3C//DTD SVG 1.1//EN" "http://www.w3.org/Graphics/SVG/1.1/DTD/svg11.dtd">
<svg version="1.1" xmlns="http://www.w3.org/2000/svg" xmlns:xlink="http://www.w3.org/1999/xlink" width="32" height="32" viewBox="0 0 32 32">
<path d="M12.047 13.937h1.694v-1.6c0-0.753 0-1.788 0.565-2.541 0.471-0.753 1.224-1.224 2.635-1.224 2.165 0 3.106 0.282 3.106 0.282l-0.376 2.541c0 0-0.659-0.188-1.318-0.188s-1.224 0.188-1.224 0.847v1.882h2.729l-0.188 2.447h-2.541v8.565h-3.2v-8.471h-1.694v-2.541h-0.188zM16 0.667c-8.753 0-16 7.247-16 16s7.247 16 16 16c8.753 0 16-7.247 16-16 0-8.847-7.247-16-16-16zM16 31.067c-8 0-14.4-6.588-14.4-14.4s6.588-14.4 14.4-14.4c7.812 0 14.4 6.588 14.4 14.4s-6.4 14.4-14.4 14.4z"></path>
</svg>
