<?xml version="1.0" encoding="utf-8"?>
<!-- Generated by IcoMoon.io -->
<!DOCTYPE svg PUBLIC "-//W3C//DTD SVG 1.1//EN" "http://www.w3.org/Graphics/SVG/1.1/DTD/svg11.dtd">
<svg version="1.1" xmlns="http://www.w3.org/2000/svg" xmlns:xlink="http://www.w3.org/1999/xlink" width="32" height="32" viewBox="0 0 32 32">
<path d="M16.733 28.333h-2.333c-0.6 0-0.933 0.467-0.933 0.933v2.333c0 0.6 0.467 0.933 0.933 0.933h2.333c0.6 0 0.933-0.467 0.933-0.933v-2.333c0.133-0.467-0.333-0.933-0.933-0.933zM22.933 3.267c-1.867-1.733-4.333-2.467-7.267-2.467s-5.267 0.8-7 2.333c-1.533 1.4-2.467 3.267-2.933 5.733 0 0.333 0 0.6 0.133 0.8 0.133 0.133 0.467 0.333 0.6 0.467l2 0.333c0.467 0 0.933-0.333 1.067-0.8 0.333-1.733 1.067-3.067 2-3.867 1.067-1.067 2.467-1.533 4.2-1.533s3.067 0.6 4.333 1.733 1.733 2.467 1.733 4c0 0.8-0.133 1.533-0.6 2.333s-1.267 1.733-2.667 2.8c-1.4 1.267-2.333 2-2.8 2.667-0.6 0.8-1.267 1.733-1.533 2.467-0.467 1.067-0.6 2.467-0.6 4.2 0 0.6 0.467 0.933 0.933 0.933h1.733c0.467 0 0.933-0.467 0.933-0.933 0-1.067 0.133-1.867 0.333-2.333 0.133-0.6 0.467-1.267 0.933-1.867 0.333-0.467 1.267-1.4 2.467-2.467 1.867-1.733 3.067-3.067 3.733-4.2 0.6-1.067 0.933-2.467 0.933-3.867 0.133-2.8-0.8-4.8-2.667-6.467z"></path>
</svg>
