<?xml version="1.0" encoding="utf-8"?>
<!-- Generated by IcoMoon.io -->
<!DOCTYPE svg PUBLIC "-//W3C//DTD SVG 1.1//EN" "http://www.w3.org/Graphics/SVG/1.1/DTD/svg11.dtd">
<svg version="1.1" xmlns="http://www.w3.org/2000/svg" xmlns:xlink="http://www.w3.org/1999/xlink" width="32" height="32" viewBox="0 0 32 32">
<path d="M18.868 1.335c-0.4-0.4-0.932-0.6-1.532-0.6h-9.068c-2.068 0-3.668 1.668-3.668 3.8v20.6c0 2.068 1.6 3.8 3.532 3.8h12.932c1.932 0 3.6-1.668 3.6-3.6v-17.332c0-0.532-0.268-1.068-0.668-1.532l-5.128-5.136zM22.468 6.867h-3.332c-0.468 0-0.932-0.268-0.932-0.732v-3.532l4.264 4.264zM21.068 27.535h-12.936c-1.2 0-2.2-1.068-2.2-2.4v-20.6c0-1.332 1-2.468 2.332-2.468h8.536v4.068c0 1.132 1.068 2.068 2.332 2.068h4.132v17.068c0.004 1.196-1.064 2.264-2.196 2.264zM24.6 31.267h-12.932c-0.732 0-1.4-0.4-1.868-1.068-0.2-0.332-0.6-0.4-0.932-0.2s-0.4 0.6-0.2 0.932c0.668 1.068 1.8 1.668 3 1.668h12.932c1.932 0 3.532-1.668 3.532-3.6v-17.332c0-0.532-0.268-1.132-0.668-1.532l-0.6-0.468c-0.268-0.268-0.668-0.268-0.932 0-0.268 0.268-0.268 0.668 0 0.932l0.532 0.532c0.132 0.132 0.268 0.4 0.268 0.532v17.332c0 1.272-1 2.272-2.132 2.272zM7.532 19.967v-5.168h1.096v4.264h2.096v0.904h-3.192zM16.312 17.375c0 0.856-0.212 1.512-0.636 1.972s-1.032 0.688-1.824 0.688-1.4-0.228-1.824-0.688c-0.424-0.46-0.636-1.12-0.636-1.98s0.212-1.516 0.64-1.972c0.424-0.452 1.036-0.68 1.828-0.68s1.4 0.228 1.824 0.684c0.416 0.46 0.628 1.116 0.628 1.976zM12.54 17.375c0 0.576 0.108 1.012 0.328 1.304s0.548 0.44 0.984 0.44c0.876 0 1.312-0.58 1.312-1.744s-0.436-1.748-1.304-1.748c-0.436 0-0.764 0.148-0.988 0.44-0.22 0.296-0.332 0.732-0.332 1.308zM19.344 17.063h2.052v2.68c-0.332 0.108-0.644 0.184-0.94 0.228-0.292 0.044-0.592 0.064-0.9 0.064-0.78 0-1.376-0.228-1.788-0.688s-0.616-1.116-0.616-1.976c0-0.836 0.24-1.484 0.716-1.952s1.14-0.7 1.984-0.7c0.532 0 1.040 0.108 1.536 0.32l-0.364 0.876c-0.376-0.188-0.768-0.284-1.176-0.284-0.472 0-0.852 0.16-1.14 0.476-0.284 0.32-0.428 0.744-0.428 1.284 0 0.56 0.116 0.988 0.344 1.284s0.564 0.444 1.004 0.444c0.228 0 0.46-0.024 0.696-0.072v-1.080h-0.98v-0.904z"></path>
</svg>
