<?xml version="1.0" encoding="utf-8"?>
<!-- Generated by IcoMoon.io -->
<!DOCTYPE svg PUBLIC "-//W3C//DTD SVG 1.1//EN" "http://www.w3.org/Graphics/SVG/1.1/DTD/svg11.dtd">
<svg version="1.1" xmlns="http://www.w3.org/2000/svg" xmlns:xlink="http://www.w3.org/1999/xlink" width="32" height="32" viewBox="0 0 32 32">
<path d="M18.668 1.267c-0.4-0.4-0.932-0.6-1.532-0.6h-9.068c-2.068 0-3.668 1.668-3.668 3.8v20.6c0 2.068 1.6 3.8 3.532 3.8h12.932c1.932 0 3.6-1.668 3.6-3.6v-17.332c0-0.532-0.268-1.068-0.668-1.532l-5.128-5.136zM22.268 6.799h-3.332c-0.468 0-0.932-0.268-0.932-0.732v-3.532l4.264 4.264zM20.868 27.467h-12.936c-1.2 0-2.2-1.068-2.2-2.4v-20.6c0-1.332 1-2.468 2.332-2.468h8.536v4.068c0 1.132 1.068 2.068 2.332 2.068h4.132v17.068c0.004 1.196-1.064 2.264-2.196 2.264zM24.4 31.199h-12.932c-0.732 0-1.4-0.4-1.868-1.068-0.2-0.332-0.6-0.4-0.932-0.2s-0.4 0.6-0.2 0.932c0.668 1.068 1.8 1.668 3 1.668h12.932c1.932 0 3.532-1.668 3.532-3.6v-17.332c0-0.532-0.268-1.132-0.668-1.532l-0.6-0.468c-0.268-0.268-0.668-0.268-0.932 0-0.268 0.268-0.268 0.668 0 0.932l0.532 0.532c0.132 0.132 0.268 0.4 0.268 0.532v17.332c0 1.272-1 2.272-2.132 2.272zM11.28 18.727c0.060 0 0.108 0.024 0.152 0.068l0.424 0.46c-0.236 0.292-0.524 0.512-0.864 0.668-0.344 0.156-0.756 0.232-1.236 0.232-0.428 0-0.816-0.072-1.156-0.22-0.344-0.148-0.636-0.352-0.88-0.612s-0.428-0.572-0.56-0.936c-0.128-0.364-0.192-0.76-0.192-1.188 0-0.436 0.072-0.832 0.216-1.196 0.144-0.36 0.348-0.672 0.608-0.936 0.26-0.26 0.576-0.464 0.94-0.612 0.364-0.144 0.764-0.22 1.204-0.22 0.428 0 0.804 0.068 1.124 0.208 0.32 0.136 0.596 0.32 0.828 0.544l-0.36 0.5c-0.020 0.032-0.048 0.060-0.084 0.084-0.032 0.024-0.080 0.036-0.136 0.036-0.060 0-0.124-0.024-0.188-0.072s-0.144-0.1-0.244-0.156c-0.1-0.056-0.224-0.108-0.376-0.156s-0.34-0.072-0.572-0.072c-0.272 0-0.524 0.048-0.752 0.14-0.228 0.096-0.424 0.232-0.588 0.404s-0.292 0.392-0.384 0.644c-0.092 0.252-0.136 0.536-0.136 0.852 0 0.324 0.044 0.616 0.136 0.868s0.216 0.468 0.376 0.64c0.156 0.172 0.344 0.304 0.556 0.396s0.444 0.14 0.688 0.14c0.148 0 0.28-0.008 0.396-0.024 0.12-0.016 0.228-0.040 0.328-0.076s0.196-0.080 0.284-0.132c0.088-0.056 0.176-0.12 0.264-0.2 0.028-0.024 0.056-0.044 0.084-0.060 0.032-0.008 0.064-0.016 0.1-0.016zM15.768 15.359c-0.028 0.060-0.064 0.1-0.104 0.124s-0.084 0.036-0.136 0.036c-0.052 0-0.112-0.020-0.18-0.064-0.068-0.040-0.144-0.088-0.236-0.136-0.092-0.052-0.196-0.096-0.32-0.14-0.12-0.040-0.264-0.060-0.432-0.060-0.148 0-0.28 0.016-0.392 0.052s-0.204 0.088-0.28 0.152c-0.076 0.064-0.132 0.14-0.172 0.232-0.036 0.088-0.056 0.188-0.056 0.296 0 0.136 0.036 0.248 0.116 0.34 0.076 0.092 0.176 0.168 0.3 0.232s0.268 0.12 0.428 0.172c0.16 0.052 0.324 0.104 0.492 0.16s0.332 0.124 0.492 0.2c0.16 0.076 0.304 0.172 0.428 0.288s0.224 0.26 0.3 0.428c0.076 0.168 0.112 0.372 0.112 0.612 0 0.26-0.044 0.504-0.132 0.732s-0.22 0.428-0.392 0.596c-0.172 0.168-0.38 0.304-0.632 0.4-0.248 0.096-0.532 0.144-0.852 0.144-0.184 0-0.364-0.016-0.544-0.052s-0.352-0.088-0.516-0.152c-0.164-0.068-0.316-0.148-0.46-0.24s-0.272-0.196-0.38-0.312l0.312-0.516c0.028-0.036 0.064-0.068 0.104-0.096 0.040-0.024 0.088-0.036 0.14-0.036 0.068 0 0.14 0.028 0.216 0.080 0.076 0.056 0.168 0.116 0.276 0.18 0.104 0.068 0.228 0.128 0.372 0.18 0.144 0.056 0.316 0.080 0.516 0.080 0.308 0 0.544-0.072 0.712-0.216s0.252-0.356 0.252-0.628c0-0.152-0.040-0.276-0.116-0.372s-0.176-0.176-0.3-0.24c-0.124-0.064-0.268-0.12-0.428-0.168-0.16-0.044-0.324-0.096-0.488-0.148s-0.328-0.116-0.488-0.192c-0.16-0.076-0.304-0.172-0.428-0.292s-0.224-0.272-0.3-0.452-0.116-0.404-0.116-0.668c0-0.212 0.044-0.416 0.124-0.616 0.084-0.2 0.208-0.376 0.368-0.532s0.36-0.28 0.596-0.372c0.236-0.092 0.504-0.14 0.804-0.14 0.34 0 0.656 0.052 0.944 0.16s0.532 0.256 0.736 0.448l-0.26 0.516zM16.392 14.307h0.868c0.092 0 0.168 0.024 0.228 0.068s0.104 0.104 0.132 0.176l1.36 3.528c0.044 0.116 0.088 0.24 0.132 0.38 0.040 0.136 0.080 0.28 0.12 0.432 0.060-0.308 0.136-0.576 0.228-0.812l1.356-3.528c0.024-0.060 0.068-0.116 0.128-0.168s0.136-0.076 0.228-0.076h0.868l-2.336 5.784h-0.972l-2.34-5.784z"></path>
</svg>
