<?xml version="1.0" encoding="utf-8"?>
<!-- Generated by IcoMoon.io -->
<!DOCTYPE svg PUBLIC "-//W3C//DTD SVG 1.1//EN" "http://www.w3.org/Graphics/SVG/1.1/DTD/svg11.dtd">
<svg version="1.1" xmlns="http://www.w3.org/2000/svg" xmlns:xlink="http://www.w3.org/1999/xlink" width="32" height="32" viewBox="0 0 32 32">
<path d="M31.822 1.556c-0.249-0.587-0.693-0.889-1.333-0.889h-28.96c-0.64 0-1.084 0.302-1.333 0.889-0.249 0.622-0.142 1.138 0.32 1.582l11.147 11.147v11.004c0 0.391 0.142 0.729 0.427 1.013l5.796 5.796c0.267 0.284 0.604 0.427 1.013 0.427 0.178 0 0.373-0.036 0.569-0.107 0.587-0.249 0.889-0.693 0.889-1.333v-16.8l11.147-11.147c0.48-0.444 0.587-0.978 0.32-1.582z"></path>
</svg>
