<?xml version="1.0" encoding="utf-8"?>
<!-- Generated by IcoMoon.io -->
<!DOCTYPE svg PUBLIC "-//W3C//DTD SVG 1.1//EN" "http://www.w3.org/Graphics/SVG/1.1/DTD/svg11.dtd">
<svg version="1.1" xmlns="http://www.w3.org/2000/svg" xmlns:xlink="http://www.w3.org/1999/xlink" width="32" height="32" viewBox="0 0 32 32">
<path d="M18.756 32.613c-0.551 0-1.049-0.213-1.44-0.604l-5.564-5.564c-0.391-0.391-0.604-0.889-0.604-1.422v-10.347l-10.542-10.56c-0.64-0.604-0.8-1.387-0.462-2.222 0.356-0.8 1.013-1.227 1.867-1.227h27.911c0.853 0 1.511 0.427 1.849 1.227 0.356 0.836 0.196 1.618-0.444 2.222l-10.56 10.56v15.929c0 0.853-0.427 1.511-1.227 1.849l-0.018 0.018c-0.249 0.089-0.516 0.142-0.764 0.142zM2.009 1.911c-0.356 0-0.569 0.142-0.711 0.48-0.16 0.409-0.053 0.622 0.16 0.818l10.951 10.951v10.862c0 0.213 0.071 0.373 0.231 0.533l5.582 5.582c0.16 0.16 0.32 0.231 0.533 0.231 0.089 0 0.196-0.018 0.302-0.071 0.338-0.142 0.462-0.356 0.462-0.711v-16.427l10.951-10.951c0.213-0.196 0.32-0.427 0.16-0.836-0.142-0.32-0.356-0.462-0.711-0.462h-27.911z"></path>
</svg>
