<?xml version="1.0" encoding="utf-8"?>
<!-- Generated by IcoMoon.io -->
<!DOCTYPE svg PUBLIC "-//W3C//DTD SVG 1.1//EN" "http://www.w3.org/Graphics/SVG/1.1/DTD/svg11.dtd">
<svg version="1.1" xmlns="http://www.w3.org/2000/svg" xmlns:xlink="http://www.w3.org/1999/xlink" width="32" height="32" viewBox="0 0 32 32">
<path d="M16 10.6c-3.533 0-6.4 2.867-6.4 6.4s2.867 6.333 6.4 6.333c3.533 0 6.4-2.867 6.4-6.4s-2.867-6.333-6.4-6.333zM16 21.933c-2.733 0-5-2.2-5-5s2.267-4.933 5-4.933 5 2.2 5 5-2.267 4.933-5 4.933zM31.467 19.667l-2.4-1.4v-3.133l2.4-1.4c0.267-0.133 0.4-0.467 0.333-0.8-0.4-1.8-1.067-3.533-2-5-0.133-0.267-0.467-0.4-0.8-0.333l-2.667 0.733-2.2-2.2 0.733-2.667c0.067-0.333-0.067-0.6-0.333-0.8-1.6-0.933-3.267-1.667-5-2-0.267-0.067-0.6 0.067-0.733 0.333l-1 1.733h-3.133l-1.067-1.8c-0.133-0.267-0.467-0.4-0.733-0.333-2 0.4-3.867 1.133-5.533 2.267-0.267 0.133-0.4 0.467-0.333 0.8l0.533 2-2.2 2.2-2-0.533c-0.4 0-0.667 0.067-0.867 0.333-1.067 1.6-1.8 3.4-2.267 5.4-0.067 0.333 0.133 0.6 0.4 0.8l1.933 1.067v3.067l-2 1.133c-0.267 0.133-0.467 0.467-0.4 0.733 0.4 1.867 1.067 3.667 2.067 5.333 0.133 0.267 0.467 0.4 0.8 0.333l2.067-0.6 2.2 2.2-0.6 2.267c-0.067 0.267 0.067 0.6 0.267 0.8 1.667 1.133 3.4 1.933 5.2 2.333 0.333 0.067 0.6-0.067 0.8-0.333l1.2-2h3.133l1.267 2.133c0.133 0.2 0.333 0.333 0.6 0.333 0.067 0 0.067 0 0.133 0 1.933-0.4 3.733-1.067 5.2-2 0.267-0.133 0.4-0.467 0.333-0.8l-0.6-2.467 2.2-2.2 2.533 0.667c0.267 0.067 0.6-0.067 0.733-0.333 0.933-1.4 1.6-3.067 2.067-5.067 0.2-0.333 0.067-0.6-0.267-0.8zM28.867 24.333l-2.467-0.6c-0.267-0.067-0.467 0-0.667 0.2l-2.733 2.733c-0.2 0.2-0.267 0.4-0.2 0.667l0.6 2.333c-1.133 0.6-2.4 1.133-3.8 1.4l-1.2-2.067c-0.133-0.2-0.333-0.333-0.6-0.4h-3.933c-0.267 0-0.467 0.133-0.6 0.4l-1.133 1.933c-1.333-0.4-2.6-0.933-3.867-1.733l0.6-2.133c0.067-0.267 0-0.533-0.2-0.667l-2.8-2.8c-0.2-0.2-0.467-0.267-0.667-0.2l-2 0.533c-0.733-1.267-1.2-2.533-1.533-3.933l1.933-1.067c0.2-0.133 0.4-0.333 0.4-0.6v-3.933c0-0.267-0.2-0.467-0.4-0.6l-1.8-1c0.4-1.467 0.933-2.8 1.667-4l1.867 0.6c0.267 0.067 0.467 0 0.667-0.2l2.8-2.8c0.2-0.2 0.267-0.467 0.2-0.667l-0.467-1.867c1.267-0.8 2.667-1.333 4.133-1.667l1 1.733c0.133 0.2 0.333 0.333 0.6 0.333h3.933c0.267 0 0.467-0.133 0.6-0.333l1-1.667c1.267 0.333 2.467 0.8 3.6 1.467l-0.667 2.533c-0.067 0.267 0 0.533 0.2 0.667l2.8 2.8c0.2 0.2 0.467 0.267 0.667 0.2l2.533-0.667c0.6 1.067 1.133 2.333 1.467 3.6l-2.267 1.333c-0.2 0.133-0.333 0.333-0.333 0.6v3.933c0 0.267 0.133 0.467 0.333 0.6l2.267 1.333c-0.467 1.4-0.933 2.6-1.533 3.667z"></path>
</svg>
