<?xml version="1.0" encoding="utf-8"?>
<!-- Generated by IcoMoon.io -->
<!DOCTYPE svg PUBLIC "-//W3C//DTD SVG 1.1//EN" "http://www.w3.org/Graphics/SVG/1.1/DTD/svg11.dtd">
<svg version="1.1" xmlns="http://www.w3.org/2000/svg" xmlns:xlink="http://www.w3.org/1999/xlink" width="32" height="32" viewBox="0 0 32 32">
<path d="M31.993 1.913c0-0.007 0-0.013-0.007-0.026 0-0.013-0.007-0.026-0.007-0.039 0-0.007-0.007-0.020-0.007-0.026-0.007-0.013-0.007-0.026-0.013-0.033s-0.007-0.020-0.013-0.026c-0.007-0.013-0.007-0.020-0.013-0.033s-0.013-0.020-0.013-0.026-0.007-0.013-0.007-0.020-0.007-0.007-0.007-0.013-0.007-0.007-0.007-0.013c-0.007-0.007-0.007-0.013-0.013-0.020s-0.013-0.020-0.020-0.026c-0.007-0.007-0.013-0.013-0.020-0.020s-0.013-0.020-0.026-0.026c-0.007-0.007-0.013-0.013-0.020-0.020s-0.020-0.020-0.026-0.026c-0.007-0.007-0.013-0.013-0.020-0.013-0.013-0.007-0.020-0.020-0.033-0.026-0.007-0.007-0.013-0.007-0.020-0.013-0.013-0.007-0.020-0.013-0.033-0.020-0.007-0.007-0.013-0.007-0.020-0.013-0.013-0.007-0.020-0.013-0.033-0.013-0.007-0.007-0.020-0.007-0.026-0.013-0.013-0.007-0.020-0.007-0.033-0.013-0.007 0-0.020-0.007-0.026-0.007-0.013 0-0.020-0.007-0.033-0.007-0.007 0-0.007 0-0.013 0l-3.351-0.702c-0.354-0.072-0.702 0.151-0.774 0.505s0.151 0.702 0.505 0.774l1.705 0.354-4.972 2.972c-2.473-3.838-7.595-5.097-11.622-2.788l-0.007 0.007c-1.869 1.109-3.233 2.827-3.883 4.874-0.144-0.007-0.289-0.013-0.433-0.013-2.309 0-4.48 0.899-6.113 2.526-1.64 1.633-2.545 3.818-2.545 6.14 0 4.559 3.529 8.305 8.002 8.646v4.723h-1.994c-0.361 0-0.656 0.295-0.656 0.656s0.295 0.656 0.656 0.656h1.994v1.299c0 0.361 0.295 0.656 0.656 0.656s0.656-0.295 0.656-0.656v-1.299h1.994c0.361 0 0.656-0.295 0.656-0.656s-0.295-0.656-0.656-0.656h-1.994v-4.723c2.073-0.151 4.001-1.036 5.477-2.526 0.99-0.997 1.712-2.198 2.125-3.503 0.144 0.007 0.295 0.013 0.439 0.013 1.502 0 2.991-0.394 4.329-1.161 3.843-2.23 5.326-7.045 3.542-11.067l5.175-3.096-0.387 1.837c-0.072 0.354 0.151 0.702 0.505 0.781 0.046 0.007 0.092 0.013 0.138 0.013 0.302 0 0.577-0.21 0.643-0.518l0.702-3.306c0-0.007 0-0.013 0-0.020 0 0 0-0.013 0-0.020s0-0.020 0-0.026c0-0.013 0-0.026 0-0.033s0-0.020 0-0.026c0-0.013 0-0.026 0-0.039 0-0.007 0-0.020 0-0.026 0-0.013 0-0.026-0.007-0.039zM8.658 23.397v0c-4.047 0-7.346-3.3-7.346-7.36 0-4.054 3.292-7.36 7.346-7.36 0.039 0 0.085 0 0.125 0-0.302 1.948 0.059 3.936 1.056 5.674l0.007 0.007c1.181 1.994 3.050 3.418 5.273 4.008 0.157 0.039 0.315 0.079 0.472 0.112-1.017 2.867-3.745 4.92-6.933 4.92zM15.898 17.231c-1.987-0.394-3.797-1.614-4.932-3.523-0.885-1.555-1.161-3.273-0.899-4.894 3.417 0.643 5.922 3.588 5.922 7.223 0.007 0.407-0.026 0.807-0.092 1.194zM21.027 16.372c-1.213 0.695-2.532 1.017-3.817 0.997 0.066-0.433 0.098-0.879 0.098-1.325 0-2.329-0.899-4.513-2.525-6.14-1.213-1.214-2.728-2.020-4.388-2.355 0.557-1.581 1.659-2.978 3.233-3.91 3.529-2.014 8.034-0.82 10.048 2.663 2.020 3.536 0.826 8.056-2.65 10.070z"></path>
</svg>
