<?xml version="1.0" encoding="utf-8"?>
<!-- Generated by IcoMoon.io -->
<!DOCTYPE svg PUBLIC "-//W3C//DTD SVG 1.1//EN" "http://www.w3.org/Graphics/SVG/1.1/DTD/svg11.dtd">
<svg version="1.1" xmlns="http://www.w3.org/2000/svg" xmlns:xlink="http://www.w3.org/1999/xlink" width="32" height="32" viewBox="0 0 32 32">
<path d="M16 0.667c-8.753 0-16 7.247-16 16s7.247 16 16 16c8.753 0 16-7.247 16-16 0-8.847-7.247-16-16-16zM16 31.067c-8 0-14.4-6.588-14.4-14.4s6.588-14.4 14.4-14.4c7.812 0 14.4 6.588 14.4 14.4s-6.4 14.4-14.4 14.4zM12.424 15.631v2.165h3.671c-0.188 0.941-1.129 2.729-3.671 2.729-2.259 0-3.953-1.788-3.953-3.953s1.788-3.953 3.953-3.953c1.224 0 1.976 0.471 2.541 1.035l1.694-1.6c-1.129-1.035-2.541-1.6-4.235-1.6-3.576 0-6.4 2.824-6.4 6.306s2.824 6.306 6.4 6.306c3.765 0 6.024-2.541 6.024-6.024 0-0.376 0-0.753-0.094-1.035l-5.929-0.376zM24.188 15.631v-1.788h-1.788v1.788h-1.788v1.788h1.788v1.788h1.788v-1.788h1.788v-1.788h-1.788z"></path>
</svg>
