<?xml version="1.0" encoding="utf-8"?>
<!-- Generated by IcoMoon.io -->
<!DOCTYPE svg PUBLIC "-//W3C//DTD SVG 1.1//EN" "http://www.w3.org/Graphics/SVG/1.1/DTD/svg11.dtd">
<svg version="1.1" xmlns="http://www.w3.org/2000/svg" xmlns:xlink="http://www.w3.org/1999/xlink" width="32" height="32" viewBox="0 0 32 32">
<path d="M16 0.862c-8.658 0-15.804 7.147-15.804 15.804s7.129 15.804 15.804 15.804 15.804-7.129 15.804-15.804-7.129-15.804-15.804-15.804zM16 30.871c-7.929 0-14.204-6.471-14.204-14.204s6.471-14.204 14.204-14.204 14.204 6.471 14.204 14.204-6.276 14.204-14.204 14.204zM17.831 23.796h-3.68v-9.084h3.644v9.084zM16 13.182c-1.102 0-2.027-0.889-2.027-2.027 0-1.102 0.889-2.027 2.027-2.027 1.102 0 2.027 0.889 2.027 2.027s-0.924 2.027-2.027 2.027z"></path>
</svg>
