<?xml version="1.0" encoding="utf-8"?>
<!-- Generated by IcoMoon.io -->
<!DOCTYPE svg PUBLIC "-//W3C//DTD SVG 1.1//EN" "http://www.w3.org/Graphics/SVG/1.1/DTD/svg11.dtd">
<svg version="1.1" xmlns="http://www.w3.org/2000/svg" xmlns:xlink="http://www.w3.org/1999/xlink" width="32" height="32" viewBox="0 0 32 32">
<path d="M32 24.702c0 0.444-0.284 0.924-0.871 0.924h-29.529c-0.587 0-1.6-0.48-1.6-0.924v-0.836c0-0.356 32-0.356 32 0v0.836zM28.836 8.507c0-0.444-0.373-0.818-0.818-0.818h-22.987c-0.444 0-0.818 0.373-0.818 0.818v14.898c0 0.444 0.373 0.818 0.818 0.818h22.987c0.444 0 0.818-0.373 0.818-0.818v-14.898zM27.076 22.462h-21.458v-13.013h21.458v13.013z"></path>
</svg>
