<?xml version="1.0" encoding="utf-8"?>
<!-- Generated by IcoMoon.io -->
<!DOCTYPE svg PUBLIC "-//W3C//DTD SVG 1.1//EN" "http://www.w3.org/Graphics/SVG/1.1/DTD/svg11.dtd">
<svg version="1.1" xmlns="http://www.w3.org/2000/svg" xmlns:xlink="http://www.w3.org/1999/xlink" width="32" height="32" viewBox="0 0 32 32">
<path d="M21.259 17.625l10.62-10.62c0.159-0.159 0.159-0.415 0-0.57l-5.643-5.648c-0.159-0.159-0.415-0.159-0.57 0l-10.62 10.62c-0.159 0.159-0.159 0.415 0 0.57l2.042 2.037c0.159 0.159 0.159 0.415 0 0.57l-3.162 3.162c-0.159 0.159-0.415 0.159-0.57 0l-2.037-2.037c-0.159-0.159-0.415-0.159-0.57 0l-10.62 10.615c-0.159 0.159-0.159 0.415 0 0.57l5.633 5.653c0.159 0.159 0.415 0.159 0.57 0l10.62-10.62c0.159-0.159 0.159-0.415 0-0.57l-2.037-2.042c-0.159-0.159-0.159-0.415 0-0.57l3.157-3.157c0.159-0.159 0.415-0.159 0.57 0l2.042 2.037c0.164 0.154 0.42 0.154 0.574 0zM15.5 21.641l-9.452 9.452-4.475-4.475 9.447-9.447 1.738 1.738-3.48 3.48 0.869 0.869 3.485-3.485 1.868 1.868zM16.495 11.692l9.457-9.452 4.475 4.475-9.452 9.452-1.738-1.738 3.485-3.485-0.869-0.869-3.49 3.48-1.868-1.863z"></path>
</svg>
