<?xml version="1.0" encoding="utf-8"?>
<!-- Generated by IcoMoon.io -->
<!DOCTYPE svg PUBLIC "-//W3C//DTD SVG 1.1//EN" "http://www.w3.org/Graphics/SVG/1.1/DTD/svg11.dtd">
<svg version="1.1" xmlns="http://www.w3.org/2000/svg" xmlns:xlink="http://www.w3.org/1999/xlink" width="23" height="32" viewBox="0 0 23 32">
<path d="M22.044 13.465h-2.846v-4.978c0-4.303-3.521-7.823-7.823-7.823s-7.823 3.521-7.823 7.823v4.978h-2.842c-0.391 0-0.71 0.322-0.71 0.713v17.779c0 0.391 0.318 0.71 0.71 0.71h21.334c0.391 0 0.71-0.318 0.71-0.71v-17.779c0.003-0.391-0.318-0.713-0.71-0.713zM4.978 8.487c0-3.521 2.88-6.401 6.401-6.401s6.401 2.88 6.401 6.401v4.978h-12.801v-4.978zM21.334 31.244h-19.912v-16.357h19.912v16.357zM10.665 23.635v2.274c0 0.391 0.318 0.71 0.71 0.71s0.71-0.318 0.71-0.71v-2.274c0.817-0.284 1.423-1.066 1.423-1.99 0-1.174-0.959-2.132-2.132-2.132s-2.132 0.959-2.132 2.132c0.003 0.924 0.606 1.707 1.423 1.99z"></path>
</svg>
