<?xml version="1.0" encoding="utf-8"?>
<!-- Generated by IcoMoon.io -->
<!DOCTYPE svg PUBLIC "-//W3C//DTD SVG 1.1//EN" "http://www.w3.org/Graphics/SVG/1.1/DTD/svg11.dtd">
<svg version="1.1" xmlns="http://www.w3.org/2000/svg" xmlns:xlink="http://www.w3.org/1999/xlink" width="21" height="32" viewBox="0 0 21 32">
<path d="M10.697 6.971c-2.39 0-4.347 1.957-4.347 4.347s1.957 4.347 4.347 4.347 4.347-1.957 4.347-4.347-1.957-4.347-4.347-4.347zM10.697 14.618c-1.821 0-3.323-1.479-3.323-3.323 0-1.821 1.479-3.323 3.323-3.323s3.323 1.479 3.323 3.323c0 1.844-1.502 3.323-3.323 3.323zM21.394 11.364c0-5.895-4.802-10.697-10.697-10.697s-10.697 4.802-10.697 10.697c0 0.956 0.137 1.912 0.387 2.845v0c0.205 0.706 0.478 1.411 0.819 2.048v0.023c0.546 1.161 7.647 14.703 7.966 15.294 0.387 0.706 0.933 1.092 1.525 1.092s1.161-0.387 1.548-1.092c0.296-0.592 7.511-14.316 7.966-15.272 0.341-0.66 0.614-1.366 0.819-2.071l0.091-0.228-0.023-0.023c0.205-0.865 0.296-1.73 0.296-2.617zM20.028 13.913v0.023c-0.182 0.66-0.432 1.275-0.728 1.866l-0.023 0.046c-0.432 0.956-7.875 15.112-7.943 15.249-0.182 0.341-0.432 0.546-0.637 0.546s-0.432-0.205-0.614-0.546c-0.068-0.137-7.511-14.293-7.943-15.249v0l-0.023-0.023c-0.319-0.592-0.569-1.229-0.728-1.889l-0.023-0.046c-0.228-0.819-0.341-1.661-0.341-2.526 0-5.326 4.347-9.673 9.673-9.673s9.673 4.347 9.673 9.673c0 0.865-0.114 1.707-0.341 2.549z"></path>
</svg>
