<?xml version="1.0" encoding="utf-8"?>
<!-- Generated by IcoMoon.io -->
<!DOCTYPE svg PUBLIC "-//W3C//DTD SVG 1.1//EN" "http://www.w3.org/Graphics/SVG/1.1/DTD/svg11.dtd">
<svg version="1.1" xmlns="http://www.w3.org/2000/svg" xmlns:xlink="http://www.w3.org/1999/xlink" width="32" height="32" viewBox="0 0 32 32">
<path d="M15.929 0.862c-8.676 0-15.804 7.147-15.804 15.804s7.129 15.804 15.804 15.804 15.804-7.129 15.804-15.804-7.147-15.804-15.804-15.804zM21.991 17.431h-5.209v5.333c0 0.409-0.267 0.871-0.729 0.871s-0.871-0.338-0.871-0.8v-5.404h-5.333c-0.409 0-0.871-0.267-0.871-0.729s0.338-0.871 0.8-0.871h5.404v-5.28c-0.142-0.409 0.338-0.871 0.729-0.871 0.462 0 0.871 0.409 0.871 0.871v5.262h5.209c0.409-0.142 0.871 0.338 0.871 0.729 0 0.48-0.409 0.889-0.871 0.889z"></path>
</svg>
