<?xml version="1.0" encoding="utf-8"?>
<!-- Generated by IcoMoon.io -->
<!DOCTYPE svg PUBLIC "-//W3C//DTD SVG 1.1//EN" "http://www.w3.org/Graphics/SVG/1.1/DTD/svg11.dtd">
<svg version="1.1" xmlns="http://www.w3.org/2000/svg" xmlns:xlink="http://www.w3.org/1999/xlink" width="32" height="32" viewBox="0 0 32 32">
<path d="M16 32.6c-7.867 0-14.467-6.6-14.467-14.467 0-5.867 3.733-11.267 9.267-13.467 0.467-0.2 1 0.067 1.133 0.467 0.2 0.467-0.067 1-0.467 1.133-4.867 1.933-8.133 6.667-8.133 11.867 0 6.867 5.8 12.733 12.733 12.733s12.733-5.8 12.733-12.733c0-5.133-3.267-9.933-8.133-11.867-0.467-0.2-0.667-0.667-0.467-1.133s0.667-0.667 1.133-0.467c5.533 2.2 9.267 7.6 9.267 13.467-0.133 7.8-6.733 14.467-14.6 14.467zM16 16.2c-0.467 0-0.867-0.4-0.867-0.867v-13.733c0-0.467 0.4-0.867 0.867-0.867s0.867 0.4 0.867 0.867v13.733c0 0.533-0.4 0.867-0.867 0.867z"></path>
</svg>
