<?xml version="1.0" encoding="utf-8"?>
<!-- Generated by IcoMoon.io -->
<!DOCTYPE svg PUBLIC "-//W3C//DTD SVG 1.1//EN" "http://www.w3.org/Graphics/SVG/1.1/DTD/svg11.dtd">
<svg version="1.1" xmlns="http://www.w3.org/2000/svg" xmlns:xlink="http://www.w3.org/1999/xlink" width="32" height="32" viewBox="0 0 32 32">
<path d="M16 3.533c7.267 0 13.133 5.867 13.133 13.133s-5.867 13.133-13.133 13.133-13.133-5.867-13.133-13.133 5.867-13.133 13.133-13.133zM16 1c-8.667 0-15.667 7-15.667 15.667s7 15.667 15.667 15.667 15.667-7 15.667-15.667-7-15.667-15.667-15.667v0zM26.533 16.667c0 5.817-4.716 10.533-10.533 10.533s-10.533-4.716-10.533-10.533c0-5.817 4.716-10.533 10.533-10.533s10.533 4.716 10.533 10.533z"></path>
</svg>
