<?xml version="1.0" encoding="utf-8"?>
<!-- Generated by IcoMoon.io -->
<!DOCTYPE svg PUBLIC "-//W3C//DTD SVG 1.1//EN" "http://www.w3.org/Graphics/SVG/1.1/DTD/svg11.dtd">
<svg version="1.1" xmlns="http://www.w3.org/2000/svg" xmlns:xlink="http://www.w3.org/1999/xlink" width="32" height="32" viewBox="0 0 32 32">
<path d="M16.8 16.533v-15.067c0-0.467-0.333-0.8-0.8-0.8s-0.8 0.333-0.8 0.8v14.867c-2.133 0.333-3.733 2.267-3.733 4.4 0 2.267 1.667 4.067 3.733 4.4v6.667c0 0.467 0.333 0.8 0.8 0.8s0.8-0.333 0.8-0.8v-6.667c2.133-0.333 3.733-2.267 3.733-4.4s-1.6-3.933-3.733-4.2zM16 23.667c-1.667 0-2.8-1.333-2.8-2.8s1.333-2.8 2.8-2.8 2.8 1.333 2.8 2.8-1.133 2.8-2.8 2.8zM5.667 8.8v-7.333c0-0.467-0.267-0.8-0.8-0.8s-0.8 0.333-0.8 0.8v7.333c-2.133 0.333-3.733 2.267-3.733 4.4 0 2.267 1.667 4.067 3.733 4.4v14.2c0 0.467 0.333 0.8 0.8 0.8s0.8-0.333 0.8-0.8v-14c2.133-0.333 3.733-2.267 3.733-4.4 0.067-2.267-1.6-4.267-3.733-4.6zM4.867 16.2c-1.667 0-2.8-1.333-2.8-2.8 0-1.667 1.333-2.8 2.8-2.8v0 0c1.667 0 2.8 1.333 2.8 2.8s-1.133 2.8-2.8 2.8zM31.667 12.733c0-2.267-1.667-4.067-3.733-4.4v-6.867c0-0.467-0.333-0.8-0.8-0.8s-0.8 0.333-0.8 0.8v6.867c-2.133 0.333-3.733 2.267-3.733 4.4 0 2.267 1.667 4.067 3.733 4.4v14.733c0 0.467 0.333 0.8 0.8 0.8s0.8-0.333 0.8-0.8v-14.733c2.133-0.333 3.733-2.133 3.733-4.4zM27.133 15.667c-1.667 0-2.8-1.333-2.8-2.8s1.333-2.8 2.8-2.8c1.667 0 2.8 1.333 2.8 2.8-0.067 1.533-1.2 2.8-2.8 2.8z"></path>
</svg>
