<?xml version="1.0" encoding="utf-8"?>
<!-- Generated by IcoMoon.io -->
<!DOCTYPE svg PUBLIC "-//W3C//DTD SVG 1.1//EN" "http://www.w3.org/Graphics/SVG/1.1/DTD/svg11.dtd">
<svg version="1.1" xmlns="http://www.w3.org/2000/svg" xmlns:xlink="http://www.w3.org/1999/xlink" width="32" height="32" viewBox="0 0 32 32">
<path d="M7.065 10.516v12.26c0 1.995 1.621 3.616 3.616 3.616h9.683c1.995 0 3.616-1.621 3.616-3.616v-8.166c0.083 0.042 0.166 0.062 0.27 0.062 0.332 0 0.603-0.27 0.603-0.603v-1.517c0-0.332-0.27-0.603-0.603-0.603-0.104 0-0.187 0.021-0.27 0.062v-1.496c0-1.995-1.621-3.616-3.616-3.616h-9.683c-1.995 0-3.616 1.621-3.616 3.616zM8.873 10.516c0-0.997 0.81-1.829 1.829-1.829h9.683c0.997 0 1.829 0.81 1.829 1.829v12.26c0 0.997-0.81 1.829-1.829 1.829h-9.704c-0.997 0-1.829-0.81-1.829-1.829 0.021 0 0.021-12.26 0.021-12.26zM16.997 16.646c0 0.815-0.661 1.475-1.475 1.475s-1.475-0.661-1.475-1.475c0-0.815 0.661-1.475 1.475-1.475s1.475 0.661 1.475 1.475zM9.974 6.402c0.229-0.042 0.478-0.062 0.707-0.062h9.683c0.249 0 0.478 0.021 0.706 0.062 0.312 0.062 0.374-0.042 0.229-0.312-0.395-0.686-0.914-2.119-1.247-4.987-0.021-0.249-0.249-0.457-0.499-0.457h-8.062c-0.249 0-0.478 0.208-0.499 0.457-0.332 2.868-0.852 4.301-1.247 4.987-0.145 0.291-0.083 0.374 0.229 0.312zM21.132 26.869c-0.249 0.062-0.499 0.083-0.769 0.083h-9.683c-0.27 0-0.519-0.021-0.769-0.083-0.312-0.062-0.353 0.021-0.208 0.291 0.395 0.665 0.935 2.078 1.288 5.049 0.021 0.249 0.249 0.457 0.499 0.457h8.062c0.249 0 0.478-0.208 0.499-0.457 0.353-2.971 0.893-4.384 1.288-5.049 0.166-0.27 0.104-0.353-0.208-0.291z"></path>
</svg>
