<?xml version="1.0" encoding="utf-8"?>
<!-- Generated by IcoMoon.io -->
<!DOCTYPE svg PUBLIC "-//W3C//DTD SVG 1.1//EN" "http://www.w3.org/Graphics/SVG/1.1/DTD/svg11.dtd">
<svg version="1.1" xmlns="http://www.w3.org/2000/svg" xmlns:xlink="http://www.w3.org/1999/xlink" width="32" height="32" viewBox="0 0 32 32">
<path d="M22.2 8.4c4.533 0 8.267 3.733 8.267 8.267s-3.8 8.267-8.333 8.267h-12.267c-4.533 0-8.267-3.733-8.267-8.267s3.733-8.267 8.267-8.267h12.333zM22.2 7.133h-12.333c-5.267 0-9.533 4.267-9.533 9.533s4.267 9.533 9.533 9.533h12.333c5.267 0 9.533-4.267 9.533-9.533s-4.267-9.533-9.533-9.533v0zM9.867 25.6c-4.933 0-8.933-4-8.933-8.933s4-8.933 8.933-8.933 8.933 4 8.933 8.933-4 8.933-8.933 8.933zM9.867 9c-4.2 0-7.667 3.467-7.667 7.667s3.467 7.667 7.667 7.667 7.667-3.467 7.667-7.667-3.467-7.667-7.667-7.667z"></path>
</svg>
