<?xml version="1.0" encoding="utf-8"?>
<!-- Generated by IcoMoon.io -->
<!DOCTYPE svg PUBLIC "-//W3C//DTD SVG 1.1//EN" "http://www.w3.org/Graphics/SVG/1.1/DTD/svg11.dtd">
<svg version="1.1" xmlns="http://www.w3.org/2000/svg" xmlns:xlink="http://www.w3.org/1999/xlink" width="26" height="32" viewBox="0 0 26 32">
<path d="M24.622 0.667h-23.627c-0.551 0-0.996 0.444-0.996 0.996v30.009c0 0.551 0.444 0.996 0.996 0.996h23.627c0.551 0 0.996-0.444 0.996-0.996v-30.009c0-0.551-0.444-0.996-0.996-0.996zM10.951 1.804h3.698c0.124 0 0.213 0.107 0.213 0.213 0 0.124-0.107 0.213-0.213 0.213h-3.698c-0.124 0-0.213-0.107-0.213-0.213s0.089-0.213 0.213-0.213zM12.818 31.76c-0.729 0-1.333-0.587-1.333-1.333 0-0.729 0.587-1.333 1.333-1.333 0.729 0 1.333 0.587 1.333 1.333-0.018 0.729-0.604 1.333-1.333 1.333zM22.969 27.867h-20.32v-24.213h20.32v24.213z"></path>
</svg>
