<?xml version="1.0" encoding="utf-8"?>
<!-- Generated by IcoMoon.io -->
<!DOCTYPE svg PUBLIC "-//W3C//DTD SVG 1.1//EN" "http://www.w3.org/Graphics/SVG/1.1/DTD/svg11.dtd">
<svg version="1.1" xmlns="http://www.w3.org/2000/svg" xmlns:xlink="http://www.w3.org/1999/xlink" width="32" height="32" viewBox="0 0 32 32">
<path d="M30.684 17.662l-14.578-14.542c-0.516-0.516-1.209-0.96-2.080-1.316s-1.671-0.533-2.382-0.533h-8.462c-0.711 0-1.316 0.267-1.831 0.782s-0.782 1.12-0.782 1.831v8.48c0 0.711 0.178 1.511 0.533 2.382s0.8 1.547 1.316 2.062l14.56 14.578c0.498 0.498 1.12 0.747 1.831 0.747s1.316-0.249 1.849-0.747l10.009-10.027c0.498-0.498 0.747-1.12 0.747-1.831 0.018-0.711-0.231-1.333-0.729-1.867zM8.924 9.627c-0.516 0.516-1.12 0.764-1.849 0.764-0.711 0-1.333-0.249-1.849-0.764s-0.764-1.12-0.764-1.849 0.249-1.333 0.764-1.849c0.516-0.516 1.12-0.764 1.849-0.764 0.711 0 1.333 0.249 1.849 0.764s0.764 1.12 0.764 1.849-0.249 1.351-0.764 1.849z"></path>
</svg>
