<?xml version="1.0" encoding="utf-8"?>
<!-- Generated by IcoMoon.io -->
<!DOCTYPE svg PUBLIC "-//W3C//DTD SVG 1.1//EN" "http://www.w3.org/Graphics/SVG/1.1/DTD/svg11.dtd">
<svg version="1.1" xmlns="http://www.w3.org/2000/svg" xmlns:xlink="http://www.w3.org/1999/xlink" width="32" height="32" viewBox="0 0 32 32">
<path d="M18.809 32.844c-0.907 0-1.707-0.338-2.329-0.96l-14.56-14.578c-0.604-0.604-1.084-1.369-1.476-2.293-0.391-0.96-0.587-1.849-0.587-2.649v-8.48c0-0.889 0.338-1.671 0.996-2.329s1.44-0.996 2.329-0.996h8.462c0.8 0 1.707 0.196 2.649 0.587s1.724 0.889 2.311 1.476l14.596 14.56c0.64 0.676 0.942 1.476 0.924 2.364 0 0.889-0.338 1.689-0.96 2.311l-10.027 10.044c-0.658 0.622-1.44 0.942-2.329 0.942zM3.182 1.982c-0.516 0-0.942 0.178-1.333 0.569s-0.569 0.818-0.569 1.333v8.48c0 0.622 0.16 1.333 0.48 2.116 0.302 0.747 0.693 1.369 1.156 1.831l14.56 14.578c0.356 0.356 0.8 0.533 1.333 0.533 0.516 0 0.96-0.178 1.351-0.551l9.991-10.009c0.356-0.356 0.533-0.8 0.533-1.333 0.018-0.533-0.16-0.978-0.533-1.369l-14.542-14.542c-0.462-0.462-1.084-0.853-1.849-1.156-0.782-0.32-1.493-0.48-2.116-0.48h-8.462zM7.076 11.102c-0.907 0-1.707-0.32-2.347-0.978-0.64-0.64-0.978-1.44-0.978-2.347s0.32-1.707 0.978-2.347c0.64-0.64 1.44-0.978 2.347-0.978s1.707 0.32 2.347 0.978c0.64 0.64 0.978 1.44 0.978 2.347 0 0.942-0.338 1.724-0.978 2.364s-1.44 0.96-2.347 0.96zM7.076 5.876c-0.533 0-0.96 0.178-1.351 0.551-0.373 0.373-0.551 0.8-0.551 1.351s0.178 0.96 0.551 1.351c0.373 0.373 0.818 0.551 1.351 0.551s0.96-0.178 1.351-0.551c0.373-0.356 0.551-0.8 0.551-1.351 0-0.533-0.178-0.96-0.551-1.351-0.373-0.373-0.818-0.551-1.351-0.551z"></path>
</svg>
