<?xml version="1.0" encoding="utf-8"?>
<!-- Generated by IcoMoon.io -->
<!DOCTYPE svg PUBLIC "-//W3C//DTD SVG 1.1//EN" "http://www.w3.org/Graphics/SVG/1.1/DTD/svg11.dtd">
<svg version="1.1" xmlns="http://www.w3.org/2000/svg" xmlns:xlink="http://www.w3.org/1999/xlink" width="32" height="32" viewBox="0 0 32 32">
<path d="M3.267 5.733h1.8v22.533c0 2.4 1.933 4.333 4.267 4.333h13.267c2.4 0 4.267-1.933 4.267-4.333v-22.533h1.8c0.4 0 0.733-0.333 0.733-0.733s-0.333-0.733-0.733-0.733h-2.4c0 0-0.067 0-0.133 0s-0.067 0-0.133 0h-4.2c0-2.067-1.667-3.6-3.733-3.6h-3.933c-2.067 0-3.8 1.533-3.8 3.6v0h-4.467c0 0-0.067 0-0.133 0s-0.067 0-0.133 0h-2.333c-0.4 0.067-0.667 0.4-0.667 0.733s0.267 0.733 0.667 0.733zM25.467 28.267c0 1.6-1.267 2.867-2.867 2.867h-13.2c-1.6 0-2.867-1.267-2.867-2.867v-22.533h19v22.533zM11.867 4.333c0-1.267 1.133-2.133 2.4-2.133h3.933c1.267 0 2.267 0.867 2.267 2.133v0h-8.6zM11.2 9.667c-0.4 0-0.733 0.333-0.733 0.733v16.133c0 0.4 0.333 0.733 0.733 0.733s0.733-0.333 0.733-0.733v-16.133c-0.067-0.4-0.4-0.733-0.733-0.733zM16.2 9.667c-0.4 0-0.733 0.333-0.733 0.733v16.133c0 0.4 0.333 0.733 0.733 0.733s0.733-0.333 0.733-0.733v-16.133c-0.067-0.4-0.333-0.733-0.733-0.733zM20.467 10.4v16.133c0 0.4 0.333 0.733 0.733 0.733s0.733-0.333 0.733-0.733v-16.133c0-0.4-0.333-0.733-0.733-0.733s-0.733 0.333-0.733 0.733z"></path>
</svg>
