<?xml version="1.0" encoding="utf-8"?>
<!-- Generated by IcoMoon.io -->
<!DOCTYPE svg PUBLIC "-//W3C//DTD SVG 1.1//EN" "http://www.w3.org/Graphics/SVG/1.1/DTD/svg11.dtd">
<svg version="1.1" xmlns="http://www.w3.org/2000/svg" xmlns:xlink="http://www.w3.org/1999/xlink" width="32" height="32" viewBox="0 0 32 32">
<path d="M24 11.678c-0.565 0.282-1.224 0.471-1.882 0.565 0.659-0.376 1.224-1.035 1.412-1.788-0.659 0.376-1.318 0.659-2.071 0.753-0.565-0.659-1.412-1.035-2.447-1.035-1.788 0-3.294 1.506-3.294 3.294 0 0.282 0 0.471 0.094 0.753-2.729-0.094-5.176-1.412-6.776-3.482-0.282 0.471-0.471 1.035-0.471 1.694 0 1.129 0.565 2.165 1.506 2.729-0.565 0-1.035-0.188-1.506-0.376v0c0 1.6 1.129 2.918 2.635 3.2-0.282 0.094-0.565 0.094-0.847 0.094-0.188 0-0.376 0-0.659-0.094 0.376 1.318 1.6 2.259 3.106 2.259-1.129 0.941-2.541 1.412-4.047 1.412-0.282 0-0.565 0-0.753 0 1.412 0.941 3.2 1.506 5.082 1.506 6.024 0 9.318-4.988 9.318-9.318 0-0.188 0-0.282 0-0.471 0.565-0.471 1.129-1.035 1.6-1.694zM16 0.667c-8.753 0-16 7.247-16 16s7.247 16 16 16c8.753 0 16-7.247 16-16s-7.247-16-16-16zM16 31.067c-8 0-14.4-6.588-14.4-14.4s6.588-14.4 14.4-14.4c7.812 0 14.4 6.588 14.4 14.4s-6.4 14.4-14.4 14.4z"></path>
</svg>
