<?xml version="1.0" encoding="utf-8"?>
<!-- Generated by IcoMoon.io -->
<!DOCTYPE svg PUBLIC "-//W3C//DTD SVG 1.1//EN" "http://www.w3.org/Graphics/SVG/1.1/DTD/svg11.dtd">
<svg version="1.1" xmlns="http://www.w3.org/2000/svg" xmlns:xlink="http://www.w3.org/1999/xlink" width="32" height="32" viewBox="0 0 32 32">
<path d="M18.648 15.583l2.042 2.037c0.159 0.159 0.415 0.159 0.57 0l10.62-10.62c0.159-0.159 0.159-0.415 0-0.57l-5.643-5.643c-0.159-0.159-0.415-0.159-0.57 0l-10.62 10.62c-0.159 0.159-0.159 0.415 0 0.57l2.042 2.037zM18.363 13.555l-1.868-1.863 9.457-9.452 4.475 4.475-9.452 9.452-1.738-1.738zM13.347 17.75l-2.042-2.037c-0.159-0.159-0.415-0.159-0.57 0l-10.62 10.62c-0.159 0.159-0.159 0.415 0 0.57l5.643 5.643c0.159 0.159 0.415 0.159 0.57 0l10.62-10.62c0.159-0.159 0.159-0.415 0-0.57l-2.032-2.037zM13.637 19.778l1.868 1.863-9.457 9.452-4.475-4.475 9.452-9.452 1.738 1.738zM13.106 10.036c-0.010 0-0.014 0.005-0.024 0.005-0.087 0.019-0.15 0.097-0.145 0.188v2.636c0 0.106 0.082 0.188 0.188 0.188s0.188-0.082 0.188-0.188v-2.636c0.005-0.106-0.077-0.193-0.183-0.193-0.010-0.005-0.014 0-0.024 0zM9.722 10.413c-0.010 0-0.014 0.005-0.024 0.005-0.101 0.019-0.169 0.116-0.15 0.217 0.010 0.039 0.029 0.077 0.058 0.106l2.259 2.259c0.072 0.072 0.198 0.072 0.27 0s0.072-0.198 0-0.27l-2.259-2.259c-0.043-0.043-0.101-0.063-0.154-0.058v0zM9.326 13.802c-0.106 0.010-0.179 0.101-0.169 0.208s0.101 0.179 0.208 0.169v0h2.636c0.106 0 0.188-0.082 0.188-0.188s-0.082-0.188-0.188-0.188h-2.636c-0.005 0-0.010 0-0.019 0s-0.014 0-0.019 0zM19.859 19.45c-0.106 0.010-0.179 0.101-0.169 0.208s0.101 0.179 0.208 0.169v0h2.636c0.106 0 0.188-0.082 0.188-0.188s-0.082-0.188-0.188-0.188h-2.636c-0.005 0-0.010 0-0.019 0-0.005 0-0.010 0-0.019 0zM18.749 20.57c-0.010 0-0.014 0.005-0.024 0.005-0.087 0.019-0.15 0.097-0.145 0.188v2.636c0 0.106 0.082 0.188 0.188 0.188s0.188-0.082 0.188-0.188v-2.636c0.005-0.106-0.077-0.193-0.183-0.193-0.005 0-0.014 0-0.024 0zM19.879 20.57c-0.010 0-0.014 0.005-0.024 0.005-0.101 0.019-0.169 0.116-0.15 0.217 0.010 0.039 0.029 0.077 0.058 0.106l2.259 2.259c0.072 0.072 0.198 0.072 0.27 0s0.072-0.198 0-0.27l-2.259-2.259c-0.039-0.039-0.097-0.063-0.154-0.058v0z"></path>
</svg>
