<?xml version="1.0" encoding="utf-8"?>
<!-- Generated by IcoMoon.io -->
<!DOCTYPE svg PUBLIC "-//W3C//DTD SVG 1.1//EN" "http://www.w3.org/Graphics/SVG/1.1/DTD/svg11.dtd">
<svg version="1.1" xmlns="http://www.w3.org/2000/svg" xmlns:xlink="http://www.w3.org/1999/xlink" width="32" height="32" viewBox="0 0 32 32">
<path d="M30.868 19.535c-0.532 0-1.068 0.4-1.068 1.068v7.4h-27.4v-7.4c0-0.532-0.4-1.068-1.068-1.068s-1.068 0.4-1.068 1.068v8.464c0 0.532 0.4 1.068 1.068 1.068h29.468c0.532 0 1.068-0.4 1.068-1.068v-8.468c-0.068-0.532-0.468-1.064-1-1.064zM8.932 10.135c-0.4 0.468-0.4 1.132 0 1.532 0.468 0.4 1.132 0.4 1.532 0l4.536-5.2v16.2c0 0.668 0.532 1.068 1.068 1.068 0.532 0 1.068-0.4 1.068-1.068v-16l4.532 5.2c0.468 0.4 1.132 0.4 1.532 0 0.4-0.468 0.4-1.132 0-1.532l-6.332-7.4c-0.268-0.132-0.532-0.268-0.8-0.268s-0.532 0-0.8 0.268l-6.336 7.2z"></path>
</svg>
