<?xml version="1.0" encoding="utf-8"?>
<!-- Generated by IcoMoon.io -->
<!DOCTYPE svg PUBLIC "-//W3C//DTD SVG 1.1//EN" "http://www.w3.org/Graphics/SVG/1.1/DTD/svg11.dtd">
<svg version="1.1" xmlns="http://www.w3.org/2000/svg" xmlns:xlink="http://www.w3.org/1999/xlink" width="32" height="32" viewBox="0 0 32 32">
<path d="M31.733 23.8v0c0-0.067 0-0.2 0-0.267 0 0 0 0 0-0.067-0.2-3-1.933-5.533-4.467-6.667 0.933-0.867 1.533-2.067 1.533-3.4 0-2.533-2.067-4.6-4.6-4.6s-4.6 2.067-4.6 4.6c0 1.333 0.6 2.467 1.533 3.4-0.8 0.4-1.6 0.933-2.2 1.667-0.733-0.6-1.533-1.133-2.467-1.533 1.4-1.267 2.267-3.133 2.267-5.133-0.067-3.933-3.2-7.133-7.067-7.133-3.933 0-7.067 3.2-7.067 7.067 0 2.067 0.867 3.8 2.267 5.133-3.933 1.867-6.533 6.067-6.6 10.667v0c0 0.133 0 0.267 0 0.4 0 0.267 0.2 0.6 0.6 0.6s0.6-0.2 0.6-0.6c0-0.2 0-0.333 0-0.533 0.333-4.467 3.133-8.067 7.133-9.333 0.933 0.467 1.933 0.733 3.067 0.733s2.267-0.267 3.2-0.8c4.067 1.267 7 5.2 7.267 9.533v0c0 0.133 0 0.267 0 0.4 0 0.267 0.2 0.6 0.467 0.6s0.6-0.2 0.6-0.6c0-0.133 0-0.267 0-0.4v0c0-0.133 0-0.267 0-0.4 0 0 0-0.067 0-0.067-0.2-3.133-1.533-5.933-3.6-7.933 0.733-0.667 1.6-1.2 2.533-1.533 0.6 0.267 1.267 0.467 2 0.467s1.467-0.2 2.067-0.533c2.667 0.867 4.6 3.4 4.8 6.267v0c0 0.067 0 0.2 0 0.267 0 0.2 0.133 0.4 0.333 0.4s0.4-0.133 0.4-0.4c0-0.133 0-0.2 0-0.267zM11.533 17.4c-3.133 0-5.6-2.6-5.6-5.667 0-3.133 2.6-5.667 5.667-5.667 3.133 0 5.6 2.6 5.6 5.667s-2.533 5.667-5.667 5.667zM24.067 17.133c-2.067 0-3.667-1.667-3.667-3.733s1.667-3.733 3.733-3.733 3.667 1.667 3.667 3.733-1.667 3.733-3.733 3.733z"></path>
</svg>
