<?xml version="1.0" encoding="utf-8"?>
<!-- Generated by IcoMoon.io -->
<!DOCTYPE svg PUBLIC "-//W3C//DTD SVG 1.1//EN" "http://www.w3.org/Graphics/SVG/1.1/DTD/svg11.dtd">
<svg version="1.1" xmlns="http://www.w3.org/2000/svg" xmlns:xlink="http://www.w3.org/1999/xlink" width="32" height="32" viewBox="0 0 32 32">
<path d="M31.787 29.129l-15.147-25.671c-0.124-0.213-0.356-0.356-0.604-0.356s-0.48 0.124-0.604 0.356l-15.164 25.671c-0.124 0.231-0.142 0.498-0.018 0.729s0.356 0.373 0.622 0.373h30.293c0.249 0 0.498-0.142 0.622-0.373 0.142-0.231 0.142-0.498 0-0.729zM15.307 12.631c0-0.569 0.338-0.907 0.853-0.907 0.498 0 0.853 0.338 0.853 0.907v8.373c0 0.569-0.338 0.889-0.853 0.889-0.498 0-0.853-0.32-0.853-0.889v-8.373zM16.16 25.662c-0.622 0-1.156-0.533-1.156-1.156s0.533-1.156 1.156-1.156 1.156 0.533 1.156 1.156c0 0.64-0.533 1.156-1.156 1.156z"></path>
</svg>
