<svg xmlns="http://www.w3.org/2000/svg" width="24" height="24" viewBox="0 0 24 24"><rect class="nc-transparent-rect" width="24" height="24" rx="0" ry="0" fill="none"/><g class="nc-icon-wrapper" fill="inherit"><path d="M9 12c2.761 0 5-3.239 5-6V5A5 5 0 0 0 4 5v1c0 2.761 2.239 6 5 6zM16.257 15.315c-.093-.043-.184-.088-.283-.121C14.329 14.638 11.824 14 9 14s-5.329.638-6.974 1.193A2.99 2.99 0 0 0 0 18.032V22h14.349A5.97 5.97 0 0 1 14 20c0-1.897.883-3.586 2.257-4.685z"/><path data-color="color-2" d="M21 16h-2v3h-3v2h3v3h2v-3h3v-2h-3z"/></g></svg>