<svg xmlns="http://www.w3.org/2000/svg" width="24" height="24"><path d="M22.6 10.8a.996.996 0 0 0-1.402-.098l-8.699 8.699c-1.009.974-2.385 1.573-3.9 1.573s-2.891-.6-3.902-1.575c-.988-1-1.6-2.378-1.6-3.898s.611-2.898 1.602-3.901l7.799-7.799c.617-.648 1.486-1.052 2.45-1.052s1.833.403 2.449 1.05a3.312 3.312 0 0 1 1.004 2.378l-.002.129a3.986 3.986 0 0 1-1.003 2.498L10.3 16a1.485 1.485 0 0 1-2.1-2.1l6-6.1a1 1 0 0 0-1.403-1.398L6.8 12.4c-.648.617-1.051 1.486-1.051 2.45s.403 1.833 1.05 2.449c.637.65 1.522 1.052 2.501 1.052s1.864-.402 2.499-1.05L18.9 10.2c.974-1.009 1.573-2.385 1.573-3.9s-.6-2.891-1.575-3.902C17.901 1.403 16.522.786 15 .786s-2.901.617-3.9 1.614l-7.8 7.8A7.558 7.558 0 0 0 1 15.598 7.466 7.466 0 0 0 3.2 20.9c1.355 1.36 3.229 2.202 5.3 2.202s3.945-.842 5.3-2.201l8.8-8.8a.85.85 0 0 0 .001-1.299z"/></svg>