<!-- Generated by IcoMoon.io -->
<svg version="1.1" xmlns="http://www.w3.org/2000/svg" width="24" height="24" viewBox="0 0 24 24">
<title>attachment</title>
<path d="M22.6 10.8c-0.184-0.209-0.452-0.339-0.751-0.339-0.248 0-0.476 0.091-0.651 0.241l-8.699 8.699c-1.009 0.974-2.385 1.573-3.9 1.573s-2.891-0.6-3.902-1.575c-0.988-1-1.6-2.378-1.6-3.898s0.611-2.898 1.602-3.901l7.799-7.799c0.617-0.648 1.486-1.052 2.45-1.052s1.833 0.403 2.449 1.050c0.62 0.605 1.004 1.447 1.004 2.378 0 0.043-0.001 0.086-0.002 0.129-0.037 0.958-0.409 1.828-1.003 2.498l-7.096 7.196c-0.269 0.269-0.64 0.435-1.050 0.435-0.82 0-1.485-0.665-1.485-1.485 0-0.41 0.166-0.781 0.435-1.050l6-6.1c0.125-0.165 0.2-0.374 0.2-0.6 0-0.552-0.448-1-1-1-0.226 0-0.435 0.075-0.603 0.202l-5.997 5.998c-0.648 0.617-1.051 1.486-1.051 2.45s0.403 1.833 1.050 2.449c0.637 0.65 1.522 1.052 2.501 1.052s1.864-0.402 2.499-1.050l7.101-7.101c0.974-1.009 1.573-2.385 1.573-3.9s-0.6-2.891-1.575-3.902c-0.997-0.995-2.376-1.612-3.898-1.612s-2.901 0.617-3.9 1.614l-7.8 7.8c-1.41 1.37-2.289 3.281-2.3 5.398 0.001 2.073 0.841 3.947 2.2 5.302 1.355 1.36 3.229 2.202 5.3 2.202s3.945-0.842 5.3-2.201l8.8-8.8c0.185-0.157 0.302-0.39 0.302-0.65s-0.117-0.493-0.301-0.649z"></path>
</svg>
