<!-- Generated by IcoMoon.io -->
<svg version="1.1" xmlns="http://www.w3.org/2000/svg" width="24" height="24" viewBox="0 0 24 24">
<title>bulb-full</title>
<path d="M0 11h3v2h-3v-2z"></path>
<path d="M2.807 4.222l1.414-1.414 2.121 2.121-1.414 1.414-2.121-2.121z"></path>
<path d="M11 0h2v3h-2v-3z"></path>
<path d="M17.657 4.929l2.121-2.121 1.414 1.414-2.121 2.121-1.414-1.414z"></path>
<path d="M21 11h3v2h-3v-2z"></path>
<path d="M12 5c-3.86 0-7 3.141-7 7 0 2.714 1.581 5.17 4 6.319v4.681h6v-4.681c2.419-1.148 4-3.604 4-6.319 0-3.859-3.14-7-7-7z"></path>
</svg>
