<svg xmlns="http://www.w3.org/2000/svg" width="24" height="24" viewBox="0 0 24 24"><path d="M3 11H1c-.6 0-1 .4-1 1s.4 1 1 1h2c.6 0 1-.4 1-1s-.4-1-1-1zM6.3 6.3c.4-.4.4-1 0-1.4L4.9 3.5c-.4-.4-1-.4-1.4 0s-.4 1 0 1.4l1.4 1.4c.2.2.4.3.7.3s.5-.1.7-.3zM12 4c.6 0 1-.4 1-1V1c0-.6-.4-1-1-1s-1 .4-1 1v2c0 .6.4 1 1 1zM20.5 3.5c-.4-.4-1-.4-1.4 0l-1.4 1.4c-.4.4-.4 1 0 1.4.2.2.4.3.7.3s.5-.1.7-.3l1.4-1.4c.4-.4.4-1 0-1.4zM23 11h-2c-.6 0-1 .4-1 1s.4 1 1 1h2c.6 0 1-.4 1-1s-.4-1-1-1zM12 5c-3.9 0-7 3.1-7 7 0 2.6 1.6 5.1 4 6.3V20c0 .6.4 1 1 1h4c.6 0 1-.4 1-1v-1.7c2.4-1.2 4-3.6 4-6.3 0-3.9-3.1-7-7-7zm1.6 11.8c-.3.1-.6.5-.6.9V19h-2v-1.3c0-.4-.2-.7-.6-.9C8.4 16 7 14.1 7 12c0-2.8 2.2-5 5-5s5 2.2 5 5c0 2.1-1.4 4-3.4 4.8zM14 22h-4c-.6 0-1 .4-1 1s.4 1 1 1h4c.6 0 1-.4 1-1s-.4-1-1-1z"/></svg>