<svg xmlns="http://www.w3.org/2000/svg" width="24" height="24"><rect class="nc-transparent-rect" width="24" height="24" rx="0" ry="0" fill="none"/><g class="nc-icon-wrapper" stroke-linecap="round" stroke-linejoin="round" stroke-width="2" fill="none" stroke="inherit" stroke-miterlimit="10"><path data-color="color-2" d="M12 8c1.104 0 2-.896 2-2s-2-4-2-4-2 2.896-2 4 .896 2 2 2z"/><path d="M1 15h22v8H1z"/><path d="M23 15a4 4 0 0 1-4 4c-1.518 0-2.822-.855-3.5-2.101C14.822 18.145 13.518 19 12 19s-2.822-.855-3.5-2.101C7.822 18.145 6.518 19 5 19a4 4 0 0 1-4-4M20 15v-4H4v4"/></g></svg>