<!-- Generated by IcoMoon.io -->
<svg version="1.1" xmlns="http://www.w3.org/2000/svg" width="24" height="24" viewBox="0 0 24 24">
<title>calendar-full</title>
<path d="M23 2h-4v-2h-2v2h-4v-2h-2v2h-4v-2h-2v2h-4c-0.552 0-1 0.448-1 1v20c0 0.552 0.448 1 1 1h22c0.552 0 1-0.448 1-1v-20c0-0.552-0.448-1-1-1zM22 22h-20v-14h20v14z"></path>
<path d="M4 11h4v3h-4v-3z"></path>
<path d="M10 11h4v3h-4v-3z"></path>
<path d="M4 16h4v3h-4v-3z"></path>
<path d="M10 16h4v3h-4v-3z"></path>
<path d="M16 11h4v3h-4v-3z"></path>
</svg>
