<svg xmlns="http://www.w3.org/2000/svg" width="24" height="24" viewBox="0 0 24 24"><title>calendar</title><path d="M23 2h-4V1c0-.6-.4-1-1-1s-1 .4-1 1v1h-4V1c0-.6-.4-1-1-1s-1 .4-1 1v1H7V1c0-.6-.4-1-1-1S5 .4 5 1v1H1c-.6 0-1 .4-1 1v20c0 .6.4 1 1 1h22c.6 0 1-.4 1-1V3c0-.6-.4-1-1-1zM2 4h3v1c0 .6.4 1 1 1s1-.4 1-1V4h4v1c0 .6.4 1 1 1s1-.4 1-1V4h4v1c0 .6.4 1 1 1s1-.4 1-1V4h3v4H2V4zm0 18V10h20v12H2z"/><path d="M7 12H5c-.6 0-1 .4-1 1v1c0 .6.4 1 1 1h2c.6 0 1-.4 1-1v-1c0-.6-.4-1-1-1zM13 12h-2c-.6 0-1 .4-1 1v1c0 .6.4 1 1 1h2c.6 0 1-.4 1-1v-1c0-.6-.4-1-1-1zM7 17H5c-.6 0-1 .4-1 1v1c0 .6.4 1 1 1h2c.6 0 1-.4 1-1v-1c0-.6-.4-1-1-1zM13 17h-2c-.6 0-1 .4-1 1v1c0 .6.4 1 1 1h2c.6 0 1-.4 1-1v-1c0-.6-.4-1-1-1zM19 12h-2c-.6 0-1 .4-1 1v1c0 .6.4 1 1 1h2c.6 0 1-.4 1-1v-1c0-.6-.4-1-1-1z"/></svg>