<!-- Generated by IcoMoon.io -->
<svg version="1.1" xmlns="http://www.w3.org/2000/svg" width="24" height="24" viewBox="0 0 24 24">
<title>camera</title>
<path d="M23 4h-3.5l-1.7-2.6c-0.2-0.2-0.5-0.4-0.8-0.4h-6c-0.3 0-0.6 0.2-0.8 0.4l-1.7 2.6h-7.5c-0.6 0-1 0.4-1 1v17c0 0.6 0.4 1 1 1h22c0.6 0 1-0.4 1-1v-17c0-0.6-0.4-1-1-1zM22 21h-20v-15h7c0.3 0 0.6-0.2 0.8-0.4l1.7-2.6h4.9l1.7 2.6c0.3 0.2 0.6 0.4 0.9 0.4h3v15z"></path>
<path d="M14 7c-3.3 0-6 2.7-6 6s2.7 6 6 6 6-2.7 6-6-2.7-6-6-6zM14 17c-2.2 0-4-1.8-4-4s1.8-4 4-4c2.2 0 4 1.8 4 4s-1.8 4-4 4z"></path>
<path d="M6 9c0 0.552-0.448 1-1 1s-1-0.448-1-1c0-0.552 0.448-1 1-1s1 0.448 1 1z"></path>
</svg>
