<!-- Generated by IcoMoon.io -->
<svg version="1.1" xmlns="http://www.w3.org/2000/svg" width="24" height="24" viewBox="0 0 24 24">
<title>chart-bars-full</title>
<path d="M0 20h24v2h-24v-2z"></path>
<path d="M4 18h2c0.552 0 1-0.448 1-1v-9c0-0.552-0.448-1-1-1h-2c-0.552 0-1 0.448-1 1v9c0 0.552 0.448 1 1 1z"></path>
<path d="M11 18h2c0.552 0 1-0.448 1-1v-14c0-0.552-0.448-1-1-1h-2c-0.552 0-1 0.448-1 1v14c0 0.552 0.448 1 1 1z"></path>
<path d="M17 12v5c0 0.552 0.448 1 1 1h2c0.552 0 1-0.448 1-1v-5c0-0.552-0.448-1-1-1h-2c-0.552 0-1 0.448-1 1z"></path>
</svg>
