<!-- Generated by IcoMoon.io -->
<svg version="1.1" xmlns="http://www.w3.org/2000/svg" width="24" height="24" viewBox="0 0 24 24">
<title>chart-bars</title>
<path d="M23 20h-22c-0.6 0-1 0.4-1 1s0.4 1 1 1h22c0.6 0 1-0.4 1-1s-0.4-1-1-1z"></path>
<path d="M2 18h4c0.6 0 1-0.4 1-1v-9c0-0.6-0.4-1-1-1h-4c-0.6 0-1 0.4-1 1v9c0 0.6 0.4 1 1 1zM3 9h2v7h-2v-7z"></path>
<path d="M10 18h4c0.6 0 1-0.4 1-1v-14c0-0.6-0.4-1-1-1h-4c-0.6 0-1 0.4-1 1v14c0 0.6 0.4 1 1 1zM11 4h2v12h-2v-12z"></path>
<path d="M18 18h4c0.6 0 1-0.4 1-1v-5c0-0.6-0.4-1-1-1h-4c-0.6 0-1 0.4-1 1v5c0 0.6 0.4 1 1 1zM19 13h2v3h-2v-3z"></path>
</svg>
