<!-- Generated by IcoMoon.io -->
<svg version="1.1" xmlns="http://www.w3.org/2000/svg" width="24" height="24" viewBox="0 0 24 24">
<title>chat-full</title>
<path d="M21.965 9.575c-0.361 5.246-5.581 9.425-11.965 9.425-0.465 0-0.931-0.026-1.394-0.072 2.013 1.586 4.939 2.376 7.946 1.967l5.448 2.723v-5.215c1.293-1.243 2-2.791 2-4.403 0-1.627-0.723-3.178-2.035-4.425z"></path>
<path d="M10 1c-5.523 0-10 3.582-10 8 0 1.797 0.75 3.45 2 4.785v5.215l4.833-2.416c0.996 0.266 2.059 0.416 3.167 0.416 5.523 0 10-3.582 10-8s-4.477-8-10-8z"></path>
</svg>
