<svg xmlns="http://www.w3.org/2000/svg" width="24" height="24" viewBox="0 0 24 24"><title>chat</title><path d="M22 9.5V9c0-5-4.9-9-11-9S0 4 0 9c0 1.9.7 3.6 2 5.2V19c0 .3.2.7.5.9.1.1.3.1.5.1s.3 0 .4-.2l4.1-2c1.9 2.3 5.4 3.6 9.1 3.1l4 2c.1.1.2.1.4.1s.4 0 .5-.1c.3-.2.5-.6.5-.9v-3.6c1.3-1.2 2-2.8 2-4.4 0-1.7-.7-3.2-2-4.5zM3.7 13.1C2.6 11.9 2 10.5 2 9c0-3.9 4-7 9-7s9 3.1 9 7-4 7-9 7c-.9 0-1.8-.1-2.6-.3-.3-.2-.7-.2-1.1 0-.1 0-.1.1-.1.1L4 17.4v-3.6c0-.3-.1-.5-.3-.7zm16.7 4.1c-.3.2-.4.5-.4.8v2.3l-2.8-1.4c-.2-.1-.4-.1-.6-.1-2 .3-4 0-5.5-.8 4.8 0 8.8-2.5 10.3-6 .4.6.6 1.3.6 2 0 1.2-.5 2.3-1.6 3.2z"/></svg>