<!-- Generated by IcoMoon.io -->
<svg version="1.1" xmlns="http://www.w3.org/2000/svg" width="24" height="24" viewBox="0 0 24 24">
<title>close-circle-full</title>
<path d="M12 0c-6.6 0-12 5.4-12 12s5.4 12 12 12 12-5.4 12-12-5.4-12-12-12zM16.7 15.3c0.4 0.4 0.4 1 0 1.4-0.2 0.2-0.4 0.3-0.7 0.3s-0.5-0.1-0.7-0.3l-3.3-3.3-3.3 3.3c-0.2 0.2-0.4 0.3-0.7 0.3s-0.5-0.1-0.7-0.3c-0.4-0.4-0.4-1 0-1.4l3.3-3.3-3.3-3.3c-0.4-0.4-0.4-1 0-1.4s1-0.4 1.4 0l3.3 3.3 3.3-3.3c0.4-0.4 1-0.4 1.4 0s0.4 1 0 1.4l-3.3 3.3 3.3 3.3z"></path>
</svg>
