<svg xmlns="http://www.w3.org/2000/svg" width="24" height="24" viewBox="0 0 24 24"><path d="M12 0C5.4 0 0 5.4 0 12s5.4 12 12 12 12-5.4 12-12S18.6 0 12 0zm0 22C6.5 22 2 17.5 2 12S6.5 2 12 2s10 4.5 10 10-4.5 10-10 10z"/><path d="M12 9c-.5 0-.9.1-1.3.3l-3-3c-.4-.4-1-.4-1.4 0s-.4 1 0 1.4l3 3c-.2.4-.3.8-.3 1.3 0 1.7 1.3 3 3 3s3-1.3 3-3-1.3-3-3-3zm0 4c-.6 0-1-.4-1-1 0-.3.1-.5.2-.7h.1v-.1c.2-.1.4-.2.7-.2.6 0 1 .4 1 1s-.4 1-1 1zM12 7c.6 0 1-.4 1-1V5c0-.6-.4-1-1-1s-1 .4-1 1v1c0 .6.4 1 1 1zM17.6 7.8c.4-.4.4-1 0-1.4s-1-.4-1.4 0l-.7.7c-.4.4-.4 1 0 1.4.2.2.4.3.7.3s.6-.1.8-.3l.6-.7zM19 11h-1c-.6 0-1 .4-1 1s.4 1 1 1h1c.6 0 1-.4 1-1s-.4-1-1-1zM6 11H5c-.6 0-1 .4-1 1s.4 1 1 1h1c.6 0 1-.4 1-1s-.4-1-1-1z"/></svg>