<!-- Generated by IcoMoon.io -->
<svg version="1.1" xmlns="http://www.w3.org/2000/svg" width="24" height="24" viewBox="0 0 24 24">
<title>desktop-full</title>
<path d="M13 5c0 0.552-0.448 1-1 1s-1-0.448-1-1c0-0.552 0.448-1 1-1s1 0.448 1 1z"></path>
<path d="M21 0h-18c-1.654 0-3 1.346-3 3v14c0 1.654 1.346 3 3 3h7v2h-4c-0.552 0-1 0.448-1 1s0.448 1 1 1h12c0.552 0 1-0.448 1-1s-0.448-1-1-1h-4v-2h7c1.654 0 3-1.346 3-3v-14c0-1.654-1.346-3-3-3zM22 15h-20v-12c0-0.552 0.448-1 1-1h18c0.552 0 1 0.448 1 1v12z"></path>
</svg>
