<!-- Generated by IcoMoon.io -->
<svg version="1.1" xmlns="http://www.w3.org/2000/svg" width="24" height="24" viewBox="0 0 24 24">
<title>download</title>
<path d="M14.3 18.3l-1.3 1.3v-10.6c0-0.6-0.4-1-1-1s-1 0.4-1 1v10.6l-1.3-1.3c-0.4-0.4-1-0.4-1.4 0s-0.4 1 0 1.4l2.9 2.9c0.2 0.3 0.4 0.4 0.8 0.4s0.6-0.2 0.8-0.4l2.9-2.9c0.4-0.4 0.4-1 0-1.4s-1-0.4-1.4 0z"></path>
<path d="M22.5 8.5c-0.7-0.8-1.6-1.2-2.6-1.4-0.7-4.1-4.2-7.1-8.4-7.1-4.3 0-7.9 3.2-8.4 7.4-1.9 0.8-3.1 2.6-3.1 4.6 0 2.8 2.2 5 5 5h2c0.6 0 1-0.4 1-1s-0.4-1-1-1h-2c-1.7 0-3-1.3-3-3 0-1.4 0.9-2.6 2.3-2.9 0.4-0.1 0.7-0.5 0.7-0.9 0.2-3.5 3-6.2 6.5-6.2 3.4 0 6.3 2.7 6.5 6.1 0 0.5 0.5 0.9 1 0.9 0.8 0 1.5 0.3 2.1 0.9 0.6 0.5 0.9 1.3 0.9 2.1 0 1.7-1.3 3-3 3h-2c-0.6 0-1 0.4-1 1s0.4 1 1 1h2c2.8 0 5-2.2 5-5 0-1.3-0.5-2.6-1.5-3.5z"></path>
</svg>
