<svg xmlns="http://www.w3.org/2000/svg" width="24" height="24" viewBox="0 0 24 24"><title>download</title><path d="M14.3 18.3L13 19.6V9c0-.6-.4-1-1-1s-1 .4-1 1v10.6l-1.3-1.3c-.4-.4-1-.4-1.4 0s-.4 1 0 1.4l2.9 2.9c.2.3.4.4.8.4s.6-.2.8-.4l2.9-2.9c.4-.4.4-1 0-1.4s-1-.4-1.4 0z"/><path d="M22.5 8.5c-.7-.8-1.6-1.2-2.6-1.4C19.2 3 15.7 0 11.5 0 7.2 0 3.6 3.2 3.1 7.4 1.2 8.2 0 10 0 12c0 2.8 2.2 5 5 5h2c.6 0 1-.4 1-1s-.4-1-1-1H5c-1.7 0-3-1.3-3-3 0-1.4.9-2.6 2.3-2.9.4-.1.7-.5.7-.9C5.2 4.7 8 2 11.5 2c3.4 0 6.3 2.7 6.5 6.1 0 .5.5.9 1 .9.8 0 1.5.3 2.1.9.6.5.9 1.3.9 2.1 0 1.7-1.3 3-3 3h-2c-.6 0-1 .4-1 1s.4 1 1 1h2c2.8 0 5-2.2 5-5 0-1.3-.5-2.6-1.5-3.5z"/></svg>