<svg xmlns="http://www.w3.org/2000/svg" width="24" height="24" viewBox="0 0 24 24"><path d="M23 12c0-.4-.2-.6-.4-.8l-2.9-2.9c-.4-.4-1-.4-1.4 0s-.4 1 0 1.4l1.3 1.3H13V4.4l1.3 1.3c.2.2.4.3.7.3s.5-.1.7-.3c.4-.4.4-1 0-1.4l-2.9-2.9c-.2-.2-.4-.4-.8-.4s-.6.2-.8.4L8.3 4.3c-.4.4-.4 1 0 1.4s1 .4 1.4 0L11 4.4V11H4.4l1.3-1.3c.4-.4.4-1 0-1.4s-1-.4-1.4 0l-2.9 2.9c-.2.2-.4.4-.4.8s.2.6.4.8l2.9 2.9c.2.2.4.3.7.3s.5-.1.7-.3c.4-.4.4-1 0-1.4L4.4 13H11v6.6l-1.3-1.3c-.4-.4-1-.4-1.4 0s-.4 1 0 1.4l2.9 2.9c.2.3.4.4.8.4s.6-.2.8-.4l2.9-2.9c.4-.4.4-1 0-1.4s-1-.4-1.4 0L13 19.6V13h6.6l-1.3 1.3c-.4.4-.4 1 0 1.4.2.2.4.3.7.3s.5-.1.7-.3l2.9-2.9c.2-.2.4-.4.4-.8z"/></svg>