<!-- Generated by IcoMoon.io -->
<svg version="1.1" xmlns="http://www.w3.org/2000/svg" width="24" height="24" viewBox="0 0 24 24">
<title>erase</title>
<path d="M16.7 16.7v0l5.4-5.4c0.6-0.5 0.9-1.3 0.9-2.1s-0.4-1.5-0.9-2.1l-5.2-5.2c-1.1-1.2-3-1.2-4.2 0l-5.4 5.4c0 0 0 0 0 0s0 0 0 0l-5.6 5.6c-1.2 1.1-1.2 3 0 4.2l3.9 3.9h-2.6c-0.6 0-1 0.4-1 1s0.4 1 1 1h18c0.6 0 1-0.4 1-1s-0.4-1-1-1h-8.6l4.3-4.3c0 0 0 0 0 0zM14.1 3.3c0.2-0.2 0.4-0.3 0.7-0.3 0.2 0 0.5 0.1 0.7 0.3l5.2 5.2c0.2 0.2 0.3 0.4 0.3 0.7s-0.2 0.5-0.3 0.7l-4.7 4.7-6.6-6.6 4.7-4.7zM8.4 21l-5.3-5.3c-0.4-0.4-0.4-1 0-1.4l4.9-4.9 6.6 6.6-5 5h-1.2z"></path>
</svg>
