<svg xmlns="http://www.w3.org/2000/svg" width="24" height="24" viewBox="0 0 24 24"><path d="M1 8c.6 0 1-.4 1-1V2h5c.6 0 1-.4 1-1s-.4-1-1-1H1C.4 0 0 .4 0 1v6c0 .6.4 1 1 1zM23 0h-6c-.6 0-1 .4-1 1s.4 1 1 1h5v5c0 .6.4 1 1 1s1-.4 1-1V1c0-.6-.4-1-1-1zM23 16c-.6 0-1 .4-1 1v5h-5c-.6 0-1 .4-1 1s.4 1 1 1h6c.6 0 1-.4 1-1v-6c0-.6-.4-1-1-1zM7 22H2v-5c0-.6-.4-1-1-1s-1 .4-1 1v6c0 .6.4 1 1 1h6c.6 0 1-.4 1-1s-.4-1-1-1zM12 7c-2.8 0-5 2.2-5 5s2.2 5 5 5 5-2.2 5-5-2.2-5-5-5zm0 8c-1.7 0-3-1.3-3-3s1.3-3 3-3 3 1.3 3 3-1.3 3-3 3z"/></svg>