<!-- Generated by IcoMoon.io -->
<svg version="1.1" xmlns="http://www.w3.org/2000/svg" width="24" height="24" viewBox="0 0 24 24">
<title>eye-hide-full</title>
<path d="M6.524 17.476l1.486-1.486c-2.324-1.171-4.021-3.061-4.762-3.993 0.658-0.832 2.075-2.425 4.024-3.59-0.172 0.501-0.272 1.034-0.272 1.593 0 1.894 1.071 3.525 2.627 4.373l7.85-7.85c-1.553-0.878-3.395-1.523-5.477-1.523-6.494 0-10.66 6.185-10.834 6.448-0.222 0.335-0.222 0.771 0.002 1.106 0.119 0.179 2.089 3.074 5.356 4.922z"></path>
<path d="M19.956 8.286l-1.429 1.429c1.022 0.864 1.789 1.736 2.223 2.283-1.127 1.409-4.426 5.002-8.75 5.002-0.244 0-0.484-0.015-0.721-0.037l-1.731 1.731c0.776 0.191 1.592 0.306 2.452 0.306 6.428 0 10.653-6.179 10.83-6.442 0.226-0.336 0.227-0.775 0.002-1.112-0.085-0.128-1.114-1.635-2.876-3.16z"></path>
<path d="M3 22c-0.256 0-0.512-0.098-0.707-0.293-0.391-0.391-0.391-1.023 0-1.414l19-19c0.391-0.391 1.023-0.391 1.414 0s0.391 1.023 0 1.414l-19 19c-0.195 0.195-0.451 0.293-0.707 0.293z"></path>
</svg>
