<!-- Generated by IcoMoon.io -->
<svg version="1.1" xmlns="http://www.w3.org/2000/svg" width="24" height="24" viewBox="0 0 24 24">
<title>eye-full</title>
<path d="M22.832 11.445c-0.176-0.263-4.371-6.445-10.832-6.445-6.494 0-10.66 6.185-10.834 6.448-0.222 0.335-0.222 0.771 0.002 1.106 0.176 0.264 4.371 6.446 10.832 6.446 6.428 0 10.653-6.179 10.83-6.442 0.226-0.336 0.227-0.776 0.002-1.113zM12 17c-4.35 0-7.635-3.596-8.753-5.002 0.658-0.832 2.075-2.425 4.024-3.59-0.171 0.5-0.271 1.033-0.271 1.592 0 2.757 2.243 5 5 5s5-2.243 5-5c0-0.555-0.099-1.085-0.268-1.582 1.94 1.164 3.357 2.75 4.018 3.581-1.127 1.408-4.426 5.001-8.75 5.001z"></path>
</svg>
