<svg xmlns="http://www.w3.org/2000/svg" width="24" height="24" viewBox="0 0 24 24"><path d="M22.8 12.4c-.1-.1-2.2-3.3-5.7-5.1l2.6-2.6c.4-.4.4-1 0-1.4s-1-.4-1.4 0l-3.2 3.2c-1-.3-2-.5-3.1-.5-6.5 0-10.7 6.2-10.8 6.5-.2.3-.2.8 0 1.1.1.1 1.2 1.9 3.3 3.5l-2.2 2.2c-.4.4-.4 1 0 1.4.2.2.4.3.7.3s.5-.1.7-.3l2.4-2.4c1.6 1 3.6 1.7 5.9 1.7 6.5 0 10.7-6.2 10.8-6.5.2-.3.2-.8 0-1.1zM15 11c0 1.7-1.3 3-3 3-.5 0-.9-.1-1.3-.3l4-4c.2.4.3.8.3 1.3zm-6 0c0-1.7 1.3-3 3-3 .5 0 .9.1 1.3.3l-4 4c-.2-.4-.3-.8-.3-1.3zm-5.8 2c.7-.8 2.1-2.4 4.1-3.6-.2.5-.3 1-.3 1.6 0 1 .3 2 .8 2.8l-1.9 1.9c-1.3-1-2.2-2.1-2.7-2.7zm8.8 5c-1.6 0-3.1-.5-4.4-1.2l1.6-1.6c.8.5 1.8.8 2.8.8 2.8 0 5-2.2 5-5 0-.6-.1-1.1-.3-1.6 2 1.2 3.4 2.8 4.1 3.6-1.2 1.4-4.4 5-8.8 5z"/></svg>