<!-- Generated by IcoMoon.io -->
<svg version="1.1" xmlns="http://www.w3.org/2000/svg" width="24" height="24" viewBox="0 0 24 24">
<title>fast-forward-full</title>
<path d="M4.6 2.2c-0.303-0.228-0.709-0.263-1.047-0.095-0.339 0.17-0.553 0.516-0.553 0.895v18c0 0.379 0.214 0.725 0.553 0.895 0.141 0.070 0.295 0.105 0.447 0.105 0.212 0 0.424-0.067 0.6-0.2l12-9c0.252-0.188 0.4-0.485 0.4-0.8s-0.148-0.611-0.4-0.8l-12-9z"></path>
<path d="M20 2c-0.553 0-1 0.447-1 1v18c0 0.553 0.447 1 1 1s1-0.447 1-1v-18c0-0.553-0.447-1-1-1z"></path>
</svg>
