<!-- Generated by IcoMoon.io -->
<svg version="1.1" xmlns="http://www.w3.org/2000/svg" width="24" height="24" viewBox="0 0 24 24">
<title>fast-backward-full</title>
<path d="M16.447 2.105c-0.339-0.168-0.743-0.133-1.047 0.095l-12 9c-0.252 0.189-0.4 0.486-0.4 0.8s0.148 0.611 0.4 0.8l12 9c0.177 0.133 0.388 0.2 0.6 0.2 0.152 0 0.306-0.035 0.447-0.105 0.339-0.17 0.553-0.516 0.553-0.895v-18c0-0.379-0.214-0.725-0.553-0.895z"></path>
<path d="M20 2c-0.552 0-1 0.447-1 1v18c0 0.553 0.448 1 1 1s1-0.447 1-1v-18c0-0.553-0.448-1-1-1z"></path>
</svg>
