<!-- Generated by IcoMoon.io -->
<svg version="1.1" xmlns="http://www.w3.org/2000/svg" width="24" height="24" viewBox="0 0 24 24">
<title>file-pdf</title>
<path d="M22 0h-20c-0.6 0-1 0.4-1 1v22c0 0.6 0.4 1 1 1h20c0.6 0 1-0.4 1-1v-22c0-0.6-0.4-1-1-1zM21 22h-18v-20h18v20z"></path>
<path d="M15 7h2c0.6 0 1-0.4 1-1s-0.4-1-1-1h-2c-0.6 0-1 0.4-1 1s0.4 1 1 1z"></path>
<path d="M15 11h2c0.6 0 1-0.4 1-1s-0.4-1-1-1h-2c-0.6 0-1 0.4-1 1s0.4 1 1 1z"></path>
<path d="M7 15h10c0.6 0 1-0.4 1-1s-0.4-1-1-1h-10c-0.6 0-1 0.4-1 1s0.4 1 1 1z"></path>
<path d="M7 19h10c0.6 0 1-0.4 1-1s-0.4-1-1-1h-10c-0.6 0-1 0.4-1 1s0.4 1 1 1z"></path>
<path d="M7 11h4c0.6 0 1-0.4 1-1v-4c0-0.6-0.4-1-1-1h-4c-0.6 0-1 0.4-1 1v4c0 0.6 0.4 1 1 1zM8 7h2v2h-2v-2z"></path>
</svg>
