<!-- Generated by IcoMoon.io -->
<svg version="1.1" xmlns="http://www.w3.org/2000/svg" width="24" height="24" viewBox="0 0 24 24">
<title>file-code</title>
<path d="M22 0h-20c-0.6 0-1 0.4-1 1v22c0 0.6 0.4 1 1 1h20c0.6 0 1-0.4 1-1v-22c0-0.6-0.4-1-1-1zM21 22h-18v-20h18v20z"></path>
<path d="M8.3 15.7c0.2 0.2 0.4 0.3 0.7 0.3s0.5-0.1 0.7-0.3c0.4-0.4 0.4-1 0-1.4l-2.3-2.3 2.3-2.3c0.4-0.4 0.4-1 0-1.4s-1-0.4-1.4 0l-3 3c-0.4 0.4-0.4 1 0 1.4l3 3z"></path>
<path d="M14.3 15.7c0.2 0.2 0.4 0.3 0.7 0.3s0.5-0.1 0.7-0.3l3-3c0.4-0.4 0.4-1 0-1.4l-3-3c-0.4-0.4-1-0.4-1.4 0s-0.4 1 0 1.4l2.3 2.3-2.3 2.3c-0.4 0.4-0.4 1 0 1.4z"></path>
</svg>
