<svg xmlns="http://www.w3.org/2000/svg" width="24" height="24" viewBox="0 0 24 24"><title>file-pdf</title><path d="M22 0H2c-.6 0-1 .4-1 1v22c0 .6.4 1 1 1h20c.6 0 1-.4 1-1V1c0-.6-.4-1-1-1zm-1 22H3V2h18v20z"/><path d="M15 7h2c.6 0 1-.4 1-1s-.4-1-1-1h-2c-.6 0-1 .4-1 1s.4 1 1 1zM15 11h2c.6 0 1-.4 1-1s-.4-1-1-1h-2c-.6 0-1 .4-1 1s.4 1 1 1zM7 15h10c.6 0 1-.4 1-1s-.4-1-1-1H7c-.6 0-1 .4-1 1s.4 1 1 1zM7 19h10c.6 0 1-.4 1-1s-.4-1-1-1H7c-.6 0-1 .4-1 1s.4 1 1 1zM7 11h4c.6 0 1-.4 1-1V6c0-.6-.4-1-1-1H7c-.6 0-1 .4-1 1v4c0 .6.4 1 1 1zm1-4h2v2H8V7z"/></svg>