<!-- Generated by IcoMoon.io -->
<svg version="1.1" xmlns="http://www.w3.org/2000/svg" width="24" height="24" viewBox="0 0 24 24">
<title>gear</title>
<path d="M23 9h-2.5c-0.1-0.3-0.3-0.6-0.4-0.9l1.8-1.8c0.2-0.2 0.3-0.4 0.3-0.7s-0.1-0.5-0.3-0.7l-2.8-2.8c-0.4-0.4-1-0.4-1.4 0l-1.8 1.8c-0.3-0.2-0.6-0.3-0.9-0.4v-2.5c0-0.6-0.4-1-1-1h-4c-0.6 0-1 0.4-1 1v2.5c-0.3 0.1-0.6 0.2-0.9 0.4l-1.8-1.8c-0.4-0.4-1-0.4-1.4 0l-2.8 2.8c-0.4 0.4-0.4 1 0 1.4l1.8 1.8c-0.2 0.3-0.3 0.6-0.4 0.9h-2.5c-0.6 0-1 0.4-1 1v4c0 0.6 0.4 1 1 1h2.5c0.1 0.3 0.3 0.6 0.4 0.9l-1.8 1.8c-0.4 0.4-0.4 1 0 1.4l2.8 2.8c0.4 0.4 1 0.4 1.4 0l1.8-1.8c0.3 0.2 0.6 0.3 0.9 0.4v2.5c0 0.6 0.4 1 1 1h4c0.6 0 1-0.4 1-1v-2.5c0.3-0.1 0.6-0.3 0.9-0.4l1.8 1.8c0.4 0.4 1 0.4 1.4 0l2.8-2.8c0.4-0.4 0.4-1 0-1.4l-1.8-1.8c0.2-0.3 0.3-0.6 0.4-0.9h2.5c0.6 0 1-0.4 1-1v-4c0-0.6-0.4-1-1-1zM22 13h-2.3c-0.5 0-0.9 0.4-1 0.8-0.1 0.6-0.4 1.2-0.7 1.8-0.2 0.4-0.1 0.9 0.2 1.2l1.6 1.6-1.4 1.4-1.6-1.6c-0.3-0.4-0.8-0.4-1.2-0.2-0.6 0.3-1.2 0.5-1.8 0.7-0.5 0.1-0.8 0.5-0.8 1v2.3h-2l-0.1-2.4c0-0.5-0.3-0.9-0.7-1-0.6-0.1-1.2-0.4-1.8-0.7-0.4-0.2-0.9-0.1-1.2 0.2l-1.6 1.6-1.4-1.4 1.6-1.6c0.4-0.3 0.4-0.8 0.2-1.2-0.4-0.5-0.6-1.1-0.7-1.7-0.1-0.5-0.5-0.8-1-0.8h-2.3v-2h2.2c0.5 0 0.9-0.4 1-0.8 0.2-0.6 0.4-1.2 0.8-1.8 0.2-0.3 0.1-0.8-0.2-1.2l-1.6-1.6 1.4-1.4 1.6 1.6c0.4 0.3 0.9 0.4 1.2 0.2 0.6-0.4 1.2-0.6 1.8-0.7 0.5-0.1 0.8-0.5 0.8-1v-2.3h2v2.3c0 0.5 0.4 0.9 0.8 1 0.6 0.1 1.2 0.4 1.8 0.7 0.4 0.2 0.9 0.1 1.2-0.2l1.6-1.6 1.4 1.4-1.6 1.6c-0.4 0.3-0.4 0.8-0.2 1.2 0.4 0.6 0.6 1.2 0.7 1.9 0.1 0.4 0.5 0.7 1 0.7h2.3v2z"></path>
<path d="M12 8c-2.2 0-4 1.8-4 4s1.8 4 4 4 4-1.8 4-4-1.8-4-4-4zM12 14c-1.1 0-2-0.9-2-2s0.9-2 2-2 2 0.9 2 2-0.9 2-2 2z"></path>
</svg>
