<svg xmlns="http://www.w3.org/2000/svg" width="24" height="24" viewBox="0 0 24 24"><title>gear</title><path d="M23 9h-2.5c-.1-.3-.3-.6-.4-.9l1.8-1.8c.2-.2.3-.4.3-.7s-.1-.5-.3-.7l-2.8-2.8c-.4-.4-1-.4-1.4 0l-1.8 1.8c-.3-.2-.6-.3-.9-.4V1c0-.6-.4-1-1-1h-4c-.6 0-1 .4-1 1v2.5c-.3.1-.6.2-.9.4L6.3 2.1c-.4-.4-1-.4-1.4 0L2.1 4.9c-.4.4-.4 1 0 1.4l1.8 1.8c-.2.3-.3.6-.4.9H1c-.6 0-1 .4-1 1v4c0 .6.4 1 1 1h2.5c.1.3.3.6.4.9l-1.8 1.8c-.4.4-.4 1 0 1.4l2.8 2.8c.4.4 1 .4 1.4 0l1.8-1.8c.3.2.6.3.9.4V23c0 .6.4 1 1 1h4c.6 0 1-.4 1-1v-2.5c.3-.1.6-.3.9-.4l1.8 1.8c.4.4 1 .4 1.4 0l2.8-2.8c.4-.4.4-1 0-1.4l-1.8-1.8c.2-.3.3-.6.4-.9H23c.6 0 1-.4 1-1v-4c0-.6-.4-1-1-1zm-1 4h-2.3c-.5 0-.9.4-1 .8-.1.6-.4 1.2-.7 1.8-.2.4-.1.9.2 1.2l1.6 1.6-1.4 1.4-1.6-1.6c-.3-.4-.8-.4-1.2-.2-.6.3-1.2.5-1.8.7-.5.1-.8.5-.8 1V22h-2l-.1-2.4c0-.5-.3-.9-.7-1-.6-.1-1.2-.4-1.8-.7-.4-.2-.9-.1-1.2.2l-1.6 1.6-1.4-1.4 1.6-1.6c.4-.3.4-.8.2-1.2-.4-.5-.6-1.1-.7-1.7-.1-.5-.5-.8-1-.8H2v-2h2.2c.5 0 .9-.4 1-.8.2-.6.4-1.2.8-1.8.2-.3.1-.8-.2-1.2L4.2 5.6l1.4-1.4 1.6 1.6c.4.3.9.4 1.2.2.6-.4 1.2-.6 1.8-.7.5-.1.8-.5.8-1V2h2v2.3c0 .5.4.9.8 1 .6.1 1.2.4 1.8.7.4.2.9.1 1.2-.2l1.6-1.6 1.4 1.4-1.6 1.6c-.4.3-.4.8-.2 1.2.4.6.6 1.2.7 1.9.1.4.5.7 1 .7H22v2z"/><path d="M12 8c-2.2 0-4 1.8-4 4s1.8 4 4 4 4-1.8 4-4-1.8-4-4-4zm0 6c-1.1 0-2-.9-2-2s.9-2 2-2 2 .9 2 2-.9 2-2 2z"/></svg>