<svg xmlns="http://www.w3.org/2000/svg" width="24" height="24" viewBox="0 0 24 24"><title>gender</title><path d="M23 1h-4c-.6 0-1 .4-1 1s.4 1 1 1h1.6l-2.4 2.4C17 4.5 15.6 4 14 4c-1.3 0-2.5.3-3.5.9C9.5 4.3 8.3 4 7 4c-3.9 0-7 3.1-7 7 0 3.6 2.6 6.4 6 6.9V20H5c-.6 0-1 .4-1 1s.4 1 1 1h1v1c0 .6.4 1 1 1s1-.4 1-1v-1h1c.6 0 1-.4 1-1s-.4-1-1-1H8v-2.1c.9-.1 1.7-.4 2.5-.8 1 .6 2.2.9 3.5.9 3.9 0 7-3.1 7-7 0-1.6-.5-3-1.4-4.2L22 4.4V6c0 .6.4 1 1 1s1-.4 1-1V2c0-.6-.4-1-1-1zM12 11c0 1.4-.6 2.7-1.5 3.6C9.6 13.7 9 12.4 9 11s.6-2.7 1.5-3.6c.9.9 1.5 2.2 1.5 3.6zM2 11c0-2.8 2.2-5 5-5 .6 0 1.2.1 1.8.3C7.7 7.6 7 9.2 7 11s.7 3.4 1.8 4.7c-.6.2-1.2.3-1.8.3-2.8 0-5-2.2-5-5zm12 5c-.6 0-1.2-.1-1.8-.3 1.1-1.2 1.8-2.9 1.8-4.7s-.7-3.4-1.8-4.7c.6-.2 1.2-.3 1.8-.3 1.3 0 2.5.5 3.4 1.3 0 .1.1.1.1.2l.2.2c.8.9 1.3 2 1.3 3.3 0 2.8-2.2 5-5 5z"/></svg>