<svg xmlns="http://www.w3.org/2000/svg" width="24" height="24" viewBox="0 0 24 24"><path d="M23 4h-4.2c.1-.3.2-.6.2-1 0-1.7-1.3-3-3-3-2 0-3.2 1.3-4 2.6C11.2 1.3 10 0 8 0 6.3 0 5 1.3 5 3c0 .4.1.7.2 1H1c-.6 0-1 .4-1 1v4c0 .6.4 1 1 1h1v13c0 .6.4 1 1 1h18c.6 0 1-.4 1-1V10h1c.6 0 1-.4 1-1V5c0-.6-.4-1-1-1zm-7-2c.6 0 1 .4 1 1s-.4 1-1 1h-2.5c.4-.9 1.3-2 2.5-2zm-4 4h1v2h-2V6h1zM7 3c0-.6.4-1 1-1 1.2 0 2.1 1.1 2.5 2H8c-.6 0-1-.4-1-1zM2 6h7v2H2V6zm2 4h5v12H4V10zm7 12V10h2v12h-2zm9 0h-5V10h5v12zm2-14h-7V6h7v2z"/></svg>