<!-- Generated by IcoMoon.io -->
<svg version="1.1" xmlns="http://www.w3.org/2000/svg" width="24" height="24" viewBox="0 0 24 24">
<title>google-plus</title>
<path d="M21.8 10.9v-2.2h-2.2v2.2h-2.2v2.2h2.2v2.2h2.2v-2.2h2.2v-2.2z"></path>
<path d="M7.6 10.9v2.6h4.4c0 0.3-0.1 0.6-0.2 0.8-0.1 0.3-0.3 0.6-0.5 0.9s-0.5 0.6-0.8 0.8c-0.4 0.3-0.8 0.5-1.2 0.6-0.5 0.1-1.1 0.2-1.6 0.2-0.9 0.1-1.7-0.2-2.4-0.6-1.5-0.9-2.4-2.5-2.4-4.2s1-3.3 2.5-4.1c0.7-0.5 1.6-0.7 2.4-0.7 1.1 0 2.2 0.4 3 1.2l2.1-2c-1.4-1.3-3.2-2-5.1-2-1 0-2.1 0.2-3 0.6-1.9 0.7-3.3 2.2-4.1 4-0.8 1.9-0.8 4.1 0 6 0.7 1.8 2.2 3.2 4 4 0.9 0.4 2 0.6 3 0.6 1.3 0 2.6-0.3 3.8-1 1.1-0.6 2-1.5 2.6-2.6 0.6-1.2 0.9-2.5 0.9-3.8 0-0.4-0.1-0.9-0.2-1.3h-7.2z"></path>
</svg>
