<svg xmlns="http://www.w3.org/2000/svg" width="24" height="24"><path d="M21.8 10.9V8.7h-2.2v2.2h-2.2v2.2h2.2v2.2h2.2v-2.2H24v-2.2zM7.6 10.9v2.6H12c0 .3-.1.6-.2.8-.1.3-.3.6-.5.9s-.5.6-.8.8c-.4.3-.8.5-1.2.6-.5.1-1.1.2-1.6.2-.9.1-1.7-.2-2.4-.6-1.5-.9-2.4-2.5-2.4-4.2s1-3.3 2.5-4.1c.7-.5 1.6-.7 2.4-.7 1.1 0 2.2.4 3 1.2l2.1-2c-1.4-1.3-3.2-2-5.1-2-1 0-2.1.2-3 .6-1.9.7-3.3 2.2-4.1 4a7.8 7.8 0 0 0 0 6c.7 1.8 2.2 3.2 4 4 .9.4 2 .6 3 .6 1.3 0 2.6-.3 3.8-1 1.1-.6 2-1.5 2.6-2.6.6-1.2.9-2.5.9-3.8 0-.4-.1-.9-.2-1.3H7.6z"/></svg>