<!-- Generated by IcoMoon.io -->
<svg version="1.1" xmlns="http://www.w3.org/2000/svg" width="24" height="24" viewBox="0 0 24 24">
<title>heart</title>
<path d="M7 3.5c0.009-0 0.020-0 0.030-0 1.364 0 2.593 0.576 3.457 1.498 0.226 0.209 0.424 0.439 0.594 0.689 0.187 0.304 0.503 0.495 0.864 0.495s0.677-0.191 0.853-0.477c0.202-0.204 0.402-0.504 0.602-0.704 0.938-0.884 2.205-1.429 3.6-1.43 0.015-0 0.032-0 0.049-0 1.364 0 2.6 0.546 3.502 1.431 0.888 0.915 1.437 2.165 1.437 3.544s-0.548 2.63-1.439 3.546l-8.449 8.369c-0.025 0.023-0.058 0.037-0.095 0.037s-0.070-0.014-0.095-0.037l-8.46-8.38c-0.886-0.915-1.433-2.164-1.433-3.54s0.546-2.625 1.434-3.541c0.866-0.923 2.095-1.5 3.459-1.5 0.031 0 0.063 0 0.094 0.001zM7 1.5c-0.024-0-0.051-0-0.079-0-1.937 0-3.684 0.813-4.918 2.117-1.231 1.275-1.987 3.008-1.987 4.918s0.756 3.643 1.986 4.917l-0.002-0.002 8.46 8.39c0.388 0.375 0.917 0.606 1.5 0.606s1.112-0.231 1.501-0.606l8.539-8.349c1.239-1.274 2.003-3.015 2.003-4.935s-0.764-3.661-2.005-4.937l0.002 0.002c-1.262-1.237-2.991-2.001-4.9-2.001-0.035 0-0.070 0-0.106 0.001-1.935-0-3.696 0.762-4.998 2.003l0.003-0.003c-1.237-1.307-2.984-2.12-4.921-2.12-0.028 0-0.056 0-0.083 0z"></path>
</svg>
