<svg xmlns="http://www.w3.org/2000/svg" width="24" height="24" viewBox="0 0 24 24"><path d="M7 3.5h.03c1.364 0 2.593.576 3.457 1.498a4 4 0 0 1 .594.689 1 1 0 0 0 1.717.018c.202-.204.402-.504.602-.704a5.24 5.24 0 0 1 3.6-1.43h.049c1.364 0 2.6.546 3.502 1.431.888.915 1.437 2.165 1.437 3.544s-.548 2.63-1.439 3.546L12.1 20.461c-.025.023-.058.037-.095.037s-.07-.014-.095-.037l-8.46-8.38c-.886-.915-1.433-2.164-1.433-3.54S2.563 5.916 3.451 5a4.73 4.73 0 0 1 3.553-1.499zm0-2h-.079a6.75 6.75 0 0 0-4.918 2.117C.772 4.892.016 6.625.016 8.535s.756 3.643 1.986 4.917L2 13.45l8.46 8.39c.388.375.917.606 1.5.606s1.112-.231 1.501-.606L22 13.491c1.239-1.274 2.003-3.015 2.003-4.935s-.764-3.661-2.005-4.937l.002.002a6.977 6.977 0 0 0-4.9-2.001l-.106.001a7.224 7.224 0 0 0-4.998 2.003l.003-.003a6.753 6.753 0 0 0-4.921-2.12h-.083z"/></svg>