<svg xmlns="http://www.w3.org/2000/svg" width="24" height="24" viewBox="0 0 24 24"><title>instagram</title><path d="M23.9 7c-.1-2.2-.8-3.8-1.9-5S19.1.2 17 .1C16 0 14.4 0 12 0S8 0 7 .1C4.9.2 3.2.8 2 2S.2 4.9.1 7C0 8 0 9.6 0 12s0 4 .1 5c.1 2.2.8 3.8 1.9 5s2.9 1.8 5 1.9c1 .1 2.6.1 5 .1s4 0 5-.1c2.2-.1 3.8-.8 5-1.9s1.8-2.9 1.9-5c.1-1 .1-2.6.1-5s0-4-.1-5zm-2.1 6.2v3.2c0 .6-.1 1.2-.2 1.6s-.2.8-.3 1.1c-.2.5-.5 1-.9 1.4s-.9.7-1.4.9c-.3.1-.7.2-1.1.3s-1 .1-1.6.2H7.5c-.6 0-1.2-.1-1.6-.2s-.8-.2-1.1-.3c-.5-.2-1-.5-1.4-.9s-.7-.9-.9-1.4c-.1-.3-.2-.7-.3-1.1s-.1-1-.2-1.6v-1.5-1.7V12v-1.2-1.6-1.5c.2-.7.3-1.2.4-1.7.1-.4.2-.8.3-1.1.2-.5.5-1 .9-1.4s.9-.7 1.4-.9c.2-.1.6-.2 1-.3s1-.1 1.6-.2h8.8c.6 0 1.2.1 1.6.2s.8.2 1.1.3c.5.2 1 .5 1.4.9s.7.9.9 1.4c.1.3.2.7.3 1.1s.1 1 .2 1.6v4.3c-.1.2-.1.6-.1 1.3z"/><path d="M18.4 4.2c-.4 0-.7.1-1 .4s-.4.6-.4 1 .1.7.4 1 .6.4 1 .4.7-.1 1-.4.4-.6.4-1-.1-.7-.4-1-.6-.4-1-.4zM12 5.8c-1.7 0-3.2.6-4.4 1.8S5.8 10.3 5.8 12s.6 3.2 1.8 4.4 2.7 1.8 4.4 1.8 3.2-.6 4.4-1.8 1.8-2.7 1.8-4.4-.6-3.2-1.8-4.4-2.7-1.8-4.4-1.8zm2.8 9c-.8.8-1.7 1.2-2.8 1.2s-2-.4-2.8-1.2S8 13.1 8 12s.4-2 1.2-2.8S10.9 8 12 8s2 .4 2.8 1.2S16 10.9 16 12s-.4 2-1.2 2.8z"/></svg>