<!-- Generated by IcoMoon.io -->
<svg version="1.1" xmlns="http://www.w3.org/2000/svg" width="24" height="24" viewBox="0 0 24 24">
<title>linkedin</title>
<path d="M22.7 1.3c-0.9-0.9-2-1.3-3.2-1.3h-15c-1.2 0-2.3 0.4-3.2 1.3s-1.3 2-1.3 3.2v15c0 1.2 0.4 2.3 1.3 3.2s2 1.3 3.2 1.3h15c1.2 0 2.3-0.4 3.2-1.3s1.3-2 1.3-3.2v-15c0-1.2-0.4-2.3-1.3-3.2zM7.3 20.1h-3.6v-10.9h3.6v10.9zM7 7.2c-0.4 0.3-0.9 0.5-1.5 0.5-0.5 0-1-0.2-1.4-0.5s-0.6-0.8-0.6-1.3 0.3-0.9 0.6-1.3c0.3-0.4 0.8-0.6 1.4-0.6s1 0.3 1.4 0.6c0.4 0.3 0.6 0.8 0.6 1.3s-0.1 1-0.5 1.3zM20.3 20.1h-3.6v-5.8c0-1.7-0.6-2.5-1.8-2.5-0.5 0-0.9 0.2-1.2 0.4s-0.5 0.5-0.7 0.9c-0.1 0.2-0.1 0.5-0.1 0.9v6h-3.6c0-6.5 0-10.1 0-10.8h3.5v1.6c0.8-1.2 1.9-1.8 3.3-1.8 1.3 0 2.4 0.5 3.1 1.3s1.1 2 1.1 3.6v6.2z"></path>
</svg>
