<svg xmlns="http://www.w3.org/2000/svg" width="24" height="24" viewBox="0 0 24 24"><title>link</title><path d="M12.7 9.9c-.177.18-.286.427-.286.7s.109.52.286.7c.737.726 1.193 1.734 1.193 2.85S13.437 16.274 12.7 17l-2.8 2.8c-.714.763-1.726 1.238-2.85 1.238s-2.136-.475-2.848-1.236c-.739-.728-1.195-1.737-1.195-2.852s.456-2.124 1.193-2.85l2.501-2.4a1 1 0 0 0-1.403-1.398L2.801 12.7c-1.11 1.077-1.799 2.583-1.799 4.25s.689 3.173 1.797 4.249A6.128 6.128 0 0 0 7.098 23a5.907 5.907 0 0 0 4.201-1.798L14.1 18.4c1.11-1.077 1.799-2.583 1.799-4.25s-.689-3.173-1.797-4.249a.999.999 0 0 0-1.401-.001z"/><path d="M21.2 2.8c-1.077-1.11-2.583-1.799-4.25-1.799s-3.173.689-4.249 1.797L9.9 5.599c-1.11 1.077-1.799 2.583-1.799 4.25s.689 3.173 1.797 4.249a.999.999 0 0 0 1.401.001c.177-.18.286-.427.286-.7s-.109-.52-.286-.7c-.737-.726-1.193-1.734-1.193-2.85s.456-2.124 1.193-2.85l2.8-2.8a4.03 4.03 0 0 1 5.699 5.7l-2.5 2.4a1 1 0 0 0 1.403 1.398l2.497-2.398c1.11-1.077 1.799-2.583 1.799-4.25S22.308 3.876 21.2 2.8z"/></svg>