<svg xmlns="http://www.w3.org/2000/svg" width="24" height="24"><path d="M22.7 1.3c-.9-.9-2-1.3-3.2-1.3h-15C3.3 0 2.2.4 1.3 1.3S0 3.3 0 4.5v15c0 1.2.4 2.3 1.3 3.2s2 1.3 3.2 1.3h15c1.2 0 2.3-.4 3.2-1.3s1.3-2 1.3-3.2v-15c0-1.2-.4-2.3-1.3-3.2zM7.3 20.1H3.7V9.2h3.6v10.9zM7 7.2c-.4.3-.9.5-1.5.5-.5 0-1-.2-1.4-.5s-.6-.8-.6-1.3.3-.9.6-1.3.8-.6 1.4-.6 1 .3 1.4.6c.4.3.6.8.6 1.3s-.1 1-.5 1.3zm13.3 12.9h-3.6v-5.8c0-1.7-.6-2.5-1.8-2.5-.5 0-.9.2-1.2.4s-.5.5-.7.9c-.1.2-.1.5-.1.9v6H9.3V9.2h3.5v1.6c.8-1.2 1.9-1.8 3.3-1.8 1.3 0 2.4.5 3.1 1.3s1.1 2 1.1 3.6v6.2z"/></svg>