<!-- Generated by IcoMoon.io -->
<svg version="1.1" xmlns="http://www.w3.org/2000/svg" width="24" height="24" viewBox="0 0 24 24">
<title>list</title>
<path d="M4 1c-1.7 0-3 1.3-3 3s1.3 3 3 3 3-1.3 3-3-1.3-3-3-3zM4 5c-0.6 0-1-0.4-1-1s0.4-1 1-1 1 0.4 1 1-0.4 1-1 1z"></path>
<path d="M4 9c-1.7 0-3 1.3-3 3s1.3 3 3 3 3-1.3 3-3-1.3-3-3-3zM4 13c-0.6 0-1-0.4-1-1s0.4-1 1-1 1 0.4 1 1-0.4 1-1 1z"></path>
<path d="M4 17c-1.7 0-3 1.3-3 3s1.3 3 3 3 3-1.3 3-3-1.3-3-3-3zM4 21c-0.6 0-1-0.4-1-1s0.4-1 1-1 1 0.4 1 1-0.4 1-1 1z"></path>
<path d="M10 5h12c0.6 0 1-0.4 1-1s-0.4-1-1-1h-12c-0.6 0-1 0.4-1 1s0.4 1 1 1z"></path>
<path d="M22 11h-12c-0.6 0-1 0.4-1 1s0.4 1 1 1h12c0.6 0 1-0.4 1-1s-0.4-1-1-1z"></path>
<path d="M22 19h-12c-0.6 0-1 0.4-1 1s0.4 1 1 1h12c0.6 0 1-0.4 1-1s-0.4-1-1-1z"></path>
</svg>
