<svg xmlns="http://www.w3.org/2000/svg" width="24" height="24" viewBox="0 0 24 24"><title>news</title><path d="M23 0H5c-.6 0-1 .4-1 1v11H1c-.6 0-1 .4-1 1v8c0 1.7 1.3 3 3 3h18c1.7 0 3-1.3 3-3V1c0-.6-.4-1-1-1zM3 22c-.6 0-1-.4-1-1v-7h2v7c0 .6-.4 1-1 1zm19-1c0 .6-.4 1-1 1H5.8c.1-.3.2-.6.2-1V2h16v19z"/><path d="M17 7h2c.6 0 1-.4 1-1s-.4-1-1-1h-2c-.6 0-1 .4-1 1s.4 1 1 1zM17 11h2c.6 0 1-.4 1-1s-.4-1-1-1h-2c-.6 0-1 .4-1 1s.4 1 1 1zM9 15h10c.6 0 1-.4 1-1s-.4-1-1-1H9c-.6 0-1 .4-1 1s.4 1 1 1zM9 19h10c.6 0 1-.4 1-1s-.4-1-1-1H9c-.6 0-1 .4-1 1s.4 1 1 1zM9 11h4c.6 0 1-.4 1-1V6c0-.6-.4-1-1-1H9c-.6 0-1 .4-1 1v4c0 .6.4 1 1 1zm1-4h2v2h-2V7z"/></svg>