<!-- Generated by IcoMoon.io -->
<svg version="1.1" xmlns="http://www.w3.org/2000/svg" width="24" height="24" viewBox="0 0 24 24">
<title>pinterest</title>
<path d="M12 0c-6.6 0-12 5.4-12 12 0 5.1 3.2 9.4 7.6 11.2-0.1-0.9-0.2-2.4 0-3.4 0.2-0.9 1.4-6 1.4-6s-0.3-0.8-0.3-1.8c0-1.7 1-2.9 2.2-2.9 1 0 1.5 0.8 1.5 1.7 0 1-0.7 2.6-1 4-0.3 1.2 0.6 2.2 1.8 2.2 2.1 0 3.8-2.2 3.8-5.5 0-2.9-2.1-4.9-5-4.9-3.4 0-5.4 2.6-5.4 5.2 0 1 0.4 2.1 0.9 2.7 0.1 0.1 0.1 0.2 0.1 0.3-0.1 0.4-0.3 1.2-0.3 1.4-0.1 0.2-0.2 0.3-0.4 0.2-1.5-0.7-2.4-2.9-2.4-4.6 0-3.8 2.8-7.3 7.9-7.3 4.2 0 7.4 3 7.4 6.9 0 4.1-2.6 7.5-6.2 7.5-1.2 0-2.4-0.6-2.8-1.4 0 0-0.6 2.3-0.7 2.9-0.3 1-1 2.3-1.5 3.1 1 0.3 2.2 0.5 3.4 0.5 6.6 0 12-5.4 12-12s-5.4-12-12-12z"></path>
</svg>
