<svg xmlns="http://www.w3.org/2000/svg" width="24" height="24" viewBox="0 0 24 24"><path d="M2 13c.6 0 1-.4 1-1 0-5 4-9 9-9 2.8 0 5.3 1.3 7 3.3l-3.9-.5c-.5 0-1.1.4-1.1.9s.4 1 .9 1.1l6 .8h.1c.5 0 .9-.4 1-.9l.8-5.9c0-.5-.4-1-.9-1.1-.5 0-1 .4-1.1.9l-.5 3.2c-2-2.4-5-3.8-8.3-3.8C5.9 1 1 5.9 1 12c0 .6.4 1 1 1zM22 11c-.6 0-1 .4-1 1 0 5-4 9-9 9-2.8 0-5.3-1.3-7-3.3l3.9.5c.5 0 1-.4 1.1-.9 0-.5-.4-1-.9-1.1l-6-.8c-.5 0-1 .4-1.1.9l-.8 5.9c0 .5.4 1 1 1.1.5 0 .9-.4 1-.9l.5-3.2c2 2.4 5.1 3.8 8.3 3.8 6.1 0 11-4.9 11-11 0-.6-.4-1-1-1z"/></svg>