<svg xmlns="http://www.w3.org/2000/svg" width="24" height="24"><path d="M23 9c0-.2 0-.3-.1-.4l-4-8c-.2-.4-.5-.6-.9-.6H6c-.4 0-.7.2-.9.6l-4 8c-.1.1-.1.2-.1.4 0 2 .9 3.1 2 3.7V23c0 .6.4 1 1 1h6c.6 0 1-.4 1-1v-4h2v4c0 .6.4 1 1 1h6c.6 0 1-.4 1-1V12.7c1.1-.6 2-1.7 2-3.7zm-8 13v-4c0-.6-.4-1-1-1h-4c-.6 0-1 .4-1 1v4H5v-9c.8-.1 1.5-.5 2-1 .6.6 1.5 1 2.5 1s1.9-.4 2.5-1c.6.6 1.5 1 2.5 1s1.9-.4 2.5-1c.5.5 1.2.8 2 1v9h-4zm4.5-11c-.8 0-1.5-.7-1.5-1.5 0-.6-.4-1-1-1s-1 .4-1 1c0 .8-.7 1.5-1.5 1.5S13 10.3 13 9.5c0-.6-.4-1-1-1s-1 .4-1 1c0 .8-.7 1.5-1.5 1.5S8 10.3 8 9.5c0-.6-.4-1-1-1s-1 .4-1 1c0 .8-.7 1.5-1.5 1.5C3.3 11 3 10 3 9.2L6.6 2h10.8L21 9.2c0 .8-.3 1.8-1.5 1.8z"/></svg>