<!-- Generated by IcoMoon.io -->
<svg version="1.1" xmlns="http://www.w3.org/2000/svg" width="24" height="24" viewBox="0 0 24 24">
<title>retail-full</title>
<path d="M19.5 13c-0.885 0-1.735-0.207-2.5-0.599-0.765 0.392-1.615 0.599-2.5 0.599s-1.735-0.207-2.5-0.599c-0.765 0.392-1.615 0.599-2.5 0.599s-1.735-0.207-2.5-0.598c-0.765 0.391-1.615 0.598-2.5 0.598-0.527 0-1.027-0.075-1.5-0.206v10.206c0 0.552 0.448 1 1 1h6v-5h4v5h6c0.552 0 1-0.448 1-1v-10.206c-0.473 0.131-0.973 0.206-1.5 0.206z"></path>
<path d="M22.832 6.446l-4-6c-0.186-0.279-0.498-0.446-0.832-0.446h-12c-0.334 0-0.646 0.167-0.832 0.446l-4 6c-0.109 0.164-0.168 0.357-0.168 0.554 0 2.355 1.439 4 3.5 4 0.979 0 1.864-0.403 2.5-1.053 0.636 0.65 1.521 1.053 2.5 1.053s1.864-0.403 2.5-1.053c0.636 0.65 1.521 1.053 2.5 1.053s1.864-0.403 2.5-1.053c0.636 0.65 1.521 1.053 2.5 1.053 2.061 0 3.5-1.645 3.5-4 0-0.197-0.059-0.39-0.168-0.554z"></path>
</svg>
