<svg xmlns="http://www.w3.org/2000/svg" width="24" height="24" viewBox="0 0 24 24"><path d="M16 7H8c-.6 0-1 .4-1 1v8c0 .6.4 1 1 1h8c.6 0 1-.4 1-1V8c0-.6-.4-1-1-1zm-1 8H9V9h6v6zM8 4c.6 0 1-.4 1-1V2h1c.6 0 1-.4 1-1s-.4-1-1-1H8c-.6 0-1 .4-1 1v2c0 .6.4 1 1 1zM23 0h-2c-.6 0-1 .4-1 1s.4 1 1 1h1v1c0 .6.4 1 1 1s1-.4 1-1V1c0-.6-.4-1-1-1zM23 13c-.6 0-1 .4-1 1v1h-1c-.6 0-1 .4-1 1s.4 1 1 1h2c.6 0 1-.4 1-1v-2c0-.6-.4-1-1-1zM17 0h-3c-.6 0-1 .4-1 1s.4 1 1 1h3c.6 0 1-.4 1-1s-.4-1-1-1zM23 6c-.6 0-1 .4-1 1v3c0 .6.4 1 1 1s1-.4 1-1V7c0-.6-.4-1-1-1zM3 7H1c-.6 0-1 .4-1 1v2c0 .6.4 1 1 1s1-.4 1-1V9h1c.6 0 1-.4 1-1s-.4-1-1-1zM3 22H2v-1c0-.6-.4-1-1-1s-1 .4-1 1v2c0 .6.4 1 1 1h2c.6 0 1-.4 1-1s-.4-1-1-1zM16 20c-.6 0-1 .4-1 1v1h-1c-.6 0-1 .4-1 1s.4 1 1 1h2c.6 0 1-.4 1-1v-2c0-.6-.4-1-1-1zM1 18c.6 0 1-.4 1-1v-3c0-.6-.4-1-1-1s-1 .4-1 1v3c0 .6.4 1 1 1zM10 22H7c-.6 0-1 .4-1 1s.4 1 1 1h3c.6 0 1-.4 1-1s-.4-1-1-1z"/></svg>