<!-- Generated by IcoMoon.io -->
<svg version="1.1" xmlns="http://www.w3.org/2000/svg" width="24" height="24" viewBox="0 0 24 24">
<title>settings-full</title>
<path d="M5 11v-10c0-0.552-0.448-1-1-1s-1 0.448-1 1v10h2z"></path>
<path d="M13 3v-2c0-0.552-0.448-1-1-1s-1 0.448-1 1v2h2z"></path>
<path d="M21 11v-10c0-0.552-0.448-1-1-1s-1 0.448-1 1v10h2z"></path>
<path d="M4 13c-2.206 0-4 1.794-4 4 0 1.858 1.28 3.411 3 3.858v2.142c0 0.552 0.448 1 1 1s1-0.448 1-1v-2.142c1.72-0.447 3-2 3-3.858 0-2.206-1.794-4-4-4z"></path>
<path d="M16 9c0-2.206-1.794-4-4-4s-4 1.794-4 4c0 1.858 1.28 3.411 3 3.858v10.142c0 0.552 0.448 1 1 1s1-0.448 1-1v-10.142c1.72-0.447 3-2 3-3.858z"></path>
<path d="M24 17c0-2.206-1.794-4-4-4s-4 1.794-4 4c0 1.858 1.28 3.411 3 3.858v2.142c0 0.552 0.448 1 1 1s1-0.448 1-1v-2.142c1.72-0.447 3-2 3-3.858z"></path>
</svg>
