<svg xmlns="http://www.w3.org/2000/svg" width="24" height="24" viewBox="0 0 24 24"><title>settings</title><path d="M4 11c.6 0 1-.4 1-1V1c0-.6-.4-1-1-1S3 .4 3 1v9c0 .6.4 1 1 1zM12 3c.6 0 1-.4 1-1V1c0-.6-.4-1-1-1s-1 .4-1 1v1c0 .6.4 1 1 1zM20 11c.6 0 1-.4 1-1V1c0-.6-.4-1-1-1s-1 .4-1 1v9c0 .6.4 1 1 1zM4 13c-2.2 0-4 1.8-4 4 0 1.9 1.3 3.4 3 3.9V23c0 .6.4 1 1 1s1-.4 1-1v-2.1c1.7-.4 3-2 3-3.9 0-2.2-1.8-4-4-4zm0 6c-1.1 0-2-.9-2-2s.9-2 2-2 2 .9 2 2-.9 2-2 2zM16 9c0-2.2-1.8-4-4-4S8 6.8 8 9c0 1.9 1.3 3.4 3 3.9V23c0 .6.4 1 1 1s1-.4 1-1V12.9c1.7-.5 3-2 3-3.9zm-4 2c-1.1 0-2-.9-2-2s.9-2 2-2 2 .9 2 2-.9 2-2 2zM24 17c0-2.2-1.8-4-4-4s-4 1.8-4 4c0 1.9 1.3 3.4 3 3.9V23c0 .6.4 1 1 1s1-.4 1-1v-2.1c1.7-.5 3-2 3-3.9zm-4 2c-1.1 0-2-.9-2-2s.9-2 2-2 2 .9 2 2-.9 2-2 2z"/></svg>