<!-- Generated by IcoMoon.io -->
<svg version="1.1" xmlns="http://www.w3.org/2000/svg" width="24" height="24" viewBox="0 0 24 24">
<title>smartwatch-full</title>
<path d="M21 6c0-1.468-1.061-2.687-2.455-2.945l-0.575-2.298c-0.111-0.445-0.511-0.757-0.97-0.757h-10c-0.459 0-0.859 0.312-0.97 0.757l-0.575 2.298c-1.394 0.258-2.455 1.477-2.455 2.945v12c0 1.468 1.061 2.687 2.455 2.945l0.574 2.298c0.112 0.445 0.512 0.757 0.971 0.757h10c0.459 0 0.859-0.312 0.97-0.757l0.574-2.298c1.395-0.258 2.456-1.477 2.456-2.945v-3h2v-6h-2v-3zM19 18c0 0.551-0.449 1-1 1h-12c-0.551 0-1-0.449-1-1v-12c0-0.551 0.449-1 1-1h12c0.551 0 1 0.449 1 1v12z"></path>
</svg>
