<svg xmlns="http://www.w3.org/2000/svg" width="24" height="24" viewBox="0 0 24 24"><title>smile</title><path d="M16 6c-1.7 0-3 1.3-3 3 0 .6.4 1 1 1s1-.4 1-1 .4-1 1-1 1 .4 1 1 .4 1 1 1 1-.4 1-1c0-1.7-1.3-3-3-3zM8 8c.6 0 1 .4 1 1s.4 1 1 1 1-.4 1-1c0-1.7-1.3-3-3-3S5 7.3 5 9c0 .6.4 1 1 1s1-.4 1-1 .4-1 1-1zM15.3 14.3l-.3.3c-.9.9-2.1 1.4-3.4 1.4H8c-.6 0-1 .4-1 1s.4 1 1 1h3.6c1.8 0 3.5-.7 4.8-2l.3-.3c.4-.4.4-1 0-1.4s-1-.4-1.4 0z"/><path d="M12 0C5.4 0 0 5.4 0 12s5.4 12 12 12 12-5.4 12-12S18.6 0 12 0zm0 22C6.5 22 2 17.5 2 12S6.5 2 12 2s10 4.5 10 10-4.5 10-10 10z"/></svg>