<!-- Generated by IcoMoon.io -->
<svg version="1.1" xmlns="http://www.w3.org/2000/svg" width="24" height="24" viewBox="0 0 24 24">
<title>smile</title>
<path d="M16 6c-1.7 0-3 1.3-3 3 0 0.6 0.4 1 1 1s1-0.4 1-1 0.4-1 1-1 1 0.4 1 1 0.4 1 1 1 1-0.4 1-1c0-1.7-1.3-3-3-3z"></path>
<path d="M8 8c0.6 0 1 0.4 1 1s0.4 1 1 1 1-0.4 1-1c0-1.7-1.3-3-3-3s-3 1.3-3 3c0 0.6 0.4 1 1 1s1-0.4 1-1 0.4-1 1-1z"></path>
<path d="M15.3 14.3l-0.3 0.3c-0.9 0.9-2.1 1.4-3.4 1.4h-3.6c-0.6 0-1 0.4-1 1s0.4 1 1 1h3.6c1.8 0 3.5-0.7 4.8-2l0.3-0.3c0.4-0.4 0.4-1 0-1.4s-1-0.4-1.4 0z"></path>
<path d="M12 0c-6.6 0-12 5.4-12 12s5.4 12 12 12 12-5.4 12-12-5.4-12-12-12zM12 22c-5.5 0-10-4.5-10-10s4.5-10 10-10 10 4.5 10 10-4.5 10-10 10z"></path>
</svg>
