<svg xmlns="http://www.w3.org/2000/svg" width="24" height="24" viewBox="0 0 24 24"><title>support</title><path d="M21 7.8C20.9 3.5 17.3 0 13 0h-2C6.7 0 3.1 3.5 3 7.8c-1.8 1-3 3-3 5.2s1.2 4.1 3 5.2v.8c0 2.8 2.2 5 5 5h4v-2H8c-1.7 0-3-1.3-3-3v-.1c.3.1.7.1 1 .1.4 0 .8 0 1.2-.1l.8-.2V7.3l-.8-.2C6.8 7 6.4 7 6 7c-.3 0-.6 0-.9.1C5.5 4.2 8 2 11 2h2c3 0 5.5 2.2 5.9 5.1-.3-.1-.6-.1-.9-.1-.4 0-.8 0-1.2.1l-.8.2v11.4l.8.2c.4.1.8.1 1.2.1 3.3 0 6-2.7 6-6 0-2.2-1.2-4.1-3-5.2zM6 17c-2.2 0-4-1.8-4-4s1.8-4 4-4v8zm12 0V9c2.2 0 4 1.8 4 4s-1.8 4-4 4z"/></svg>