<svg xmlns="http://www.w3.org/2000/svg" width="24" height="24" viewBox="0 0 24 24"><title>system</title><path d="M19 14c-1.1 0-2 .3-2.8.8L13 12.5V9.9c2.3-.5 4-2.4 4-4.9 0-2.8-2.2-5-5-5S7 2.2 7 5c0 2.5 1.7 4.4 4 4.9v2.6l-3.2 2.3C7 14.3 6.1 14 5 14c-2.8 0-5 2.2-5 5s2.2 5 5 5 5-2.2 5-5c0-1-.3-1.9-.8-2.7l2.8-2.1 2.8 2.1c-.5.8-.8 1.7-.8 2.7 0 2.8 2.2 5 5 5s5-2.2 5-5-2.2-5-5-5zM5 22c-1.7 0-3-1.3-3-3s1.3-3 3-3 3 1.3 3 3-1.3 3-3 3zM9 5c0-1.7 1.3-3 3-3s3 1.3 3 3-1.3 3-3 3-3-1.3-3-3zm10 17c-1.7 0-3-1.3-3-3s1.3-3 3-3 3 1.3 3 3-1.3 3-3 3z"/></svg>