<!-- Generated by IcoMoon.io -->
<svg version="1.1" xmlns="http://www.w3.org/2000/svg" width="24" height="24" viewBox="0 0 24 24">
<title>system-full</title>
<path d="M20 16c-0.944 0-1.8 0.34-2.484 0.887l-4.516-3.387v-5.641c1.722-0.447 3-1.997 3-3.859 0-2.209-1.791-4-4-4s-4 1.791-4 4c0 1.862 1.278 3.412 3 3.859v5.641l-4.516 3.387c-0.684-0.547-1.54-0.887-2.484-0.887-2.209 0-4 1.791-4 4s1.791 4 4 4 4-1.791 4-4c0-0.54-0.11-1.053-0.304-1.522l4.304-3.228 4.304 3.228c-0.194 0.469-0.304 0.982-0.304 1.522 0 2.209 1.791 4 4 4s4-1.791 4-4c0-2.209-1.791-4-4-4z"></path>
</svg>
