<!-- Generated by IcoMoon.io -->
<svg version="1.1" xmlns="http://www.w3.org/2000/svg" width="24" height="24" viewBox="0 0 24 24">
<title>twitter</title>
<path d="M21.2 5.2c1.1-0.6 1.8-1.6 2.2-2.7-0.9 0.6-2 1-3.1 1.2l-0.1-0.1c-2-1.9-5.1-1.9-7 0-0.9 0.9-1.4 2.2-1.4 3.5 0 0.3 0 0.7 0.1 1.1-2-0.1-3.9-0.6-5.7-1.5-1.7-0.9-3.3-2.1-4.5-3.6-0.5 0.8-0.7 1.6-0.7 2.5s0.2 1.7 0.6 2.4c0.4 0.7 0.9 1.3 1.6 1.7-0.8 0-1.5-0.2-2.2-0.6v0.1c0 1.1 0.4 2.2 1.1 3.1s1.7 1.5 2.8 1.7c-0.4 0.1-0.9 0.2-1.3 0.2-0.3 0-0.6-0.1-0.9-0.1 0.6 2 2.5 3.4 4.6 3.4-1.7 1.4-3.9 2.1-6.1 2.1-0.4 0-0.8-0.1-1.2-0.1 2.2 1.4 4.8 2.2 7.5 2.2 1.7 0 3.3-0.2 4.9-0.8 1.4-0.5 2.7-1.2 3.9-2.2 1.1-0.9 2-2 2.8-3.2s1.4-2.5 1.8-3.8c0.4-1.3 0.6-2.6 0.6-4 0-0.2 0-0.5 0-0.6 1-0.7 1.8-1.5 2.5-2.5-0.9 0.4-1.9 0.6-2.8 0.6z"></path>
</svg>
