<svg xmlns="http://www.w3.org/2000/svg" width="24" height="24"><path d="M21.2 5.2c1.1-.6 1.8-1.6 2.2-2.7-.9.6-2 1-3.1 1.2l-.1-.1c-2-1.9-5.1-1.9-7 0-.9.9-1.4 2.2-1.4 3.5 0 .3 0 .7.1 1.1-2-.1-3.9-.6-5.7-1.5-1.7-.9-3.3-2.1-4.5-3.6-.5.8-.7 1.6-.7 2.5s.2 1.7.6 2.4c.4.7.9 1.3 1.6 1.7-.8 0-1.5-.2-2.2-.6v.1c0 1.1.4 2.2 1.1 3.1s1.7 1.5 2.8 1.7c-.4.1-.9.2-1.3.2-.3 0-.6-.1-.9-.1.6 2 2.5 3.4 4.6 3.4-1.7 1.4-3.9 2.1-6.1 2.1-.4 0-.8-.1-1.2-.1 2.2 1.4 4.8 2.2 7.5 2.2 1.7 0 3.3-.2 4.9-.8 1.4-.5 2.7-1.2 3.9-2.2 1.1-.9 2-2 2.8-3.2s1.4-2.5 1.8-3.8c.4-1.3.6-2.6.6-4v-.6c1-.7 1.8-1.5 2.5-2.5-.9.4-1.9.6-2.8.6z"/></svg>