<svg xmlns="http://www.w3.org/2000/svg" width="24" height="24" viewBox="0 0 24 24"><title>unlink</title><path d="M14.2 4.2c1.5-1.5 4.1-1.5 5.6 0 .7.7 1.1 1.7 1.1 2.8s-.4 2.1-1.1 2.8L16.6 13l1.4 1.4 3.2-3.2c1.1-1.1 1.7-2.6 1.7-4.2s-.6-3.1-1.7-4.2c-2.3-2.3-6.1-2.3-8.4 0L9.6 6 11 7.4l3.2-3.2zM9.8 19.8c-.7.7-1.7 1.1-2.8 1.1s-2.1-.4-2.8-1.1c-1.5-1.5-1.5-4.1 0-5.6L7.4 11 6 9.6l-3.2 3.2c-2.3 2.3-2.3 6.1 0 8.4 1.1 1.1 2.6 1.7 4.2 1.7s3.1-.6 4.2-1.7l3.2-3.2-1.4-1.4-3.2 3.2z"/><path d="M7.651 14.984l7.425-7.425 1.414 1.414-7.425 7.425-1.414-1.414zM18.673 17.455l.894-1.789 3.756 1.878-.894 1.789-3.756-1.878zM15.666 19.569l1.789-.894 1.878 3.756-1.789.894-1.878-3.756zM4.666 1.569L6.455.675l1.878 3.756-1.789.894-1.878-3.756zM.674 6.455l.894-1.789 3.756 1.878-.894 1.789L.674 6.455z"/></svg>