<svg xmlns="http://www.w3.org/2000/svg" width="24" height="24"><path d="M22.6 8.6l-2-1.2c.2-.6.4-1.2.4-1.9v-1C21 2 19 0 16.5 0c-1.5 0-2.7.7-3.6 1.8-.8-.5-1.8-.8-2.9-.8-3.3 0-6 2.7-6 6v2c0 1.4.5 2.6 1.2 3.6l-3.4 2.1C.7 15.4 0 16.6 0 17.9V22c0 .6.4 1 1 1h18c.6 0 1-.4 1.1-1v-4.1c0-.7-.2-1.3-.5-1.9H23c.6 0 1-.4 1-1v-3.9c0-1.1-.5-2-1.4-2.5zM16.5 2C17.9 2 19 3.1 19 4.5v1C19 6.9 17.9 8 16.5 8c-.2 0-.3 0-.5-.1V7c0-1.5-.6-2.9-1.5-3.9.5-.7 1.2-1.1 2-1.1zM6 7c0-2.2 1.8-4 4-4 1 0 1.8.4 2.5.9 0 .1.1.1.2.1.8.8 1.3 1.8 1.3 3v2c0 2.2-1.8 4-4 4s-4-1.8-4-4V7zm12 14H2v-3.1c0-.6.3-1.1.9-1.5l3.9-2.3c.9.6 2 .9 3.2.9s2.3-.4 3.3-1l2.7 1.6c.1.2.3.3.6.3l.7.4c.5.3.8.9.8 1.5V21zm4-7h-4.9l-2.3-1.4c.6-.8 1-1.7 1.1-2.6h.6c1.1 0 2.1-.4 2.8-1l2.2 1.3c.3.2.5.5.5.8V14z"/></svg>