<!-- Generated by IcoMoon.io -->
<svg version="1.1" xmlns="http://www.w3.org/2000/svg" width="24" height="24" viewBox="0 0 24 24">
<title>user</title>
<path d="M21.6 17.5l-4.5-2.7c1.2-1.2 1.9-2.9 1.9-4.8v-3c0-3.9-3.1-7-7-7s-7 3.1-7 7v3c0 1.9 0.7 3.6 1.9 4.9l-4.4 2.6c-0.9 0.6-1.5 1.6-1.5 2.6v2.9c0 0.6 0.4 1 1 1h20c0.6 0 1-0.4 1.1-1v-2.9c0-1.1-0.6-2.1-1.5-2.6zM7 7c0-2.8 2.2-5 5-5s5 2.2 5 5v3c0 1.7-0.8 3.1-2 4-0.1 0-0.3 0.1-0.4 0.2-0.7 0.5-1.6 0.8-2.6 0.8-0.9 0-1.7-0.2-2.5-0.7-0.1-0.1-0.3-0.2-0.5-0.3-1.2-0.9-2-2.3-2-4v-3zM21 22h-18v-1.9c0-0.3 0.2-0.6 0.6-0.9l5.1-3c1 0.5 2.1 0.8 3.3 0.8s2.4-0.3 3.4-0.9l5.1 3.1c0.3 0.2 0.5 0.6 0.5 0.9v1.9z"></path>
</svg>
