<!-- Generated by IcoMoon.io -->
<svg version="1.1" xmlns="http://www.w3.org/2000/svg" width="24" height="24" viewBox="0 0 24 24">
<title>users</title>
<path d="M22.6 8.6l-2-1.2c0.2-0.6 0.4-1.2 0.4-1.9v-1c0-2.5-2-4.5-4.5-4.5-1.5 0-2.7 0.7-3.6 1.8-0.8-0.5-1.8-0.8-2.9-0.8-3.3 0-6 2.7-6 6v2c0 1.4 0.5 2.6 1.2 3.6l-3.4 2.1c-1.1 0.7-1.8 1.9-1.8 3.2v4.1c0 0.6 0.4 1 1 1h18c0.6 0 1-0.4 1.1-1v-4.1c0-0.7-0.2-1.3-0.5-1.9h3.4c0.6 0 1-0.4 1-1v-3.9c0-1.1-0.5-2-1.4-2.5zM16.5 2c1.4 0 2.5 1.1 2.5 2.5v1c0 1.4-1.1 2.5-2.5 2.5-0.2 0-0.3 0-0.5-0.1v-0.9c0-1.5-0.6-2.9-1.5-3.9 0.5-0.7 1.2-1.1 2-1.1zM6 7c0-2.2 1.8-4 4-4 1 0 1.8 0.4 2.5 0.9 0 0.1 0.1 0.1 0.2 0.1 0.8 0.8 1.3 1.8 1.3 3v2c0 2.2-1.8 4-4 4s-4-1.8-4-4v-2zM18 21h-16v-3.1c0-0.6 0.3-1.1 0.9-1.5l3.9-2.3c0.9 0.6 2 0.9 3.2 0.9s2.3-0.4 3.3-1l2.7 1.6c0.1 0.2 0.3 0.3 0.6 0.3l0.7 0.4c0.5 0.3 0.8 0.9 0.8 1.5v3.2zM22 14h-4.9l-2.3-1.4c0.6-0.8 1-1.7 1.1-2.6 0.2 0 0.4 0 0.6 0 1.1 0 2.1-0.4 2.8-1l2.2 1.3c0.3 0.2 0.5 0.5 0.5 0.8v2.9z"></path>
</svg>
