<!-- Generated by IcoMoon.io -->
<svg version="1.1" xmlns="http://www.w3.org/2000/svg" width="24" height="24" viewBox="0 0 24 24">
<title>wand-full</title>
<path d="M18.707 8.293l-3-3c-0.391-0.391-1.023-0.391-1.414 0l-2.293 2.293 4.414 4.414 2.293-2.293c0.391-0.391 0.391-1.023 0-1.414z"></path>
<path d="M10.586 9l-9.293 9.293c-0.391 0.391-0.391 1.023 0 1.414l3 3c0.195 0.195 0.451 0.293 0.707 0.293s0.512-0.098 0.707-0.293l9.293-9.293-4.414-4.414z"></path>
<path d="M14 0h2v3h-2v-3z"></path>
<path d="M20.656 1.929l1.414 1.414-2.121 2.121-1.414-1.414 2.121-2.121z"></path>
<path d="M24 8v2h-3v-2h3z"></path>
<path d="M22.072 14.657l-1.414 1.414-2.121-2.121 1.414-1.414 2.121 2.121z"></path>
<path d="M7.929 3.343l1.414-1.414 2.121 2.121-1.414 1.414-2.121-2.121z"></path>
</svg>
