<svg xmlns="http://www.w3.org/2000/svg" width="24" height="24" viewBox="0 0 24 24"><title>wand</title><path d="M18.7 8.3l-3-3c-.4-.4-1-.4-1.4 0l-13 13c-.4.4-.4 1 0 1.4l3 3c.2.2.4.3.7.3.2 0 .5-.1.7-.3l13-13c.4-.4.4-1 0-1.4zM5 20.6L3.4 19l8.6-8.6 1.6 1.6L5 20.6zm10-10L13.4 9 15 7.4 16.6 9 15 10.6zM15 3c.6 0 1-.4 1-1V1c0-.6-.4-1-1-1s-1 .4-1 1v1c0 .6.4 1 1 1zM19.9 5.1c.3 0 .5-.1.7-.3l.8-.8c.4-.4.4-1 0-1.4s-1-.4-1.4 0l-.8.8c-.4.4-.4 1 0 1.4.2.2.4.3.7.3zM23 8h-1c-.6 0-1 .4-1 1s.4 1 1 1h1c.6 0 1-.4 1-1s-.4-1-1-1zM20.6 13.2c-.4-.4-1-.4-1.4 0s-.4 1 0 1.4l.8.8c.2.2.4.3.7.3s.5-.1.7-.3c.4-.4.4-1 0-1.4l-.8-.8zM9.4 4.8c.2.2.4.3.7.3s.5-.1.7-.3c.4-.4.4-1 0-1.4l-.8-.8c-.4-.4-1-.4-1.4 0s-.4 1 0 1.4l.8.8z"/></svg>