<!-- Generated by IcoMoon.io -->
<svg version="1.1" xmlns="http://www.w3.org/2000/svg" width="24" height="24" viewBox="0 0 24 24">
<title>youtube</title>
<path d="M23.8 7.2c0 0-0.2-1.7-1-2.4-0.9-1-1.9-1-2.4-1-3.4-0.2-8.4-0.2-8.4-0.2v0c0 0-5 0-8.4 0.2-0.5 0.1-1.5 0.1-2.4 1-0.7 0.7-1 2.4-1 2.4s-0.2 1.9-0.2 3.9v1.8c0 1.9 0.2 3.9 0.2 3.9s0.2 1.7 1 2.4c0.9 1 2.1 0.9 2.6 1 1.9 0.2 8.2 0.2 8.2 0.2s5 0 8.4-0.3c0.5-0.1 1.5-0.1 2.4-1 0.7-0.7 1-2.4 1-2.4s0.2-1.9 0.2-3.9v-1.8c0-1.9-0.2-3.8-0.2-3.8zM9.5 15.1v-6.7l6.5 3.4-6.5 3.3z"></path>
</svg>
