<svg xmlns="http://www.w3.org/2000/svg"><symbol id="agenda" viewBox="0 0 24 24"><path d="M19 0H3c-.6 0-1 .4-1 1v22c0 .6.4 1 1 1h16c1.7 0 3-1.3 3-3V3c0-1.7-1.3-3-3-3zM8 2h4v4.1l-1.4-1c-.3-.2-.8-.2-1.1 0L8 6.1V2zm9 20H4V2h2v6c0 .4.2.7.5.9s.7.2 1 0L10 7.2l2.4 1.6c.2.1.4.2.6.2s.3 0 .5-.1c.3-.2.5-.5.5-.9V2h3v20zm3-1c0 .6-.4 1-1 1V2c.6 0 1 .4 1 1v18z"/></symbol><symbol id="analytics" viewBox="0 0 24 24"><path d="M23 6.8c-.1-.5-.5-.8-1-.8h-7c-.6 0-1 .4-1 1s.4 1 1 1h4.9L13 15.6l-5.3-5.3c-.4-.4-1-.4-1.4 0l-5 5c-.4.4-.4 1 0 1.4s1 .4 1.4 0L7 12.4l5.3 5.3c.2.2.4.3.7.3s.6-.1.8-.3l7.2-8V14c0 .6.4 1 1 1s1-.4 1-1V7.1v-.3z"/></symbol><symbol id="angle-down" viewBox="0 0 24 24"><path d="M22.7 6.3c-.4-.4-1-.4-1.4 0L12 15.6 2.7 6.3c-.4-.4-1-.4-1.4 0s-.4 1 0 1.4l10 10c.2.2.4.3.7.3s.5-.1.7-.3l10-10c.4-.4.4-1 0-1.4z"/></symbol><symbol id="angle-left" viewBox="0 0 24 24"><path d="M8.4 12l9.3-9.3c.4-.4.4-1 0-1.4s-1-.4-1.4 0l-10 10c-.4.4-.4 1 0 1.4l10 10c.2.2.4.3.7.3s.5-.1.7-.3c.4-.4.4-1 0-1.4L8.4 12z"/></symbol><symbol id="angle-right" viewBox="0 0 24 24"><path d="M17.7 11.3l-10-10c-.4-.4-1-.4-1.4 0s-.4 1 0 1.4l9.3 9.3-9.3 9.3c-.4.4-.4 1 0 1.4.2.2.4.3.7.3s.5-.1.7-.3l10-10c.4-.4.4-1 0-1.4z"/></symbol><symbol id="angle-top" viewBox="0 0 24 24"><path d="M22.7 16.3l-10-10c-.4-.4-1-.4-1.4 0l-10 10c-.4.4-.4 1 0 1.4s1 .4 1.4 0L12 8.4l9.3 9.3c.2.2.4.3.7.3s.5-.1.7-.3c.4-.4.4-1 0-1.4z"/></symbol><symbol id="arrow-down" viewBox="0 0 24 24"><path d="M19.7 14.3c-.4-.4-1-.4-1.4 0L13 19.6V2c0-.6-.4-1-1-1s-1 .4-1 1v17.6l-5.3-5.3c-.4-.4-1-.4-1.4 0s-.4 1 0 1.4l6.9 6.9c.2.3.4.4.8.4s.6-.2.8-.4l6.9-6.9c.4-.4.4-1 0-1.4z"/></symbol><symbol id="arrow-left" viewBox="0 0 24 24"><path d="M22 11H4.4l5.3-5.3c.4-.4.4-1 0-1.4s-1-.4-1.4 0l-6.9 6.9c-.2.2-.4.4-.4.8s.2.6.4.8l6.9 6.9c.2.2.4.3.7.3s.5-.1.7-.3c.4-.4.4-1 0-1.4L4.4 13H22c.6 0 1-.4 1-1s-.4-1-1-1z"/></symbol><symbol id="arrow-right" viewBox="0 0 24 24"><path d="M23 12c0-.4-.2-.6-.4-.8l-6.9-6.9c-.4-.4-1-.4-1.4 0s-.4 1 0 1.4l5.3 5.3H2c-.6 0-1 .4-1 1s.4 1 1 1h17.6l-5.3 5.3c-.4.4-.4 1 0 1.4.2.2.4.3.7.3s.5-.1.7-.3l6.9-6.9c.2-.2.4-.4.4-.8z"/></symbol><symbol id="arrow-top" viewBox="0 0 24 24"><path d="M19.7 8.3l-6.9-6.9c-.2-.2-.4-.4-.8-.4s-.6.2-.8.4L4.3 8.3c-.4.4-.4 1 0 1.4s1 .4 1.4 0L11 4.4V22c0 .6.4 1 1 1s1-.4 1-1V4.4l5.3 5.3c.2.2.4.3.7.3s.5-.1.7-.3c.4-.4.4-1 0-1.4z"/></symbol><symbol id="attachment" viewBox="0 0 24 24"><path d="M22.6 10.8a.996.996 0 0 0-1.402-.098l-8.699 8.699c-1.009.974-2.385 1.573-3.9 1.573s-2.891-.6-3.902-1.575c-.988-1-1.6-2.378-1.6-3.898s.611-2.898 1.602-3.901l7.799-7.799c.617-.648 1.486-1.052 2.45-1.052s1.833.403 2.449 1.05a3.312 3.312 0 0 1 1.004 2.378l-.002.129a3.986 3.986 0 0 1-1.003 2.498L10.3 16a1.485 1.485 0 0 1-2.1-2.1l6-6.1a1 1 0 0 0-1.403-1.398L6.8 12.4c-.648.617-1.051 1.486-1.051 2.45s.403 1.833 1.05 2.449c.637.65 1.522 1.052 2.501 1.052s1.864-.402 2.499-1.05L18.9 10.2c.974-1.009 1.573-2.385 1.573-3.9s-.6-2.891-1.575-3.902C17.901 1.403 16.522.786 15 .786s-2.901.617-3.9 1.614l-7.8 7.8A7.558 7.558 0 0 0 1 15.598 7.466 7.466 0 0 0 3.2 20.9c1.355 1.36 3.229 2.202 5.3 2.202s3.945-.842 5.3-2.201l8.8-8.8a.85.85 0 0 0 .001-1.299z"/></symbol><symbol id="backward" viewBox="0 0 24 24"><path d="M23.5 3.1c-.4-.2-.8-.1-1.1.1L13 10.7V4c0-.4-.2-.7-.5-.9-.4-.2-.8-.1-1.1.1l-10 8c-.3.2-.4.5-.4.8s.1.6.4.8l10 8c.2.1.4.2.6.2.1 0 .3 0 .4-.1.4-.2.6-.5.6-.9v-6.7l9.4 7.5c.2.1.4.2.6.2.1 0 .3 0 .4-.1.4-.2.6-.5.6-.9V4c0-.4-.2-.7-.5-.9zM11 17.9L3.6 12 11 6.1v11.8zm11 0L14.6 12 22 6.1v11.8z"/></symbol><symbol id="bell" viewBox="0 0 24 24"><path d="M21.5 14.2c-.7-.9-1.5-1.7-1.5-3.2V8c0-4.5-3.5-8-8-8S4 3.5 4 8v3c0 1.5-.8 2.3-1.5 3.2C1.7 15 1 15.8 1 17c0 2 2.6 3.3 7.1 3.8.4 1.8 2 3.2 3.9 3.2s3.5-1.4 3.9-3.2C20.4 20.3 23 19 23 17c0-1.2-.7-2-1.5-2.8zM12 22c-.8 0-1.4-.4-1.7-1h3.4c-.3.6-.9 1-1.7 1zm0-3c-6.3 0-9-1.4-9-2 0-.4.4-.8.9-1.5.9-.9 2.1-2.2 2.1-4.5V8c0-3.4 2.6-6 6-6s6 2.6 6 6v3c0 2.2 1.2 3.5 2.1 4.5.5.7.9 1.1.9 1.5 0 .6-2.7 2-9 2z"/></symbol><symbol id="bulb" viewBox="0 0 24 24"><path d="M3 11H1c-.6 0-1 .4-1 1s.4 1 1 1h2c.6 0 1-.4 1-1s-.4-1-1-1zM6.3 6.3c.4-.4.4-1 0-1.4L4.9 3.5c-.4-.4-1-.4-1.4 0s-.4 1 0 1.4l1.4 1.4c.2.2.4.3.7.3s.5-.1.7-.3zM12 4c.6 0 1-.4 1-1V1c0-.6-.4-1-1-1s-1 .4-1 1v2c0 .6.4 1 1 1zM20.5 3.5c-.4-.4-1-.4-1.4 0l-1.4 1.4c-.4.4-.4 1 0 1.4.2.2.4.3.7.3s.5-.1.7-.3l1.4-1.4c.4-.4.4-1 0-1.4zM23 11h-2c-.6 0-1 .4-1 1s.4 1 1 1h2c.6 0 1-.4 1-1s-.4-1-1-1zM12 5c-3.9 0-7 3.1-7 7 0 2.6 1.6 5.1 4 6.3V20c0 .6.4 1 1 1h4c.6 0 1-.4 1-1v-1.7c2.4-1.2 4-3.6 4-6.3 0-3.9-3.1-7-7-7zm1.6 11.8c-.3.1-.6.5-.6.9V19h-2v-1.3c0-.4-.2-.7-.6-.9C8.4 16 7 14.1 7 12c0-2.8 2.2-5 5-5s5 2.2 5 5c0 2.1-1.4 4-3.4 4.8zM14 22h-4c-.6 0-1 .4-1 1s.4 1 1 1h4c.6 0 1-.4 1-1s-.4-1-1-1z"/></symbol><symbol id="calendar" viewBox="0 0 24 24"><path d="M23 2h-4V1c0-.6-.4-1-1-1s-1 .4-1 1v1h-4V1c0-.6-.4-1-1-1s-1 .4-1 1v1H7V1c0-.6-.4-1-1-1S5 .4 5 1v1H1c-.6 0-1 .4-1 1v20c0 .6.4 1 1 1h22c.6 0 1-.4 1-1V3c0-.6-.4-1-1-1zM2 4h3v1c0 .6.4 1 1 1s1-.4 1-1V4h4v1c0 .6.4 1 1 1s1-.4 1-1V4h4v1c0 .6.4 1 1 1s1-.4 1-1V4h3v4H2V4zm0 18V10h20v12H2z"/><path d="M7 12H5c-.6 0-1 .4-1 1v1c0 .6.4 1 1 1h2c.6 0 1-.4 1-1v-1c0-.6-.4-1-1-1zM13 12h-2c-.6 0-1 .4-1 1v1c0 .6.4 1 1 1h2c.6 0 1-.4 1-1v-1c0-.6-.4-1-1-1zM7 17H5c-.6 0-1 .4-1 1v1c0 .6.4 1 1 1h2c.6 0 1-.4 1-1v-1c0-.6-.4-1-1-1zM13 17h-2c-.6 0-1 .4-1 1v1c0 .6.4 1 1 1h2c.6 0 1-.4 1-1v-1c0-.6-.4-1-1-1zM19 12h-2c-.6 0-1 .4-1 1v1c0 .6.4 1 1 1h2c.6 0 1-.4 1-1v-1c0-.6-.4-1-1-1z"/></symbol><symbol id="cards" viewBox="0 0 24 24"><path d="M10 0H1C.4 0 0 .4 0 1v9c0 .6.4 1 1 1h9c.6 0 1-.4 1-1V1c0-.6-.4-1-1-1zM9 9H2V2h7v7zM23 0h-9c-.6 0-1 .4-1 1v9c0 .6.4 1 1 1h9c.6 0 1-.4 1-1V1c0-.6-.4-1-1-1zm-1 9h-7V2h7v7zM10 13H1c-.6 0-1 .4-1 1v9c0 .6.4 1 1 1h9c.6 0 1-.4 1-1v-9c0-.6-.4-1-1-1zm-1 9H2v-7h7v7zM23 13h-9c-.6 0-1 .4-1 1v9c0 .6.4 1 1 1h9c.6 0 1-.4 1-1v-9c0-.6-.4-1-1-1zm-1 9h-7v-7h7v7z"/></symbol><symbol id="chart-area" viewBox="0 0 24 24"><path d="M23 0H1C.4 0 0 .4 0 1v22c0 .6.4 1 1 1h22c.6 0 1-.4 1-1V1c0-.6-.4-1-1-1zm-1 22H2V2h20v20z"/><path d="M5 16c.3 0 .6-.1.9-.4l4.4-5.2 4.2 3.4c.4.3.9.3 1.3-.1l4-4c.4-.4.4-1 0-1.4s-1-.4-1.4 0L15 11.7l-4.3-3.4c-.4-.4-1.1-.3-1.4.1l-5 6c-.4.4-.3 1 .1 1.4.1.1.4.2.6.2z"/></symbol><symbol id="chart-bars" viewBox="0 0 24 24"><path d="M23 20H1c-.6 0-1 .4-1 1s.4 1 1 1h22c.6 0 1-.4 1-1s-.4-1-1-1zM2 18h4c.6 0 1-.4 1-1V8c0-.6-.4-1-1-1H2c-.6 0-1 .4-1 1v9c0 .6.4 1 1 1zm1-9h2v7H3V9zM10 18h4c.6 0 1-.4 1-1V3c0-.6-.4-1-1-1h-4c-.6 0-1 .4-1 1v14c0 .6.4 1 1 1zm1-14h2v12h-2V4zM18 18h4c.6 0 1-.4 1-1v-5c0-.6-.4-1-1-1h-4c-.6 0-1 .4-1 1v5c0 .6.4 1 1 1zm1-5h2v3h-2v-3z"/></symbol><symbol id="chart-pie" viewBox="0 0 24 24"><path d="M13 1c-.6 0-1 .4-1 1v9c0 .6.4 1 1 1h9c.6 0 1-.4 1-1 0-5.5-4.5-10-10-10zm1 9V3.1c3.6.4 6.4 3.3 6.9 6.9H14z"/><path d="M19 13h-8V5c0-.6-.4-1-1-1C4.5 4 0 8.5 0 14s4.5 10 10 10 10-4.5 10-10c0-.6-.4-1-1-1zm-9 9c-4.4 0-8-3.6-8-8 0-4.1 3.1-7.4 7-7.9V14c0 .6.4 1 1 1h7.9c-.5 3.9-3.8 7-7.9 7z"/></symbol><symbol id="chat" viewBox="0 0 24 24"><path d="M22 9.5V9c0-5-4.9-9-11-9S0 4 0 9c0 1.9.7 3.6 2 5.2V19c0 .3.2.7.5.9.1.1.3.1.5.1s.3 0 .4-.2l4.1-2c1.9 2.3 5.4 3.6 9.1 3.1l4 2c.1.1.2.1.4.1s.4 0 .5-.1c.3-.2.5-.6.5-.9v-3.6c1.3-1.2 2-2.8 2-4.4 0-1.7-.7-3.2-2-4.5zM3.7 13.1C2.6 11.9 2 10.5 2 9c0-3.9 4-7 9-7s9 3.1 9 7-4 7-9 7c-.9 0-1.8-.1-2.6-.3-.3-.2-.7-.2-1.1 0-.1 0-.1.1-.1.1L4 17.4v-3.6c0-.3-.1-.5-.3-.7zm16.7 4.1c-.3.2-.4.5-.4.8v2.3l-2.8-1.4c-.2-.1-.4-.1-.6-.1-2 .3-4 0-5.5-.8 4.8 0 8.8-2.5 10.3-6 .4.6.6 1.3.6 2 0 1.2-.5 2.3-1.6 3.2z"/></symbol><symbol id="check" viewBox="0 0 24 24"><path d="M22.7 5.3c-.4-.4-1-.4-1.4 0L9 17.6l-6.3-6.3c-.4-.4-1-.4-1.4 0s-.4 1 0 1.4l7 7c.2.2.4.3.7.3s.5-.1.7-.3l13-13c.4-.4.4-1 0-1.4z"/></symbol><symbol id="clock" viewBox="0 0 24 24"><path d="M12 0C5.4 0 0 5.4 0 12s5.4 12 12 12 12-5.4 12-12S18.6 0 12 0zm0 22C6.5 22 2 17.5 2 12S6.5 2 12 2s10 4.5 10 10-4.5 10-10 10z"/><path d="M18 11h-5V6c0-.6-.4-1-1-1s-1 .4-1 1v6c0 .6.4 1 1 1h6c.6 0 1-.4 1-1s-.4-1-1-1z"/></symbol><symbol id="close-circle-full" viewBox="0 0 24 24"><path d="M12 0C5.4 0 0 5.4 0 12s5.4 12 12 12 12-5.4 12-12S18.6 0 12 0zm4.7 15.3c.4.4.4 1 0 1.4-.2.2-.4.3-.7.3s-.5-.1-.7-.3L12 13.4l-3.3 3.3c-.2.2-.4.3-.7.3s-.5-.1-.7-.3c-.4-.4-.4-1 0-1.4l3.3-3.3-3.3-3.3c-.4-.4-.4-1 0-1.4s1-.4 1.4 0l3.3 3.3 3.3-3.3c.4-.4 1-.4 1.4 0s.4 1 0 1.4L13.4 12l3.3 3.3z"/></symbol><symbol id="close-circle" viewBox="0 0 24 24"><path d="M16.7 7.3c-.4-.4-1-.4-1.4 0L12 10.6 8.7 7.3c-.4-.4-1-.4-1.4 0s-.4 1 0 1.4l3.3 3.3-3.3 3.3c-.4.4-.4 1 0 1.4.2.2.4.3.7.3s.5-.1.7-.3l3.3-3.3 3.3 3.3c.2.2.4.3.7.3s.5-.1.7-.3c.4-.4.4-1 0-1.4L13.4 12l3.3-3.3c.4-.4.4-1 0-1.4z"/><path d="M12 0C5.4 0 0 5.4 0 12s5.4 12 12 12 12-5.4 12-12S18.6 0 12 0zm0 22C6.5 22 2 17.5 2 12S6.5 2 12 2s10 4.5 10 10-4.5 10-10 10z"/></symbol><symbol id="close" viewBox="0 0 24 24"><path d="M13.4 12l6.3-6.3c.4-.4.4-1 0-1.4s-1-.4-1.4 0L12 10.6 5.7 4.3c-.4-.4-1-.4-1.4 0s-.4 1 0 1.4l6.3 6.3-6.3 6.3c-.4.4-.4 1 0 1.4.2.2.4.3.7.3s.5-.1.7-.3l6.3-6.3 6.3 6.3c.2.2.4.3.7.3s.5-.1.7-.3c.4-.4.4-1 0-1.4L13.4 12z"/></symbol><symbol id="code" viewBox="0 0 24 24"><path d="M6.7 7.3c-.4-.4-1-.4-1.4 0l-4 4c-.4.4-.4 1 0 1.4l4 4c.2.2.4.3.7.3s.5-.1.7-.3c.4-.4.4-1 0-1.4L3.4 12l3.3-3.3c.4-.4.4-1 0-1.4zM22.7 11.3l-4-4c-.4-.4-1-.4-1.4 0s-.4 1 0 1.4l3.3 3.3-3.3 3.3c-.4.4-.4 1 0 1.4.2.2.4.3.7.3s.5-.1.7-.3l4-4c.4-.4.4-1 0-1.4zM14.3 3.1c-.5-.2-1.1.2-1.2.7l-4 16c-.2.5.2 1.1.7 1.2h.2c.4 0 .9-.3 1-.7l4-16c.2-.5-.2-1.1-.7-1.2z"/></symbol><symbol id="copy" viewBox="0 0 24 24"><path d="M22 7h-5V2c0-.6-.4-1-1-1H2c-.6 0-1 .4-1 1v14c0 .6.4 1 1 1h5v5c0 .6.4 1 1 1h14c.6 0 1-.4 1-1V8c0-.6-.4-1-1-1zM3 3h12v12H3V3zm18 18H9v-4h7c.6 0 1-.4 1-1V9h4v12z"/></symbol><symbol id="dashborad" viewBox="0 0 24 24"><path d="M12 0C5.4 0 0 5.4 0 12s5.4 12 12 12 12-5.4 12-12S18.6 0 12 0zm0 22C6.5 22 2 17.5 2 12S6.5 2 12 2s10 4.5 10 10-4.5 10-10 10z"/><path d="M12 9c-.5 0-.9.1-1.3.3l-3-3c-.4-.4-1-.4-1.4 0s-.4 1 0 1.4l3 3c-.2.4-.3.8-.3 1.3 0 1.7 1.3 3 3 3s3-1.3 3-3-1.3-3-3-3zm0 4c-.6 0-1-.4-1-1 0-.3.1-.5.2-.7h.1v-.1c.2-.1.4-.2.7-.2.6 0 1 .4 1 1s-.4 1-1 1zM12 7c.6 0 1-.4 1-1V5c0-.6-.4-1-1-1s-1 .4-1 1v1c0 .6.4 1 1 1zM17.6 7.8c.4-.4.4-1 0-1.4s-1-.4-1.4 0l-.7.7c-.4.4-.4 1 0 1.4.2.2.4.3.7.3s.6-.1.8-.3l.6-.7zM19 11h-1c-.6 0-1 .4-1 1s.4 1 1 1h1c.6 0 1-.4 1-1s-.4-1-1-1zM6 11H5c-.6 0-1 .4-1 1s.4 1 1 1h1c.6 0 1-.4 1-1s-.4-1-1-1z"/></symbol><symbol id="desktop" viewBox="0 0 24 24"><path d="M13 5a1 1 0 1 1-2 0 1 1 0 0 1 2 0z"/><path d="M21 0H3C1.3 0 0 1.3 0 3v14c0 1.7 1.3 3 3 3h8v2H6c-.6 0-1 .4-1 1s.4 1 1 1h12c.6 0 1-.4 1-1s-.4-1-1-1h-5v-2h8c1.7 0 3-1.3 3-3V3c0-1.7-1.3-3-3-3zM3 2h18c.6 0 1 .4 1 1v11H2V3c0-.6.4-1 1-1zm18 16H3c-.6 0-1-.4-1-1v-1h20v1c0 .6-.4 1-1 1z"/></symbol><symbol id="devices" viewBox="0 0 24 24"><path d="M5 9a1 1 0 1 1-2 0 1 1 0 0 1 2 0z"/><path d="M22 8V2c0-1.1-.9-2-2-2H2C.9 0 0 .9 0 2v14c0 1.1.9 2 2 2h12v4c0 1.1.9 2 2 2h6c1.1 0 2-.9 2-2V10c0-1.1-.9-2-2-2zm-6 0c-1.1 0-2 .9-2 2v2H8V6h8v2zm0 2h6v8h-6v-8zM2 16V2h18v6h-2V5c0-.6-.4-1-1-1H7c-.6 0-1 .4-1 1v8c0 .6.4 1 1 1h7v2H2zm14 6v-2h6v2h-6z"/></symbol><symbol id="diamond" viewBox="0 0 24 24"><path d="M23 8c0-.3-.1-.6-.3-.7L19 1.7c0-.3-.3-.6-.6-.7-.2-.1-.5-.1-.7 0h-5.4c-.2-.1-.4-.1-.6 0H6c-.3 0-.6.2-.8.4L1.3 7.3c-.1.1-.2.2-.2.4-.1.2-.1.5 0 .7.1.1.1.3.2.3l9.8 12.7c.1.2.3.4.6.5h.5c.2 0 .4-.1.5-.2s.2-.2.3-.4l9.7-12.6c.2-.1.3-.4.3-.7zM5.7 4.2l1 2.8H3.9l1.8-2.8zm9 4.8L12 17.5 9.3 9h5.4zM9.9 7L12 3.9 14 7H9.9zm3.9-4h2.8l-.9 2.8L13.8 3zM8.3 5.7L7.4 3h2.7L8.3 5.7zM7.2 9l2.1 7L4 9h3.2zm9.6 0H20l-5.4 7 2.2-7zm.6-2l.9-2.7L20.1 7h-2.7z"/></symbol><symbol id="documentation" viewBox="0 0 24 24"><path d="M18 4H2c-.6 0-1 .4-1 1v18c0 .6.4 1 1 1h16c.6 0 1-.4 1-1V5c0-.6-.4-1-1-1zm-1 18H3V6h14v16z"/><path d="M22 0H5c-.6 0-1 .4-1 1s.4 1 1 1h16v19c0 .6.4 1 1 1s1-.4 1-1V1c0-.6-.4-1-1-1z"/><path d="M6 11h8c.6 0 1-.4 1-1s-.4-1-1-1H6c-.6 0-1 .4-1 1s.4 1 1 1zM6 15h8c.6 0 1-.4 1-1s-.4-1-1-1H6c-.6 0-1 .4-1 1s.4 1 1 1zM6 19h4c.6 0 1-.4 1-1s-.4-1-1-1H6c-.6 0-1 .4-1 1s.4 1 1 1z"/></symbol><symbol id="dots-full" viewBox="0 0 24 24"><path d="M14 12a2 2 0 1 1-3.999.001A2 2 0 0 1 14 12zM5 12a2 2 0 1 1-3.999.001A2 2 0 0 1 5 12zM23 12a2 2 0 1 1-3.999.001A2 2 0 0 1 23 12z"/></symbol><symbol id="dots" viewBox="0 0 24 24"><path d="M12 9c-1.7 0-3 1.3-3 3s1.3 3 3 3 3-1.3 3-3-1.3-3-3-3zm0 4c-.6 0-1-.4-1-1s.4-1 1-1 1 .4 1 1-.4 1-1 1zM3 9c-1.7 0-3 1.3-3 3s1.3 3 3 3 3-1.3 3-3-1.3-3-3-3zm0 4c-.6 0-1-.4-1-1s.4-1 1-1 1 .4 1 1-.4 1-1 1zM21 9c-1.7 0-3 1.3-3 3s1.3 3 3 3 3-1.3 3-3-1.3-3-3-3zm0 4c-.6 0-1-.4-1-1s.4-1 1-1 1 .4 1 1-.4 1-1 1z"/></symbol><symbol id="double-arrow-left" viewBox="0 0 24 24"><path d="M11.4 12l9.3-9.3c.4-.4.4-1 0-1.4s-1-.4-1.4 0l-10 10c-.4.4-.4 1 0 1.4l10 10c.2.2.4.3.7.3s.5-.1.7-.3c.4-.4.4-1 0-1.4L11.4 12z"/><path d="M5.4 12l9.3-9.3c.4-.4.4-1 0-1.4s-1-.4-1.4 0l-10 10c-.4.4-.4 1 0 1.4l10 10c.2.2.4.3.7.3s.5-.1.7-.3c.4-.4.4-1 0-1.4L5.4 12z"/></symbol><symbol id="double-arrow-right" viewBox="0 0 24 24"><path d="M14.7 11.3l-10-10c-.4-.4-1-.4-1.4 0s-.4 1 0 1.4l9.3 9.3-9.3 9.3c-.4.4-.4 1 0 1.4.2.2.4.3.7.3s.5-.1.7-.3l10-10c.4-.4.4-1 0-1.4z"/><path d="M20.7 11.3l-10-10c-.4-.4-1-.4-1.4 0s-.4 1 0 1.4l9.3 9.3-9.3 9.3c-.4.4-.4 1 0 1.4.2.2.4.3.7.3s.5-.1.7-.3l10-10c.4-.4.4-1 0-1.4z"/></symbol><symbol id="download" viewBox="0 0 24 24"><path d="M14.3 18.3L13 19.6V9c0-.6-.4-1-1-1s-1 .4-1 1v10.6l-1.3-1.3c-.4-.4-1-.4-1.4 0s-.4 1 0 1.4l2.9 2.9c.2.3.4.4.8.4s.6-.2.8-.4l2.9-2.9c.4-.4.4-1 0-1.4s-1-.4-1.4 0z"/><path d="M22.5 8.5c-.7-.8-1.6-1.2-2.6-1.4C19.2 3 15.7 0 11.5 0 7.2 0 3.6 3.2 3.1 7.4 1.2 8.2 0 10 0 12c0 2.8 2.2 5 5 5h2c.6 0 1-.4 1-1s-.4-1-1-1H5c-1.7 0-3-1.3-3-3 0-1.4.9-2.6 2.3-2.9.4-.1.7-.5.7-.9C5.2 4.7 8 2 11.5 2c3.4 0 6.3 2.7 6.5 6.1 0 .5.5.9 1 .9.8 0 1.5.3 2.1.9.6.5.9 1.3.9 2.1 0 1.7-1.3 3-3 3h-2c-.6 0-1 .4-1 1s.4 1 1 1h2c2.8 0 5-2.2 5-5 0-1.3-.5-2.6-1.5-3.5z"/></symbol><symbol id="drag" viewBox="0 0 24 24"><path d="M23 12c0-.4-.2-.6-.4-.8l-2.9-2.9c-.4-.4-1-.4-1.4 0s-.4 1 0 1.4l1.3 1.3H13V4.4l1.3 1.3c.2.2.4.3.7.3s.5-.1.7-.3c.4-.4.4-1 0-1.4l-2.9-2.9c-.2-.2-.4-.4-.8-.4s-.6.2-.8.4L8.3 4.3c-.4.4-.4 1 0 1.4s1 .4 1.4 0L11 4.4V11H4.4l1.3-1.3c.4-.4.4-1 0-1.4s-1-.4-1.4 0l-2.9 2.9c-.2.2-.4.4-.4.8s.2.6.4.8l2.9 2.9c.2.2.4.3.7.3s.5-.1.7-.3c.4-.4.4-1 0-1.4L4.4 13H11v6.6l-1.3-1.3c-.4-.4-1-.4-1.4 0s-.4 1 0 1.4l2.9 2.9c.2.3.4.4.8.4s.6-.2.8-.4l2.9-2.9c.4-.4.4-1 0-1.4s-1-.4-1.4 0L13 19.6V13h6.6l-1.3 1.3c-.4.4-.4 1 0 1.4.2.2.4.3.7.3s.5-.1.7-.3l2.9-2.9c.2-.2.4-.4.4-.8z"/></symbol><symbol id="ecommerce" viewBox="0 0 24 24"><path d="M7 18c-1.7 0-3 1.3-3 3s1.3 3 3 3 3-1.3 3-3-1.3-3-3-3zm0 4c-.6 0-1-.4-1-1s.4-1 1-1 1 .4 1 1-.4 1-1 1zM19 18c-1.7 0-3 1.3-3 3s1.3 3 3 3 3-1.3 3-3-1.3-3-3-3zm0 4c-.6 0-1-.4-1-1s.4-1 1-1 1 .4 1 1-.4 1-1 1zM6 17h14c.5 0 .9-.3 1-.8l2-10c0-.3 0-.6-.2-.8-.2-.3-.5-.4-.8-.4H5.5L5 .9C4.9.4 4.5 0 4 0H1C.4 0 0 .4 0 1s.4 1 1 1h2.1L5 16.1c.1.5.5.9 1 .9zM20.8 7l-1.6 8H6.9L5.8 7h15z"/></symbol><symbol id="edit" viewBox="0 0 24 24"><path d="M17 .6l-16 16V23h6.4l16-16L17 .6zM6.6 21H3v-3.6l11-11 3.6 3.6-11 11zM19 8.6L15.4 5 17 3.4 20.6 7 19 8.6z"/></symbol><symbol id="email" viewBox="0 0 24 24"><path d="M23 2H1c-.6 0-1 .4-1 1v18c0 .6.4 1 1 1h22c.6 0 1-.4 1-1V3c0-.6-.4-1-1-1zM2 4h20v3.4l-10 5.5L2 7.4V4zm0 16V9.7l9.5 5.2c.2.1.3.1.5.1s.3 0 .5-.1L22 9.7V20H2z"/></symbol><symbol id="equal-circle-full" viewBox="0 0 24 24"><path d="M12 0C5.4 0 0 5.4 0 12s5.4 12 12 12 12-5.4 12-12S18.6 0 12 0zm5.4 15.5H6.6c-.3 0-.6-.4-.6-1s.3-1 .6-1h10.7c.3 0 .6.4.6 1s-.2 1-.5 1zm0-5H6.6c-.3 0-.6-.4-.6-1s.3-1 .6-1h10.7c.3 0 .6.4.6 1s-.2 1-.5 1z"/></symbol><symbol id="equal-circle" viewBox="0 0 24 24"><path d="M12 0C5.4 0 0 5.4 0 12s5.4 12 12 12 12-5.4 12-12S18.6 0 12 0zm0 22C6.5 22 2 17.5 2 12S6.5 2 12 2s10 4.5 10 10-4.5 10-10 10z"/><path d="M17.4 13.5H6.6c-.3 0-.6.4-.6 1s.3 1 .6 1h10.7c.3 0 .6-.4.6-1 .1-.6-.2-1-.5-1zM6.6 10.5h10.7c.3 0 .6-.4.6-1s-.2-1-.5-1H6.6c-.3 0-.6.4-.6 1s.3 1 .6 1z"/></symbol><symbol id="equal" viewBox="0 0 24 24"><path d="M17.4 13.5H6.6c-.3 0-.6.4-.6 1s.3 1 .6 1h10.7c.3 0 .6-.4.6-1s-.2-1-.5-1zM6.6 10.5h10.7c.3 0 .6-.4.6-1s-.2-1-.5-1H6.6c-.3 0-.6.4-.6 1s.3 1 .6 1z"/></symbol><symbol id="erase" viewBox="0 0 24 24"><path d="M16.7 16.7l5.4-5.4c.6-.5.9-1.3.9-2.1s-.4-1.5-.9-2.1l-5.2-5.2c-1.1-1.2-3-1.2-4.2 0L7.3 7.3l-5.6 5.6c-1.2 1.1-1.2 3 0 4.2L5.6 21H3c-.6 0-1 .4-1 1s.4 1 1 1h18c.6 0 1-.4 1-1s-.4-1-1-1h-8.6l4.3-4.3zM14.1 3.3c.2-.2.4-.3.7-.3.2 0 .5.1.7.3l5.2 5.2c.2.2.3.4.3.7s-.2.5-.3.7L16 14.6 9.4 8l4.7-4.7zM8.4 21l-5.3-5.3c-.4-.4-.4-1 0-1.4L8 9.4l6.6 6.6-5 5H8.4z"/></symbol><symbol id="expand" viewBox="0 0 24 24"><path d="M1 8c.6 0 1-.4 1-1V2h5c.6 0 1-.4 1-1s-.4-1-1-1H1C.4 0 0 .4 0 1v6c0 .6.4 1 1 1zM23 0h-6c-.6 0-1 .4-1 1s.4 1 1 1h5v5c0 .6.4 1 1 1s1-.4 1-1V1c0-.6-.4-1-1-1zM23 16c-.6 0-1 .4-1 1v5h-5c-.6 0-1 .4-1 1s.4 1 1 1h6c.6 0 1-.4 1-1v-6c0-.6-.4-1-1-1zM7 22H2v-5c0-.6-.4-1-1-1s-1 .4-1 1v6c0 .6.4 1 1 1h6c.6 0 1-.4 1-1s-.4-1-1-1zM12 7c-2.8 0-5 2.2-5 5s2.2 5 5 5 5-2.2 5-5-2.2-5-5-5zm0 8c-1.7 0-3-1.3-3-3s1.3-3 3-3 3 1.3 3 3-1.3 3-3 3z"/></symbol><symbol id="eye-hide" viewBox="0 0 24 24"><path d="M22.8 12.4c-.1-.1-2.2-3.3-5.7-5.1l2.6-2.6c.4-.4.4-1 0-1.4s-1-.4-1.4 0l-3.2 3.2c-1-.3-2-.5-3.1-.5-6.5 0-10.7 6.2-10.8 6.5-.2.3-.2.8 0 1.1.1.1 1.2 1.9 3.3 3.5l-2.2 2.2c-.4.4-.4 1 0 1.4.2.2.4.3.7.3s.5-.1.7-.3l2.4-2.4c1.6 1 3.6 1.7 5.9 1.7 6.5 0 10.7-6.2 10.8-6.5.2-.3.2-.8 0-1.1zM15 11c0 1.7-1.3 3-3 3-.5 0-.9-.1-1.3-.3l4-4c.2.4.3.8.3 1.3zm-6 0c0-1.7 1.3-3 3-3 .5 0 .9.1 1.3.3l-4 4c-.2-.4-.3-.8-.3-1.3zm-5.8 2c.7-.8 2.1-2.4 4.1-3.6-.2.5-.3 1-.3 1.6 0 1 .3 2 .8 2.8l-1.9 1.9c-1.3-1-2.2-2.1-2.7-2.7zm8.8 5c-1.6 0-3.1-.5-4.4-1.2l1.6-1.6c.8.5 1.8.8 2.8.8 2.8 0 5-2.2 5-5 0-.6-.1-1.1-.3-1.6 2 1.2 3.4 2.8 4.1 3.6-1.2 1.4-4.4 5-8.8 5z"/></symbol><symbol id="eye" viewBox="0 0 24 24"><path d="M22.8 11.4C22.7 11.2 18.5 5 12 5S1.3 11.2 1.2 11.5c-.2.3-.2.8 0 1.1.1.2 4.3 6.4 10.8 6.4s10.7-6.2 10.8-6.5c.2-.3.2-.8 0-1.1zM15 10c0 1.7-1.3 3-3 3s-3-1.3-3-3 1.3-3 3-3 3 1.3 3 3zm-3 7c-4.4 0-7.7-3.6-8.8-5 .7-.8 2.1-2.4 4.1-3.6-.2.5-.3 1-.3 1.6 0 2.8 2.2 5 5 5s5-2.2 5-5c0-.6-.1-1.1-.3-1.6 2 1.2 3.4 2.8 4.1 3.6-1.2 1.4-4.4 5-8.8 5z"/></symbol><symbol id="facebook" viewBox="0 0 24 24"><path d="M23.6.4c-.2-.3-.5-.4-.9-.4H1.3C1 0 .7.1.4.4S0 1 0 1.3v21.4c0 .3.2.6.4.9s.5.4.9.4h11.5v-9.3H9.7v-3.6h3.1V8.4c0-1.5.5-2.7 1.3-3.5.9-.8 2-1.2 3.4-1.2 1.2 0 2.1 0 2.8.1V7h-1.9c-.7 0-1.1.2-1.4.5s-.4.7-.4 1.3v2.3h3.6l-.5 3.6h-3.1V24h6.1c.3 0 .6-.3.9-.5s.4-.5.4-.9V1.3c0-.3-.2-.6-.4-.9z"/></symbol><symbol id="faq" viewBox="0 0 24 24"><path d="M12 0C5.4 0 0 5.4 0 12s5.4 12 12 12 12-5.4 12-12S18.6 0 12 0zm0 22C6.5 22 2 17.5 2 12S6.5 2 12 2s10 4.5 10 10-4.5 10-10 10z"/><path d="M12 6c-1.7 0-3.1 1.2-3.7 2.5-.2.4 0 1 .5 1.3.4.2 1 0 1.3-.5.3-.6 1.1-1.3 1.9-1.3 1 0 2 1 2 2s-1 2-2 2c-.6 0-1 .4-1 1v1c0 .6.4 1 1 1s1-.4 1-1v-.1c1.7-.5 3-2.1 3-3.9 0-2.2-1.8-4-4-4zM12 16c-.6 0-1 .4-1 1v1c0 .6.4 1 1 1s1-.4 1-1v-1c0-.6-.4-1-1-1z"/></symbol><symbol id="fast-backward" viewBox="0 0 24 24"><path d="M16.4 2.1c-.3-.2-.7-.1-1 .1l-12 9c-.3.2-.4.5-.4.8s.1.6.4.8l12 9c.2.1.4.2.6.2s.3 0 .4-.1c.4-.2.6-.5.6-.9V3c0-.4-.2-.7-.6-.9zM15 19l-9.3-7L15 5v14zM20 2c-.6 0-1 .4-1 1v18c0 .6.4 1 1 1s1-.4 1-1V3c0-.6-.4-1-1-1z"/></symbol><symbol id="fast-forward" viewBox="0 0 24 24"><path d="M16.6 11.2l-12-9c-.3-.2-.7-.3-1-.1-.4.2-.6.5-.6.9v18c0 .4.2.7.6.9.1.1.2.1.4.1s.4-.1.6-.2l12-9c.3-.2.4-.5.4-.8s-.1-.6-.4-.8zM5 19V5l9.3 7L5 19zM20 2c-.6 0-1 .4-1 1v18c0 .6.4 1 1 1s1-.4 1-1V3c0-.6-.4-1-1-1z"/></symbol><symbol id="file-code" viewBox="0 0 24 24"><path d="M22 0H2c-.6 0-1 .4-1 1v22c0 .6.4 1 1 1h20c.6 0 1-.4 1-1V1c0-.6-.4-1-1-1zm-1 22H3V2h18v20z"/><path d="M8.3 15.7c.2.2.4.3.7.3s.5-.1.7-.3c.4-.4.4-1 0-1.4L7.4 12l2.3-2.3c.4-.4.4-1 0-1.4s-1-.4-1.4 0l-3 3c-.4.4-.4 1 0 1.4l3 3zM14.3 15.7c.2.2.4.3.7.3s.5-.1.7-.3l3-3c.4-.4.4-1 0-1.4l-3-3c-.4-.4-1-.4-1.4 0s-.4 1 0 1.4l2.3 2.3-2.3 2.3c-.4.4-.4 1 0 1.4z"/></symbol><symbol id="file-csv" viewBox="0 0 24 24"><path d="M22 0H2c-.6 0-1 .4-1 1v22c0 .6.4 1 1 1h20c.6 0 1-.4 1-1V1c0-.6-.4-1-1-1zm-1 22H3V2h18v20z"/><path d="M7 8h10c.6 0 1-.4 1-1s-.4-1-1-1H7c-.6 0-1 .4-1 1s.4 1 1 1zM7 13h10c.6 0 1-.4 1-1s-.4-1-1-1H7c-.6 0-1 .4-1 1s.4 1 1 1zM7 18h4c.6 0 1-.4 1-1s-.4-1-1-1H7c-.6 0-1 .4-1 1s.4 1 1 1z"/></symbol><symbol id="file-doc" viewBox="0 0 24 24"><path d="M22 0H2c-.6 0-1 .4-1 1v22c0 .6.4 1 1 1h20c.6 0 1-.4 1-1V1c0-.6-.4-1-1-1zm-1 22H3V2h18v20z"/><path d="M15 7h2c.6 0 1-.4 1-1s-.4-1-1-1h-2c-.6 0-1 .4-1 1s.4 1 1 1zM15 11h2c.6 0 1-.4 1-1s-.4-1-1-1h-2c-.6 0-1 .4-1 1s.4 1 1 1zM7 15h10c.6 0 1-.4 1-1s-.4-1-1-1H7c-.6 0-1 .4-1 1s.4 1 1 1zM7 19h10c.6 0 1-.4 1-1s-.4-1-1-1H7c-.6 0-1 .4-1 1s.4 1 1 1zM7 11h4c.6 0 1-.4 1-1V6c0-.6-.4-1-1-1H7c-.6 0-1 .4-1 1v4c0 .6.4 1 1 1zm1-4h2v2H8V7z"/></symbol><symbol id="file-log" viewBox="0 0 24 24"><path d="M18 4H2c-.6 0-1 .4-1 1v18c0 .6.4 1 1 1h16c.6 0 1-.4 1-1V5c0-.6-.4-1-1-1zm-1 18H3V6h14v16z"/><path d="M22 0H5c-.6 0-1 .4-1 1s.4 1 1 1h16v19c0 .6.4 1 1 1s1-.4 1-1V1c0-.6-.4-1-1-1z"/><path d="M6 11h8c.6 0 1-.4 1-1s-.4-1-1-1H6c-.6 0-1 .4-1 1s.4 1 1 1zM6 15h8c.6 0 1-.4 1-1s-.4-1-1-1H6c-.6 0-1 .4-1 1s.4 1 1 1zM6 19h4c.6 0 1-.4 1-1s-.4-1-1-1H6c-.6 0-1 .4-1 1s.4 1 1 1z"/></symbol><symbol id="file-pdf" viewBox="0 0 24 24"><path d="M22 0H2c-.6 0-1 .4-1 1v22c0 .6.4 1 1 1h20c.6 0 1-.4 1-1V1c0-.6-.4-1-1-1zm-1 22H3V2h18v20z"/><path d="M15 7h2c.6 0 1-.4 1-1s-.4-1-1-1h-2c-.6 0-1 .4-1 1s.4 1 1 1zM15 11h2c.6 0 1-.4 1-1s-.4-1-1-1h-2c-.6 0-1 .4-1 1s.4 1 1 1zM7 15h10c.6 0 1-.4 1-1s-.4-1-1-1H7c-.6 0-1 .4-1 1s.4 1 1 1zM7 19h10c.6 0 1-.4 1-1s-.4-1-1-1H7c-.6 0-1 .4-1 1s.4 1 1 1zM7 11h4c.6 0 1-.4 1-1V6c0-.6-.4-1-1-1H7c-.6 0-1 .4-1 1v4c0 .6.4 1 1 1zm1-4h2v2H8V7z"/></symbol><symbol id="file-ppt" viewBox="0 0 24 24"><path d="M22 0H2c-.6 0-1 .4-1 1v22c0 .6.4 1 1 1h20c.6 0 1-.4 1-1V1c0-.6-.4-1-1-1zm-1 22H3V2h18v20z"/><path d="M9.5 16.9c.2.1.3.1.5.1s.4-.1.5-.3l6-4c.2-.2.4-.5.4-.8s-.1-.6-.4-.8l-6-4c-.3-.2-.7-.2-1 0S9 7.6 9 8v8c0 .4.2.7.5.9zm1.5-7l3.2 2.2-3.2 2.1V9.9z"/></symbol><symbol id="file-xls" viewBox="0 0 24 24"><path d="M22 0H2c-.6 0-1 .4-1 1v22c0 .6.4 1 1 1h20c.6 0 1-.4 1-1V1c0-.6-.4-1-1-1zm-1 22H3V2h18v20z"/><path d="M7 8h10c.6 0 1-.4 1-1s-.4-1-1-1H7c-.6 0-1 .4-1 1s.4 1 1 1zM7 13h10c.6 0 1-.4 1-1s-.4-1-1-1H7c-.6 0-1 .4-1 1s.4 1 1 1zM7 18h4c.6 0 1-.4 1-1s-.4-1-1-1H7c-.6 0-1 .4-1 1s.4 1 1 1z"/></symbol><symbol id="file-zip" viewBox="0 0 24 24"><path d="M22 0H2c-.6 0-1 .4-1 1v22c0 .6.4 1 1 1h20c.6 0 1-.4 1-1V1c0-.6-.4-1-1-1zm-1 22H3V2h18v20z"/><path d="M10 20h4c.6 0 1-.4 1-1v-4c0-.6-.4-1-1-1h-4c-.6 0-1 .4-1 1v4c0 .6.4 1 1 1zm1-4h2v2h-2v-2zM12 7c.6 0 1-.4 1-1V5c0-.6-.4-1-1-1s-1 .4-1 1v1c0 .6.4 1 1 1zM12 12c.6 0 1-.4 1-1v-1c0-.6-.4-1-1-1s-1 .4-1 1v1c0 .6.4 1 1 1z"/></symbol><symbol id="file" viewBox="0 0 24 24"><path d="M22.6 6.2L16.8.4c-.2-.2-.4-.4-.8-.4H2c-.6 0-1 .4-1 1v22c0 .6.4 1 1 1h20c.6 0 1-.4 1-1V7c0-.4-.2-.6-.4-.8zM3 22V2h12v5c0 .6.4 1 1 1h5v14H3z"/></symbol><symbol id="filter-full" viewBox="0 0 24 24"><path d="M21 1H3c-.6 0-1 .4-1 1v2.5c0 .3.1.6.3.8L9 11v12l6-3v-9l6.7-5.7c.2-.2.3-.5.3-.8V2c0-.6-.4-1-1-1z"/></symbol><symbol id="filter" viewBox="0 0 24 24"><path d="M21 0H3c-.6 0-1 .4-1 1v4c0 .3.1.6.3.8L9 11.5V22c0 .3.2.7.5.9.1.1.3.1.5.1s.3 0 .4-.1l4-2c.4-.2.6-.5.6-.9v-8.5l6.7-5.7c.2-.2.3-.5.3-.8V1c0-.6-.4-1-1-1zm-1 4.5l-6.7 5.7c-.2.2-.3.5-.3.8v8.4l-2 1V11c0-.3-.1-.6-.3-.8L4 4.5V2h16v2.5z"/></symbol><symbol id="folder" viewBox="0 0 24 24"><path d="M23.8 8.4c-.2-.3-.5-.4-.8-.4H6c-.5 0-.9.3-1 .8l-3 13c0 .3 0 .6.2.8.2.3.5.4.8.4h17c.5 0 .9-.3 1-.8l3-13c0-.3 0-.6-.2-.8zM19.2 21H4.3l2.5-11h14.9l-2.5 11z"/><path d="M2 3h5.5l1.7 2.6c.2.2.5.4.8.4h9c.6 0 1-.4 1-1s-.4-1-1-1h-8.5L8.8 1.4C8.6 1.2 8.3 1 8 1H1c-.6 0-1 .4-1 1v16c0 .6.4 1 1 1s1-.4 1-1V3z"/></symbol><symbol id="forward" viewBox="0 0 24 24"><path d="M22.7 11.2l-10-8c-.3-.2-.8-.3-1.1-.1-.4.2-.6.5-.6.9v6.7L1.6 3.2c-.3-.2-.7-.3-1-.1-.4.2-.6.5-.6.9v16c0 .4.2.7.6.9.1.1.3.1.4.1.2 0 .4-.1.6-.2l9.4-7.5V20c0 .4.2.7.6.9.1.1.3.1.4.1.2 0 .4-.1.7-.2l10-8c.3-.2.4-.5.4-.8s-.2-.6-.4-.8zM2 17.9V6.1L9.4 12 2 17.9zm11 0V6.1l7.4 5.9-7.4 5.9z"/></symbol><symbol id="gear" viewBox="0 0 24 24"><path d="M23 9h-2.5c-.1-.3-.3-.6-.4-.9l1.8-1.8c.2-.2.3-.4.3-.7s-.1-.5-.3-.7l-2.8-2.8c-.4-.4-1-.4-1.4 0l-1.8 1.8c-.3-.2-.6-.3-.9-.4V1c0-.6-.4-1-1-1h-4c-.6 0-1 .4-1 1v2.5c-.3.1-.6.2-.9.4L6.3 2.1c-.4-.4-1-.4-1.4 0L2.1 4.9c-.4.4-.4 1 0 1.4l1.8 1.8c-.2.3-.3.6-.4.9H1c-.6 0-1 .4-1 1v4c0 .6.4 1 1 1h2.5c.1.3.3.6.4.9l-1.8 1.8c-.4.4-.4 1 0 1.4l2.8 2.8c.4.4 1 .4 1.4 0l1.8-1.8c.3.2.6.3.9.4V23c0 .6.4 1 1 1h4c.6 0 1-.4 1-1v-2.5c.3-.1.6-.3.9-.4l1.8 1.8c.4.4 1 .4 1.4 0l2.8-2.8c.4-.4.4-1 0-1.4l-1.8-1.8c.2-.3.3-.6.4-.9H23c.6 0 1-.4 1-1v-4c0-.6-.4-1-1-1zm-1 4h-2.3c-.5 0-.9.4-1 .8-.1.6-.4 1.2-.7 1.8-.2.4-.1.9.2 1.2l1.6 1.6-1.4 1.4-1.6-1.6c-.3-.4-.8-.4-1.2-.2-.6.3-1.2.5-1.8.7-.5.1-.8.5-.8 1V22h-2l-.1-2.4c0-.5-.3-.9-.7-1-.6-.1-1.2-.4-1.8-.7-.4-.2-.9-.1-1.2.2l-1.6 1.6-1.4-1.4 1.6-1.6c.4-.3.4-.8.2-1.2-.4-.5-.6-1.1-.7-1.7-.1-.5-.5-.8-1-.8H2v-2h2.2c.5 0 .9-.4 1-.8.2-.6.4-1.2.8-1.8.2-.3.1-.8-.2-1.2L4.2 5.6l1.4-1.4 1.6 1.6c.4.3.9.4 1.2.2.6-.4 1.2-.6 1.8-.7.5-.1.8-.5.8-1V2h2v2.3c0 .5.4.9.8 1 .6.1 1.2.4 1.8.7.4.2.9.1 1.2-.2l1.6-1.6 1.4 1.4-1.6 1.6c-.4.3-.4.8-.2 1.2.4.6.6 1.2.7 1.9.1.4.5.7 1 .7H22v2z"/><path d="M12 8c-2.2 0-4 1.8-4 4s1.8 4 4 4 4-1.8 4-4-1.8-4-4-4zm0 6c-1.1 0-2-.9-2-2s.9-2 2-2 2 .9 2 2-.9 2-2 2z"/></symbol><symbol id="gender" viewBox="0 0 24 24"><path d="M23 1h-4c-.6 0-1 .4-1 1s.4 1 1 1h1.6l-2.4 2.4C17 4.5 15.6 4 14 4c-1.3 0-2.5.3-3.5.9C9.5 4.3 8.3 4 7 4c-3.9 0-7 3.1-7 7 0 3.6 2.6 6.4 6 6.9V20H5c-.6 0-1 .4-1 1s.4 1 1 1h1v1c0 .6.4 1 1 1s1-.4 1-1v-1h1c.6 0 1-.4 1-1s-.4-1-1-1H8v-2.1c.9-.1 1.7-.4 2.5-.8 1 .6 2.2.9 3.5.9 3.9 0 7-3.1 7-7 0-1.6-.5-3-1.4-4.2L22 4.4V6c0 .6.4 1 1 1s1-.4 1-1V2c0-.6-.4-1-1-1zM12 11c0 1.4-.6 2.7-1.5 3.6C9.6 13.7 9 12.4 9 11s.6-2.7 1.5-3.6c.9.9 1.5 2.2 1.5 3.6zM2 11c0-2.8 2.2-5 5-5 .6 0 1.2.1 1.8.3C7.7 7.6 7 9.2 7 11s.7 3.4 1.8 4.7c-.6.2-1.2.3-1.8.3-2.8 0-5-2.2-5-5zm12 5c-.6 0-1.2-.1-1.8-.3 1.1-1.2 1.8-2.9 1.8-4.7s-.7-3.4-1.8-4.7c.6-.2 1.2-.3 1.8-.3 1.3 0 2.5.5 3.4 1.3 0 .1.1.1.1.2l.2.2c.8.9 1.3 2 1.3 3.3 0 2.8-2.2 5-5 5z"/></symbol><symbol id="gift" viewBox="0 0 24 24"><path d="M23 4h-4.2c.1-.3.2-.6.2-1 0-1.7-1.3-3-3-3-2 0-3.2 1.3-4 2.6C11.2 1.3 10 0 8 0 6.3 0 5 1.3 5 3c0 .4.1.7.2 1H1c-.6 0-1 .4-1 1v4c0 .6.4 1 1 1h1v13c0 .6.4 1 1 1h18c.6 0 1-.4 1-1V10h1c.6 0 1-.4 1-1V5c0-.6-.4-1-1-1zm-7-2c.6 0 1 .4 1 1s-.4 1-1 1h-2.5c.4-.9 1.3-2 2.5-2zm-4 4h1v2h-2V6h1zM7 3c0-.6.4-1 1-1 1.2 0 2.1 1.1 2.5 2H8c-.6 0-1-.4-1-1zM2 6h7v2H2V6zm2 4h5v12H4V10zm7 12V10h2v12h-2zm9 0h-5V10h5v12zm2-14h-7V6h7v2z"/></symbol><symbol id="google-plus" viewBox="0 0 24 24"><path d="M21.8 10.9V8.7h-2.2v2.2h-2.2v2.2h2.2v2.2h2.2v-2.2H24v-2.2zM7.6 10.9v2.6H12c0 .3-.1.6-.2.8-.1.3-.3.6-.5.9s-.5.6-.8.8c-.4.3-.8.5-1.2.6-.5.1-1.1.2-1.6.2-.9.1-1.7-.2-2.4-.6-1.5-.9-2.4-2.5-2.4-4.2s1-3.3 2.5-4.1c.7-.5 1.6-.7 2.4-.7 1.1 0 2.2.4 3 1.2l2.1-2c-1.4-1.3-3.2-2-5.1-2-1 0-2.1.2-3 .6-1.9.7-3.3 2.2-4.1 4a7.8 7.8 0 0 0 0 6c.7 1.8 2.2 3.2 4 4 .9.4 2 .6 3 .6 1.3 0 2.6-.3 3.8-1 1.1-.6 2-1.5 2.6-2.6.6-1.2.9-2.5.9-3.8 0-.4-.1-.9-.2-1.3H7.6z"/></symbol><symbol id="hamburger-menu" viewBox="0 0 24 24"><path d="M23 11H1c-.6 0-1 .4-1 1s.4 1 1 1h22c.6 0 1-.4 1-1s-.4-1-1-1zM1 6h22c.6 0 1-.4 1-1s-.4-1-1-1H1c-.6 0-1 .4-1 1s.4 1 1 1zM23 18H1c-.6 0-1 .4-1 1s.4 1 1 1h22c.6 0 1-.4 1-1s-.4-1-1-1z"/></symbol><symbol id="heart-full" viewBox="0 0 24 24"><path d="M22 3.62a6.977 6.977 0 0 0-4.9-2.001l-.106.001a7.224 7.224 0 0 0-4.998 2.003l.003-.003A6.753 6.753 0 0 0 7.078 1.5H6.92a6.75 6.75 0 0 0-4.918 2.117C.771 4.892.015 6.625.015 8.535s.756 3.643 1.986 4.917l-.002-.002 8.46 8.39c.388.375.917.606 1.5.606s1.112-.231 1.501-.606l8.539-8.349c1.239-1.274 2.003-3.015 2.003-4.935s-.764-3.661-2.005-4.937z"/></symbol><symbol id="heart" viewBox="0 0 24 24"><path d="M7 3.5h.03c1.364 0 2.593.576 3.457 1.498a4 4 0 0 1 .594.689 1 1 0 0 0 1.717.018c.202-.204.402-.504.602-.704a5.24 5.24 0 0 1 3.6-1.43h.049c1.364 0 2.6.546 3.502 1.431.888.915 1.437 2.165 1.437 3.544s-.548 2.63-1.439 3.546L12.1 20.461c-.025.023-.058.037-.095.037s-.07-.014-.095-.037l-8.46-8.38c-.886-.915-1.433-2.164-1.433-3.54S2.563 5.916 3.451 5a4.73 4.73 0 0 1 3.553-1.499zm0-2h-.079a6.75 6.75 0 0 0-4.918 2.117C.772 4.892.016 6.625.016 8.535s.756 3.643 1.986 4.917L2 13.45l8.46 8.39c.388.375.917.606 1.5.606s1.112-.231 1.501-.606L22 13.491c1.239-1.274 2.003-3.015 2.003-4.935s-.764-3.661-2.005-4.937l.002.002a6.977 6.977 0 0 0-4.9-2.001l-.106.001a7.224 7.224 0 0 0-4.998 2.003l.003-.003a6.753 6.753 0 0 0-4.921-2.12h-.083z"/></symbol><symbol id="image" viewBox="0 0 24 24"><path d="M23 1H1c-.6 0-1 .4-1 1v20c0 .6.4 1 1 1h22c.6 0 1-.4 1-1V2c0-.6-.4-1-1-1zm-1 2v9.9l-4.4-3.7c-.4-.4-1-.3-1.4.1l-5.4 6.3-4.2-3.4c-.3-.3-.8-.3-1.2 0L2 14.9V3h20zM2 21v-3.5l4-3.2 4.3 3.4c.4.4 1 .3 1.4-.1l5.4-6.3 4.9 4.1V21H2z"/><path d="M10 11c1.7 0 3-1.3 3-3s-1.3-3-3-3-3 1.3-3 3 1.3 3 3 3zm0-4c.6 0 1 .4 1 1s-.4 1-1 1-1-.4-1-1 .4-1 1-1z"/></symbol><symbol id="info-full" viewBox="0 0 24 24"><path d="M12 0C5.4 0 0 5.4 0 12s5.4 12 12 12 12-5.4 12-12S18.6 0 12 0zm0 6c.6 0 1 .4 1 1s-.4 1-1 1-1-.4-1-1 .4-1 1-1zm3 12H9v-2h2v-4H9v-2h3c.6 0 1 .4 1 1v5h2v2z"/></symbol><symbol id="info" viewBox="0 0 24 24"><path d="M12 0C5.4 0 0 5.4 0 12s5.4 12 12 12 12-5.4 12-12S18.6 0 12 0zm0 22C6.5 22 2 17.5 2 12S6.5 2 12 2s10 4.5 10 10-4.5 10-10 10z"/><path d="M14 16h-1v-5c0-.6-.4-1-1-1h-2c-.6 0-1 .4-1 1s.4 1 1 1h1v4h-1c-.6 0-1 .4-1 1s.4 1 1 1h4c.6 0 1-.4 1-1s-.4-1-1-1zM12 9c.6 0 1-.4 1-1V7c0-.6-.4-1-1-1s-1 .4-1 1v1c0 .6.4 1 1 1z"/></symbol><symbol id="instagram" viewBox="0 0 24 24"><path d="M23.9 7c-.1-2.2-.8-3.8-1.9-5S19.1.2 17 .1C16 0 14.4 0 12 0S8 0 7 .1C4.9.2 3.2.8 2 2S.2 4.9.1 7C0 8 0 9.6 0 12s0 4 .1 5c.1 2.2.8 3.8 1.9 5s2.9 1.8 5 1.9c1 .1 2.6.1 5 .1s4 0 5-.1c2.2-.1 3.8-.8 5-1.9s1.8-2.9 1.9-5c.1-1 .1-2.6.1-5s0-4-.1-5zm-2.1 6.2v3.2c0 .6-.1 1.2-.2 1.6s-.2.8-.3 1.1c-.2.5-.5 1-.9 1.4s-.9.7-1.4.9c-.3.1-.7.2-1.1.3s-1 .1-1.6.2H7.5c-.6 0-1.2-.1-1.6-.2s-.8-.2-1.1-.3c-.5-.2-1-.5-1.4-.9s-.7-.9-.9-1.4c-.1-.3-.2-.7-.3-1.1s-.1-1-.2-1.6v-1.5-1.7V12v-1.2-1.6-1.5c.2-.7.3-1.2.4-1.7.1-.4.2-.8.3-1.1.2-.5.5-1 .9-1.4s.9-.7 1.4-.9c.2-.1.6-.2 1-.3s1-.1 1.6-.2h8.8c.6 0 1.2.1 1.6.2s.8.2 1.1.3c.5.2 1 .5 1.4.9s.7.9.9 1.4c.1.3.2.7.3 1.1s.1 1 .2 1.6v4.3c-.1.2-.1.6-.1 1.3z"/><path d="M18.4 4.2c-.4 0-.7.1-1 .4s-.4.6-.4 1 .1.7.4 1 .6.4 1 .4.7-.1 1-.4.4-.6.4-1-.1-.7-.4-1-.6-.4-1-.4zM12 5.8c-1.7 0-3.2.6-4.4 1.8S5.8 10.3 5.8 12s.6 3.2 1.8 4.4 2.7 1.8 4.4 1.8 3.2-.6 4.4-1.8 1.8-2.7 1.8-4.4-.6-3.2-1.8-4.4-2.7-1.8-4.4-1.8zm2.8 9c-.8.8-1.7 1.2-2.8 1.2s-2-.4-2.8-1.2S8 13.1 8 12s.4-2 1.2-2.8S10.9 8 12 8s2 .4 2.8 1.2S16 10.9 16 12s-.4 2-1.2 2.8z"/></symbol><symbol id="laptop" viewBox="0 0 24 24"><path d="M3 14c.6 0 1-.4 1-1V5c0-.6.4-1 1-1h14c.6 0 1 .4 1 1v8c0 .6.4 1 1 1s1-.4 1-1V5c0-1.7-1.3-3-3-3H5C3.3 2 2 3.3 2 5v8c0 .6.4 1 1 1z"/><path d="M13 7a1 1 0 1 1-2 0 1 1 0 0 1 2 0zM23 15H1c-.6 0-1 .4-1 1v2c0 1.7 1.3 3 3 3h18c1.7 0 3-1.3 3-3v-2c0-.6-.4-1-1-1zm-1 3c0 .6-.4 1-1 1H3c-.6 0-1-.4-1-1v-1h20v1z"/></symbol><symbol id="link" viewBox="0 0 24 24"><path d="M12.7 9.9c-.177.18-.286.427-.286.7s.109.52.286.7c.737.726 1.193 1.734 1.193 2.85S13.437 16.274 12.7 17l-2.8 2.8c-.714.763-1.726 1.238-2.85 1.238s-2.136-.475-2.848-1.236c-.739-.728-1.195-1.737-1.195-2.852s.456-2.124 1.193-2.85l2.501-2.4a1 1 0 0 0-1.403-1.398L2.801 12.7c-1.11 1.077-1.799 2.583-1.799 4.25s.689 3.173 1.797 4.249A6.128 6.128 0 0 0 7.098 23a5.907 5.907 0 0 0 4.201-1.798L14.1 18.4c1.11-1.077 1.799-2.583 1.799-4.25s-.689-3.173-1.797-4.249a.999.999 0 0 0-1.401-.001z"/><path d="M21.2 2.8c-1.077-1.11-2.583-1.799-4.25-1.799s-3.173.689-4.249 1.797L9.9 5.599c-1.11 1.077-1.799 2.583-1.799 4.25s.689 3.173 1.797 4.249a.999.999 0 0 0 1.401.001c.177-.18.286-.427.286-.7s-.109-.52-.286-.7c-.737-.726-1.193-1.734-1.193-2.85s.456-2.124 1.193-2.85l2.8-2.8a4.03 4.03 0 0 1 5.699 5.7l-2.5 2.4a1 1 0 0 0 1.403 1.398l2.497-2.398c1.11-1.077 1.799-2.583 1.799-4.25S22.308 3.876 21.2 2.8z"/></symbol><symbol id="linkedin" viewBox="0 0 24 24"><path d="M22.7 1.3c-.9-.9-2-1.3-3.2-1.3h-15C3.3 0 2.2.4 1.3 1.3S0 3.3 0 4.5v15c0 1.2.4 2.3 1.3 3.2s2 1.3 3.2 1.3h15c1.2 0 2.3-.4 3.2-1.3s1.3-2 1.3-3.2v-15c0-1.2-.4-2.3-1.3-3.2zM7.3 20.1H3.7V9.2h3.6v10.9zM7 7.2c-.4.3-.9.5-1.5.5-.5 0-1-.2-1.4-.5s-.6-.8-.6-1.3.3-.9.6-1.3.8-.6 1.4-.6 1 .3 1.4.6c.4.3.6.8.6 1.3s-.1 1-.5 1.3zm13.3 12.9h-3.6v-5.8c0-1.7-.6-2.5-1.8-2.5-.5 0-.9.2-1.2.4s-.5.5-.7.9c-.1.2-.1.5-.1.9v6H9.3V9.2h3.5v1.6c.8-1.2 1.9-1.8 3.3-1.8 1.3 0 2.4.5 3.1 1.3s1.1 2 1.1 3.6v6.2z"/></symbol><symbol id="list" viewBox="0 0 24 24"><path d="M4 1C2.3 1 1 2.3 1 4s1.3 3 3 3 3-1.3 3-3-1.3-3-3-3zm0 4c-.6 0-1-.4-1-1s.4-1 1-1 1 .4 1 1-.4 1-1 1zM4 9c-1.7 0-3 1.3-3 3s1.3 3 3 3 3-1.3 3-3-1.3-3-3-3zm0 4c-.6 0-1-.4-1-1s.4-1 1-1 1 .4 1 1-.4 1-1 1zM4 17c-1.7 0-3 1.3-3 3s1.3 3 3 3 3-1.3 3-3-1.3-3-3-3zm0 4c-.6 0-1-.4-1-1s.4-1 1-1 1 .4 1 1-.4 1-1 1zM10 5h12c.6 0 1-.4 1-1s-.4-1-1-1H10c-.6 0-1 .4-1 1s.4 1 1 1zM22 11H10c-.6 0-1 .4-1 1s.4 1 1 1h12c.6 0 1-.4 1-1s-.4-1-1-1zM22 19H10c-.6 0-1 .4-1 1s.4 1 1 1h12c.6 0 1-.4 1-1s-.4-1-1-1z"/></symbol><symbol id="lock-open" viewBox="0 0 24 24"><path d="M11 17.8V19c0 .6.4 1 1 1s1-.4 1-1v-1.2c1.2-.4 2-1.5 2-2.8 0-1.7-1.3-3-3-3s-3 1.3-3 3c0 1.3.8 2.4 2 2.8zm1-3.8c.6 0 1 .4 1 1s-.4 1-1 1-1-.4-1-1 .4-1 1-1z"/><path d="M20 8H8V6c0-2.2 1.8-4 4-4 1.6 0 3 .9 3.7 2.4.2.5.8.7 1.3.5s.7-.8.5-1.3C16.5 1.4 14.4 0 12 0 8.6 0 6 2.6 6 6v2H4c-.6 0-1 .4-1 1v14c0 .6.4 1 1 1h16c.6 0 1-.4 1-1V9c0-.6-.4-1-1-1zm-1 14H5V10h14v12z"/></symbol><symbol id="lock" viewBox="0 0 24 24"><path d="M20 8h-2V6c0-3.4-2.6-6-6-6S6 2.6 6 6v2H4c-.6 0-1 .4-1 1v14c0 .6.4 1 1 1h16c.6 0 1-.4 1-1V9c0-.6-.4-1-1-1zM8 6c0-2.2 1.8-4 4-4s4 1.8 4 4v2H8V6zm11 16H5V10h14v12z"/><path d="M12 12c-1.7 0-3 1.3-3 3 0 1.3.8 2.4 2 2.8V19c0 .6.4 1 1 1s1-.4 1-1v-1.2c1.2-.4 2-1.5 2-2.8 0-1.7-1.3-3-3-3zm0 4c-.6 0-1-.4-1-1s.4-1 1-1 1 .4 1 1-.4 1-1 1z"/></symbol><symbol id="minus-circle-full" viewBox="0 0 24 24"><path d="M12 0C5.4 0 0 5.4 0 12s5.4 12 12 12 12-5.4 12-12S18.6 0 12 0zm5 13H7c-.6 0-1-.4-1-1s.4-1 1-1h10c.6 0 1 .4 1 1s-.4 1-1 1z"/></symbol><symbol id="minus-circle" viewBox="0 0 24 24"><path d="M17 11H7c-.6 0-1 .4-1 1s.4 1 1 1h10c.6 0 1-.4 1-1s-.4-1-1-1z"/><path d="M12 0C5.4 0 0 5.4 0 12s5.4 12 12 12 12-5.4 12-12S18.6 0 12 0zm0 22C6.5 22 2 17.5 2 12S6.5 2 12 2s10 4.5 10 10-4.5 10-10 10z"/></symbol><symbol id="minus" viewBox="0 0 24 24"><path d="M17 11H7c-.6 0-1 .4-1 1s.4 1 1 1h10c.6 0 1-.4 1-1s-.4-1-1-1z"/></symbol><symbol id="news" viewBox="0 0 24 24"><path d="M23 0H5c-.6 0-1 .4-1 1v11H1c-.6 0-1 .4-1 1v8c0 1.7 1.3 3 3 3h18c1.7 0 3-1.3 3-3V1c0-.6-.4-1-1-1zM3 22c-.6 0-1-.4-1-1v-7h2v7c0 .6-.4 1-1 1zm19-1c0 .6-.4 1-1 1H5.8c.1-.3.2-.6.2-1V2h16v19z"/><path d="M17 7h2c.6 0 1-.4 1-1s-.4-1-1-1h-2c-.6 0-1 .4-1 1s.4 1 1 1zM17 11h2c.6 0 1-.4 1-1s-.4-1-1-1h-2c-.6 0-1 .4-1 1s.4 1 1 1zM9 15h10c.6 0 1-.4 1-1s-.4-1-1-1H9c-.6 0-1 .4-1 1s.4 1 1 1zM9 19h10c.6 0 1-.4 1-1s-.4-1-1-1H9c-.6 0-1 .4-1 1s.4 1 1 1zM9 11h4c.6 0 1-.4 1-1V6c0-.6-.4-1-1-1H9c-.6 0-1 .4-1 1v4c0 .6.4 1 1 1zm1-4h2v2h-2V7z"/></symbol><symbol id="order" viewBox="0 0 24 24"><path d="M23 11H1c-.6 0-1 .4-1 1s.4 1 1 1h22c.6 0 1-.4 1-1s-.4-1-1-1zM1 6h22c.6 0 1-.4 1-1s-.4-1-1-1H1c-.6 0-1 .4-1 1s.4 1 1 1zM12 18H1c-.6 0-1 .4-1 1s.4 1 1 1h11c.6 0 1-.4 1-1s-.4-1-1-1z"/></symbol><symbol id="pause" viewBox="0 0 24 24"><path d="M9 1H3c-.6 0-1 .4-1 1v20c0 .6.4 1 1 1h6c.6 0 1-.4 1-1V2c0-.6-.4-1-1-1zM8 21H4V3h4v18zM21 1h-6c-.6 0-1 .4-1 1v20c0 .6.4 1 1 1h6c.6 0 1-.4 1-1V2c0-.6-.4-1-1-1zm-1 20h-4V3h4v18z"/></symbol><symbol id="phone" viewBox="0 0 24 24"><path d="M22.7 19.3l-5-5c-.4-.4-1-.4-1.4 0L14 16.6 7.4 10l2.3-2.3c.4-.4.4-1 0-1.4l-5-5c-.4-.4-1-.4-1.4 0l-3 3c-.2.2-.3.4-.3.7 0 10.5 8.5 19 19 19 .3 0 .5-.1.7-.3l3-3c.4-.4.4-1 0-1.4zM18.6 22C9.5 21.8 2.2 14.4 2 5.4l2-2L7.6 7 5.3 9.3c-.4.4-.4 1 0 1.4l8 8c.4.4 1 .4 1.4 0l2.3-2.3 3.6 3.6-2 2z"/></symbol><symbol id="pin" viewBox="0 0 24 24"><path d="M12 0C7.6 0 3 3.4 3 9c0 5.3 8 13.4 8.3 13.7.2.2.4.3.7.3s.5-.1.7-.3C13 22.4 21 14.3 21 9c0-5.6-4.6-9-9-9zm0 20.6C9.5 17.9 5 12.3 5 9c0-4.5 3.6-7 7-7s7 2.5 7 7c0 3.4-4.5 8.9-7 11.6z"/><path d="M12 5C9.8 5 8 6.8 8 9s1.8 4 4 4 4-1.8 4-4-1.8-4-4-4zm0 6c-1.1 0-2-.9-2-2s.9-2 2-2 2 .9 2 2-.9 2-2 2z"/></symbol><symbol id="play" viewBox="0 0 24 24"><path d="M18.6 11.2l-12-9c-.3-.2-.7-.3-1-.1-.4.2-.6.5-.6.9v18c0 .4.2.7.6.9.1.1.2.1.4.1s.4-.1.6-.2l12-9c.3-.2.4-.5.4-.8s-.1-.6-.4-.8zM7 19V5l9.3 7L7 19z"/></symbol><symbol id="plus-circle-full" viewBox="0 0 24 24"><path d="M12 0C5.4 0 0 5.4 0 12s5.4 12 12 12 12-5.4 12-12S18.6 0 12 0zm5 13h-4v4c0 .6-.4 1-1 1s-1-.4-1-1v-4H7c-.6 0-1-.4-1-1s.4-1 1-1h4V7c0-.6.4-1 1-1s1 .4 1 1v4h4c.6 0 1 .4 1 1s-.4 1-1 1z"/></symbol><symbol id="plus-circle" viewBox="0 0 24 24"><path d="M17 11h-4V7c0-.6-.4-1-1-1s-1 .4-1 1v4H7c-.6 0-1 .4-1 1s.4 1 1 1h4v4c0 .6.4 1 1 1s1-.4 1-1v-4h4c.6 0 1-.4 1-1s-.4-1-1-1z"/><path d="M12 0C5.4 0 0 5.4 0 12s5.4 12 12 12 12-5.4 12-12S18.6 0 12 0zm0 22C6.5 22 2 17.5 2 12S6.5 2 12 2s10 4.5 10 10-4.5 10-10 10z"/></symbol><symbol id="plus" viewBox="0 0 24 24"><path d="M17 11h-4V7c0-.6-.4-1-1-1s-1 .4-1 1v4H7c-.6 0-1 .4-1 1s.4 1 1 1h4v4c0 .6.4 1 1 1s1-.4 1-1v-4h4c.6 0 1-.4 1-1s-.4-1-1-1z"/></symbol><symbol id="power" viewBox="0 0 24 24"><path d="M17.5 3.4c-.5-.2-1.1-.1-1.4.4-.2.5-.1 1.1.4 1.4C19.3 6.7 21 9.7 21 13c0 5-4 9-9 9s-9-4-9-9c0-3.2 1.7-6.1 4.5-7.8.5-.3.7-.9.4-1.4s-.9-.6-1.4-.4C3.1 5.5 1 9.1 1 13c0 6.1 4.9 11 11 11s11-4.9 11-11c0-4-2.1-7.6-5.5-9.6z"/><path d="M12 9c.6 0 1-.4 1-1V1c0-.6-.4-1-1-1s-1 .4-1 1v7c0 .6.4 1 1 1z"/></symbol><symbol id="refresh" viewBox="0 0 24 24"><path d="M2 13c.6 0 1-.4 1-1 0-5 4-9 9-9 2.8 0 5.3 1.3 7 3.3l-3.9-.5c-.5 0-1.1.4-1.1.9s.4 1 .9 1.1l6 .8h.1c.5 0 .9-.4 1-.9l.8-5.9c0-.5-.4-1-.9-1.1-.5 0-1 .4-1.1.9l-.5 3.2c-2-2.4-5-3.8-8.3-3.8C5.9 1 1 5.9 1 12c0 .6.4 1 1 1zM22 11c-.6 0-1 .4-1 1 0 5-4 9-9 9-2.8 0-5.3-1.3-7-3.3l3.9.5c.5 0 1-.4 1.1-.9 0-.5-.4-1-.9-1.1l-6-.8c-.5 0-1 .4-1.1.9l-.8 5.9c0 .5.4 1 1 1.1.5 0 .9-.4 1-.9l.5-3.2c2 2.4 5.1 3.8 8.3 3.8 6.1 0 11-4.9 11-11 0-.6-.4-1-1-1z"/></symbol><symbol id="resize" viewBox="0 0 24 24"><path d="M10.6 11.2L6.7 7.3c-.4-.4-1-.4-1.4 0s-.4 1 0 1.4L7.6 11H1c-.6 0-1 .4-1 1s.4 1 1 1h6.6l-2.3 2.3c-.4.4-.4 1 0 1.4.2.2.4.3.7.3s.5-.1.7-.3l3.9-3.9c.3-.2.4-.4.4-.8s-.2-.6-.4-.8zM23 11h-6.6l2.3-2.3c.4-.4.4-1 0-1.4s-1-.4-1.4 0l-3.9 3.9c-.2.2-.4.4-.4.8s.2.6.4.8l3.9 3.9c.2.2.4.3.7.3s.5-.1.7-.3c.4-.4.4-1 0-1.4L16.4 13H23c.6 0 1-.4 1-1s-.4-1-1-1z"/></symbol><symbol id="retail" viewBox="0 0 24 24"><path d="M23 9c0-.2 0-.3-.1-.4l-4-8c-.2-.4-.5-.6-.9-.6H6c-.4 0-.7.2-.9.6l-4 8c-.1.1-.1.2-.1.4 0 2 .9 3.1 2 3.7V23c0 .6.4 1 1 1h6c.6 0 1-.4 1-1v-4h2v4c0 .6.4 1 1 1h6c.6 0 1-.4 1-1V12.7c1.1-.6 2-1.7 2-3.7zm-8 13v-4c0-.6-.4-1-1-1h-4c-.6 0-1 .4-1 1v4H5v-9c.8-.1 1.5-.5 2-1 .6.6 1.5 1 2.5 1s1.9-.4 2.5-1c.6.6 1.5 1 2.5 1s1.9-.4 2.5-1c.5.5 1.2.8 2 1v9h-4zm4.5-11c-.8 0-1.5-.7-1.5-1.5 0-.6-.4-1-1-1s-1 .4-1 1c0 .8-.7 1.5-1.5 1.5S13 10.3 13 9.5c0-.6-.4-1-1-1s-1 .4-1 1c0 .8-.7 1.5-1.5 1.5S8 10.3 8 9.5c0-.6-.4-1-1-1s-1 .4-1 1c0 .8-.7 1.5-1.5 1.5C3.3 11 3 10 3 9.2L6.6 2h10.8L21 9.2c0 .8-.3 1.8-1.5 1.8z"/></symbol><symbol id="save" viewBox="0 0 24 24"><path d="M23.8 7.4l-5-7c-.2-.2-.5-.4-.8-.4H1C.4 0 0 .4 0 1v22c0 .6.4 1 1 1h22c.6 0 1-.4 1-1V8c0-.2-.1-.4-.2-.6zM6 2h8v5H6V2zm12 20H6v-8h12v8zm4 0h-2v-9c0-.6-.4-1-1-1H5c-.6 0-1 .4-1 1v9H2V2h2v6c0 .6.4 1 1 1h10c.6 0 1-.4 1-1V2h1.5L22 8.3V22z"/><path d="M9 19h6c.6 0 1-.4 1-1s-.4-1-1-1H9c-.6 0-1 .4-1 1s.4 1 1 1z"/></symbol><symbol id="search" viewBox="0 0 24 24"><path d="M22.7 21.3l-5-5c1.4-1.7 2.3-3.9 2.3-6.3 0-5.5-4.5-10-10-10S0 4.5 0 10s4.5 10 10 10c2.4 0 4.6-.9 6.3-2.3l5 5c.2.2.4.3.7.3s.5-.1.7-.3c.4-.4.4-1 0-1.4zM2 10c0-4.4 3.6-8 8-8s8 3.6 8 8-3.6 8-8 8-8-3.6-8-8z"/></symbol><symbol id="segment" viewBox="0 0 24 24"><path d="M16 7H8c-.6 0-1 .4-1 1v8c0 .6.4 1 1 1h8c.6 0 1-.4 1-1V8c0-.6-.4-1-1-1zm-1 8H9V9h6v6zM8 4c.6 0 1-.4 1-1V2h1c.6 0 1-.4 1-1s-.4-1-1-1H8c-.6 0-1 .4-1 1v2c0 .6.4 1 1 1zM23 0h-2c-.6 0-1 .4-1 1s.4 1 1 1h1v1c0 .6.4 1 1 1s1-.4 1-1V1c0-.6-.4-1-1-1zM23 13c-.6 0-1 .4-1 1v1h-1c-.6 0-1 .4-1 1s.4 1 1 1h2c.6 0 1-.4 1-1v-2c0-.6-.4-1-1-1zM17 0h-3c-.6 0-1 .4-1 1s.4 1 1 1h3c.6 0 1-.4 1-1s-.4-1-1-1zM23 6c-.6 0-1 .4-1 1v3c0 .6.4 1 1 1s1-.4 1-1V7c0-.6-.4-1-1-1zM3 7H1c-.6 0-1 .4-1 1v2c0 .6.4 1 1 1s1-.4 1-1V9h1c.6 0 1-.4 1-1s-.4-1-1-1zM3 22H2v-1c0-.6-.4-1-1-1s-1 .4-1 1v2c0 .6.4 1 1 1h2c.6 0 1-.4 1-1s-.4-1-1-1zM16 20c-.6 0-1 .4-1 1v1h-1c-.6 0-1 .4-1 1s.4 1 1 1h2c.6 0 1-.4 1-1v-2c0-.6-.4-1-1-1zM1 18c.6 0 1-.4 1-1v-3c0-.6-.4-1-1-1s-1 .4-1 1v3c0 .6.4 1 1 1zM10 22H7c-.6 0-1 .4-1 1s.4 1 1 1h3c.6 0 1-.4 1-1s-.4-1-1-1z"/></symbol><symbol id="send" viewBox="0 0 24 24"><path d="M24 11.3c.1-.2.1-.5-.1-.8l-.1-.1-.3-.3L20 7.6V1c0-.6-.4-1-1-1H5c-.6 0-1 .4-1 1v6.6L.4 10.2c-.1.1-.3.2-.3.3-.1.1-.1.3-.1.4V23c0 .6.4 1 1 1h22c.1 0 .2 0 .3-.1.1 0 .1 0 .1-.1 0 0 .1 0 .1-.1.1 0 .1-.1.2-.1 0-.1.1-.1.1-.2.2-.2.2-.5.1-.8V11.3zM14.2 17l7.8-4.3v8.6L14.2 17zm6.9-6.1l-1.1.6v-1.4l1.1.8zM18 2v10.6l-6 3.3-6-3.3V2h12zM4 11.5l-1.1-.6 1.1-.8v1.4zm-2 1.2L19 22H2v-9.3z"/><path d="M9 7h6c.6 0 1-.4 1-1s-.4-1-1-1H9c-.6 0-1 .4-1 1s.4 1 1 1zM9 11h6c.6 0 1-.4 1-1s-.4-1-1-1H9c-.6 0-1 .4-1 1s.4 1 1 1z"/></symbol><symbol id="settings" viewBox="0 0 24 24"><path d="M4 11c.6 0 1-.4 1-1V1c0-.6-.4-1-1-1S3 .4 3 1v9c0 .6.4 1 1 1zM12 3c.6 0 1-.4 1-1V1c0-.6-.4-1-1-1s-1 .4-1 1v1c0 .6.4 1 1 1zM20 11c.6 0 1-.4 1-1V1c0-.6-.4-1-1-1s-1 .4-1 1v9c0 .6.4 1 1 1zM4 13c-2.2 0-4 1.8-4 4 0 1.9 1.3 3.4 3 3.9V23c0 .6.4 1 1 1s1-.4 1-1v-2.1c1.7-.4 3-2 3-3.9 0-2.2-1.8-4-4-4zm0 6c-1.1 0-2-.9-2-2s.9-2 2-2 2 .9 2 2-.9 2-2 2zM16 9c0-2.2-1.8-4-4-4S8 6.8 8 9c0 1.9 1.3 3.4 3 3.9V23c0 .6.4 1 1 1s1-.4 1-1V12.9c1.7-.5 3-2 3-3.9zm-4 2c-1.1 0-2-.9-2-2s.9-2 2-2 2 .9 2 2-.9 2-2 2zM24 17c0-2.2-1.8-4-4-4s-4 1.8-4 4c0 1.9 1.3 3.4 3 3.9V23c0 .6.4 1 1 1s1-.4 1-1v-2.1c1.7-.5 3-2 3-3.9zm-4 2c-1.1 0-2-.9-2-2s.9-2 2-2 2 .9 2 2-.9 2-2 2z"/></symbol><symbol id="smartphone" viewBox="0 0 24 24"><path d="M13 4a1 1 0 1 1-2 0 1 1 0 0 1 2 0z"/><path d="M18 0H6C4.3 0 3 1.3 3 3v18c0 1.7 1.3 3 3 3h12c1.7 0 3-1.3 3-3V3c0-1.7-1.3-3-3-3zM5 8h14v10H5V8zm1-6h12c.6 0 1 .4 1 1v3H5V3c0-.6.4-1 1-1zm12 20H6c-.6 0-1-.4-1-1v-1h14v1c0 .6-.4 1-1 1z"/></symbol><symbol id="smartwatch" viewBox="0 0 24 24"><path d="M22 9h-1V6c0-1.7-1.3-3-3-3H6C4.3 3 3 4.3 3 6v12c0 1.7 1.3 3 3 3h12c1.7 0 3-1.3 3-3v-3h1c.6 0 1-.4 1-1v-4c0-.6-.4-1-1-1zm-3 9c0 .6-.4 1-1 1H6c-.6 0-1-.4-1-1V6c0-.6.4-1 1-1h12c.6 0 1 .4 1 1v12zM6 2h12c.6 0 1-.4 1-1s-.4-1-1-1H6c-.6 0-1 .4-1 1s.4 1 1 1zM18 22H6c-.6 0-1 .4-1 1s.4 1 1 1h12c.6 0 1-.4 1-1s-.4-1-1-1z"/></symbol><symbol id="smile" viewBox="0 0 24 24"><path d="M16 6c-1.7 0-3 1.3-3 3 0 .6.4 1 1 1s1-.4 1-1 .4-1 1-1 1 .4 1 1 .4 1 1 1 1-.4 1-1c0-1.7-1.3-3-3-3zM8 8c.6 0 1 .4 1 1s.4 1 1 1 1-.4 1-1c0-1.7-1.3-3-3-3S5 7.3 5 9c0 .6.4 1 1 1s1-.4 1-1 .4-1 1-1zM15.3 14.3l-.3.3c-.9.9-2.1 1.4-3.4 1.4H8c-.6 0-1 .4-1 1s.4 1 1 1h3.6c1.8 0 3.5-.7 4.8-2l.3-.3c.4-.4.4-1 0-1.4s-1-.4-1.4 0z"/><path d="M12 0C5.4 0 0 5.4 0 12s5.4 12 12 12 12-5.4 12-12S18.6 0 12 0zm0 22C6.5 22 2 17.5 2 12S6.5 2 12 2s10 4.5 10 10-4.5 10-10 10z"/></symbol><symbol id="stop" viewBox="0 0 24 24"><path d="M22 1H2c-.6 0-1 .4-1 1v20c0 .6.4 1 1 1h20c.6 0 1-.4 1-1V2c0-.6-.4-1-1-1zm-1 20H3V3h18v18z"/></symbol><symbol id="support" viewBox="0 0 24 24"><path d="M21 7.8C20.9 3.5 17.3 0 13 0h-2C6.7 0 3.1 3.5 3 7.8c-1.8 1-3 3-3 5.2s1.2 4.1 3 5.2v.8c0 2.8 2.2 5 5 5h4v-2H8c-1.7 0-3-1.3-3-3v-.1c.3.1.7.1 1 .1.4 0 .8 0 1.2-.1l.8-.2V7.3l-.8-.2C6.8 7 6.4 7 6 7c-.3 0-.6 0-.9.1C5.5 4.2 8 2 11 2h2c3 0 5.5 2.2 5.9 5.1-.3-.1-.6-.1-.9-.1-.4 0-.8 0-1.2.1l-.8.2v11.4l.8.2c.4.1.8.1 1.2.1 3.3 0 6-2.7 6-6 0-2.2-1.2-4.1-3-5.2zM6 17c-2.2 0-4-1.8-4-4s1.8-4 4-4v8zm12 0V9c2.2 0 4 1.8 4 4s-1.8 4-4 4z"/></symbol><symbol id="system" viewBox="0 0 24 24"><path d="M19 14c-1.1 0-2 .3-2.8.8L13 12.5V9.9c2.3-.5 4-2.4 4-4.9 0-2.8-2.2-5-5-5S7 2.2 7 5c0 2.5 1.7 4.4 4 4.9v2.6l-3.2 2.3C7 14.3 6.1 14 5 14c-2.8 0-5 2.2-5 5s2.2 5 5 5 5-2.2 5-5c0-1-.3-1.9-.8-2.7l2.8-2.1 2.8 2.1c-.5.8-.8 1.7-.8 2.7 0 2.8 2.2 5 5 5s5-2.2 5-5-2.2-5-5-5zM5 22c-1.7 0-3-1.3-3-3s1.3-3 3-3 3 1.3 3 3-1.3 3-3 3zM9 5c0-1.7 1.3-3 3-3s3 1.3 3 3-1.3 3-3 3-3-1.3-3-3zm10 17c-1.7 0-3-1.3-3-3s1.3-3 3-3 3 1.3 3 3-1.3 3-3 3z"/></symbol><symbol id="tablet" viewBox="0 0 24 24"><path d="M20 0H4C2.3 0 1 1.3 1 3v18c0 1.7 1.3 3 3 3h16c1.7 0 3-1.3 3-3V3c0-1.7-1.3-3-3-3zm1 21c0 .6-.4 1-1 1H4c-.6 0-1-.4-1-1V3c0-.6.4-1 1-1h16c.6 0 1 .4 1 1v18z"/><path d="M19 3H5c-.6 0-1 .4-1 1v13c0 .6.4 1 1 1h14c.6 0 1-.4 1-1V4c0-.6-.4-1-1-1zm-1 13H6V5h12v11zM13 20a1 1 0 1 1-2 0 1 1 0 0 1 2 0z"/></symbol><symbol id="tag-full" viewBox="0 0 24 24"><path d="M22.7 12.3l-11-11c-.2-.2-.4-.3-.7-.3H2c-.6 0-1 .4-1 1v9c0 .3.1.5.3.7l11 11c.2.2.5.3.7.3s.5-.1.7-.3l9-9c.4-.4.4-1 0-1.4zM7 9c-1.1 0-2-.9-2-2s.9-2 2-2 2 .9 2 2-.9 2-2 2z"/></symbol><symbol id="tag" viewBox="0 0 24 24"><path d="M10.4 0H0v10.4l13 13L23.4 13l-13-13zM2 9.6V2h7.6l11 11-7.6 7.6-11-11z"/><path d="M7 4C5.3 4 4 5.3 4 7s1.3 3 3 3 3-1.3 3-3-1.3-3-3-3zm0 4c-.6 0-1-.4-1-1s.4-1 1-1 1 .4 1 1-.4 1-1 1z"/></symbol><symbol id="trash" viewBox="0 0 24 24"><path d="M24 4h-7V0H7v4H0v2h3v18h18V6h3V4zM9 2h6v2H9V2zm10 20H5V6h14v16z"/><path d="M11 10h2v8h-2v-8zM7 10h2v8H7v-8zM15 10h2v8h-2v-8z"/></symbol><symbol id="twitter" viewBox="0 0 24 24"><path d="M21.2 5.2c1.1-.6 1.8-1.6 2.2-2.7-.9.6-2 1-3.1 1.2l-.1-.1c-2-1.9-5.1-1.9-7 0-.9.9-1.4 2.2-1.4 3.5 0 .3 0 .7.1 1.1-2-.1-3.9-.6-5.7-1.5-1.7-.9-3.3-2.1-4.5-3.6-.5.8-.7 1.6-.7 2.5s.2 1.7.6 2.4c.4.7.9 1.3 1.6 1.7-.8 0-1.5-.2-2.2-.6v.1c0 1.1.4 2.2 1.1 3.1s1.7 1.5 2.8 1.7c-.4.1-.9.2-1.3.2-.3 0-.6-.1-.9-.1.6 2 2.5 3.4 4.6 3.4-1.7 1.4-3.9 2.1-6.1 2.1-.4 0-.8-.1-1.2-.1 2.2 1.4 4.8 2.2 7.5 2.2 1.7 0 3.3-.2 4.9-.8 1.4-.5 2.7-1.2 3.9-2.2 1.1-.9 2-2 2.8-3.2s1.4-2.5 1.8-3.8c.4-1.3.6-2.6.6-4v-.6c1-.7 1.8-1.5 2.5-2.5-.9.4-1.9.6-2.8.6z"/></symbol><symbol id="unlink" viewBox="0 0 24 24"><path d="M14.2 4.2c1.5-1.5 4.1-1.5 5.6 0 .7.7 1.1 1.7 1.1 2.8s-.4 2.1-1.1 2.8L16.6 13l1.4 1.4 3.2-3.2c1.1-1.1 1.7-2.6 1.7-4.2s-.6-3.1-1.7-4.2c-2.3-2.3-6.1-2.3-8.4 0L9.6 6 11 7.4l3.2-3.2zM9.8 19.8c-.7.7-1.7 1.1-2.8 1.1s-2.1-.4-2.8-1.1c-1.5-1.5-1.5-4.1 0-5.6L7.4 11 6 9.6l-3.2 3.2c-2.3 2.3-2.3 6.1 0 8.4 1.1 1.1 2.6 1.7 4.2 1.7s3.1-.6 4.2-1.7l3.2-3.2-1.4-1.4-3.2 3.2z"/><path d="M7.651 14.984l7.425-7.425 1.414 1.414-7.425 7.425-1.414-1.414zM18.673 17.455l.894-1.789 3.756 1.878-.894 1.789-3.756-1.878zM15.666 19.569l1.789-.894 1.878 3.756-1.789.894-1.878-3.756zM4.666 1.569L6.455.675l1.878 3.756-1.789.894-1.878-3.756zM.674 6.455l.894-1.789 3.756 1.878-.894 1.789L.674 6.455z"/></symbol><symbol id="upload" viewBox="0 0 24 24"><path d="M11 4.4V16h2V4.4l3 3L17.4 6 12 .6 6.6 6 8 7.4z"/><path d="M16 9v2h3v11H5V11h3V9H3v15h18V9z"/></symbol><symbol id="user" viewBox="0 0 24 24"><path d="M21.6 17.5l-4.5-2.7c1.2-1.2 1.9-2.9 1.9-4.8V7c0-3.9-3.1-7-7-7S5 3.1 5 7v3c0 1.9.7 3.6 1.9 4.9l-4.4 2.6c-.9.6-1.5 1.6-1.5 2.6V23c0 .6.4 1 1 1h20c.6 0 1-.4 1.1-1v-2.9c0-1.1-.6-2.1-1.5-2.6zM7 7c0-2.8 2.2-5 5-5s5 2.2 5 5v3c0 1.7-.8 3.1-2 4-.1 0-.3.1-.4.2-.7.5-1.6.8-2.6.8-.9 0-1.7-.2-2.5-.7-.1-.1-.3-.2-.5-.3-1.2-.9-2-2.3-2-4V7zm14 15H3v-1.9c0-.3.2-.6.6-.9l5.1-3c1 .5 2.1.8 3.3.8s2.4-.3 3.4-.9l5.1 3.1c.3.2.5.6.5.9V22z"/></symbol><symbol id="users" viewBox="0 0 24 24"><path d="M22.6 8.6l-2-1.2c.2-.6.4-1.2.4-1.9v-1C21 2 19 0 16.5 0c-1.5 0-2.7.7-3.6 1.8-.8-.5-1.8-.8-2.9-.8-3.3 0-6 2.7-6 6v2c0 1.4.5 2.6 1.2 3.6l-3.4 2.1C.7 15.4 0 16.6 0 17.9V22c0 .6.4 1 1 1h18c.6 0 1-.4 1.1-1v-4.1c0-.7-.2-1.3-.5-1.9H23c.6 0 1-.4 1-1v-3.9c0-1.1-.5-2-1.4-2.5zM16.5 2C17.9 2 19 3.1 19 4.5v1C19 6.9 17.9 8 16.5 8c-.2 0-.3 0-.5-.1V7c0-1.5-.6-2.9-1.5-3.9.5-.7 1.2-1.1 2-1.1zM6 7c0-2.2 1.8-4 4-4 1 0 1.8.4 2.5.9 0 .1.1.1.2.1.8.8 1.3 1.8 1.3 3v2c0 2.2-1.8 4-4 4s-4-1.8-4-4V7zm12 14H2v-3.1c0-.6.3-1.1.9-1.5l3.9-2.3c.9.6 2 .9 3.2.9s2.3-.4 3.3-1l2.7 1.6c.1.2.3.3.6.3l.7.4c.5.3.8.9.8 1.5V21zm4-7h-4.9l-2.3-1.4c.6-.8 1-1.7 1.1-2.6h.6c1.1 0 2.1-.4 2.8-1l2.2 1.3c.3.2.5.5.5.8V14z"/></symbol><symbol id="wand" viewBox="0 0 24 24"><path d="M18.7 8.3l-3-3c-.4-.4-1-.4-1.4 0l-13 13c-.4.4-.4 1 0 1.4l3 3c.2.2.4.3.7.3.2 0 .5-.1.7-.3l13-13c.4-.4.4-1 0-1.4zM5 20.6L3.4 19l8.6-8.6 1.6 1.6L5 20.6zm10-10L13.4 9 15 7.4 16.6 9 15 10.6zM15 3c.6 0 1-.4 1-1V1c0-.6-.4-1-1-1s-1 .4-1 1v1c0 .6.4 1 1 1zM19.9 5.1c.3 0 .5-.1.7-.3l.8-.8c.4-.4.4-1 0-1.4s-1-.4-1.4 0l-.8.8c-.4.4-.4 1 0 1.4.2.2.4.3.7.3zM23 8h-1c-.6 0-1 .4-1 1s.4 1 1 1h1c.6 0 1-.4 1-1s-.4-1-1-1zM20.6 13.2c-.4-.4-1-.4-1.4 0s-.4 1 0 1.4l.8.8c.2.2.4.3.7.3s.5-.1.7-.3c.4-.4.4-1 0-1.4l-.8-.8zM9.4 4.8c.2.2.4.3.7.3s.5-.1.7-.3c.4-.4.4-1 0-1.4l-.8-.8c-.4-.4-1-.4-1.4 0s-.4 1 0 1.4l.8.8z"/></symbol><symbol id="warning" viewBox="0 0 24 24"><path d="M22.9 21.5l-10-19c-.4-.7-1.5-.7-1.8 0l-10 19c-.2.3-.2.7 0 1s.5.5.9.5h20c.4 0 .7-.2.9-.5s.2-.7 0-1zM3.7 21L12 5.1 20.4 21H3.7z"/><path d="M11 11v4c0 .6.4 1 1 1s1-.4 1-1v-4c0-.6-.4-1-1-1s-1 .4-1 1zM12 17c-.6 0-1 .4-1 1v1c0 .6.4 1 1 1s1-.4 1-1v-1c0-.6-.4-1-1-1z"/></symbol></svg>