<svg xmlns="http://www.w3.org/2000/svg" width="32" height="32" viewBox="0 0 32 32">
    <path d="M27.067.867H4.934c-.467 0-.8.333-.8.8v30.067c0 .467.333.8.8.8h22.133c.467 0 .8-.333.8-.8V1.667c0-.467-.4-.8-.8-.8zm-.8 30H5.734v-5.533h3.267c.333.933 1.2 1.6 2.267 1.6 1.333 0 2.4-1.067 2.4-2.4s-1.067-2.4-2.4-2.4c-1 0-1.867.667-2.267 1.6H5.734v-6.333h3.267c.333.933 1.2 1.6 2.267 1.6 1.333 0 2.4-1.067 2.4-2.4s-1.067-2.4-2.4-2.4c-1 0-1.867.667-2.267 1.6H5.734V9.468h3.267c.333.933 1.2 1.6 2.267 1.6 1.333 0 2.4-1.067 2.4-2.4s-1.067-2.4-2.4-2.4c-1 0-1.867.667-2.267 1.6H5.734v-5.4h20.533v28.4zM9.533 24.6c0-.933.8-1.733 1.733-1.733s1.733.8 1.733 1.733-.8 1.733-1.733 1.733-1.733-.8-1.733-1.733zm0-7.933c0-.933.8-1.733 1.733-1.733s1.733.8 1.733 1.733-.8 1.733-1.733 1.733-1.733-.8-1.733-1.733zm0-7.934c0-.933.8-1.733 1.733-1.733s1.733.8 1.733 1.733-.8 1.733-1.733 1.733-1.733-.733-1.733-1.733z"/>
</svg>
