<?xml version="1.0" encoding="utf-8"?>
<!-- Generated by IcoMoon.io -->
<!DOCTYPE svg PUBLIC "-//W3C//DTD SVG 1.1//EN" "http://www.w3.org/Graphics/SVG/1.1/DTD/svg11.dtd">
<svg version="1.1" xmlns="http://www.w3.org/2000/svg" xmlns:xlink="http://www.w3.org/1999/xlink" width="32" height="32" viewBox="0 0 32 32">
<path d="M27.067 0.867h-22.133c-0.467 0-0.8 0.333-0.8 0.8v30.067c0 0.467 0.333 0.8 0.8 0.8h22.133c0.467 0 0.8-0.333 0.8-0.8v-30.067c0-0.467-0.4-0.8-0.8-0.8zM26.267 30.867h-20.533v-5.533h3.267c0.333 0.933 1.2 1.6 2.267 1.6 1.333 0 2.4-1.067 2.4-2.4s-1.067-2.4-2.4-2.4c-1 0-1.867 0.667-2.267 1.6h-3.267v-6.333h3.267c0.333 0.933 1.2 1.6 2.267 1.6 1.333 0 2.4-1.067 2.4-2.4s-1.067-2.4-2.4-2.4c-1 0-1.867 0.667-2.267 1.6h-3.267v-6.333h3.267c0.333 0.933 1.2 1.6 2.267 1.6 1.333 0 2.4-1.067 2.4-2.4s-1.067-2.4-2.4-2.4c-1 0-1.867 0.667-2.267 1.6h-3.267v-5.4h20.533v28.4zM9.533 24.6c0-0.933 0.8-1.733 1.733-1.733s1.733 0.8 1.733 1.733-0.8 1.733-1.733 1.733-1.733-0.8-1.733-1.733zM9.533 16.667c0-0.933 0.8-1.733 1.733-1.733s1.733 0.8 1.733 1.733-0.8 1.733-1.733 1.733-1.733-0.8-1.733-1.733zM9.533 8.733c0-0.933 0.8-1.733 1.733-1.733s1.733 0.8 1.733 1.733-0.8 1.733-1.733 1.733-1.733-0.733-1.733-1.733z"></path>
</svg>
