<?xml version="1.0" encoding="utf-8"?>
<!-- Generator: Adobe Illustrator 21.0.2, SVG Export Plug-In . SVG Version: 6.00 Build 0)  -->
<svg version="1.1" id="Layer_1" xmlns="http://www.w3.org/2000/svg" xmlns:xlink="http://www.w3.org/1999/xlink" x="0px" y="0px"
	 viewBox="0 0 24 24" style="enable-background:new 0 0 24 24;" xml:space="preserve">
<path d="M22,21V3c0-1.7-1.3-3-3-3h-1H3C2.4,0,2,0.4,2,1v22c0,0.6,0.4,1,1,1h14h1h1C20.7,24,22,22.7,22,21z M8,2h4v4.1l-1.4-1
	c-0.3-0.2-0.8-0.2-1.1,0L8,6.1V2z M4,22V2h2v6c0,0.4,0.2,0.7,0.5,0.9s0.7,0.2,1,0L10,7.2l2.4,1.6C12.6,8.9,12.8,9,13,9
	s0.3,0,0.5-0.1C13.8,8.7,14,8.4,14,8V2h3v20H4z M20,21c0,0.6-0.4,1-1,1V2c0.6,0,1,0.4,1,1V21z"/>
</svg>
