<?xml version="1.0" encoding="utf-8"?>
<!-- Generator: Adobe Illustrator 21.0.2, SVG Export Plug-In . SVG Version: 6.00 Build 0)  -->
<svg version="1.1" id="Layer_1" xmlns="http://www.w3.org/2000/svg" xmlns:xlink="http://www.w3.org/1999/xlink" x="0px" y="0px"
	 viewBox="0 0 24 24" style="enable-background:new 0 0 24 24;" xml:space="preserve">
<g transform="translate(0, 0)">
	<g>
		<path d="M13,18c-0.3,0-0.5-0.1-0.7-0.3L7,12.4l-4.3,4.3c-0.4,0.4-1,0.4-1.4,0s-0.4-1,0-1.4l5-5c0.4-0.4,1-0.4,1.4,0l5.3,5.3
			l8.3-9.2c0.4-0.4,1-0.4,1.4-0.1c0.4,0.4,0.4,1,0.1,1.4l-9,10C13.6,17.9,13.3,18,13,18L13,18z"/>
	</g>
	<g>
		<path d="M22,15c-0.6,0-1-0.4-1-1V8h-6c-0.6,0-1-0.4-1-1s0.4-1,1-1h7c0.6,0,1,0.4,1,1v7C23,14.6,22.6,15,22,15z"/>
	</g>
</g>
</svg>
