<?xml version="1.0" encoding="utf-8"?>
<!-- Generated by IcoMoon.io -->
<!DOCTYPE svg PUBLIC "-//W3C//DTD SVG 1.1//EN" "http://www.w3.org/Graphics/SVG/1.1/DTD/svg11.dtd">
<svg version="1.1" xmlns="http://www.w3.org/2000/svg" xmlns:xlink="http://www.w3.org/1999/xlink" width="32" height="32" viewBox="0 0 32 32">
<path d="M31.267 16.733c0-0.467-0.4-0.8-0.8-0.8h-27.2l7.067-7.067c0.133-0.133 0.267-0.4 0.267-0.6s-0.067-0.4-0.267-0.6c-0.333-0.333-0.867-0.333-1.133 0l-8.333 8.333c-0.333 0.333-0.333 0.867 0 1.133l8.333 8.333c0.333 0.333 0.867 0.333 1.133 0 0.333-0.333 0.333-0.867 0-1.133l-6.8-6.8h27c0.4 0 0.733-0.333 0.733-0.8z"></path>
</svg>
