<?xml version="1.0" encoding="utf-8"?>
<!-- Generator: Adobe Illustrator 21.0.2, SVG Export Plug-In . SVG Version: 6.00 Build 0)  -->
<svg version="1.1" id="Layer_1" xmlns="http://www.w3.org/2000/svg" xmlns:xlink="http://www.w3.org/1999/xlink" x="0px" y="0px"
	 viewBox="0 0 24 24" style="enable-background:new 0 0 24 24;" xml:space="preserve">
<g transform="translate(0, 0)">
	<g>
		<path d="M12,23c-0.6,0-1-0.4-1-1V2c0-0.6,0.4-1,1-1s1,0.4,1,1v20C13,22.6,12.6,23,12,23z"/>
	</g>
	<g>
		<path d="M19,10c-0.3,0-0.5-0.1-0.7-0.3L12,3.4L5.7,9.7c-0.4,0.4-1,0.4-1.4,0s-0.4-1,0-1.4l7-7c0.4-0.4,1-0.4,1.4,0l7,7
			c0.4,0.4,0.4,1,0,1.4C19.5,9.9,19.3,10,19,10z"/>
	</g>
</g>
</svg>
