<svg xmlns="http://www.w3.org/2000/svg" width="35" height="32" viewBox="0 0 35 32">
    <path d="M32.553 2.721c-2.844-2.844-7.585-2.765-10.588.237L3.318 21.605c-2.923 2.923-4.978 5.531-1.501 9.323l.079.079c.079.079.158.158.158.237 2.923 2.686 5.689 1.185 7.111-.316l13.116-13.116c1.501-1.501 1.58-3.951.158-5.373s-3.872-1.422-5.373.158L5.609 24.054l1.106 1.106 11.457-11.457c.869-.869 2.291-.948 3.16-.079s.79 2.291-.079 3.161L8.137 29.901c-.869.869-2.923 2.133-5.136 0-3.081-3.239-.948-4.899 1.343-7.19L22.991 4.064c2.37-2.37 6.084-2.449 8.375-.158 2.212 2.212 2.133 6.005-.158 8.375L18.566 24.923l1.106 1.106 12.721-12.642c2.923-3.081 3.002-7.822.158-10.667z"/>
</svg>
