<?xml version="1.0" encoding="utf-8"?>
<!-- Generated by IcoMoon.io -->
<!DOCTYPE svg PUBLIC "-//W3C//DTD SVG 1.1//EN" "http://www.w3.org/Graphics/SVG/1.1/DTD/svg11.dtd">
<svg version="1.1" xmlns="http://www.w3.org/2000/svg" xmlns:xlink="http://www.w3.org/1999/xlink" width="35" height="32" viewBox="0 0 35 32">
<path d="M32.553 2.721c-2.844-2.844-7.585-2.765-10.588 0.237l-18.647 18.647c-2.923 2.923-4.978 5.531-1.501 9.323v0c0 0 0.079 0.079 0.079 0.079 0.079 0.079 0.158 0.158 0.158 0.237v0c2.923 2.686 5.689 1.185 7.111-0.316l13.116-13.116c1.501-1.501 1.58-3.951 0.158-5.373s-3.872-1.422-5.373 0.158l-11.457 11.457 1.106 1.106 11.457-11.457c0.869-0.869 2.291-0.948 3.16-0.079s0.79 2.291-0.079 3.161l-13.116 13.116c-0.869 0.869-2.923 2.133-5.136 0-3.081-3.239-0.948-4.899 1.343-7.19l18.647-18.647c2.37-2.37 6.084-2.449 8.375-0.158 2.212 2.212 2.133 6.005-0.158 8.375l-12.642 12.642 1.106 1.106 12.721-12.642c2.923-3.081 3.002-7.822 0.158-10.667z"></path>
</svg>
