<?xml version="1.0" encoding="utf-8"?>
<!-- Generator: Adobe Illustrator 21.0.2, SVG Export Plug-In . SVG Version: 6.00 Build 0)  -->
<svg version="1.1" id="Layer_1" xmlns="http://www.w3.org/2000/svg" xmlns:xlink="http://www.w3.org/1999/xlink" x="0px" y="0px"
	 viewBox="0 0 24 24" style="enable-background:new 0 0 24 24;" xml:space="preserve">
<path d="M14.9,7.1l-1.4-1.4l-6.7,6.7c-1.4,1.4-1.4,3.6,0,4.9c1.4,1.4,3.6,1.4,5,0l7.1-7.1c2.1-2.1,2.1-5.6,0-7.8s-5.6-2.1-7.8,0
	l-7.8,7.8C1.8,11.7,1,13.6,1,15.6s0.8,3.9,2.2,5.3c1.5,1.5,3.4,2.2,5.3,2.2s3.8-0.7,5.3-2.2l9.5-9.5L22,9.9l-9.5,9.5
	c-2.1,2.1-5.6,2.1-7.8,0c-1-1-1.6-2.4-1.6-3.9s0.6-2.9,1.6-3.9l7.8-7.8c1.4-1.4,3.6-1.4,4.9,0c0.7,0.7,1,1.5,1,2.5
	c0,0.9-0.4,1.8-1,2.5L10.3,16c-0.6,0.6-1.5,0.6-2.1,0s-0.6-1.5,0-2.1L14.9,7.1z"/>
</svg>
