<!-- Generated by IcoMoon.io -->
<svg version="1.1" xmlns="http://www.w3.org/2000/svg" width="24" height="24" viewBox="0 0 24 24">
<title>backward-full</title>
<path d="M23.433 3.099c-0.346-0.167-0.758-0.12-1.058 0.12l-9.375 7.5v-6.719c0-0.385-0.22-0.734-0.567-0.901s-0.757-0.12-1.058 0.12l-10 8c-0.237 0.19-0.375 0.477-0.375 0.781s0.138 0.591 0.375 0.781l10 8c0.181 0.145 0.402 0.219 0.625 0.219 0.147 0 0.295-0.032 0.433-0.099 0.347-0.167 0.567-0.516 0.567-0.901v-6.719l9.375 7.5c0.181 0.145 0.402 0.219 0.625 0.219 0.147 0 0.295-0.032 0.433-0.099 0.347-0.167 0.567-0.516 0.567-0.901v-16c0-0.385-0.22-0.734-0.567-0.901z"></path>
</svg>
