<?xml version="1.0" encoding="utf-8"?>
<!-- Generator: Adobe Illustrator 21.0.2, SVG Export Plug-In . SVG Version: 6.00 Build 0)  -->
<svg version="1.1" id="Layer_1" xmlns="http://www.w3.org/2000/svg" xmlns:xlink="http://www.w3.org/1999/xlink" x="0px" y="0px"
	 viewBox="0 0 24 24" style="enable-background:new 0 0 24 24;" xml:space="preserve">
<g transform="translate(0, 0)">
	<g>
		<path d="M12,24c-2.2,0-4-1.8-4-4c0-0.6,0.4-1,1-1s1,0.4,1,1l0,0c0,1.1,0.9,2,2,2s2-0.9,2-2c0-0.6,0.4-1,1-1s1,0.4,1,1
			C16,22.2,14.2,24,12,24z"/>
	</g>
	<g>
		<path d="M12,21c-6.9,0-11-1.5-11-4c0-1.2,0.7-2,1.5-2.8C3.2,13.3,4,12.5,4,11V8c0-4.5,3.5-8,8-8s8,3.5,8,8v3
			c0,1.5,0.8,2.3,1.5,3.2C22.3,15,23,15.8,23,17C23,19.5,18.9,21,12,21z M12,2C8.6,2,6,4.6,6,8v3c0,2.3-1.2,3.6-2.1,4.5
			C3.4,16.2,3,16.6,3,17c0,0.6,2.7,2,9,2s9-1.4,9-2c0-0.4-0.4-0.8-0.9-1.5c-0.9-1-2.1-2.3-2.1-4.5V8C18,4.6,15.4,2,12,2z"/>
	</g>
</g>
</svg>
