<svg xmlns="http://www.w3.org/2000/svg" width="29" height="32" viewBox="0 0 29 32">
    <path d="M8.64 20.116c1.067 1.849 2.169 3.733 2.169 6.791v3.307a.44.44 0 0 0 .178.356l2.169 1.956c.107.071.213.142.32.142h2.169c.107 0 .249-.036.32-.142l2.169-1.956c.107-.107.178-.213.178-.356v-3.307c0-3.058 1.102-4.978 2.169-6.791.889-1.529 1.742-2.987 1.742-4.907 0-4.231-3.413-7.644-7.644-7.644s-7.644 3.413-7.644 7.644c-.036 1.92.818 3.378 1.707 4.907zm6.791 11.555h-1.778l-1.138-1.031h4.089l-1.173 1.031zm1.849-1.849h-5.511v-.853h5.511v.853zm0-1.671h-5.511v-.818h5.511v.818zM14.542 8.56c3.662 0 6.649 2.987 6.649 6.649 0 1.636-.747 2.916-1.6 4.373-1.031 1.778-2.204 3.769-2.276 6.898h-5.511c-.107-3.093-1.244-5.12-2.276-6.898-.853-1.458-1.6-2.738-1.6-4.373-.036-3.662 2.951-6.649 6.613-6.649zm-9.955 6.649a.486.486 0 0 0-.498-.498H.498c-.284 0-.498.213-.498.498s.213.498.498.498h3.591a.486.486 0 0 0 .498-.498zm9.955-9.956a.486.486 0 0 0 .498-.498V1.164a.486.486 0 0 0-.498-.498.486.486 0 0 0-.498.498v3.591c0 .284.213.498.498.498zM9.564 6.604a.478.478 0 0 0 .178-.676L7.929 2.799c-.142-.249-.427-.32-.676-.178s-.32.427-.178.676l1.813 3.129c.142.249.462.32.676.178zm10.632-.177l1.813-3.129c.142-.249.071-.533-.178-.676s-.533-.071-.676.178l-1.813 3.129a.478.478 0 0 0 .178.676c.213.142.533.071.676-.178zM5.262 10.409c.249.142.533.071.676-.178s.071-.533-.178-.676L2.631 7.742c-.249-.142-.533-.071-.676.178s-.071.533.178.676l3.129 1.813zm18.56 0l3.129-1.813c.249-.142.32-.427.178-.676s-.427-.32-.676-.178l-3.129 1.813c-.249.142-.32.427-.178.676s.462.32.676.178zm4.765 4.302h-3.591c-.284 0-.498.213-.498.498s.213.498.498.498h3.591c.284 0 .498-.213.498-.498s-.213-.498-.498-.498z"/>
</svg>
