<?xml version="1.0" encoding="utf-8"?>
<!-- Generator: Adobe Illustrator 21.0.2, SVG Export Plug-In . SVG Version: 6.00 Build 0)  -->
<svg version="1.1" id="Layer_1" xmlns="http://www.w3.org/2000/svg" xmlns:xlink="http://www.w3.org/1999/xlink" x="0px" y="0px"
	 viewBox="0 0 24 24" style="enable-background:new 0 0 24 24;" xml:space="preserve">
<g transform="translate(0, 0)">
	<g>
		<path d="M3,13H1c-0.6,0-1-0.4-1-1s0.4-1,1-1h2c0.6,0,1,0.4,1,1S3.6,13,3,13z"/>
	</g>
	<g>
		<path d="M5.6,6.6c-0.3,0-0.5-0.1-0.7-0.3L3.5,4.9c-0.4-0.4-0.4-1,0-1.4s1-0.4,1.4,0l1.4,1.4c0.4,0.4,0.4,1,0,1.4
			C6.1,6.5,5.9,6.6,5.6,6.6z"/>
	</g>
	<g>
		<path d="M12,4c-0.6,0-1-0.4-1-1V1c0-0.6,0.4-1,1-1s1,0.4,1,1v2C13,3.6,12.6,4,12,4z"/>
	</g>
	<g>
		<path d="M18.4,6.6c-0.3,0-0.5-0.1-0.7-0.3c-0.4-0.4-0.4-1,0-1.4l1.4-1.4c0.4-0.4,1-0.4,1.4,0s0.4,1,0,1.4l-1.4,1.4
			C18.9,6.5,18.7,6.6,18.4,6.6z"/>
	</g>
	<g>
		<path d="M23,13h-2c-0.6,0-1-0.4-1-1s0.4-1,1-1h2c0.6,0,1,0.4,1,1S23.6,13,23,13z"/>
	</g>
	<g>
		<path d="M14,21h-4c-0.6,0-1-0.4-1-1v-1.7c-2.4-1.2-4-3.7-4-6.3c0-3.9,3.1-7,7-7s7,3.1,7,7c0,2.7-1.6,5.1-4,6.3V20
			C15,20.6,14.6,21,14,21z M11,19h2v-1.3c0-0.4,0.3-0.8,0.6-0.9c2-0.8,3.4-2.7,3.4-4.8c0-2.8-2.2-5-5-5s-5,2.2-5,5
			c0,2.1,1.4,4,3.4,4.8c0.4,0.2,0.6,0.5,0.6,0.9V19z"/>
	</g>
	<g>
		<path d="M14,24h-4c-0.6,0-1-0.4-1-1s0.4-1,1-1h4c0.6,0,1,0.4,1,1S14.6,24,14,24z"/>
	</g>
</g>
</svg>
