<!-- Generated by IcoMoon.io -->
<svg version="1.1" xmlns="http://www.w3.org/2000/svg" width="24" height="24" viewBox="0 0 24 24">
<path d="M3 11h-2c-0.6 0-1 0.4-1 1s0.4 1 1 1h2c0.6 0 1-0.4 1-1s-0.4-1-1-1z"></path>
<path d="M6.3 6.3c0.4-0.4 0.4-1 0-1.4l-1.4-1.4c-0.4-0.4-1-0.4-1.4 0s-0.4 1 0 1.4l1.4 1.4c0.2 0.2 0.4 0.3 0.7 0.3s0.5-0.1 0.7-0.3z"></path>
<path d="M12 4c0.6 0 1-0.4 1-1v-2c0-0.6-0.4-1-1-1s-1 0.4-1 1v2c0 0.6 0.4 1 1 1z"></path>
<path d="M20.5 3.5c-0.4-0.4-1-0.4-1.4 0l-1.4 1.4c-0.4 0.4-0.4 1 0 1.4 0.2 0.2 0.4 0.3 0.7 0.3s0.5-0.1 0.7-0.3l1.4-1.4c0.4-0.4 0.4-1 0-1.4z"></path>
<path d="M23 11h-2c-0.6 0-1 0.4-1 1s0.4 1 1 1h2c0.6 0 1-0.4 1-1s-0.4-1-1-1z"></path>
<path d="M12 5c-3.9 0-7 3.1-7 7 0 2.6 1.6 5.1 4 6.3v1.7c0 0.6 0.4 1 1 1h4c0.6 0 1-0.4 1-1v-1.7c2.4-1.2 4-3.6 4-6.3 0-3.9-3.1-7-7-7zM13.6 16.8c-0.3 0.1-0.6 0.5-0.6 0.9v1.3h-2v-1.3c0-0.4-0.2-0.7-0.6-0.9-2-0.8-3.4-2.7-3.4-4.8 0-2.8 2.2-5 5-5s5 2.2 5 5c0 2.1-1.4 4-3.4 4.8z"></path>
<path d="M14 22h-4c-0.6 0-1 0.4-1 1s0.4 1 1 1h4c0.6 0 1-0.4 1-1s-0.4-1-1-1z"></path>
</svg>
