<?xml version="1.0" encoding="utf-8"?>
<!-- Generated by IcoMoon.io -->
<!DOCTYPE svg PUBLIC "-//W3C//DTD SVG 1.1//EN" "http://www.w3.org/Graphics/SVG/1.1/DTD/svg11.dtd">
<svg version="1.1" xmlns="http://www.w3.org/2000/svg" xmlns:xlink="http://www.w3.org/1999/xlink" width="29" height="32" viewBox="0 0 29 32">
<path d="M8.64 20.116c1.067 1.849 2.169 3.733 2.169 6.791v3.307c0 0.142 0.071 0.284 0.178 0.356l2.169 1.956c0.107 0.071 0.213 0.142 0.32 0.142h2.169c0.107 0 0.249-0.036 0.32-0.142l2.169-1.956c0.107-0.107 0.178-0.213 0.178-0.356v-3.307c0-3.058 1.102-4.978 2.169-6.791 0.889-1.529 1.742-2.987 1.742-4.907 0-4.231-3.413-7.644-7.644-7.644s-7.644 3.413-7.644 7.644c-0.036 1.92 0.818 3.378 1.707 4.907zM15.431 31.671h-1.778l-1.138-1.031h4.089l-1.173 1.031zM17.28 29.822h-5.511v-0.853h5.511v0.853zM17.28 28.151h-5.511v-0.818h5.511v0.818zM14.542 8.56c3.662 0 6.649 2.987 6.649 6.649 0 1.636-0.747 2.916-1.6 4.373-1.031 1.778-2.204 3.769-2.276 6.898h-5.511c-0.107-3.093-1.244-5.12-2.276-6.898-0.853-1.458-1.6-2.738-1.6-4.373-0.036-3.662 2.951-6.649 6.613-6.649zM4.587 15.209c0-0.284-0.213-0.498-0.498-0.498h-3.591c-0.284 0-0.498 0.213-0.498 0.498s0.213 0.498 0.498 0.498h3.591c0.284 0 0.498-0.213 0.498-0.498zM14.542 5.253c0.284 0 0.498-0.213 0.498-0.498v-3.591c0-0.284-0.213-0.498-0.498-0.498v0c-0.284 0-0.498 0.213-0.498 0.498v3.591c0 0.284 0.213 0.498 0.498 0.498v0zM9.564 6.604c0.249-0.142 0.32-0.427 0.178-0.676l-1.813-3.129c-0.142-0.249-0.427-0.32-0.676-0.178s-0.32 0.427-0.178 0.676l1.813 3.129c0.142 0.249 0.462 0.32 0.676 0.178zM20.196 6.427l1.813-3.129c0.142-0.249 0.071-0.533-0.178-0.676s-0.533-0.071-0.676 0.178l-1.813 3.129c-0.142 0.249-0.071 0.533 0.178 0.676 0.213 0.142 0.533 0.071 0.676-0.178zM5.262 10.409c0.249 0.142 0.533 0.071 0.676-0.178s0.071-0.533-0.178-0.676l-3.129-1.813c-0.249-0.142-0.533-0.071-0.676 0.178s-0.071 0.533 0.178 0.676l3.129 1.813zM23.822 10.409l3.129-1.813c0.249-0.142 0.32-0.427 0.178-0.676s-0.427-0.32-0.676-0.178l-3.129 1.813c-0.249 0.142-0.32 0.427-0.178 0.676s0.462 0.32 0.676 0.178zM28.587 14.711h-3.591c-0.284 0-0.498 0.213-0.498 0.498s0.213 0.498 0.498 0.498h3.591c0.284 0 0.498-0.213 0.498-0.498s-0.213-0.498-0.498-0.498z"></path>
</svg>
