<svg xmlns="http://www.w3.org/2000/svg" width="24" height="24" viewBox="0 0 24 24"><g><rect class="nc-transparent-rect" x="0" y="0" width="24" height="24" rx="0" ry="0" fill="none" stroke="none"></rect><g class="nc-icon-wrapper" stroke-linecap="round" stroke-linejoin="round" stroke-width="2" fill="inherit" stroke="inherit"><path data-color="color-2" fill="none" stroke-miterlimit="10" d="M12,8 c1.104,0,2-0.896,2-2s-2-4-2-4s-2,2.896-2,4S10.896,8,12,8z"></path> <rect x="1" y="15" fill="none" stroke="inherit" stroke-miterlimit="10" width="22" height="8"></rect> <path fill="none" stroke="inherit" stroke-miterlimit="10" d="M23,15c0,2.209-1.791,4-4,4 c-1.518,0-2.822-0.855-3.5-2.101C14.822,18.145,13.518,19,12,19s-2.822-0.855-3.5-2.101C7.822,18.145,6.518,19,5,19 c-2.209,0-4-1.791-4-4"></path> <polyline fill="none" stroke="inherit" stroke-miterlimit="10" points="20,15 20,11 4,11 4,15 "></polyline></g></g></svg>