<?xml version="1.0" encoding="utf-8"?>
<!-- Generator: Adobe Illustrator 21.0.2, SVG Export Plug-In . SVG Version: 6.00 Build 0)  -->
<svg version="1.1" id="Layer_1" xmlns="http://www.w3.org/2000/svg" xmlns:xlink="http://www.w3.org/1999/xlink" x="0px" y="0px"
	 viewBox="0 0 24 24" style="enable-background:new 0 0 24 24;" xml:space="preserve">
<g transform="translate(0, 0)">
	<g>
		<path d="M23,24H1c-0.6,0-1-0.4-1-1V9c0-0.6,0.4-1,1-1s1,0.4,1,1v13h20V9c0-0.6,0.4-1,1-1s1,0.4,1,1v14C24,23.6,23.6,24,23,24z"/>
	</g>
	<g>
		<path d="M23,10H1c-0.6,0-1-0.4-1-1V3c0-0.6,0.4-1,1-1h22c0.6,0,1,0.4,1,1v6C24,9.6,23.6,10,23,10z M2,8h20V4H2V8z"/>
	</g>
	<g>
		<path d="M12,6c-0.6,0-1-0.4-1-1V1c0-0.6,0.4-1,1-1s1,0.4,1,1v4C13,5.6,12.6,6,12,6z"/>
	</g>
	<g>
		<path d="M6,6C5.4,6,5,5.6,5,5V1c0-0.6,0.4-1,1-1s1,0.4,1,1v4C7,5.6,6.6,6,6,6z"/>
	</g>
	<g>
		<path d="M18,6c-0.6,0-1-0.4-1-1V1c0-0.6,0.4-1,1-1s1,0.4,1,1v4C19,5.6,18.6,6,18,6z"/>
	</g>
	<g>
		<path d="M7,15H5c-0.6,0-1-0.4-1-1v-1c0-0.6,0.4-1,1-1h2c0.6,0,1,0.4,1,1v1C8,14.6,7.6,15,7,15z"/>
	</g>
	<g>
		<path d="M13,15h-2c-0.6,0-1-0.4-1-1v-1c0-0.6,0.4-1,1-1h2c0.6,0,1,0.4,1,1v1C14,14.6,13.6,15,13,15z"/>
	</g>
	<g>
		<path d="M7,20H5c-0.6,0-1-0.4-1-1v-1c0-0.6,0.4-1,1-1h2c0.6,0,1,0.4,1,1v1C8,19.6,7.6,20,7,20z"/>
	</g>
	<g>
		<path d="M13,20h-2c-0.6,0-1-0.4-1-1v-1c0-0.6,0.4-1,1-1h2c0.6,0,1,0.4,1,1v1C14,19.6,13.6,20,13,20z"/>
	</g>
	<g>
		<path d="M19,15h-2c-0.6,0-1-0.4-1-1v-1c0-0.6,0.4-1,1-1h2c0.6,0,1,0.4,1,1v1C20,14.6,19.6,15,19,15z"/>
	</g>
</g>
</svg>
