<svg xmlns="http://www.w3.org/2000/svg" width="32" height="32" viewBox="0 0 32 32">
    <path d="M29.133 3.8h-4.267V1.733c0-.467-.467-.933-.933-.933S23 1.267 23 1.733V3.8h-6.067V1.733c0-.467-.467-.933-.933-.933s-.933.467-.933.933V3.8H9V1.733C9 1.266 8.533.8 8.067.8s-.933.467-.933.933V3.8h-4.4C1.134 3.8.001 4.867.001 6.333v23.533c0 1.6 1.133 2.733 2.733 2.733h26.6c1.4 0 2.733-1.133 2.733-2.733V6.333C31.8 4.866 30.734 3.8 29.134 3.8zm.8 26.067c0 .333-.333.667-.667.667H2.733c-.333 0-.667-.333-.667-.667V6.334c0-.333.333-.667.667-.667H7v2.067c0 .467.467.933.933.933s.933-.467.933-.933V5.667h6.067v2.067c0 .467.467.933.933.933s.933-.467.933-.933V5.667h6.067v2.067c0 .467.467.933.933.933s.933-.467.933-.933V5.667h4.267c.333 0 .667.333.667.667v23.533h.267zM7.6 15.133H10c.533 0 .933-.4.933-.933s-.4-.933-.933-.933H7.6c-.533 0-.933.4-.933.933s.4.933.933.933zm0 9.8H10c.533 0 .933-.4.933-.933s-.4-.933-.933-.933H7.6c-.533 0-.933.4-.933.933-.067.533.4.933.933.933zm0-4.666H10c.533 0 .933-.4.933-.933s-.4-.933-.933-.933H7.6c-.533 0-.933.4-.933.933s.4.933.933.933zm7-5.134H17c.533 0 .933-.4.933-.933s-.4-.933-.933-.933h-2.4c-.533 0-.933.4-.933.933s.4.933.933.933zm0 9.8H17c.533 0 .933-.4.933-.933s-.4-.933-.933-.933h-2.4c-.533 0-.933.4-.933.933-.067.533.4.933.933.933zm0-4.666H17c.533 0 .933-.4.933-.933s-.4-.933-.933-.933h-2.4c-.533 0-.933.4-.933.933s.4.933.933.933zm7-5.134H24c.533 0 .933-.4.933-.933s-.4-.933-.933-.933h-2.4c-.533 0-.933.4-.933.933s.4.933.933.933zm0 9.8H24c.533 0 .933-.4.933-.933s-.4-.933-.933-.933h-2.4c-.533 0-.933.4-.933.933-.067.533.4.933.933.933zm0-4.666H24c.533 0 .933-.4.933-.933s-.4-.933-.933-.933h-2.4c-.533 0-.933.4-.933.933s.4.933.933.933z"/>
</svg>
