<?xml version="1.0" encoding="utf-8"?>
<!-- Generated by IcoMoon.io -->
<!DOCTYPE svg PUBLIC "-//W3C//DTD SVG 1.1//EN" "http://www.w3.org/Graphics/SVG/1.1/DTD/svg11.dtd">
<svg version="1.1" xmlns="http://www.w3.org/2000/svg" xmlns:xlink="http://www.w3.org/1999/xlink" width="32" height="32" viewBox="0 0 32 32">
<path d="M29.133 3.8h-4.267v-2.067c0-0.467-0.467-0.933-0.933-0.933s-0.933 0.467-0.933 0.933v2.067h-6.067v-2.067c0-0.467-0.467-0.933-0.933-0.933s-0.933 0.467-0.933 0.933v2.067h-6.067v-2.067c0-0.467-0.467-0.933-0.933-0.933s-0.933 0.467-0.933 0.933v2.067h-4.4c-1.6 0-2.733 1.067-2.733 2.533v23.533c0 1.6 1.133 2.733 2.733 2.733h26.6c1.4 0 2.733-1.133 2.733-2.733v-23.533c-0.267-1.467-1.333-2.533-2.933-2.533zM29.933 29.867c0 0.333-0.333 0.667-0.667 0.667h-26.533c-0.333 0-0.667-0.333-0.667-0.667v-23.533c0-0.333 0.333-0.667 0.667-0.667h4.267v2.067c0 0.467 0.467 0.933 0.933 0.933s0.933-0.467 0.933-0.933v-2.067h6.067v2.067c0 0.467 0.467 0.933 0.933 0.933s0.933-0.467 0.933-0.933v-2.067h6.067v2.067c0 0.467 0.467 0.933 0.933 0.933s0.933-0.467 0.933-0.933v-2.067h4.267c0.333 0 0.667 0.333 0.667 0.667v23.533h0.267zM7.6 15.133h2.4c0.533 0 0.933-0.4 0.933-0.933s-0.4-0.933-0.933-0.933h-2.4c-0.533 0-0.933 0.4-0.933 0.933s0.4 0.933 0.933 0.933zM7.6 24.933h2.4c0.533 0 0.933-0.4 0.933-0.933s-0.4-0.933-0.933-0.933h-2.4c-0.533 0-0.933 0.4-0.933 0.933-0.067 0.533 0.4 0.933 0.933 0.933zM7.6 20.267h2.4c0.533 0 0.933-0.4 0.933-0.933s-0.4-0.933-0.933-0.933h-2.4c-0.533 0-0.933 0.4-0.933 0.933s0.4 0.933 0.933 0.933zM14.6 15.133h2.4c0.533 0 0.933-0.4 0.933-0.933s-0.4-0.933-0.933-0.933h-2.4c-0.533 0-0.933 0.4-0.933 0.933s0.4 0.933 0.933 0.933zM14.6 24.933h2.4c0.533 0 0.933-0.4 0.933-0.933s-0.4-0.933-0.933-0.933h-2.4c-0.533 0-0.933 0.4-0.933 0.933-0.067 0.533 0.4 0.933 0.933 0.933zM14.6 20.267h2.4c0.533 0 0.933-0.4 0.933-0.933s-0.4-0.933-0.933-0.933h-2.4c-0.533 0-0.933 0.4-0.933 0.933s0.4 0.933 0.933 0.933zM21.6 15.133h2.4c0.533 0 0.933-0.4 0.933-0.933s-0.4-0.933-0.933-0.933h-2.4c-0.533 0-0.933 0.4-0.933 0.933s0.4 0.933 0.933 0.933zM21.6 24.933h2.4c0.533 0 0.933-0.4 0.933-0.933s-0.4-0.933-0.933-0.933h-2.4c-0.533 0-0.933 0.4-0.933 0.933-0.067 0.533 0.4 0.933 0.933 0.933zM21.6 20.267h2.4c0.533 0 0.933-0.4 0.933-0.933s-0.4-0.933-0.933-0.933h-2.4c-0.533 0-0.933 0.4-0.933 0.933s0.4 0.933 0.933 0.933z"></path>
</svg>
