<!-- Generated by IcoMoon.io -->
<svg version="1.1" xmlns="http://www.w3.org/2000/svg" width="24" height="24" viewBox="0 0 24 24">
<path d="M23 2h-4v-1c0-0.6-0.4-1-1-1s-1 0.4-1 1v1h-4v-1c0-0.6-0.4-1-1-1s-1 0.4-1 1v1h-4v-1c0-0.6-0.4-1-1-1s-1 0.4-1 1v1h-4c-0.6 0-1 0.4-1 1v20c0 0.6 0.4 1 1 1h22c0.6 0 1-0.4 1-1v-20c0-0.6-0.4-1-1-1zM2 4h3v1c0 0.6 0.4 1 1 1s1-0.4 1-1v-1h4v1c0 0.6 0.4 1 1 1s1-0.4 1-1v-1h4v1c0 0.6 0.4 1 1 1s1-0.4 1-1v-1h3v4h-20v-4zM2 22v-12h20v12h-20z"></path>
<path d="M7 12h-2c-0.6 0-1 0.4-1 1v1c0 0.6 0.4 1 1 1h2c0.6 0 1-0.4 1-1v-1c0-0.6-0.4-1-1-1z"></path>
<path d="M13 12h-2c-0.6 0-1 0.4-1 1v1c0 0.6 0.4 1 1 1h2c0.6 0 1-0.4 1-1v-1c0-0.6-0.4-1-1-1z"></path>
<path d="M7 17h-2c-0.6 0-1 0.4-1 1v1c0 0.6 0.4 1 1 1h2c0.6 0 1-0.4 1-1v-1c0-0.6-0.4-1-1-1z"></path>
<path d="M13 17h-2c-0.6 0-1 0.4-1 1v1c0 0.6 0.4 1 1 1h2c0.6 0 1-0.4 1-1v-1c0-0.6-0.4-1-1-1z"></path>
<path d="M19 12h-2c-0.6 0-1 0.4-1 1v1c0 0.6 0.4 1 1 1h2c0.6 0 1-0.4 1-1v-1c0-0.6-0.4-1-1-1z"></path>
</svg>
