<!-- Generated by IcoMoon.io -->
<svg version="1.1" xmlns="http://www.w3.org/2000/svg" width="24" height="24" viewBox="0 0 24 24">
<title>cards</title>
<path d="M10 0h-9c-0.6 0-1 0.4-1 1v9c0 0.6 0.4 1 1 1h9c0.6 0 1-0.4 1-1v-9c0-0.6-0.4-1-1-1zM9 9h-7v-7h7v7z"></path>
<path d="M23 0h-9c-0.6 0-1 0.4-1 1v9c0 0.6 0.4 1 1 1h9c0.6 0 1-0.4 1-1v-9c0-0.6-0.4-1-1-1zM22 9h-7v-7h7v7z"></path>
<path d="M10 13h-9c-0.6 0-1 0.4-1 1v9c0 0.6 0.4 1 1 1h9c0.6 0 1-0.4 1-1v-9c0-0.6-0.4-1-1-1zM9 22h-7v-7h7v7z"></path>
<path d="M23 13h-9c-0.6 0-1 0.4-1 1v9c0 0.6 0.4 1 1 1h9c0.6 0 1-0.4 1-1v-9c0-0.6-0.4-1-1-1zM22 22h-7v-7h7v7z"></path>
</svg>
