<?xml version="1.0" encoding="utf-8"?>
<!-- Generator: Adobe Illustrator 21.0.2, SVG Export Plug-In . SVG Version: 6.00 Build 0)  -->
<svg version="1.1" id="Layer_1" xmlns="http://www.w3.org/2000/svg" xmlns:xlink="http://www.w3.org/1999/xlink" x="0px" y="0px"
	 viewBox="0 0 24 24" style="enable-background:new 0 0 24 24;" xml:space="preserve">
<g transform="translate(0, 0)">
	<g>
		<path d="M22,12h-9c-0.6,0-1-0.4-1-1V2c0-0.6,0.4-1,1-1c5.5,0,10,4.5,10,10C23,11.6,22.6,12,22,12z M14,10h6.9
			c-0.5-3.6-3.3-6.5-6.9-6.9V10z"/>
	</g>
	<g>
		<path d="M10,24C4.5,24,0,19.5,0,14S4.5,4,10,4c0.6,0,1,0.4,1,1v8h8c0.6,0,1,0.4,1,1C20,19.5,15.5,24,10,24z M9,6.1
			C5.1,6.6,2,9.9,2,14c0,4.4,3.6,8,8,8c4.1,0,7.4-3.1,7.9-7H10c-0.6,0-1-0.4-1-1V6.1z"/>
	</g>
</g>
</svg>
