<svg xmlns="http://www.w3.org/2000/svg" width="32" height="32" viewBox="0 0 32 32">
    <path d="M11.316 22.811l-3.92 6.788C3.208 26.811.444 22.051.444 16.643c0-8.264 6.448-15 14.584-15.508v7.828c-3.828.484-6.804 3.724-6.804 7.68-.004 2.524 1.224 4.748 3.092 6.168zm10.852-10.852l6.788-3.92a15.523 15.523 0 0 0-11.984-6.904v7.828a7.737 7.737 0 0 1 5.196 2.996zm7.752-2.232l-6.752 3.9c.392.928.608 1.948.608 3.016 0 4.288-3.488 7.78-7.78 7.78a7.735 7.735 0 0 1-3.016-.608l-3.9 6.752a15.438 15.438 0 0 0 6.916 1.636c8.592 0 15.556-6.964 15.556-15.556a15.4 15.4 0 0 0-1.632-6.92z"/>
</svg>
