<?xml version="1.0" encoding="utf-8"?>
<!-- Generator: Adobe Illustrator 21.0.2, SVG Export Plug-In . SVG Version: 6.00 Build 0)  -->
<svg version="1.1" id="Layer_1" xmlns="http://www.w3.org/2000/svg" xmlns:xlink="http://www.w3.org/1999/xlink" x="0px" y="0px"
	 viewBox="0 0 24 24" style="enable-background:new 0 0 24 24;" xml:space="preserve">
<g transform="translate(0, 0)">
	<g>
		<path d="M23,22H1c-0.6,0-1-0.4-1-1s0.4-1,1-1h22c0.6,0,1,0.4,1,1S23.6,22,23,22z"/>
	</g>
	<g>
		<path d="M6,18H2c-0.6,0-1-0.4-1-1V8c0-0.6,0.4-1,1-1h4c0.6,0,1,0.4,1,1v9C7,17.6,6.6,18,6,18z M3,16h2V9H3V16z"/>
	</g>
	<g>
		<path d="M14,18h-4c-0.6,0-1-0.4-1-1V3c0-0.6,0.4-1,1-1h4c0.6,0,1,0.4,1,1v14C15,17.6,14.6,18,14,18z M11,16h2V4h-2V16z"/>
	</g>
	<g>
		<path d="M22,18h-4c-0.6,0-1-0.4-1-1v-5c0-0.6,0.4-1,1-1h4c0.6,0,1,0.4,1,1v5C23,17.6,22.6,18,22,18z M19,16h2v-3h-2V16z"/>
	</g>
</g>
</svg>
