<?xml version="1.0" encoding="utf-8"?>
<!-- Generator: Adobe Illustrator 21.0.2, SVG Export Plug-In . SVG Version: 6.00 Build 0)  -->
<svg version="1.1" id="Layer_1" xmlns="http://www.w3.org/2000/svg" xmlns:xlink="http://www.w3.org/1999/xlink" x="0px" y="0px"
	 viewBox="0 0 24 24" style="enable-background:new 0 0 24 24;" xml:space="preserve">
<g transform="translate(0, 0)">
	<g>
		<path d="M23,24H1c-0.6,0-1-0.4-1-1V1c0-0.6,0.4-1,1-1h22c0.6,0,1,0.4,1,1v22C24,23.6,23.6,24,23,24z M2,22h20V2H2V22z"/>
	</g>
	<g>
		<path d="M5,16c-0.2,0-0.5-0.1-0.6-0.2c-0.4-0.4-0.5-1-0.1-1.4l5-6c0.3-0.4,1-0.5,1.4-0.1l4.3,3.4l3.4-3.4c0.4-0.4,1-0.4,1.4,0
			s0.4,1,0,1.4l-4,4c-0.4,0.4-0.9,0.4-1.3,0.1l-4.2-3.4l-4.4,5.2C5.6,15.9,5.3,16,5,16z"/>
	</g>
</g>
</svg>
