<?xml version="1.0" encoding="utf-8"?>
<!-- Generated by IcoMoon.io -->
<!DOCTYPE svg PUBLIC "-//W3C//DTD SVG 1.1//EN" "http://www.w3.org/Graphics/SVG/1.1/DTD/svg11.dtd">
<svg version="1.1" xmlns="http://www.w3.org/2000/svg" xmlns:xlink="http://www.w3.org/1999/xlink" width="32" height="32" viewBox="0 0 32 32">
<path d="M29.2 1.267h-20.6c-1.733 0-3.2 1.467-3.2 3.2v4.333h-2.2c-1.733 0-3.2 1.467-3.2 3.2v11.4c0 1.733 1.467 3.2 3.2 3.2h3.267v5.4c0 0.2 0.133 0.4 0.333 0.533 0.067 0 0.133 0.067 0.2 0.067 0.133 0 0.267-0.067 0.4-0.2l5.267-5.733h11.133c1.733 0 3.2-1.467 3.2-3.2v-4.333h2.2c1.733 0 3.2-1.467 3.2-3.2v-11.4c0-1.867-1.467-3.267-3.2-3.267zM25.933 23.4c0 1.2-0.933 2.133-2.133 2.133h-11.4c-0.133 0-0.267 0.067-0.4 0.2l-4.467 4.933v-4.533c0-0.267-0.267-0.533-0.533-0.533h-3.8c-1.2 0-2.133-0.933-2.133-2.133v-11.467c0-1.2 0.933-2.133 2.133-2.133h20.6c0.467 0 0.867 0.133 1.2 0.333 0.6 0.4 0.933 1 0.933 1.733v11.467zM31.333 15.867c0 1.2-0.933 2.133-2.133 2.133h-2.2v-6c0-1.467-0.933-2.667-2.267-3.067-0.133 0-0.2-0.067-0.333-0.067-0.2-0.067-0.4-0.067-0.667-0.067h-17.333v-4.333c0-1.2 0.933-2.133 2.133-2.133h20.6c1.2 0 2.133 0.933 2.133 2.133v11.4zM6.467 15.267h7.533c0.267 0 0.533-0.267 0.533-0.533s-0.267-0.533-0.533-0.533h-7.533c-0.267 0-0.533 0.267-0.533 0.533s0.267 0.533 0.533 0.533zM21.067 17.467h-14.6c-0.267 0-0.533 0.267-0.533 0.533s0.267 0.533 0.533 0.533h14.6c0.267 0 0.533-0.267 0.533-0.533s-0.267-0.533-0.533-0.533zM21.067 20.667h-14.6c-0.267 0-0.533 0.267-0.533 0.533s0.267 0.533 0.533 0.533h14.6c0.267 0 0.533-0.267 0.533-0.533s-0.267-0.533-0.533-0.533z"></path>
</svg>
