<svg xmlns="http://www.w3.org/2000/svg" width="32" height="32" viewBox="0 0 32 32">
    <path d="M29.2 1.267H8.6c-1.733 0-3.2 1.467-3.2 3.2V8.8H3.2C1.467 8.8 0 10.267 0 12v11.4c0 1.733 1.467 3.2 3.2 3.2h3.267V32c0 .2.133.4.333.533.067 0 .133.067.2.067.133 0 .267-.067.4-.2l5.267-5.733H23.8c1.733 0 3.2-1.467 3.2-3.2v-4.333h2.2c1.733 0 3.2-1.467 3.2-3.2v-11.4c0-1.867-1.467-3.267-3.2-3.267zM25.933 23.4c0 1.2-.933 2.133-2.133 2.133H12.4c-.133 0-.267.067-.4.2l-4.467 4.933v-4.533c0-.267-.267-.533-.533-.533H3.2c-1.2 0-2.133-.933-2.133-2.133V12c0-1.2.933-2.133 2.133-2.133h20.6a2.3 2.3 0 0 1 1.2.333c.6.4.933 1 .933 1.733V23.4zm5.4-7.533c0 1.2-.933 2.133-2.133 2.133H27v-6a3.16 3.16 0 0 0-2.267-3.067c-.133 0-.2-.067-.333-.067-.2-.067-.4-.067-.667-.067H6.4V4.466c0-1.2.933-2.133 2.133-2.133h20.6c1.2 0 2.133.933 2.133 2.133v11.4zm-24.866-.6H14c.267 0 .533-.267.533-.533s-.267-.533-.533-.533H6.467c-.267 0-.533.267-.533.533s.267.533.533.533zm14.6 2.2h-14.6c-.267 0-.533.267-.533.533s.267.533.533.533h14.6c.267 0 .533-.267.533-.533s-.267-.533-.533-.533zm0 3.2h-14.6c-.267 0-.533.267-.533.533s.267.533.533.533h14.6c.267 0 .533-.267.533-.533s-.267-.533-.533-.533z"/>
</svg>
