<?xml version="1.0" encoding="utf-8"?>
<!-- Generator: Adobe Illustrator 21.0.2, SVG Export Plug-In . SVG Version: 6.00 Build 0)  -->
<svg version="1.1" id="Layer_1" xmlns="http://www.w3.org/2000/svg" xmlns:xlink="http://www.w3.org/1999/xlink" x="0px" y="0px"
	 viewBox="0 0 24 24" style="enable-background:new 0 0 24 24;" xml:space="preserve">
<g transform="translate(0, 0)">
	<g>
		<path d="M21,23c-0.2,0-0.3,0-0.4-0.1l-4-2c-4,0.5-7.8-1-9.6-3.8c-0.3-0.5-0.2-1.1,0.3-1.4c0.5-0.3,1.1-0.2,1.4,0.3
			c1.4,2.1,4.6,3.3,7.9,2.8c0.2,0,0.4,0,0.6,0.1l2.8,1.4V18c0-0.3,0.1-0.6,0.4-0.8c1.1-0.9,1.6-2,1.6-3.2s-0.6-2.3-1.7-3.3
			c-0.4-0.4-0.5-1-0.1-1.4c0.3-0.4,1-0.5,1.4-0.1c1.6,1.3,2.4,3,2.4,4.8c0,1.6-0.7,3.2-2,4.4V22c0,0.3-0.2,0.7-0.5,0.9
			C21.4,23,21.2,23,21,23z"/>
	</g>
	<g>
		<path d="M3,20c-0.2,0-0.4,0-0.5-0.1C2.2,19.7,2,19.3,2,19v-4.8C0.7,12.6,0,10.9,0,9c0-5,4.9-9,11-9s11,4,11,9s-4.9,9-11,9
			c-1,0-2-0.1-3.1-0.4l-4.5,2.2C3.3,20,3.2,20,3,20z M11,2C6,2,2,5.1,2,9c0,1.5,0.6,2.9,1.7,4.1C3.9,13.3,4,13.5,4,13.8v3.6l3.4-1.7
			c0.2-0.1,0.5-0.1,0.7-0.1C9,15.9,10,16,11,16c5,0,9-3.1,9-7S16,2,11,2z"/>
	</g>
</g>
</svg>
