<!-- Generated by IcoMoon.io -->
<svg version="1.1" xmlns="http://www.w3.org/2000/svg" width="24" height="24" viewBox="0 0 24 24">
<path d="M22 9.5c0-0.2 0-0.4 0-0.5 0-5-4.9-9-11-9s-11 4-11 9c0 1.9 0.7 3.6 2 5.2v4.8c0 0.3 0.2 0.7 0.5 0.9 0.1 0.1 0.3 0.1 0.5 0.1s0.3 0 0.4-0.2l4.1-2c1.9 2.3 5.4 3.6 9.1 3.1l4 2c0.1 0.1 0.2 0.1 0.4 0.1s0.4 0 0.5-0.1c0.3-0.2 0.5-0.6 0.5-0.9v-3.6c1.3-1.2 2-2.8 2-4.4 0-1.7-0.7-3.2-2-4.5zM3.7 13.1c-1.1-1.2-1.7-2.6-1.7-4.1 0-3.9 4-7 9-7s9 3.1 9 7-4 7-9 7c-0.9 0-1.8-0.1-2.6-0.3-0.3-0.2-0.7-0.2-1.1 0-0.1 0-0.1 0.1-0.1 0.1l-3.2 1.6v-3.6c0-0.3-0.1-0.5-0.3-0.7zM20.4 17.2c-0.3 0.2-0.4 0.5-0.4 0.8v2.3l-2.8-1.4c-0.2-0.1-0.4-0.1-0.6-0.1-2 0.3-4 0-5.5-0.8 4.8 0 8.8-2.5 10.3-6 0.4 0.6 0.6 1.3 0.6 2 0 1.2-0.5 2.3-1.6 3.2z"></path>
</svg>
