<?xml version="1.0" encoding="utf-8"?>
<!-- Generated by IcoMoon.io -->
<!DOCTYPE svg PUBLIC "-//W3C//DTD SVG 1.1//EN" "http://www.w3.org/Graphics/SVG/1.1/DTD/svg11.dtd">
<svg version="1.1" xmlns="http://www.w3.org/2000/svg" xmlns:xlink="http://www.w3.org/1999/xlink" width="32" height="32" viewBox="0 0 32 32">
<path d="M16 0.867c-8.667 0-15.8 7.133-15.8 15.8s7.133 15.8 15.8 15.8 15.8-7.133 15.8-15.8-7.133-15.8-15.8-15.8zM16 30.867c-7.933 0-14.2-6.467-14.2-14.2s6.467-14.2 14.2-14.2 14.2 6.467 14.2 14.2-6.267 14.2-14.2 14.2zM22.867 12.733l-8.467 8.867c-0.133 0.133-0.333 0.2-0.533 0.2s-0.4-0.133-0.467-0.267l-3.733-4.4c-0.267-0.267-0.2-0.733 0.067-0.933 0.267-0.267 0.733-0.2 0.933 0.067l3.2 3.867 7.933-8.267c0.2-0.267 0.667-0.267 0.933-0.067 0.333 0.2 0.333 0.667 0.133 0.933z"></path>
</svg>
