<svg xmlns="http://www.w3.org/2000/svg" width="32" height="32" viewBox="0 0 32 32">
    <path d="M16 .867C7.333.867.2 8 .2 16.667s7.133 15.8 15.8 15.8 15.8-7.133 15.8-15.8S24.667.867 16 .867zm0 30c-7.933 0-14.2-6.467-14.2-14.2s6.467-14.2 14.2-14.2 14.2 6.467 14.2 14.2-6.267 14.2-14.2 14.2zm6.867-18.134L14.4 21.6c-.133.133-.333.2-.533.2s-.4-.133-.467-.267l-3.733-4.4c-.267-.267-.2-.733.067-.933.267-.267.733-.2.933.067l3.2 3.867 7.933-8.267c.2-.267.667-.267.933-.067.333.2.333.667.133.933z"/>
</svg>
