<?xml version="1.0" encoding="utf-8"?>
<!-- Generated by IcoMoon.io -->
<!DOCTYPE svg PUBLIC "-//W3C//DTD SVG 1.1//EN" "http://www.w3.org/Graphics/SVG/1.1/DTD/svg11.dtd">
<svg version="1.1" xmlns="http://www.w3.org/2000/svg" xmlns:xlink="http://www.w3.org/1999/xlink" width="32" height="32" viewBox="0 0 32 32">
<path d="M16 32.667c-0.237 0-0.474 0-0.71 0-0.541-0.034-1.082-0.068-1.624-0.169-1.421-0.203-2.841-0.609-4.161-1.218-1.59-0.71-3.044-1.657-4.33-2.841-1.319-1.218-2.436-2.638-3.281-4.228-0.71-1.353-1.252-2.808-1.556-4.33-0.338-1.725-0.406-3.518-0.203-5.243 0.203-1.624 0.677-3.247 1.353-4.736 0.812-1.725 1.928-3.281 3.247-4.634 1.421-1.387 3.112-2.537 4.939-3.315 0.981-0.44 2.030-0.744 3.078-0.981 0.981-0.203 1.996-0.304 3.011-0.338 1.015 0 2.030 0.068 3.044 0.237 1.082 0.203 2.131 0.507 3.112 0.913 1.86 0.744 3.552 1.827 5.006 3.214 1.387 1.319 2.571 2.909 3.416 4.634 0.71 1.488 1.218 3.078 1.455 4.702 0.237 1.725 0.237 3.45-0.068 5.175-0.271 1.522-0.778 2.977-1.455 4.364-0.812 1.59-1.894 3.078-3.18 4.33-1.285 1.218-2.74 2.233-4.364 2.977-1.319 0.609-2.706 1.049-4.127 1.285-0.507 0.068-1.015 0.135-1.488 0.169-0.271 0.034-0.541 0.034-0.812 0.034-0.101 0-0.203 0-0.304 0zM16 31.111c0.203 0 0.44 0 0.643 0 0.474-0.034 0.981-0.068 1.455-0.135 1.285-0.203 2.571-0.541 3.755-1.082 1.455-0.643 2.808-1.556 3.992-2.638 1.184-1.116 2.199-2.402 2.943-3.856 0.643-1.184 1.082-2.503 1.353-3.822 0.304-1.556 0.372-3.18 0.169-4.736-0.203-1.488-0.609-2.909-1.218-4.262-0.71-1.556-1.725-2.977-2.943-4.161-1.285-1.252-2.808-2.3-4.431-3.011-0.913-0.372-1.827-0.677-2.774-0.88-0.88-0.169-1.793-0.271-2.706-0.304-0.913 0-1.827 0.068-2.74 0.237-0.947 0.169-1.894 0.44-2.808 0.812-1.658 0.677-3.214 1.657-4.533 2.909-1.252 1.184-2.3 2.605-3.078 4.161-0.643 1.319-1.082 2.774-1.319 4.228-0.237 1.59-0.203 3.18 0.101 4.736 0.237 1.353 0.71 2.706 1.353 3.924 0.71 1.421 1.691 2.706 2.841 3.822 1.116 1.082 2.436 1.996 3.856 2.672 1.184 0.575 2.436 0.947 3.721 1.184 0.44 0.068 0.913 0.135 1.353 0.169 0.237 0.034 0.507 0.034 0.744 0.034 0.034 0 0.135 0 0.271 0zM15.966 17.512c-0.068 0-0.068 0-0.135 0s-0.135-0.034-0.169-0.068c-0.237-0.101-0.406-0.304-0.507-0.541-0.034-0.068-0.034-0.135-0.034-0.203 0-0.034 0-0.034 0-0.068v-11.839c0-0.068 0-0.068 0-0.135s0.034-0.169 0.068-0.237c0.034-0.101 0.101-0.169 0.169-0.271 0.068-0.068 0.135-0.101 0.203-0.135 0.237-0.135 0.541-0.135 0.778 0 0.068 0.034 0.135 0.101 0.203 0.135 0.135 0.101 0.203 0.271 0.237 0.44 0 0.034 0 0.068 0.034 0.135 0 0.034 0 0.034 0 0.068v11.839c0 0.034 0 0.034 0 0.068 0 0.068 0 0.135-0.034 0.203-0.068 0.237-0.271 0.44-0.507 0.541-0.068 0.034-0.135 0.034-0.169 0.068-0.068 0-0.068 0-0.135 0 0.068 0 0.034 0 0 0zM15.473 16.609c0-0.068 0-0.068 0-0.135s0.021-0.135 0.042-0.169c0.063-0.237 0.189-0.406 0.337-0.507 0.042-0.034 0.084-0.034 0.126-0.034 0.021 0 0.021 0 0.042 0h7.367c0.042 0 0.042 0 0.084 0s0.105 0.034 0.147 0.068c0.063 0.034 0.105 0.101 0.168 0.169 0.042 0.068 0.063 0.135 0.084 0.203 0.084 0.237 0.084 0.541 0 0.778-0.021 0.068-0.063 0.135-0.084 0.203-0.063 0.135-0.168 0.203-0.274 0.237-0.021 0-0.042 0-0.084 0.034-0.021 0-0.021 0-0.042 0h-7.367c-0.021 0-0.021 0-0.042 0-0.042 0-0.084 0-0.126-0.034-0.147-0.068-0.274-0.271-0.337-0.507-0.021-0.068-0.021-0.135-0.042-0.169 0-0.068 0-0.068 0-0.135 0 0.068 0 0.034 0 0z"></path>
</svg>
