<svg xmlns="http://www.w3.org/2000/svg" width="32" height="32" viewBox="0 0 32 32">
    <path d="M16 32.667h-.71c-.541-.034-1.082-.068-1.624-.169a15.067 15.067 0 0 1-4.161-1.218 15.983 15.983 0 0 1-4.33-2.841 15.958 15.958 0 0 1-3.281-4.228 16.148 16.148 0 0 1-1.556-4.33 17.076 17.076 0 0 1-.203-5.243 16.532 16.532 0 0 1 1.353-4.736C2.3 8.177 3.416 6.621 4.735 5.268a16.251 16.251 0 0 1 4.939-3.315c.981-.44 2.03-.744 3.078-.981a17.85 17.85 0 0 1 3.011-.338c1.015 0 2.03.068 3.044.237 1.082.203 2.131.507 3.112.913a15.656 15.656 0 0 1 5.006 3.214 16.441 16.441 0 0 1 3.416 4.634 16.503 16.503 0 0 1 1.455 4.702c.237 1.725.237 3.45-.068 5.175-.271 1.522-.778 2.977-1.455 4.364a16.636 16.636 0 0 1-3.18 4.33 16.076 16.076 0 0 1-4.364 2.977 16.187 16.187 0 0 1-4.127 1.285 24.96 24.96 0 0 1-1.488.169c-.271.034-.541.034-.812.034h-.304zm0-1.556h.643c.474-.034.981-.068 1.455-.135 1.285-.203 2.571-.541 3.755-1.082 1.455-.643 2.808-1.556 3.992-2.638 1.184-1.116 2.199-2.402 2.943-3.856.643-1.184 1.082-2.503 1.353-3.822a14.87 14.87 0 0 0 .169-4.736 15.401 15.401 0 0 0-1.218-4.262 13.871 13.871 0 0 0-2.943-4.161c-1.285-1.252-2.808-2.3-4.431-3.011a16.506 16.506 0 0 0-2.774-.88 17.828 17.828 0 0 0-2.706-.304c-.913 0-1.827.068-2.74.237-.947.169-1.894.44-2.808.812a14.623 14.623 0 0 0-4.533 2.909 14.938 14.938 0 0 0-3.078 4.161 15.365 15.365 0 0 0-1.319 4.228c-.237 1.59-.203 3.18.101 4.736.237 1.353.71 2.706 1.353 3.924.71 1.421 1.691 2.706 2.841 3.822a14.569 14.569 0 0 0 3.856 2.672c1.184.575 2.436.947 3.721 1.184.44.068.913.135 1.353.169.237.034.507.034.744.034H16zm-.034-13.599h-.135a.26.26 0 0 1-.169-.068c-.237-.101-.406-.304-.507-.541-.034-.068-.034-.135-.034-.203V4.658a.63.63 0 0 1 .068-.237c.034-.101.101-.169.169-.271.068-.068.135-.101.203-.135a.798.798 0 0 1 .778 0c.068.034.135.101.203.135.135.101.203.271.237.44 0 .034 0 .068.034.135V16.7c0 .068 0 .135-.034.203-.068.237-.271.44-.507.541-.068.034-.135.034-.169.068h-.135c.068 0 .034 0 0 0zm-.493-.903v-.135c0-.067.021-.135.042-.169a.868.868 0 0 1 .337-.507c.042-.034.084-.034.126-.034h7.493c.042 0 .105.034.147.068.063.034.105.101.168.169a.832.832 0 0 1 .084.203c.084.237.084.541 0 .778-.021.068-.063.135-.084.203a.436.436 0 0 1-.274.237c-.021 0-.042 0-.084.034h-7.451c-.042 0-.084 0-.126-.034-.147-.068-.274-.271-.337-.507-.021-.068-.021-.135-.042-.169v-.135c0 .068 0 .034 0 0z"/>
</svg>
