<svg xmlns="http://www.w3.org/2000/svg" width="32" height="32" viewBox="0 0 32 32">
    <path d="M16 .867C7.333.867.2 8 .2 16.667s7.133 15.8 15.8 15.8 15.8-7.133 15.8-15.8S24.667.867 16 .867zm0 30c-7.933 0-14.2-6.467-14.2-14.2s6.467-14.2 14.2-14.2 14.2 6.467 14.2 14.2-6.267 14.2-14.2 14.2zm3.533-9.134c.333.333.867.267 1.133-.067s.2-.867-.133-1.133L12 11.933c-.333-.333-.933-.333-1.2-.067-.333.333-.267.933.133 1.133l8.6 8.733zM20.667 13a.767.767 0 0 0-.067-1.133c-.333-.333-.867-.2-1.133.133l-8.6 8.533c-.333.333-.333.933-.067 1.2.333.333.933.267 1.133-.133l8.733-8.6z"/>
</svg>
