<svg xmlns="http://www.w3.org/2000/svg" width="32" height="32" viewBox="0 0 32 32">
    <path d="M16 .862C7.342.862.196 8.009.196 16.666S7.325 32.47 16 32.47s15.804-7.129 15.804-15.804S24.675.862 16 .862zm4.533 19.68c.338.267.409.8.142 1.138s-.8.409-1.138.071l-3.804-3.893-3.787 3.733c-.196.409-.8.462-1.138.142-.267-.267-.267-.871.071-1.209l3.787-3.751-3.733-3.769c-.409-.196-.462-.8-.142-1.138.267-.267.871-.267 1.209.071l3.733 3.769 3.733-3.698c.267-.338.8-.462 1.138-.142.338.267.409.8.071 1.138l-3.858 3.787 3.716 3.751z"/>
</svg>
