<?xml version="1.0" encoding="utf-8"?>
<!-- Generated by IcoMoon.io -->
<!DOCTYPE svg PUBLIC "-//W3C//DTD SVG 1.1//EN" "http://www.w3.org/Graphics/SVG/1.1/DTD/svg11.dtd">
<svg version="1.1" xmlns="http://www.w3.org/2000/svg" xmlns:xlink="http://www.w3.org/1999/xlink" width="32" height="32" viewBox="0 0 32 32">
<path d="M16 0.867c-8.667 0-15.8 7.133-15.8 15.8s7.133 15.8 15.8 15.8 15.8-7.133 15.8-15.8-7.133-15.8-15.8-15.8zM16 30.867c-7.933 0-14.2-6.467-14.2-14.2s6.467-14.2 14.2-14.2 14.2 6.467 14.2 14.2-6.267 14.2-14.2 14.2zM19.533 21.733c0.333 0.333 0.867 0.267 1.133-0.067s0.2-0.867-0.133-1.133l-8.533-8.6c-0.333-0.333-0.933-0.333-1.2-0.067-0.333 0.333-0.267 0.933 0.133 1.133l8.6 8.733zM20.667 13c0.333-0.333 0.267-0.867-0.067-1.133-0.333-0.333-0.867-0.2-1.133 0.133l-8.6 8.533c-0.333 0.333-0.333 0.933-0.067 1.2 0.333 0.333 0.933 0.267 1.133-0.133l8.733-8.6z"></path>
</svg>
