<?xml version="1.0" encoding="utf-8"?>
<!-- Generated by IcoMoon.io -->
<!DOCTYPE svg PUBLIC "-//W3C//DTD SVG 1.1//EN" "http://www.w3.org/Graphics/SVG/1.1/DTD/svg11.dtd">
<svg version="1.1" xmlns="http://www.w3.org/2000/svg" xmlns:xlink="http://www.w3.org/1999/xlink" width="32" height="32" viewBox="0 0 32 32">
<path d="M16 0.862c-8.658 0-15.804 7.147-15.804 15.804s7.129 15.804 15.804 15.804 15.804-7.129 15.804-15.804-7.129-15.804-15.804-15.804zM20.533 20.542c0.338 0.267 0.409 0.8 0.142 1.138s-0.8 0.409-1.138 0.071l-3.804-3.893-3.787 3.733c-0.196 0.409-0.8 0.462-1.138 0.142-0.267-0.267-0.267-0.871 0.071-1.209l3.787-3.751-3.733-3.769c-0.409-0.196-0.462-0.8-0.142-1.138 0.267-0.267 0.871-0.267 1.209 0.071l3.733 3.769 3.733-3.698c0.267-0.338 0.8-0.462 1.138-0.142 0.338 0.267 0.409 0.8 0.071 1.138l-3.858 3.787 3.716 3.751z"></path>
</svg>
