<!-- Generated by IcoMoon.io -->
<svg version="1.1" xmlns="http://www.w3.org/2000/svg" width="24" height="24" viewBox="0 0 24 24">
<title>code</title>
<path d="M6.7 7.3c-0.4-0.4-1-0.4-1.4 0l-4 4c-0.4 0.4-0.4 1 0 1.4l4 4c0.2 0.2 0.4 0.3 0.7 0.3s0.5-0.1 0.7-0.3c0.4-0.4 0.4-1 0-1.4l-3.3-3.3 3.3-3.3c0.4-0.4 0.4-1 0-1.4z"></path>
<path d="M22.7 11.3l-4-4c-0.4-0.4-1-0.4-1.4 0s-0.4 1 0 1.4l3.3 3.3-3.3 3.3c-0.4 0.4-0.4 1 0 1.4 0.2 0.2 0.4 0.3 0.7 0.3s0.5-0.1 0.7-0.3l4-4c0.4-0.4 0.4-1 0-1.4z"></path>
<path d="M14.3 3.1c-0.5-0.2-1.1 0.2-1.2 0.7l-4 16c-0.2 0.5 0.2 1.1 0.7 1.2 0 0 0.1 0 0.2 0 0.4 0 0.9-0.3 1-0.7l4-16c0.2-0.5-0.2-1.1-0.7-1.2z"></path>
</svg>
