<svg xmlns="http://www.w3.org/2000/svg" width="213" height="32" viewBox="0 0 213 32">
    <path d="M16.192 11.447c-.298 0-.639-.043-.937-.085a5.27 5.27 0 0 1-3.409-2.216c-.81-1.15-1.15-2.557-.895-3.963A5.255 5.255 0 0 1 16.149.837c.298 0 .639.043.937.085 2.855.511 4.815 3.238 4.304 6.136-.384 2.557-2.599 4.389-5.198 4.389zm0-9.715c-2.173 0-3.963 1.534-4.346 3.664-.213 1.15.085 2.344.724 3.281.682.937 1.704 1.619 2.855 1.79.256.043.511.085.767.085 2.173 0 3.963-1.534 4.346-3.664.426-2.386-1.193-4.73-3.579-5.113-.213-.043-.511-.043-.767-.043zm-1.96 21.177c-.298 0-.639-.043-.937-.085-1.364-.256-2.599-1.023-3.451-2.216s-1.15-2.557-.895-3.963c.469-2.557 2.599-4.389 5.198-4.389.298 0 .639.043.937.085a5.273 5.273 0 0 1 3.409 2.216c.81 1.15 1.15 2.557.895 3.963a5.216 5.216 0 0 1-5.156 4.389zm-.043-9.715c-2.173 0-3.963 1.534-4.346 3.664-.17 1.193.085 2.386.724 3.324.682.937 1.704 1.619 2.855 1.79.256.043.511.085.767.085 2.173 0 3.963-1.534 4.346-3.664.213-1.15-.085-2.344-.724-3.281-.682-.937-1.704-1.619-2.855-1.79a2.236 2.236 0 0 0-.767-.128zm-8.905 2.258c-.298 0-.639-.043-.937-.085-1.364-.256-2.599-1.023-3.409-2.216s-1.15-2.557-.895-3.963a5.217 5.217 0 0 1 5.156-4.346c.298 0 .639.043.937.085 2.855.511 4.815 3.238 4.304 6.136a5.249 5.249 0 0 1-5.156 4.389zm-.043-9.757c-2.173 0-3.963 1.534-4.346 3.664-.213 1.15.085 2.344.724 3.281.682.937 1.704 1.619 2.855 1.79.256.043.511.085.767.085 2.173 0 3.963-1.534 4.346-3.664.426-2.386-1.15-4.73-3.579-5.113-.256 0-.511-.043-.767-.043zm32.682 7.882a10.487 10.487 0 0 0-4.431-1.108c-2.471.043-4.389.852-5.71 2.471-1.363 1.662-2.088 3.835-2.088 6.477 0 2.471.682 4.559 2.045 6.264 1.321 1.79 3.153 2.642 5.497 2.684a12.11 12.11 0 0 0 4.687-.937l.256 2.471a16.774 16.774 0 0 1-5.326.724c-3.324-.085-5.795-1.193-7.414-3.409-1.662-2.173-2.471-4.772-2.471-7.84.043-3.409.937-6.093 2.812-8.096 1.79-2.003 4.304-3.068 7.371-3.111 1.278 0 2.344.085 3.196.298.426.085.81.17 1.15.256.298.085.511.213.724.298l-.298 2.557zm3.536 7.841c0-3.025.767-5.667 2.386-7.84 1.577-2.216 4.005-3.366 7.286-3.409 3.366.085 5.838 1.193 7.414 3.409 1.534 2.173 2.258 4.772 2.258 7.84 0 3.025-.767 5.582-2.258 7.798-1.577 2.216-4.048 3.366-7.414 3.451-3.281-.085-5.752-1.193-7.286-3.451-1.619-2.173-2.386-4.772-2.386-7.798zm2.77 0c0 2.557.597 4.644 1.79 6.306 1.15 1.747 2.812 2.599 5.113 2.642 2.258-.043 4.005-.937 5.156-2.642 1.15-1.662 1.704-3.75 1.704-6.306s-.554-4.73-1.704-6.391c-1.193-1.704-2.94-2.557-5.156-2.599-2.258.043-3.963.895-5.113 2.599-1.15 1.747-1.79 3.878-1.79 6.391zm22.157-5.667c0-1.619-.043-3.324-.128-5.028h2.471v3.835h.085c.256-.511.511-1.023.852-1.534.298-.511.724-.937 1.193-1.364.511-.469 1.15-.81 1.917-1.065s1.662-.341 2.727-.341c2.557.043 4.389.81 5.497 2.386 1.065 1.491 1.577 3.451 1.577 5.88v13.72H80.02V19.159c0-2.045-.341-3.664-1.108-4.858-.767-1.15-2.045-1.747-3.835-1.79-2.258.085-3.877.895-4.772 2.514a8.415 8.415 0 0 0-1.023 2.471 12.623 12.623 0 0 0-.298 2.812v11.846h-2.557l-.043-16.405zm32.256-2.727h-4.73v13.891c0 .98.213 1.79.682 2.471.383.724 1.108 1.065 2.088 1.065.937 0 1.704-.17 2.386-.511l.128 2.216c-.298.085-.724.256-1.278.341a8.39 8.39 0 0 1-1.875.213c-1.108 0-2.003-.213-2.599-.597a3.581 3.581 0 0 1-1.406-1.577 6.267 6.267 0 0 1-.511-2.258c-.085-.852-.085-1.79-.085-2.77V13.023h-4.133v-2.301H91.4V5.609l2.557-.937v6.093h4.73l-.043 2.258zm16.873 15.68h-.085a6.32 6.32 0 0 1-2.727 2.855c-1.193.682-2.514 1.023-3.877 1.065-1.449-.043-2.599-.256-3.494-.724-.937-.426-1.619-.937-2.13-1.577-.852-1.363-1.278-2.599-1.193-3.707 0-1.79.426-3.196 1.236-4.261a6.768 6.768 0 0 1 3.111-2.216c1.278-.469 2.642-.767 4.133-.937 1.449-.085 2.855-.085 4.218-.085h.511v-1.108c.085-3.707-1.491-5.539-4.73-5.539-2.173-.043-4.176.554-6.093 1.79v-2.599c1.917-.937 3.92-1.406 6.093-1.449 4.9-.085 7.329 2.599 7.244 7.968v9.459a30.601 30.601 0 0 0 .213 4.517h-2.514l.085-3.451zm-.255-7.329h-.724c-1.108 0-2.216.043-3.324.085-1.15.085-2.216.341-3.196.724a4.758 4.758 0 0 0-2.258 1.534c-.639.724-.937 1.662-.937 2.812 0 1.363.426 2.344 1.321 2.94.81.597 1.79.937 3.025.937 1.491 0 2.642-.298 3.537-.937.852-.597 1.449-1.278 1.832-2.088.383-.895.639-1.747.682-2.557.085-.895.085-1.577.085-2.173l-.043-1.278zm22.796-7.798a10.487 10.487 0 0 0-4.431-1.108c-2.471.043-4.389.852-5.71 2.471-1.364 1.662-2.088 3.835-2.088 6.477 0 2.471.682 4.559 2.045 6.264 1.321 1.79 3.153 2.642 5.497 2.684a12.11 12.11 0 0 0 4.687-.937l.256 2.471a16.774 16.774 0 0 1-5.326.724c-3.324-.085-5.795-1.193-7.414-3.409-1.662-2.173-2.471-4.772-2.471-7.84.043-3.409.937-6.093 2.812-8.096 1.832-2.045 4.304-3.068 7.414-3.111 1.278 0 2.344.085 3.196.298.426.085.81.17 1.15.256.298.085.511.213.724.298l-.341 2.557zm14.061-.553h-4.73v13.891c0 .98.213 1.79.682 2.471.383.724 1.108 1.065 2.088 1.065.937 0 1.704-.17 2.386-.511l.17 2.216c-.298.085-.724.256-1.278.341a8.39 8.39 0 0 1-1.875.213c-1.108 0-2.003-.213-2.599-.597a3.581 3.581 0 0 1-1.406-1.577 6.267 6.267 0 0 1-.511-2.258c-.085-.852-.085-1.79-.085-2.77V13.023h-4.091v-2.301h4.091V5.609l2.557-.937v6.093h4.73l-.128 2.258zM156.336.667h7.244v31.446h-7.244V.667zM187.27 27.34c0 1.832.085 3.451.256 4.772h-6.477a35.297 35.297 0 0 1-.256-2.983c-2.003 2.344-4.304 3.494-6.818 3.494-1.875-.043-3.409-.682-4.559-1.96-1.15-1.236-1.79-2.897-1.79-5.028-.043-4.943 3.664-7.457 11.206-7.457h1.96v-.639c0-.724-.298-1.449-.895-2.045a3.715 3.715 0 0 0-1.278-.724 9.007 9.007 0 0 0-2.003-.213 11.797 11.797 0 0 0-3.451.639c-1.15.426-2.088.895-2.897 1.406l-.298-5.369c.937-.341 2.045-.724 3.409-.98s2.897-.426 4.73-.426c1.917 0 3.451.213 4.687.597 1.193.426 2.088.98 2.727 1.79.682.724 1.108 1.577 1.363 2.557.213.98.298 2.045.298 3.196v9.374h.085zm-6.434-5.752h-.937c-1.79 0-3.153.298-4.176.81-1.065.597-1.619 1.534-1.619 2.812.043 1.832.937 2.727 2.684 2.684.937 0 1.662-.213 2.216-.639.511-.341.895-.81 1.15-1.406.426-1.236.639-2.386.597-3.537l.085-.724zM191.744.667h7.244v8.905c0 1.662-.043 2.94-.128 3.877h.085c.81-1.236 1.704-2.216 2.684-2.812.937-.597 2.173-.895 3.664-.895 2.684.085 4.687 1.236 5.965 3.537 1.236 2.216 1.832 4.687 1.832 7.372 0 3.409-.639 6.178-1.875 8.309-1.321 2.216-3.451 3.409-6.306 3.451-1.15 0-2.173-.298-3.111-.852s-1.832-1.577-2.599-3.025h-.085c-.043 1.15-.085 2.344-.213 3.494H191.7c.085-1.278.17-2.557.17-3.878V.624h-.128zm13.422 20.325c0-1.875-.213-3.366-.639-4.517-.469-1.065-1.321-1.619-2.471-1.619-.937.043-1.704.554-2.216 1.619-.554 1.15-.852 2.599-.852 4.517 0 1.832.298 3.324.852 4.474.511 1.15 1.278 1.747 2.216 1.747 1.15 0 2.003-.554 2.471-1.747.426-1.15.639-2.599.639-4.474z"/>
</svg>
