<?xml version="1.0" encoding="utf-8"?>
<!-- Generated by IcoMoon.io -->
<!DOCTYPE svg PUBLIC "-//W3C//DTD SVG 1.1//EN" "http://www.w3.org/Graphics/SVG/1.1/DTD/svg11.dtd">
<svg version="1.1" xmlns="http://www.w3.org/2000/svg" xmlns:xlink="http://www.w3.org/1999/xlink" width="213" height="32" viewBox="0 0 213 32">
<path d="M16.192 11.447c-0.298 0-0.639-0.043-0.937-0.085-1.364-0.256-2.599-1.023-3.409-2.216-0.81-1.15-1.15-2.557-0.895-3.963 0.469-2.557 2.642-4.346 5.198-4.346 0.298 0 0.639 0.043 0.937 0.085 2.855 0.511 4.815 3.238 4.304 6.136-0.384 2.557-2.599 4.389-5.198 4.389zM16.192 1.732c-2.173 0-3.963 1.534-4.346 3.664-0.213 1.15 0.085 2.344 0.724 3.281 0.682 0.937 1.704 1.619 2.855 1.79 0.256 0.043 0.511 0.085 0.767 0.085 2.173 0 3.963-1.534 4.346-3.664 0.426-2.386-1.193-4.73-3.579-5.113-0.213-0.043-0.511-0.043-0.767-0.043zM14.232 22.909c-0.298 0-0.639-0.043-0.937-0.085-1.364-0.256-2.599-1.023-3.451-2.216s-1.15-2.557-0.895-3.963c0.469-2.557 2.599-4.389 5.198-4.389 0.298 0 0.639 0.043 0.937 0.085 1.363 0.256 2.599 1.023 3.409 2.216 0.81 1.15 1.15 2.557 0.895 3.963-0.426 2.557-2.599 4.389-5.156 4.389zM14.189 13.194c-2.173 0-3.963 1.534-4.346 3.664-0.17 1.193 0.085 2.386 0.724 3.324 0.682 0.937 1.704 1.619 2.855 1.79 0.256 0.043 0.511 0.085 0.767 0.085 2.173 0 3.963-1.534 4.346-3.664 0.213-1.15-0.085-2.344-0.724-3.281-0.682-0.937-1.704-1.619-2.855-1.79-0.256-0.085-0.469-0.128-0.767-0.128zM5.284 15.452c-0.298 0-0.639-0.043-0.937-0.085-1.364-0.256-2.599-1.023-3.409-2.216s-1.15-2.557-0.895-3.963c0.426-2.514 2.599-4.346 5.156-4.346 0.298 0 0.639 0.043 0.937 0.085 2.855 0.511 4.815 3.238 4.304 6.136-0.426 2.557-2.642 4.389-5.156 4.389zM5.241 5.695c-2.173 0-3.963 1.534-4.346 3.664-0.213 1.15 0.085 2.344 0.724 3.281 0.682 0.937 1.704 1.619 2.855 1.79 0.256 0.043 0.511 0.085 0.767 0.085 2.173 0 3.963-1.534 4.346-3.664 0.426-2.386-1.15-4.73-3.579-5.113-0.256 0-0.511-0.043-0.767-0.043zM37.923 13.577c-1.449-0.724-2.94-1.065-4.431-1.108-2.471 0.043-4.389 0.852-5.71 2.471-1.363 1.662-2.088 3.835-2.088 6.477 0 2.471 0.682 4.559 2.045 6.264 1.321 1.79 3.153 2.642 5.497 2.684 1.577 0 3.153-0.298 4.687-0.937l0.256 2.471c-1.662 0.511-3.451 0.767-5.326 0.724-3.324-0.085-5.795-1.193-7.414-3.409-1.662-2.173-2.471-4.772-2.471-7.84 0.043-3.409 0.937-6.093 2.812-8.096 1.79-2.003 4.304-3.068 7.371-3.111 1.278 0 2.344 0.085 3.196 0.298 0.426 0.085 0.81 0.17 1.15 0.256 0.298 0.085 0.511 0.213 0.724 0.298l-0.298 2.557zM41.459 21.418c0-3.025 0.767-5.667 2.386-7.84 1.577-2.216 4.005-3.366 7.286-3.409 3.366 0.085 5.838 1.193 7.414 3.409 1.534 2.173 2.258 4.772 2.258 7.84 0 3.025-0.767 5.582-2.258 7.798-1.577 2.216-4.048 3.366-7.414 3.451-3.281-0.085-5.752-1.193-7.286-3.451-1.619-2.173-2.386-4.772-2.386-7.798zM44.229 21.418c0 2.557 0.597 4.644 1.79 6.306 1.15 1.747 2.812 2.599 5.113 2.642 2.258-0.043 4.005-0.937 5.156-2.642 1.15-1.662 1.704-3.75 1.704-6.306s-0.554-4.73-1.704-6.391c-1.193-1.704-2.94-2.557-5.156-2.599-2.258 0.043-3.963 0.895-5.113 2.599-1.15 1.747-1.79 3.878-1.79 6.391zM66.386 15.751c0-1.619-0.043-3.324-0.128-5.028h2.471v3.835h0.085c0.256-0.511 0.511-1.023 0.852-1.534 0.298-0.511 0.724-0.937 1.193-1.364 0.511-0.469 1.15-0.81 1.917-1.065s1.662-0.341 2.727-0.341c2.557 0.043 4.389 0.81 5.497 2.386 1.065 1.491 1.577 3.451 1.577 5.88v13.72h-2.557v-13.081c0-2.045-0.341-3.664-1.108-4.858-0.767-1.15-2.045-1.747-3.835-1.79-2.258 0.085-3.877 0.895-4.772 2.514-0.469 0.767-0.81 1.577-1.023 2.471-0.213 0.937-0.298 1.875-0.298 2.812v11.846h-2.557l-0.043-16.405zM98.642 13.024h-4.73v13.891c0 0.98 0.213 1.79 0.682 2.471 0.383 0.724 1.108 1.065 2.088 1.065 0.937 0 1.704-0.17 2.386-0.511l0.128 2.216c-0.298 0.085-0.724 0.256-1.278 0.341-0.554 0.128-1.193 0.213-1.875 0.213-1.108 0-2.003-0.213-2.599-0.597-0.639-0.384-1.108-0.937-1.406-1.577-0.298-0.682-0.469-1.406-0.511-2.258-0.085-0.852-0.085-1.79-0.085-2.77v-12.485h-4.133v-2.301h4.091v-5.113l2.557-0.937v6.093h4.73l-0.043 2.258zM115.515 28.704h-0.085c-0.597 1.236-1.534 2.216-2.727 2.855-1.193 0.682-2.514 1.023-3.877 1.065-1.449-0.043-2.599-0.256-3.494-0.724-0.937-0.426-1.619-0.937-2.13-1.577-0.852-1.363-1.278-2.599-1.193-3.707 0-1.79 0.426-3.196 1.236-4.261 0.81-1.023 1.875-1.79 3.111-2.216 1.278-0.469 2.642-0.767 4.133-0.937 1.449-0.085 2.855-0.085 4.218-0.085h0.511v-1.108c0.085-3.707-1.491-5.539-4.73-5.539-2.173-0.043-4.176 0.554-6.093 1.79v-2.599c1.917-0.937 3.92-1.406 6.093-1.449 4.9-0.085 7.329 2.599 7.244 7.968v9.459c-0.043 1.619 0.043 3.111 0.213 4.517h-2.514l0.085-3.451zM115.26 21.375h-0.724c-1.108 0-2.216 0.043-3.324 0.085-1.15 0.085-2.216 0.341-3.196 0.724-0.937 0.298-1.704 0.852-2.258 1.534-0.639 0.724-0.937 1.662-0.937 2.812 0 1.363 0.426 2.344 1.321 2.94 0.81 0.597 1.79 0.937 3.025 0.937 1.491 0 2.642-0.298 3.537-0.937 0.852-0.597 1.449-1.278 1.832-2.088 0.383-0.895 0.639-1.747 0.682-2.557 0.085-0.895 0.085-1.577 0.085-2.173l-0.043-1.278zM138.056 13.577c-1.449-0.724-2.94-1.065-4.431-1.108-2.471 0.043-4.389 0.852-5.71 2.471-1.364 1.662-2.088 3.835-2.088 6.477 0 2.471 0.682 4.559 2.045 6.264 1.321 1.79 3.153 2.642 5.497 2.684 1.577 0 3.153-0.298 4.687-0.937l0.256 2.471c-1.662 0.511-3.451 0.767-5.326 0.724-3.324-0.085-5.795-1.193-7.414-3.409-1.662-2.173-2.471-4.772-2.471-7.84 0.043-3.409 0.937-6.093 2.812-8.096 1.832-2.045 4.304-3.068 7.414-3.111 1.278 0 2.344 0.085 3.196 0.298 0.426 0.085 0.81 0.17 1.15 0.256 0.298 0.085 0.511 0.213 0.724 0.298l-0.341 2.557zM152.117 13.024h-4.73v13.891c0 0.98 0.213 1.79 0.682 2.471 0.383 0.724 1.108 1.065 2.088 1.065 0.937 0 1.704-0.17 2.386-0.511l0.17 2.216c-0.298 0.085-0.724 0.256-1.278 0.341-0.554 0.128-1.193 0.213-1.875 0.213-1.108 0-2.003-0.213-2.599-0.597-0.639-0.384-1.108-0.937-1.406-1.577-0.298-0.682-0.469-1.406-0.511-2.258-0.085-0.852-0.085-1.79-0.085-2.77v-12.485h-4.091v-2.301h4.091v-5.113l2.557-0.937v6.093h4.73l-0.128 2.258zM156.336 0.667h7.244v31.446h-7.244v-31.446zM187.27 27.34c0 1.832 0.085 3.451 0.256 4.772h-6.477c-0.128-0.98-0.213-2.003-0.256-2.983-2.003 2.344-4.304 3.494-6.818 3.494-1.875-0.043-3.409-0.682-4.559-1.96-1.15-1.236-1.79-2.897-1.79-5.028-0.043-4.943 3.664-7.457 11.206-7.457h1.96v-0.639c0-0.724-0.298-1.449-0.895-2.045-0.341-0.298-0.767-0.554-1.278-0.724-0.554-0.128-1.236-0.213-2.003-0.213-1.193 0.043-2.344 0.256-3.451 0.639-1.15 0.426-2.088 0.895-2.897 1.406l-0.298-5.369c0.937-0.341 2.045-0.724 3.409-0.98s2.897-0.426 4.73-0.426c1.917 0 3.451 0.213 4.687 0.597 1.193 0.426 2.088 0.98 2.727 1.79 0.682 0.724 1.108 1.577 1.363 2.557 0.213 0.98 0.298 2.045 0.298 3.196v9.374h0.085zM180.836 21.588h-0.937c-1.79 0-3.153 0.298-4.176 0.81-1.065 0.597-1.619 1.534-1.619 2.812 0.043 1.832 0.937 2.727 2.684 2.684 0.937 0 1.662-0.213 2.216-0.639 0.511-0.341 0.895-0.81 1.15-1.406 0.426-1.236 0.639-2.386 0.597-3.537l0.085-0.724zM191.744 0.667h7.244v8.905c0 1.662-0.043 2.94-0.128 3.877h0.085c0.81-1.236 1.704-2.216 2.684-2.812 0.937-0.597 2.173-0.895 3.664-0.895 2.684 0.085 4.687 1.236 5.965 3.537 1.236 2.216 1.832 4.687 1.832 7.372 0 3.409-0.639 6.178-1.875 8.309-1.321 2.216-3.451 3.409-6.306 3.451-1.15 0-2.173-0.298-3.111-0.852s-1.832-1.577-2.599-3.025h-0.085c-0.043 1.15-0.085 2.344-0.213 3.494h-7.201c0.085-1.278 0.17-2.557 0.17-3.878v-27.526h-0.128zM205.166 20.992c0-1.875-0.213-3.366-0.639-4.517-0.469-1.065-1.321-1.619-2.471-1.619-0.937 0.043-1.704 0.554-2.216 1.619-0.554 1.15-0.852 2.599-0.852 4.517 0 1.832 0.298 3.324 0.852 4.474 0.511 1.15 1.278 1.747 2.216 1.747 1.15 0 2.003-0.554 2.471-1.747 0.426-1.15 0.639-2.599 0.639-4.474z"></path>
</svg>
