<?xml version="1.0" encoding="utf-8"?>
<!-- Generator: Adobe Illustrator 21.0.2, SVG Export Plug-In . SVG Version: 6.00 Build 0)  -->
<svg version="1.1" id="Layer_1" xmlns="http://www.w3.org/2000/svg" xmlns:xlink="http://www.w3.org/1999/xlink" x="0px" y="0px"
	 viewBox="0 0 24 24" style="enable-background:new 0 0 24 24;" xml:space="preserve">
<g transform="translate(0, 0)">
	<g>
		<path d="M22,23H8c-0.6,0-1-0.4-1-1v-6c0-0.6,0.4-1,1-1s1,0.4,1,1v5h12V9h-5c-0.6,0-1-0.4-1-1s0.4-1,1-1h6c0.6,0,1,0.4,1,1v14
			C23,22.6,22.6,23,22,23z"/>
	</g>
	<g>
		<path d="M16,17H2c-0.6,0-1-0.4-1-1V2c0-0.6,0.4-1,1-1h14c0.6,0,1,0.4,1,1v14C17,16.6,16.6,17,16,17z M3,15h12V3H3V15z"/>
	</g>
</g>
</svg>
