<?xml version="1.0" encoding="utf-8"?>
<!-- Generator: Adobe Illustrator 21.0.2, SVG Export Plug-In . SVG Version: 6.00 Build 0)  -->
<svg version="1.1" id="Layer_1" xmlns="http://www.w3.org/2000/svg" xmlns:xlink="http://www.w3.org/1999/xlink" x="0px" y="0px"
	 viewBox="0 0 24 24" style="enable-background:new 0 0 24 24;" xml:space="preserve">
<g transform="translate(0, 0)">
	<g>
		<path d="M12,24C5.4,24,0,18.6,0,12S5.4,0,12,0s12,5.4,12,12S18.6,24,12,24z M12,2C6.5,2,2,6.5,2,12s4.5,10,10,10s10-4.5,10-10
			S17.5,2,12,2z"/>
	</g>
	<g>
		<path d="M10.6,11.6c-0.3,0-0.5-0.1-0.7-0.3L6.3,7.7c-0.4-0.4-0.4-1,0-1.4s1-0.4,1.4,0l3.6,3.6c0.4,0.4,0.4,1,0,1.4
			C11.1,11.5,10.8,11.6,10.6,11.6z"/>
	</g>
	<g>
		<path d="M12,15c-1.7,0-3-1.3-3-3s1.3-3,3-3s3,1.3,3,3S13.7,15,12,15z M12,11c-0.6,0-1,0.4-1,1s0.4,1,1,1s1-0.4,1-1S12.6,11,12,11z
			"/>
	</g>
	<g>
		<path d="M12,7c-0.6,0-1-0.4-1-1V5c0-0.6,0.4-1,1-1s1,0.4,1,1v1C13,6.6,12.6,7,12,7z"/>
	</g>
	<g>
		<path d="M16.2,8.8c-0.3,0-0.5-0.1-0.7-0.3c-0.4-0.4-0.4-1,0-1.4l0.7-0.7c0.4-0.4,1-0.4,1.4,0s0.4,1,0,1.4L17,8.5
			C16.8,8.7,16.5,8.8,16.2,8.8z"/>
	</g>
	<g>
		<path d="M19,13h-1c-0.6,0-1-0.4-1-1s0.4-1,1-1h1c0.6,0,1,0.4,1,1S19.6,13,19,13z"/>
	</g>
	<g>
		<path d="M6,13H5c-0.6,0-1-0.4-1-1s0.4-1,1-1h1c0.6,0,1,0.4,1,1S6.6,13,6,13z"/>
	</g>
</g>
</svg>
