<svg xmlns="http://www.w3.org/2000/svg" width="32" height="32" viewBox="0 0 32 32">
    <path d="M15.933 10.4c-.467 0-.8.333-.8.8s.333.8.8.8.8-.333.8-.8c0-.4-.4-.8-.8-.8zm-5.866 1.4c-.2.067-.333.267-.4.467s-.067.4.067.6c.133.267.4.467.733.467.133 0 .267 0 .333-.067.2-.067.333-.267.4-.467s.067-.4-.067-.6c-.2-.467-.667-.6-1.067-.4zM3.8 20.4c-.4-.067-.867.2-.933.6-.067.467.2.867.6.933H3.6c.4 0 .733-.267.8-.667.067-.2 0-.4-.133-.6a.563.563 0 0 0-.467-.267zm1.6-4.867c-.267.333-.2.867.133 1.133.133.133.333.2.533.2.267 0 .467-.133.667-.333.267-.333.2-.867-.133-1.133-.4-.267-.933-.2-1.2.133zm19.933-.133c-.333.267-.4.8-.133 1.133.133.2.4.333.667.333.2 0 .333-.067.533-.2.333-.267.4-.8.133-1.133-.333-.333-.867-.4-1.2-.133zM21.8 11.8c-.4-.2-.867 0-1.067.4-.067.2-.133.4-.067.6s.2.4.4.467c.133.067.267.067.333.067.333 0 .6-.2.733-.467.2-.4.067-.867-.333-1.067zM28.2 22h.2a.727.727 0 0 0 .6-.933c-.067-.4-.533-.733-.933-.6-.2.067-.4.2-.533.333-.133.2-.133.4-.133.6.067.333.4.6.8.6zM15.933 7.867C7.133 7.867 0 15 0 23.8c0 .267.267.533.533.533h30.8c.267 0 .533-.267.533-.533 0-8.8-7.133-15.933-15.933-15.933zm-2.133 15.4c.267-.933 1.067-1.667 2.133-1.667s1.867.667 2.133 1.667h-4.267zm5.2-.4c-.133-.6-.4-1.067-.733-1.533l4.267-5.133c.2-.2.133-.6-.067-.667-.2-.2-.6-.133-.733.067l-4.2 5.067c-.467-.267-.933-.467-1.533-.467-1.533 0-2.8 1.133-3.067 2.6h-11.2c.267-7.467 6.533-13.533 14.2-13.533s13.867 6.067 14.133 13.6H19z"/>
</svg>
