<!-- Generated by IcoMoon.io -->
<svg version="1.1" xmlns="http://www.w3.org/2000/svg" width="24" height="24" viewBox="0 0 24 24">
<path d="M12 0c-6.6 0-12 5.4-12 12s5.4 12 12 12 12-5.4 12-12-5.4-12-12-12zM12 22c-5.5 0-10-4.5-10-10s4.5-10 10-10 10 4.5 10 10-4.5 10-10 10z"></path>
<path d="M12 9c-0.5 0-0.9 0.1-1.3 0.3l-3-3c-0.4-0.4-1-0.4-1.4 0s-0.4 1 0 1.4l3 3c-0.2 0.4-0.3 0.8-0.3 1.3 0 1.7 1.3 3 3 3s3-1.3 3-3-1.3-3-3-3zM12 13c-0.6 0-1-0.4-1-1 0-0.3 0.1-0.5 0.2-0.7 0 0 0 0 0.1 0 0 0 0 0 0-0.1 0.2-0.1 0.4-0.2 0.7-0.2 0.6 0 1 0.4 1 1s-0.4 1-1 1z"></path>
<path d="M12 7c0.6 0 1-0.4 1-1v-1c0-0.6-0.4-1-1-1s-1 0.4-1 1v1c0 0.6 0.4 1 1 1z"></path>
<path d="M17.6 7.8c0.4-0.4 0.4-1 0-1.4s-1-0.4-1.4 0l-0.7 0.7c-0.4 0.4-0.4 1 0 1.4 0.2 0.2 0.4 0.3 0.7 0.3s0.6-0.1 0.8-0.3l0.6-0.7z"></path>
<path d="M19 11h-1c-0.6 0-1 0.4-1 1s0.4 1 1 1h1c0.6 0 1-0.4 1-1s-0.4-1-1-1z"></path>
<path d="M6 11h-1c-0.6 0-1 0.4-1 1s0.4 1 1 1h1c0.6 0 1-0.4 1-1s-0.4-1-1-1z"></path>
</svg>
