<?xml version="1.0" encoding="utf-8"?>
<!-- Generator: Adobe Illustrator 21.0.2, SVG Export Plug-In . SVG Version: 6.00 Build 0)  -->
<svg version="1.1" id="Layer_1" xmlns="http://www.w3.org/2000/svg" xmlns:xlink="http://www.w3.org/1999/xlink" x="0px" y="0px"
	 viewBox="0 0 24 24" style="enable-background:new 0 0 24 24;" xml:space="preserve">
<g transform="translate(0, 0)">
	<g>
		<path d="M12,24c-0.6,0-1-0.4-1-1v-4c0-0.6,0.4-1,1-1s1,0.4,1,1v4C13,23.6,12.6,24,12,24z"/>
	</g>
	<g>
		<path d="M18,24H6c-0.6,0-1-0.4-1-1s0.4-1,1-1h12c0.6,0,1,0.4,1,1S18.6,24,18,24z"/>
	</g>
	<g>
		<circle cx="12" cy="5" r="1"/>
	</g>
	<g>
		<path d="M21,20H3c-1.7,0-3-1.3-3-3V3c0-1.7,1.3-3,3-3h18c1.7,0,3,1.3,3,3v14C24,18.7,22.7,20,21,20z M3,2C2.4,2,2,2.4,2,3v14
			c0,0.6,0.4,1,1,1h18c0.6,0,1-0.4,1-1V3c0-0.6-0.4-1-1-1H3z"/>
	</g>
	<g>
		<path d="M23,16H1c-0.6,0-1-0.4-1-1s0.4-1,1-1h22c0.6,0,1,0.4,1,1S23.6,16,23,16z"/>
	</g>
</g>
</svg>
