<svg xmlns="http://www.w3.org/2000/svg" width="40" height="32" viewBox="0 0 40 32">
    <path d="M17.04 27.345l-.581 5.322h6.865l-.581-5.322zM0 26.651c0 .581.492 1.073 1.073 1.073h37.658c.581 0 1.073-.492 1.073-1.073v-2.147H0v2.147zm19.902-1.319c.38 0 .693.313.693.693s-.313.693-.693.693c-.38 0-.693-.313-.693-.693s.291-.693.693-.693zM39.782 1.74c0-.581-.492-1.073-1.073-1.073H1.074C.47.667.001 1.159.001 1.74v22.138h39.804V1.74zm-1.61 20.707H1.61V2.366h36.562v20.081zm1.61 2.058v-.626H0v.626zM38.709.667H1.074C.47.667.001 1.159.001 1.74v20.528c0 .581.492 1.073 1.073 1.073h37.658c.581 0 1.073-.492 1.073-1.073V1.74A1.108 1.108 0 0 0 38.709.667zm-.537 21.78H1.61V2.366h36.562v20.081zM0 22.805h39.804v1.073H0v-1.073zm0 1.073h39.804v.335H0v-.335z"/>
</svg>
