<!-- Generated by IcoMoon.io -->
<svg version="1.1" xmlns="http://www.w3.org/2000/svg" width="24" height="24" viewBox="0 0 24 24">
<title>desktop</title>
<path d="M13 5c0 0.552-0.448 1-1 1s-1-0.448-1-1c0-0.552 0.448-1 1-1s1 0.448 1 1z"></path>
<path d="M21 0h-18c-1.7 0-3 1.3-3 3v14c0 1.7 1.3 3 3 3h8v2h-5c-0.6 0-1 0.4-1 1s0.4 1 1 1h12c0.6 0 1-0.4 1-1s-0.4-1-1-1h-5v-2h8c1.7 0 3-1.3 3-3v-14c0-1.7-1.3-3-3-3zM3 2h18c0.6 0 1 0.4 1 1v11h-20v-11c0-0.6 0.4-1 1-1zM21 18h-18c-0.6 0-1-0.4-1-1v-1h20v1c0 0.6-0.4 1-1 1z"></path>
</svg>
