<?xml version="1.0" encoding="utf-8"?>
<!-- Generator: Adobe Illustrator 21.0.2, SVG Export Plug-In . SVG Version: 6.00 Build 0)  -->
<svg version="1.1" id="Layer_1" xmlns="http://www.w3.org/2000/svg" xmlns:xlink="http://www.w3.org/1999/xlink" x="0px" y="0px"
	 viewBox="0 0 24 24" style="enable-background:new 0 0 24 24;" xml:space="preserve">
<g transform="translate(0, 0)">
	<g>
		<path d="M14,18H2c-1.1,0-2-0.9-2-2V2c0-1.1,0.9-2,2-2h18c1.1,0,2,0.9,2,2v7c0,0.6-0.4,1-1,1s-1-0.4-1-1V2H2v14h12c0.6,0,1,0.4,1,1
			S14.6,18,14,18z"/>
	</g>
	<g>
		<path d="M15,14H7c-0.6,0-1-0.4-1-1V5c0-0.6,0.4-1,1-1h10c0.6,0,1,0.4,1,1v4c0,0.6-0.4,1-1,1s-1-0.4-1-1V6H8v6h7c0.6,0,1,0.4,1,1
			S15.6,14,15,14z"/>
	</g>
	<g>
		<circle cx="4" cy="9" r="1"/>
	</g>
	<g>
		<path d="M22,24h-6c-1.1,0-2-0.9-2-2V10c0-1.1,0.9-2,2-2h6c1.1,0,2,0.9,2,2v12C24,23.1,23.1,24,22,24z M22,22v1V22L22,22z M16,10
			v12h6V10H16z"/>
	</g>
	<g>
		<path d="M23,20h-8c-0.6,0-1-0.4-1-1s0.4-1,1-1h8c0.6,0,1,0.4,1,1S23.6,20,23,20z"/>
	</g>
</g>
</svg>
