<svg xmlns="http://www.w3.org/2000/svg" width="32" height="32" viewBox="0 0 32 32">
    <path d="M3.799 25.792V3.413h18.766V14.21h2.457V1.575a.925.925 0 0 0-.929-.929H2.271c-.516.021-.929.434-.929.929v27.726c0 .516.413.929.929.929h18.395v-4.439H3.799zM11.458 1.72h3.427c.103 0 .206.083.206.206s-.083.206-.206.206h-3.427a.207.207 0 0 1-.206-.206c.021-.103.103-.206.206-.206zm1.714 27.685c-.681 0-1.218-.557-1.218-1.218s.557-1.218 1.218-1.218c.681 0 1.218.557 1.218 1.218s-.537 1.218-1.218 1.218zm16.722-15.608h-8.692a.784.784 0 0 0-.785.785V31.8c0 .434.351.785.785.785h8.692a.784.784 0 0 0 .785-.785V14.582a.784.784 0 0 0-.785-.785zm-5.429.619h2.271c.083 0 .124.062.124.124 0 .083-.062.124-.124.124h-2.271c-.083 0-.124-.062-.124-.124-.021-.062.041-.124.124-.124zM25.6 31.944c-.31 0-.557-.248-.557-.557s.248-.557.557-.557c.31 0 .557.248.557.557s-.248.557-.557.557zm3.84-1.631h-7.701V15.242h7.701v15.071z"/>
</svg>
