<?xml version="1.0" encoding="utf-8"?>
<!-- Generated by IcoMoon.io -->
<!DOCTYPE svg PUBLIC "-//W3C//DTD SVG 1.1//EN" "http://www.w3.org/Graphics/SVG/1.1/DTD/svg11.dtd">
<svg version="1.1" xmlns="http://www.w3.org/2000/svg" xmlns:xlink="http://www.w3.org/1999/xlink" width="32" height="32" viewBox="0 0 32 32">
<path d="M3.799 25.792v-22.379h18.766v10.797h2.457v-12.635c0-0.516-0.413-0.929-0.929-0.929h-21.822c-0.516 0.021-0.929 0.434-0.929 0.929v27.726c0 0.516 0.413 0.929 0.929 0.929h18.395v-4.439h-16.867zM11.458 1.72h3.427c0.103 0 0.206 0.083 0.206 0.206s-0.083 0.206-0.206 0.206h-3.427c-0.103 0-0.206-0.083-0.206-0.206 0.021-0.103 0.103-0.206 0.206-0.206zM13.172 29.405c-0.681 0-1.218-0.557-1.218-1.218s0.557-1.218 1.218-1.218c0.681 0 1.218 0.557 1.218 1.218s-0.537 1.218-1.218 1.218zM29.894 13.797h-8.692c-0.434 0-0.785 0.351-0.785 0.785v17.218c0 0.434 0.351 0.785 0.785 0.785h8.692c0.434 0 0.785-0.351 0.785-0.785v-17.218c0-0.434-0.351-0.785-0.785-0.785zM24.465 14.416h2.271c0.083 0 0.124 0.062 0.124 0.124 0 0.083-0.062 0.124-0.124 0.124h-2.271c-0.083 0-0.124-0.062-0.124-0.124-0.021-0.062 0.041-0.124 0.124-0.124zM25.6 31.944c-0.31 0-0.557-0.248-0.557-0.557s0.248-0.557 0.557-0.557c0.31 0 0.557 0.248 0.557 0.557s-0.248 0.557-0.557 0.557zM29.44 30.313h-7.701v-15.071h7.701v15.071z"></path>
</svg>
