<svg xmlns="http://www.w3.org/2000/svg" width="43" height="32" viewBox="0 0 43 32">
    <path d="M13.024 8.552l-6.461 6.614 14.957 17.45 14.957-17.45-6.41-6.614H13.024zm16.229.865l-1.73 5.647-4.986-5.647h6.715zm-2.035 6.665c-1.679.153-3.561.254-5.647.254s-3.968-.102-5.647-.203v-.051l5.647-6.41 5.647 6.41zm-6.665-6.665l-4.986 5.647-1.73-5.647h6.715zm-7.529.458l1.882 6.156c-3.459-.305-5.749-.814-6.868-1.068l4.986-5.087zM8.445 15.98c1.323.305 3.612.712 6.817.967l4.935 12.719L8.445 15.981zm7.835 1.068c1.577.102 3.307.153 5.291.153 1.933 0 3.714-.051 5.291-.153l-5.291 13.634-5.291-13.634zm6.664 12.617l4.884-12.668c3.205-.254 5.444-.661 6.817-.967L22.944 29.664zm12.108-14.703c-1.119.254-3.409.763-6.868 1.068l1.882-6.156 4.986 5.087zm8.039-1.424a.407.407 0 0 0-.56-.305l-2.9.763a.407.407 0 0 0-.305.56.488.488 0 0 0 .458.356h.102l2.9-.763c.203-.153.356-.356.305-.611zm-10.48-7.173c.051.051.153.051.203.051.153 0 .305-.102.407-.254l1.323-2.544c.102-.204.051-.509-.203-.611-.203-.102-.509-.051-.611.204l-1.323 2.544a.49.49 0 0 0 .203.611zM3.459 13.996l-2.9-.763c-.254-.051-.509.102-.56.305-.051.254.102.509.305.56l2.9.763h.102a.489.489 0 0 0 .458-.356c.102-.204-.051-.458-.305-.509zM9.87 6.161c.102.153.254.254.407.254.051 0 .153 0 .204-.051.204-.102.305-.407.204-.611L9.362 3.209c-.102-.204-.407-.305-.611-.204s-.305.407-.204.611L9.87 6.16zM21.571 4.38a.457.457 0 0 0 .458-.458V1.124c0-.254-.203-.458-.458-.458s-.458.204-.458.458v2.798c0 .254.203.458.458.458z"/>
</svg>
