<?xml version="1.0" encoding="utf-8"?>
<!-- Generated by IcoMoon.io -->
<!DOCTYPE svg PUBLIC "-//W3C//DTD SVG 1.1//EN" "http://www.w3.org/Graphics/SVG/1.1/DTD/svg11.dtd">
<svg version="1.1" xmlns="http://www.w3.org/2000/svg" xmlns:xlink="http://www.w3.org/1999/xlink" width="43" height="32" viewBox="0 0 43 32">
<path d="M13.024 8.552l-6.461 6.614 14.957 17.45 14.957-17.45-6.41-6.614h-17.043zM29.253 9.417l-1.73 5.647-4.986-5.647h6.715zM27.218 16.082v0c-1.679 0.153-3.561 0.254-5.647 0.254s-3.968-0.102-5.647-0.203v-0.051l5.647-6.41 5.647 6.41zM20.553 9.417l-4.986 5.647-1.73-5.647h6.715zM13.024 9.875l1.882 6.156c-3.459-0.305-5.749-0.814-6.868-1.068l4.986-5.087zM8.445 15.98c1.323 0.305 3.612 0.712 6.817 0.967l4.935 12.719-11.752-13.685zM16.28 17.048c1.577 0.102 3.307 0.153 5.291 0.153 1.933 0 3.714-0.051 5.291-0.153l-5.291 13.634-5.291-13.634zM22.944 29.665l4.884-12.668c3.205-0.254 5.444-0.661 6.817-0.967l-11.701 13.634zM35.052 14.962c-1.119 0.254-3.409 0.763-6.868 1.068l1.882-6.156 4.986 5.087zM43.091 13.538c-0.051-0.254-0.305-0.407-0.56-0.305l-2.9 0.763c-0.254 0.051-0.407 0.305-0.305 0.56 0.051 0.204 0.254 0.356 0.458 0.356 0.051 0 0.102 0 0.102 0l2.9-0.763c0.203-0.153 0.356-0.356 0.305-0.611zM32.611 6.365c0.051 0.051 0.153 0.051 0.203 0.051 0.153 0 0.305-0.102 0.407-0.254l1.323-2.544c0.102-0.204 0.051-0.509-0.203-0.611-0.203-0.102-0.509-0.051-0.611 0.204l-1.323 2.544c-0.102 0.204 0 0.509 0.203 0.611zM3.459 13.996l-2.9-0.763c-0.254-0.051-0.509 0.102-0.56 0.305-0.051 0.254 0.102 0.509 0.305 0.56l2.9 0.763c0.051 0 0.102 0 0.102 0 0.204 0 0.407-0.153 0.458-0.356 0.102-0.204-0.051-0.458-0.305-0.509zM9.87 6.161c0.102 0.153 0.254 0.254 0.407 0.254 0.051 0 0.153 0 0.204-0.051 0.204-0.102 0.305-0.407 0.204-0.611l-1.323-2.544c-0.102-0.204-0.407-0.305-0.611-0.204s-0.305 0.407-0.204 0.611l1.323 2.544zM21.571 4.38c0.254 0 0.458-0.204 0.458-0.458v-2.798c0-0.254-0.203-0.458-0.458-0.458s-0.458 0.204-0.458 0.458v2.798c0 0.254 0.203 0.458 0.458 0.458z"></path>
</svg>
