<!-- Generated by IcoMoon.io -->
<svg version="1.1" xmlns="http://www.w3.org/2000/svg" width="24" height="24" viewBox="0 0 24 24">
<title>diamond</title>
<path d="M23 8c0-0.3-0.1-0.6-0.3-0.7l-3.7-5.6c0-0.3-0.3-0.6-0.6-0.7-0.2-0.1-0.5-0.1-0.7 0h-5.4c-0.2-0.1-0.4-0.1-0.6 0h-5.7c-0.3 0-0.6 0.2-0.8 0.4l-3.9 5.9c-0.1 0.1-0.2 0.2-0.2 0.4-0.1 0.2-0.1 0.5 0 0.7 0.1 0.1 0.1 0.3 0.2 0.3l9.8 12.7c0.1 0.2 0.3 0.4 0.6 0.5 0.1 0 0.2 0 0.3 0s0.1 0 0.2 0c0.2 0 0.4-0.1 0.5-0.2s0.2-0.2 0.3-0.4l9.7-12.6c0.2-0.1 0.3-0.4 0.3-0.7zM5.7 4.2l1 2.8h-2.8l1.8-2.8zM14.7 9l-2.7 8.5-2.7-8.5h5.4zM9.9 7l2.1-3.1 2 3.1h-4.1zM13.8 3h2.8l-0.9 2.8-1.9-2.8zM8.3 5.7l-0.9-2.7h2.7l-1.8 2.7zM7.2 9l2.1 7-5.3-7h3.2zM16.8 9h3.2l-5.4 7 2.2-7zM17.4 7l0.9-2.7 1.8 2.7h-2.7z"></path>
</svg>
