<?xml version="1.0" encoding="utf-8"?>
<!-- Generator: Adobe Illustrator 21.0.2, SVG Export Plug-In . SVG Version: 6.00 Build 0)  -->
<svg version="1.1" id="Layer_1" xmlns="http://www.w3.org/2000/svg" xmlns:xlink="http://www.w3.org/1999/xlink" x="0px" y="0px"
	 viewBox="0 0 24 24" style="enable-background:new 0 0 24 24;" xml:space="preserve">
<g transform="translate(0, 0)">
	<g>
		<path d="M22,9H2C1.4,9,1,8.6,1,8s0.4-1,1-1h20c0.6,0,1,0.4,1,1S22.6,9,22,9z"/>
	</g>
	<g>
		<path d="M12,22c-0.1,0-0.2,0-0.3,0c-0.5-0.2-0.8-0.7-0.7-1.2l3.9-12.5l-3.7-5.6c-0.3-0.5-0.2-1.1,0.3-1.4s1.1-0.2,1.4,0.3l4,6
			C17,7.7,17,8,17,8.3l-4,13C12.8,21.7,12.4,22,12,22z"/>
	</g>
	<g>
		<path d="M12,22c-0.4,0-0.8-0.3-1-0.7l-4-13C7,8,7,7.7,7.2,7.4l4-6c0.3-0.5,0.9-0.6,1.4-0.3s0.6,0.9,0.3,1.4L9.1,8.2L13,20.7
			c0.2,0.5-0.1,1.1-0.7,1.2C12.2,22,12.1,22,12,22z"/>
	</g>
	<g>
		<path d="M8,9C7.6,9,7.2,8.7,7.1,8.3l-2-6C4.9,1.8,5.2,1.2,5.7,1.1C6.2,0.9,6.8,1.2,7,1.7l2,6C9.2,8.2,8.9,8.8,8.4,9
			C8.2,9,8.1,9,8,9z"/>
	</g>
	<g>
		<path d="M16,9c-0.1,0-0.2,0-0.3-0.1c-0.5-0.2-0.8-0.7-0.6-1.3l2-6c0.2-0.5,0.7-0.8,1.3-0.6c0.5,0.2,0.8,0.7,0.6,1.3l-2,6
			C16.8,8.7,16.4,9,16,9z"/>
	</g>
	<g>
		<path d="M12,22c-0.3,0-0.6-0.1-0.8-0.4l-10-13c-0.3-0.3-0.3-0.8,0-1.2l4-6C5.4,1.2,5.7,1,6,1h12c0.3,0,0.6,0.2,0.8,0.4l4,6
			c0.2,0.4,0.2,0.8,0,1.2l-10,13C12.6,21.9,12.3,22,12,22z M3.2,8L12,19.4L20.8,8l-3.3-5h-11L3.2,8z"/>
	</g>
</g>
</svg>
