<svg xmlns="http://www.w3.org/2000/svg" width="32" height="32" viewBox="0 0 32 32">
    <path d="M27 26.6H5.267l3.267-5.667V14c0-3.6 3.267-6.533 7.6-6.533 4.133 0 7.6 2.933 7.6 6.533v6.933l3.267 5.667zm-19.867-1h18.133l-2.733-4.467v-7.267c0-2.933-2.933-5.333-6.4-5.333-3.6 0-6.4 2.4-6.4 5.333v6.933l-2.6 4.8zM7.096 4.201l3.266 3.047-.591.634-3.266-3.047.591-.634zm18.001-.1l.591.634-3.266 3.048-.591-.634 3.266-3.048zm-22.725 6.85l4.341 1.051-.204.842-4.341-1.051.204-.842zm22.994 6.395l4.341 1.051-.204.842-4.341-1.051.204-.842zm-18.681-.078l.196.844-4.351 1.012-.196-.844 4.351-1.012zm22.91-6.188l.196.844-4.351 1.012-.196-.844 4.351-1.012zM16.133 29.533c-1.733 0-2.933-1.2-2.933-2.933h.867c0 1.2.867 2.067 2.067 2.067s2.067-.867 2.067-2.067h.867c.2 1.733-1.4 2.933-2.933 2.933zM18.067 7.8h-1.2V5.4c0-.333-.333-.533-.533-.533-.333 0-.533.333-.533.533v2.4h-1.2V5.4c0-.867.867-1.733 1.733-1.733s1.733.533 1.733 1.733v2.4z"/>
</svg>
