<?xml version="1.0" encoding="utf-8"?>
<!-- Generated by IcoMoon.io -->
<!DOCTYPE svg PUBLIC "-//W3C//DTD SVG 1.1//EN" "http://www.w3.org/Graphics/SVG/1.1/DTD/svg11.dtd">
<svg version="1.1" xmlns="http://www.w3.org/2000/svg" xmlns:xlink="http://www.w3.org/1999/xlink" width="32" height="32" viewBox="0 0 32 32">
<path d="M27 26.6h-21.733l3.267-5.667v-6.933c0-3.6 3.267-6.533 7.6-6.533 4.133 0 7.6 2.933 7.6 6.533v6.933l3.267 5.667zM7.133 25.6h18.133l-2.733-4.467v-7.267c0-2.933-2.933-5.333-6.4-5.333-3.6 0-6.4 2.4-6.4 5.333v0 0 6.933l-2.6 4.8zM7.096 4.201l3.266 3.047-0.591 0.634-3.266-3.047 0.591-0.634zM25.097 4.101l0.591 0.634-3.266 3.048-0.591-0.634 3.266-3.048zM2.372 10.951l4.341 1.051-0.204 0.842-4.341-1.051 0.204-0.842zM25.366 17.346l4.341 1.051-0.204 0.842-4.341-1.051 0.204-0.842zM6.685 17.268l0.196 0.844-4.351 1.012-0.196-0.844 4.351-1.012zM29.595 11.080l0.196 0.844-4.351 1.012-0.196-0.844 4.351-1.012zM16.133 29.533c-1.733 0-2.933-1.2-2.933-2.933h0.867c0 1.2 0.867 2.067 2.067 2.067s2.067-0.867 2.067-2.067h0.867c0.2 1.733-1.4 2.933-2.933 2.933zM18.067 7.8h-1.2v-2.4c0-0.333-0.333-0.533-0.533-0.533-0.333 0-0.533 0.333-0.533 0.533v2.4h-1.2v-2.4c0-0.867 0.867-1.733 1.733-1.733s1.733 0.533 1.733 1.733v2.4z"></path>
</svg>
