<svg xmlns="http://www.w3.org/2000/svg" width="32" height="32" viewBox="0 0 32 32">
    <path d="M18.4 1.267c-.4-.4-.933-.6-1.533-.6H7.8c-2.067 0-3.667 1.667-3.667 3.8v20.6c0 2.067 1.6 3.8 3.533 3.8h12.933c1.933 0 3.6-1.667 3.6-3.6V7.934c0-.533-.267-1.067-.667-1.533l-5.133-5.133zM22 6.8h-3.333c-.467 0-.933-.267-.933-.733V2.534l4.267 4.267zm-1.4 20.667H7.667c-1.2 0-2.2-1.067-2.2-2.4v-20.6C5.467 3.134 6.467 2 7.8 2h8.533v4.067c0 1.133 1.067 2.067 2.333 2.067h4.133v17.067c0 1.2-1.067 2.267-2.2 2.267zm3.8 3.733H11.467c-.733 0-1.4-.4-1.867-1.067-.2-.333-.6-.4-.933-.2s-.4.6-.2.933a3.518 3.518 0 0 0 3 1.667H24.4c1.933 0 3.533-1.667 3.533-3.6V11.6c0-.533-.267-1.133-.667-1.533l-.6-.467c-.267-.267-.667-.267-.933 0s-.267.667 0 .933l.533.533c.133.133.267.4.267.533v17.333c0 1.267-1 2.267-2.133 2.267zM7.2 14.467h14c.333 0 .667-.267.667-.667s-.267-.667-.667-.667h-14c-.333 0-.667.267-.667.667s.267.667.667.667zm0 3.6h14a.669.669 0 0 0 .667-.667.669.669 0 0 0-.667-.667h-14a.669.669 0 0 0-.667.667c0 .333.267.667.667.667zm0 3.333h14a.669.669 0 0 0 .667-.667.669.669 0 0 0-.667-.667h-14a.669.669 0 0 0-.667.667c0 .333.267.667.667.667z"/>
</svg>
