<?xml version="1.0" encoding="utf-8"?>
<!-- Generator: Adobe Illustrator 21.0.2, SVG Export Plug-In . SVG Version: 6.00 Build 0)  -->
<svg version="1.1" id="Layer_1" xmlns="http://www.w3.org/2000/svg" xmlns:xlink="http://www.w3.org/1999/xlink" x="0px" y="0px"
	 viewBox="0 0 24 24" style="enable-background:new 0 0 24 24;" xml:space="preserve">
<g transform="translate(0, 0)">
	<g>
		<path d="M18,24H2c-0.6,0-1-0.4-1-1V5c0-0.6,0.4-1,1-1h16c0.6,0,1,0.4,1,1v18C19,23.6,18.6,24,18,24z M3,22h14V6H3V22z"/>
	</g>
	<g>
		<path d="M22,22c-0.6,0-1-0.4-1-1V2H5C4.4,2,4,1.6,4,1s0.4-1,1-1h17c0.6,0,1,0.4,1,1v20C23,21.6,22.6,22,22,22z"/>
	</g>
	<g>
		<path d="M14,11H6c-0.6,0-1-0.4-1-1s0.4-1,1-1h8c0.6,0,1,0.4,1,1S14.6,11,14,11z"/>
	</g>
	<g>
		<path d="M14,15H6c-0.6,0-1-0.4-1-1s0.4-1,1-1h8c0.6,0,1,0.4,1,1S14.6,15,14,15z"/>
	</g>
	<g>
		<path d="M10,19H6c-0.6,0-1-0.4-1-1s0.4-1,1-1h4c0.6,0,1,0.4,1,1S10.6,19,10,19z"/>
	</g>
</g>
</svg>
