<?xml version="1.0" encoding="utf-8"?>
<!-- Generator: Adobe Illustrator 21.0.2, SVG Export Plug-In . SVG Version: 6.00 Build 0)  -->
<svg version="1.1" id="Layer_1" xmlns="http://www.w3.org/2000/svg" xmlns:xlink="http://www.w3.org/1999/xlink" x="0px" y="0px"
	 viewBox="0 0 24 24" style="enable-background:new 0 0 24 24;" xml:space="preserve">
<g transform="translate(0, 0)">
	<g>
		<path d="M12,15c-1.7,0-3-1.3-3-3s1.3-3,3-3s3,1.3,3,3S13.7,15,12,15z M12,11c-0.6,0-1,0.4-1,1s0.4,1,1,1s1-0.4,1-1S12.6,11,12,11z
			"/>
	</g>
	<g>
		<path d="M3,15c-1.7,0-3-1.3-3-3s1.3-3,3-3s3,1.3,3,3S4.7,15,3,15z M3,11c-0.6,0-1,0.4-1,1s0.4,1,1,1s1-0.4,1-1S3.6,11,3,11z"/>
	</g>
	<g>
		<path d="M21,15c-1.7,0-3-1.3-3-3s1.3-3,3-3s3,1.3,3,3S22.7,15,21,15z M21,11c-0.6,0-1,0.4-1,1s0.4,1,1,1s1-0.4,1-1S21.6,11,21,11z
			"/>
	</g>
</g>
</svg>
