<svg xmlns="http://www.w3.org/2000/svg" width="37" height="32" viewBox="0 0 37 32">
    <path d="M21.6 1.139a1.66 1.66 0 0 0-2.396.073c-.672.672-.599 1.761.073 2.378L33.09 16.731 19.205 29.8c-.69.69-.69 1.706-.073 2.378.345.345.744.472 1.289.472.417 0 .817-.145 1.162-.417l15.174-14.357c.345-.345.472-.744.472-1.289s-.145-.962-.472-1.289L21.601 1.14zm-18.696 0a1.66 1.66 0 0 0-2.396.073c-.69.69-.617 1.779.073 2.378l13.813 13.141L.509 29.8c-.69.69-.69 1.706-.073 2.378.345.345.744.472 1.289.472.417 0 .817-.145 1.162-.417l15.174-14.357c.345-.345.472-.744.472-1.289s-.145-.962-.472-1.289L2.905 1.14z"/>
</svg>
