<?xml version="1.0" encoding="utf-8"?>
<!-- Generator: Adobe Illustrator 21.0.2, SVG Export Plug-In . SVG Version: 6.00 Build 0)  -->
<svg version="1.1" id="Layer_1" xmlns="http://www.w3.org/2000/svg" xmlns:xlink="http://www.w3.org/1999/xlink" x="0px" y="0px"
	 viewBox="0 0 24 24" style="enable-background:new 0 0 24 24;" xml:space="preserve">
<g transform="translate(0, 0)">
	<g>
		<path d="M4,23c-0.3,0-0.5-0.1-0.7-0.3c-0.4-0.4-0.4-1,0-1.4l9.3-9.3L3.3,2.7c-0.4-0.4-0.4-1,0-1.4s1-0.4,1.4,0l10,10
			c0.4,0.4,0.4,1,0,1.4l-10,10C4.5,22.9,4.3,23,4,23z"/>
	</g>
	<g>
		<path d="M10,23c-0.3,0-0.5-0.1-0.7-0.3c-0.4-0.4-0.4-1,0-1.4l9.3-9.3L9.3,2.7c-0.4-0.4-0.4-1,0-1.4s1-0.4,1.4,0l10,10
			c0.4,0.4,0.4,1,0,1.4l-10,10C10.5,22.9,10.3,23,10,23z"/>
	</g>
</g>
</svg>
