<?xml version="1.0" encoding="utf-8"?>
<!-- Generated by IcoMoon.io -->
<!DOCTYPE svg PUBLIC "-//W3C//DTD SVG 1.1//EN" "http://www.w3.org/Graphics/SVG/1.1/DTD/svg11.dtd">
<svg version="1.1" xmlns="http://www.w3.org/2000/svg" xmlns:xlink="http://www.w3.org/1999/xlink" width="37" height="32" viewBox="0 0 37 32">
<path d="M0.472 15.296c-0.345 0.345-0.472 0.744-0.472 1.289s0.145 0.962 0.472 1.289l15.174 14.376c0.345 0.272 0.744 0.417 1.162 0.417 0.545 0 0.962-0.145 1.289-0.472 0.617-0.69 0.617-1.706-0.073-2.378l-13.885-13.069 13.831-13.159c0.69-0.617 0.744-1.706 0.073-2.378-0.617-0.69-1.706-0.744-2.396-0.073l-15.174 14.158zM19.167 15.296c-0.345 0.345-0.472 0.744-0.472 1.289s0.145 0.962 0.472 1.289l15.174 14.357c0.345 0.272 0.744 0.417 1.162 0.417 0.545 0 0.962-0.145 1.289-0.472 0.617-0.69 0.617-1.706-0.073-2.378l-13.885-13.069 13.831-13.141c0.69-0.617 0.744-1.706 0.073-2.378-0.617-0.672-1.706-0.744-2.378-0.073l-15.192 14.158z"></path>
</svg>
