<svg xmlns="http://www.w3.org/2000/svg" width="32" height="32" viewBox="0 0 32 32">
    <path d="M30.867 19.533c-.533 0-1.067.4-1.067 1.067V28H2.4v-7.4c0-.533-.4-1.067-1.067-1.067s-1.067.4-1.067 1.067v8.467c0 .533.4 1.067 1.067 1.067H30.8c.533 0 1.067-.4 1.067-1.067V20.6c-.067-.533-.467-1.067-1-1.067zm-15.6 3.934c.267.267.533.267.8.267s.533-.133.8-.267l6.333-7.4c.4-.4.4-1.067 0-1.533-.4-.4-1.067-.4-1.533 0l-4.533 5.2v-16c0-.667-.533-1.067-1.067-1.067S15 3.067 15 3.734v16.2l-4.533-5.2c-.4-.4-1.067-.4-1.533 0-.4.4-.4 1.067 0 1.533l6.333 7.2z"/>
</svg>
