<?xml version="1.0" encoding="utf-8"?>
<!-- Generator: Adobe Illustrator 21.0.2, SVG Export Plug-In . SVG Version: 6.00 Build 0)  -->
<svg version="1.1" id="Layer_1" xmlns="http://www.w3.org/2000/svg" xmlns:xlink="http://www.w3.org/1999/xlink" x="0px" y="0px"
	 viewBox="0 0 24 24" style="enable-background:new 0 0 24 24;" xml:space="preserve">
<g transform="translate(0, 0)">
	<g>
		<path d="M12,23c-0.6,0-1-0.4-1-1V9c0-0.6,0.4-1,1-1s1,0.4,1,1v13C13,22.6,12.6,23,12,23z"/>
	</g>
	<g>
		<path d="M12,23c-0.3,0-0.5-0.1-0.7-0.3l-3-3c-0.4-0.4-0.4-1,0-1.4c0.4-0.4,1-0.4,1.4,0l2.3,2.3l2.3-2.3c0.4-0.4,1-0.4,1.4,0
			c0.4,0.4,0.4,1,0,1.4l-3,3C12.5,22.9,12.3,23,12,23z"/>
	</g>
	<g>
		<path d="M19,17h-2c-0.6,0-1-0.4-1-1s0.4-1,1-1h2c1.7,0,3-1.3,3-3c0-0.8-0.3-1.6-0.9-2.1C20.5,9.3,19.8,9,19,9l0,0
			c-0.5,0-1-0.4-1-0.9C17.8,4.7,14.9,2,11.5,2C8,2,5.2,4.7,5,8.2C5,8.6,4.7,9,4.3,9.1C2.9,9.4,2,10.6,2,12c0,1.7,1.3,3,3,3h2
			c0.6,0,1,0.4,1,1s-0.4,1-1,1H5c-2.8,0-5-2.2-5-5c0-2,1.2-3.8,3.1-4.6C3.6,3.2,7.2,0,11.5,0c4.2,0,7.7,3,8.4,7.1
			c1,0.2,1.9,0.6,2.6,1.4c1,0.9,1.5,2.2,1.5,3.5C24,14.8,21.8,17,19,17z"/>
	</g>
</g>
</svg>
