<?xml version="1.0" encoding="utf-8"?>
<!-- Generator: Adobe Illustrator 21.0.2, SVG Export Plug-In . SVG Version: 6.00 Build 0)  -->
<svg version="1.1" id="Layer_1" xmlns="http://www.w3.org/2000/svg" xmlns:xlink="http://www.w3.org/1999/xlink" x="0px" y="0px"
	 viewBox="0 0 24 24" style="enable-background:new 0 0 24 24;" xml:space="preserve">
<g transform="translate(0, 0)">
	<g>
		<path d="M12,23c-0.6,0-1-0.4-1-1V2c0-0.6,0.4-1,1-1s1,0.4,1,1v20C13,22.6,12.6,23,12,23z"/>
	</g>
	<g>
		<path d="M22,13H2c-0.6,0-1-0.4-1-1s0.4-1,1-1h20c0.6,0,1,0.4,1,1S22.6,13,22,13z"/>
	</g>
	<g>
		<path d="M15,6c-0.3,0-0.5-0.1-0.7-0.3L12,3.4L9.7,5.7c-0.4,0.4-1,0.4-1.4,0s-0.4-1,0-1.4l3-3c0.4-0.4,1-0.4,1.4,0l3,3
			c0.4,0.4,0.4,1,0,1.4C15.5,5.9,15.3,6,15,6z"/>
	</g>
	<g>
		<path d="M19,16c-0.3,0-0.5-0.1-0.7-0.3c-0.4-0.4-0.4-1,0-1.4l2.3-2.3l-2.3-2.3c-0.4-0.4-0.4-1,0-1.4s1-0.4,1.4,0l3,3
			c0.4,0.4,0.4,1,0,1.4l-3,3C19.5,15.9,19.3,16,19,16z"/>
	</g>
	<g>
		<path d="M12,23c-0.3,0-0.5-0.1-0.7-0.3l-3-3c-0.4-0.4-0.4-1,0-1.4c0.4-0.4,1-0.4,1.4,0l2.3,2.3l2.3-2.3c0.4-0.4,1-0.4,1.4,0
			c0.4,0.4,0.4,1,0,1.4l-3,3C12.5,22.9,12.3,23,12,23z"/>
	</g>
	<g>
		<path d="M5,16c-0.3,0-0.5-0.1-0.7-0.3l-3-3c-0.4-0.4-0.4-1,0-1.4l3-3c0.4-0.4,1-0.4,1.4,0c0.4,0.4,0.4,1,0,1.4L3.4,12l2.3,2.3
			c0.4,0.4,0.4,1,0,1.4C5.5,15.9,5.3,16,5,16z"/>
	</g>
</g>
</svg>
