<!-- Generated by IcoMoon.io -->
<svg version="1.1" xmlns="http://www.w3.org/2000/svg" width="24" height="24" viewBox="0 0 24 24">
<path d="M23 12c0-0.4-0.2-0.6-0.4-0.8l-2.9-2.9c-0.4-0.4-1-0.4-1.4 0s-0.4 1 0 1.4l1.3 1.3h-6.6v-6.6l1.3 1.3c0.2 0.2 0.4 0.3 0.7 0.3s0.5-0.1 0.7-0.3c0.4-0.4 0.4-1 0-1.4l-2.9-2.9c-0.2-0.2-0.4-0.4-0.8-0.4s-0.6 0.2-0.8 0.4l-2.9 2.9c-0.4 0.4-0.4 1 0 1.4s1 0.4 1.4 0l1.3-1.3v6.6h-6.6l1.3-1.3c0.4-0.4 0.4-1 0-1.4s-1-0.4-1.4 0l-2.9 2.9c-0.2 0.2-0.4 0.4-0.4 0.8s0.2 0.6 0.4 0.8l2.9 2.9c0.2 0.2 0.4 0.3 0.7 0.3s0.5-0.1 0.7-0.3c0.4-0.4 0.4-1 0-1.4l-1.3-1.3h6.6v6.6l-1.3-1.3c-0.4-0.4-1-0.4-1.4 0s-0.4 1 0 1.4l2.9 2.9c0.2 0.3 0.4 0.4 0.8 0.4s0.6-0.2 0.8-0.4l2.9-2.9c0.4-0.4 0.4-1 0-1.4s-1-0.4-1.4 0l-1.3 1.3v-6.6h6.6l-1.3 1.3c-0.4 0.4-0.4 1 0 1.4 0.2 0.2 0.4 0.3 0.7 0.3s0.5-0.1 0.7-0.3l2.9-2.9c0.2-0.2 0.4-0.4 0.4-0.8z"></path>
</svg>
