<?xml version="1.0" encoding="utf-8"?>
<!-- Generator: Adobe Illustrator 21.0.2, SVG Export Plug-In . SVG Version: 6.00 Build 0)  -->
<svg version="1.1" id="Layer_1" xmlns="http://www.w3.org/2000/svg" xmlns:xlink="http://www.w3.org/1999/xlink" x="0px" y="0px"
	 viewBox="0 0 24 24" style="enable-background:new 0 0 24 24;" xml:space="preserve">
<g transform="translate(0, 0)">
	<g>
		<path d="M7,24c-1.7,0-3-1.3-3-3s1.3-3,3-3s3,1.3,3,3S8.7,24,7,24z M7,20c-0.6,0-1,0.4-1,1s0.4,1,1,1s1-0.4,1-1S7.6,20,7,20z"/>
	</g>
	<g>
		<path d="M19,24c-1.7,0-3-1.3-3-3s1.3-3,3-3s3,1.3,3,3S20.7,24,19,24z M19,20c-0.6,0-1,0.4-1,1s0.4,1,1,1s1-0.4,1-1S19.6,20,19,20z
			"/>
	</g>
	<g>
		<path d="M20,17H6c-0.5,0-0.9-0.4-1-0.9L3.1,2H1C0.4,2,0,1.6,0,1s0.4-1,1-1h3c0.5,0,0.9,0.4,1,0.9L5.5,5H22c0.3,0,0.6,0.1,0.8,0.4
			C23,5.6,23,5.9,23,6.2l-2,10C20.9,16.7,20.5,17,20,17z M6.9,15h12.3l1.6-8h-15L6.9,15z"/>
	</g>
</g>
</svg>
