<svg xmlns="http://www.w3.org/2000/svg" width="32" height="32" viewBox="0 0 32 32">
    <path d="M26.933 21.2h-17.4L7.2 10.4l-.6-3.267H2.533C2.2 7.133 2 6.933 2 6.6s.2-.4.4-.4h4.733l.8 3.533h21.333L26.933 21.2zM10.2 20.267h16l2-9.6H8.133l2.067 9.6zm11.467 5H14.8c-.2 0-.4-.2-.4-.4s.2-.4.4-.4h6.867c.2 0 .4.2.4.4s-.2.4-.4.4zM12.333 28.4C10.8 28.4 9.6 27.2 9.6 25.667s1.2-2.733 2.733-2.733c1.533 0 2.733 1.2 2.733 2.733s-1.2 2.733-2.733 2.733zm0-4.6c-1 0-1.8.8-1.8 1.8s.8 1.8 1.8 1.8 1.8-.8 1.8-1.8c0-.933-.8-1.8-1.8-1.8zm11.534 4.6c-1.533 0-2.733-1.2-2.733-2.733s1.2-2.733 2.733-2.733 2.733 1.2 2.733 2.733c0 1.533-1.2 2.733-2.733 2.733zm0-4.6c-1 0-1.8.8-1.8 1.8s.8 1.8 1.8 1.8 1.8-.8 1.8-1.8c0-.933-.8-1.8-1.8-1.8zm2.333-8.067H10.333c-.2 0-.4-.2-.4-.4s.2-.533.4-.533h15.8c.2 0 .4.2.4.4-.067.2-.133.533-.333.533zm-8 3.734c-.2 0-.4-.2-.4-.4V12c0-.2.2-.4.4-.4s.4.2.4.4v7.067c.133.2-.067.4-.4.4z"/>
</svg>
