<!-- Generated by IcoMoon.io -->
<svg version="1.1" xmlns="http://www.w3.org/2000/svg" width="24" height="24" viewBox="0 0 24 24">
<title>ecommerce-full</title>
<path d="M9 21.5c0 1.381-1.119 2.5-2.5 2.5s-2.5-1.119-2.5-2.5c0-1.381 1.119-2.5 2.5-2.5s2.5 1.119 2.5 2.5z"></path>
<path d="M22 21.5c0 1.381-1.119 2.5-2.5 2.5s-2.5-1.119-2.5-2.5c0-1.381 1.119-2.5 2.5-2.5s2.5 1.119 2.5 2.5z"></path>
<path d="M20 17h-14c-0.501 0-0.925-0.371-0.991-0.868l-1.884-14.132h-3.125v-2h4c0.501 0 0.925 0.371 0.991 0.868l0.551 4.132h17.458c0.316 0 0.614 0.149 0.802 0.403s0.247 0.582 0.156 0.884l-3 10c-0.127 0.423-0.517 0.713-0.958 0.713z"></path>
</svg>
