<?xml version="1.0" encoding="utf-8"?>
<!-- Generated by IcoMoon.io -->
<!DOCTYPE svg PUBLIC "-//W3C//DTD SVG 1.1//EN" "http://www.w3.org/Graphics/SVG/1.1/DTD/svg11.dtd">
<svg version="1.1" xmlns="http://www.w3.org/2000/svg" xmlns:xlink="http://www.w3.org/1999/xlink" width="32" height="32" viewBox="0 0 32 32">
<path d="M26.933 21.2h-17.4l-2.333-10.8-0.6-3.267h-4.067c-0.333 0-0.533-0.2-0.533-0.533s0.2-0.4 0.4-0.4h4.733l0.8 3.533h21.333l-2.333 11.467zM10.2 20.267h16l2-9.6h-20.067l2.067 9.6zM21.667 25.267h-6.867c-0.2 0-0.4-0.2-0.4-0.4s0.2-0.4 0.4-0.4h6.867c0.2 0 0.4 0.2 0.4 0.4s-0.2 0.4-0.4 0.4zM12.333 28.4c-1.533 0-2.733-1.2-2.733-2.733s1.2-2.733 2.733-2.733c1.533 0 2.733 1.2 2.733 2.733s-1.2 2.733-2.733 2.733zM12.333 23.8c-1 0-1.8 0.8-1.8 1.8s0.8 1.8 1.8 1.8c1 0 1.8-0.8 1.8-1.8 0-0.933-0.8-1.8-1.8-1.8zM23.867 28.4c-1.533 0-2.733-1.2-2.733-2.733s1.2-2.733 2.733-2.733 2.733 1.2 2.733 2.733c0 1.533-1.2 2.733-2.733 2.733zM23.867 23.8c-1 0-1.8 0.8-1.8 1.8s0.8 1.8 1.8 1.8c1 0 1.8-0.8 1.8-1.8 0-0.933-0.8-1.8-1.8-1.8zM26.2 15.733h-15.867c-0.2 0-0.4-0.2-0.4-0.4s0.2-0.533 0.4-0.533h15.8c0.2 0 0.4 0.2 0.4 0.4-0.067 0.2-0.133 0.533-0.333 0.533zM18.2 19.467c-0.2 0-0.4-0.2-0.4-0.4v-7.067c0-0.2 0.2-0.4 0.4-0.4s0.4 0.2 0.4 0.4v7.067c0.133 0.2-0.067 0.4-0.4 0.4z"></path>
</svg>
