<svg xmlns="http://www.w3.org/2000/svg" width="32" height="32" viewBox="0 0 32 32">
    <path d="M1.333 32.533c.267 0 .533 0 .8-.133l7.333-3.333c.667-.267 1.467-.8 2-1.333l20-20c.4-.267.533-.8.533-1.333s-.267-1.067-.667-1.467l-3.733-3.6c-.4-.4-.933-.667-1.467-.667s-1.067.267-1.467.667l-20.4 20.533c-.533.533-1.067 1.333-1.333 2l-2.8 6.8c-.267.667-.133 1.2 0 1.467.267.267.8.4 1.2.4zM9.867 26.4l-3.733-3.6L23.201 5.867l3.733 3.6L9.867 26.4zm16.4-23.6L30 6.4 28.4 8l-3.733-3.6 1.6-1.6zM4.8 24.533s0-.133.133-.267l3.2 3.2-5.467 2.4 2.133-5.333z"/>
</svg>
