<?xml version="1.0" encoding="utf-8"?>
<!-- Generated by IcoMoon.io -->
<!DOCTYPE svg PUBLIC "-//W3C//DTD SVG 1.1//EN" "http://www.w3.org/Graphics/SVG/1.1/DTD/svg11.dtd">
<svg version="1.1" xmlns="http://www.w3.org/2000/svg" xmlns:xlink="http://www.w3.org/1999/xlink" width="32" height="32" viewBox="0 0 32 32">
<path d="M1.333 32.533c0.267 0 0.533 0 0.8-0.133l7.333-3.333c0.667-0.267 1.467-0.8 2-1.333l20-20c0.4-0.267 0.533-0.8 0.533-1.333s-0.267-1.067-0.667-1.467l-3.733-3.6c-0.4-0.4-0.933-0.667-1.467-0.667s-1.067 0.267-1.467 0.667l-20.4 20.533c-0.533 0.533-1.067 1.333-1.333 2l-2.8 6.8c-0.267 0.667-0.133 1.2 0 1.467 0.267 0.267 0.8 0.4 1.2 0.4zM9.867 26.4v0l-3.733-3.6 17.067-16.933 3.733 3.6-17.067 16.933zM26.267 2.8l3.733 3.6-1.6 1.6-3.733-3.6 1.6-1.6zM4.8 24.533c0 0 0-0.133 0.133-0.267l3.2 3.2-5.467 2.4 2.133-5.333z"></path>
</svg>
