<?xml version="1.0" encoding="utf-8"?>
<!-- Generator: Adobe Illustrator 21.0.2, SVG Export Plug-In . SVG Version: 6.00 Build 0)  -->
<svg version="1.1" id="Layer_1" xmlns="http://www.w3.org/2000/svg" xmlns:xlink="http://www.w3.org/1999/xlink" x="0px" y="0px"
	 viewBox="0 0 24 24" style="enable-background:new 0 0 24 24;" xml:space="preserve">
<g transform="translate(0, 0)">
	<g>
		<path d="M23,22H1c-0.6,0-1-0.4-1-1V8c0-0.6,0.4-1,1-1s1,0.4,1,1v12h20V8c0-0.6,0.4-1,1-1s1,0.4,1,1v13C24,21.6,23.6,22,23,22z"/>
	</g>
	<g>
		<path d="M12,15c-0.2,0-0.3,0-0.5-0.1l-11-6C0.2,8.7,0,8.4,0,8V3c0-0.6,0.4-1,1-1h22c0.6,0,1,0.4,1,1v5c0,0.4-0.2,0.7-0.5,0.9
			l-11,6C12.3,15,12.2,15,12,15z M2,7.4l10,5.5l10-5.5V4H2V7.4z M23,8L23,8L23,8z"/>
	</g>
</g>
</svg>
