<svg xmlns="http://www.w3.org/2000/svg" width="32" height="32" viewBox="0 0 32 32">
    <path d="M16 .867C7.333.867.2 8 .2 16.667s7.133 15.8 15.8 15.8 15.8-7.133 15.8-15.8S24.667.867 16 .867zm0 30c-7.933 0-14.2-6.467-14.2-14.2s6.467-14.2 14.2-14.2 14.2 6.467 14.2 14.2-6.267 14.2-14.2 14.2zM9.867 19.2c-.467 0-.8.4-.8.867s.467.733.867.733h12.133c.467 0 .867-.4.867-.867 0-.4-.467-.867-.867-.733h-12.2zm0-6.667c-.467 0-.8.4-.8.867s.467.733.867.733h12.133c.467 0 .867-.4.867-.867 0-.4-.467-.867-.867-.733h-12.2z"/>
</svg>
