<!-- Generated by IcoMoon.io -->
<svg version="1.1" xmlns="http://www.w3.org/2000/svg" width="24" height="24" viewBox="0 0 24 24">
<path d="M12 0c-6.6 0-12 5.4-12 12s5.4 12 12 12 12-5.4 12-12-5.4-12-12-12zM12 22c-5.5 0-10-4.5-10-10s4.5-10 10-10 10 4.5 10 10-4.5 10-10 10z"></path>
<path d="M17.4 13.5h-10.8c-0.3 0-0.6 0.4-0.6 1s0.3 1 0.6 1h10.7c0.3 0 0.6-0.4 0.6-1 0.1-0.6-0.2-1-0.5-1z"></path>
<path d="M6.6 10.5h10.7c0.3 0 0.6-0.4 0.6-1s-0.2-1-0.5-1h-10.8c-0.3 0-0.6 0.4-0.6 1s0.3 1 0.6 1z"></path>
</svg>
