<?xml version="1.0" encoding="utf-8"?>
<!-- Generator: Adobe Illustrator 21.0.2, SVG Export Plug-In . SVG Version: 6.00 Build 0)  -->
<svg version="1.1" id="Layer_1" xmlns="http://www.w3.org/2000/svg" xmlns:xlink="http://www.w3.org/1999/xlink" x="0px" y="0px"
	 viewBox="0 0 24 24" style="enable-background:new 0 0 24 24;" xml:space="preserve">
<g>
	<path d="M12,0C5.4,0,0,5.4,0,12s5.4,12,12,12s12-5.4,12-12S18.6,0,12,0z M17.4,15.5H6.6c-0.3,0-0.6-0.4-0.6-1s0.3-1,0.6-1h10.7
		c0.3,0,0.6,0.4,0.6,1S17.7,15.5,17.4,15.5z M17.4,10.5H6.6c-0.3,0-0.6-0.4-0.6-1s0.3-1,0.6-1h10.7c0.3,0,0.6,0.4,0.6,1
		S17.7,10.5,17.4,10.5z"/>
</g>
</svg>
