<?xml version="1.0" encoding="utf-8"?>
<!-- Generator: Adobe Illustrator 21.0.2, SVG Export Plug-In . SVG Version: 6.00 Build 0)  -->
<svg version="1.1" id="Layer_1" xmlns="http://www.w3.org/2000/svg" xmlns:xlink="http://www.w3.org/1999/xlink" x="0px" y="0px"
	 viewBox="0 0 24 24" style="enable-background:new 0 0 24 24;" xml:space="preserve">
<g>
	<path d="M12,2c5.5,0,10,4.5,10,10s-4.5,10-10,10S2,17.5,2,12S6.5,2,12,2 M12,0C5.4,0,0,5.4,0,12s5.4,12,12,12s12-5.4,12-12
		S18.6,0,12,0L12,0z"/>
</g>
<g transform="translate(0, 0)">
	<g>
		<g>
			<path d="M17.4,13.5H6.6c-0.3,0-0.6,0.4-0.6,1s0.3,1,0.6,1h10.7c0.3,0,0.6-0.4,0.6-1C18,13.9,17.7,13.5,17.4,13.5L17.4,13.5z"/>
		</g>
	</g>
	<g>
		<g>
			<path d="M17.4,8.5H6.6C6.3,8.5,6,8.9,6,9.5s0.3,1,0.6,1h10.7c0.3,0,0.6-0.4,0.6-1S17.7,8.5,17.4,8.5L17.4,8.5z"/>
		</g>
	</g>
</g>
</svg>
