<svg xmlns="http://www.w3.org/2000/svg" width="32" height="32" viewBox="0 0 32 32">
    <path d="M24 3.667c-.733 0-1.533.267-2.133.867L7.6 18.867A2.938 2.938 0 0 0 7.6 23l4.867 4.867a2.938 2.938 0 0 0 4.133 0L31 13.6a2.938 2.938 0 0 0 0-4.133L26.133 4.6c-.6-.667-1.333-.933-2.133-.933zm0 1.866c.267 0 .533.133.733.267l4.867 4.867c.4.4.4 1 0 1.533l-1.4 1.533-6.333-6.4L23.4 5.8c.133-.133.4-.267.6-.267zm-3.467 3.134l6.4 6.4-8.667 8.667-6.4-6.4 8.667-8.667zM10.467 18.733l6.4 6.4-1.533 1.533c-.4.4-1 .4-1.533 0l-4.867-4.867c-.4-.4-.4-1 0-1.533l1.533-1.533zM1 26.867c-.533 0-.867.467-.867 1s.533.867 1 .867h8.4c.533 0 1-.533 1-1 0-.533-.533-1-1-.867H1z"/>
</svg>
