<?xml version="1.0" encoding="utf-8"?>
<!-- Generator: Adobe Illustrator 21.0.2, SVG Export Plug-In . SVG Version: 6.00 Build 0)  -->
<svg version="1.1" id="Layer_1" xmlns="http://www.w3.org/2000/svg" xmlns:xlink="http://www.w3.org/1999/xlink" x="0px" y="0px"
	 viewBox="0 0 24 24" style="enable-background:new 0 0 24 24;" xml:space="preserve">
<g transform="translate(0, 0)">
	<g>
		<path d="M16,17c-0.3,0-0.5-0.1-0.7-0.3l-8-8c-0.4-0.4-0.4-1,0-1.4s1-0.4,1.4,0l8,8c0.4,0.4,0.4,1,0,1.4C16.5,16.9,16.3,17,16,17z"
			/>
	</g>
	<g>
		<path d="M10,23c-0.3,0-0.5-0.1-0.7-0.3C9.1,22.5,9,22.3,9,22c0,0.3-0.1,0.5-0.3,0.7c-0.4,0.4-1,0.4-1.4,0l-5.6-5.6
			c-1.2-1.2-1.2-3.1,0-4.2l11-11c1.2-1.2,3.1-1.2,4.2,0l5.2,5.2C22.6,7.7,23,8.4,23,9.2s-0.3,1.6-0.9,2.1L10.7,22.7
			C10.5,22.9,10.3,23,10,23z M14.8,3c-0.3,0-0.5,0.1-0.7,0.3l-11,11c-0.4,0.4-0.4,1,0,1.4l5.6,5.6C8.9,21.5,9,21.7,9,22
			c0-0.3,0.1-0.5,0.3-0.7L20.7,9.9C20.8,9.7,21,9.5,21,9.2s-0.1-0.5-0.3-0.7l-5.2-5.2C15.3,3.1,15,3,14.8,3z"/>
	</g>
	<g>
		<path d="M21,23H3c-0.6,0-1-0.4-1-1s0.4-1,1-1h18c0.6,0,1,0.4,1,1S21.6,23,21,23z"/>
	</g>
</g>
</svg>
