<!-- Generated by IcoMoon.io -->
<svg version="1.1" xmlns="http://www.w3.org/2000/svg" width="24" height="24" viewBox="0 0 24 24">
<path d="M1 8c0.6 0 1-0.4 1-1v-5h5c0.6 0 1-0.4 1-1s-0.4-1-1-1h-6c-0.6 0-1 0.4-1 1v6c0 0.6 0.4 1 1 1z"></path>
<path d="M23 0h-6c-0.6 0-1 0.4-1 1s0.4 1 1 1h5v5c0 0.6 0.4 1 1 1s1-0.4 1-1v-6c0-0.6-0.4-1-1-1z"></path>
<path d="M23 16c-0.6 0-1 0.4-1 1v5h-5c-0.6 0-1 0.4-1 1s0.4 1 1 1h6c0.6 0 1-0.4 1-1v-6c0-0.6-0.4-1-1-1z"></path>
<path d="M7 22h-5v-5c0-0.6-0.4-1-1-1s-1 0.4-1 1v6c0 0.6 0.4 1 1 1h6c0.6 0 1-0.4 1-1s-0.4-1-1-1z"></path>
<path d="M12 7c-2.8 0-5 2.2-5 5s2.2 5 5 5 5-2.2 5-5-2.2-5-5-5zM12 15c-1.7 0-3-1.3-3-3s1.3-3 3-3 3 1.3 3 3-1.3 3-3 3z"></path>
</svg>
