<?xml version="1.0" encoding="utf-8"?>
<!-- Generated by IcoMoon.io -->
<!DOCTYPE svg PUBLIC "-//W3C//DTD SVG 1.1//EN" "http://www.w3.org/Graphics/SVG/1.1/DTD/svg11.dtd">
<svg version="1.1" xmlns="http://www.w3.org/2000/svg" xmlns:xlink="http://www.w3.org/1999/xlink" width="32" height="32" viewBox="0 0 32 32">
<path d="M31.067 11.333c0.4 0 0.8-0.4 0.8-0.8v-8.933c0-0.4-0.4-0.8-0.8-0.8h-8.933c-0.4 0-0.8 0.4-0.8 0.8s0.4 0.8 0.8 0.8h7.067l-10.4 10.267c-0.267 0.267-0.267 0.8 0 1.067 0.133 0.133 0.4 0.267 0.533 0.267s0.4 0 0.667-0.133l10.267-10.267v7.067c0 0.4 0.4 0.667 0.8 0.667zM13.2 19.467c-0.267-0.267-0.8-0.267-1.067 0l-10.4 10.4v-7.067c0-0.533-0.4-0.8-0.8-0.8s-0.8 0.4-0.8 0.8v8.933c0 0.4 0.4 0.8 0.8 0.8h8.933c0.4 0 0.8-0.4 0.8-0.8s-0.4-0.8-0.8-0.8h-7.067l10.4-10.4c0.4-0.267 0.4-0.8 0-1.067z"></path>
</svg>
