<?xml version="1.0" encoding="utf-8"?>
<!-- Generator: Adobe Illustrator 21.0.2, SVG Export Plug-In . SVG Version: 6.00 Build 0)  -->
<svg version="1.1" id="Layer_1" xmlns="http://www.w3.org/2000/svg" xmlns:xlink="http://www.w3.org/1999/xlink" x="0px" y="0px"
	 viewBox="0 0 24 24" style="enable-background:new 0 0 24 24;" xml:space="preserve">
<g transform="translate(0, 0)">
	<g>
		<path d="M1,8C0.4,8,0,7.6,0,7V1c0-0.6,0.4-1,1-1h6c0.6,0,1,0.4,1,1S7.6,2,7,2H2v5C2,7.6,1.6,8,1,8z"/>
	</g>
	<g>
		<path d="M23,8c-0.6,0-1-0.4-1-1V2h-5c-0.6,0-1-0.4-1-1s0.4-1,1-1h6c0.6,0,1,0.4,1,1v6C24,7.6,23.6,8,23,8z"/>
	</g>
	<g>
		<path d="M23,24h-6c-0.6,0-1-0.4-1-1s0.4-1,1-1h5v-5c0-0.6,0.4-1,1-1s1,0.4,1,1v6C24,23.6,23.6,24,23,24z"/>
	</g>
	<g>
		<path d="M7,24H1c-0.6,0-1-0.4-1-1v-6c0-0.6,0.4-1,1-1s1,0.4,1,1v5h5c0.6,0,1,0.4,1,1S7.6,24,7,24z"/>
	</g>
	<g>
		<path d="M12,17c-2.8,0-5-2.2-5-5s2.2-5,5-5s5,2.2,5,5S14.8,17,12,17z M12,9c-1.7,0-3,1.3-3,3s1.3,3,3,3s3-1.3,3-3S13.7,9,12,9z"/>
	</g>
</g>
</svg>
