<?xml version="1.0" encoding="utf-8"?>
<!-- Generator: Adobe Illustrator 21.0.2, SVG Export Plug-In . SVG Version: 6.00 Build 0)  -->
<svg version="1.1" id="Layer_1" xmlns="http://www.w3.org/2000/svg" xmlns:xlink="http://www.w3.org/1999/xlink" x="0px" y="0px"
	 viewBox="0 0 24 24" style="enable-background:new 0 0 24 24;" xml:space="preserve">
<g transform="translate(0, 0)">
	<g>
		<path d="M12,20c-6.5,0-10.7-6.2-10.8-6.4c-0.2-0.3-0.2-0.8,0-1.1C1.3,12.2,5.5,6,12,6s10.7,6.2,10.8,6.4c0.2,0.3,0.2,0.8,0,1.1
			C22.7,13.8,18.5,20,12,20z M3.2,13c1.1,1.4,4.4,5,8.8,5s7.6-3.6,8.8-5c-1.1-1.4-4.4-5-8.8-5S4.4,11.6,3.2,13z"/>
	</g>
	<g>
		<path d="M12,16c-2.8,0-5-2.2-5-5s2.2-5,5-5s5,2.2,5,5S14.8,16,12,16z M12,8c-1.7,0-3,1.3-3,3s1.3,3,3,3s3-1.3,3-3S13.7,8,12,8z"/>
	</g>
	<g>
		<path d="M3,21c-0.3,0-0.5-0.1-0.7-0.3c-0.4-0.4-0.4-1,0-1.4l16-16c0.4-0.4,1-0.4,1.4,0s0.4,1,0,1.4l-16,16C3.5,20.9,3.3,21,3,21z"
			/>
	</g>
</g>
</svg>
