<svg xmlns="http://www.w3.org/2000/svg" width="36" height="32" viewBox="0 0 36 32">
    <path d="M35.347 16.487c-.319-.359-7.851-8.966-17.415-8.966S.816 16.129.517 16.487l-.518.578.518.578c.319.359 7.851 8.966 17.415 8.966s17.116-8.608 17.415-8.966l.518-.578-.518-.578zm-17.414 7.711c-3.945 0-7.133-3.188-7.133-7.133s3.188-7.133 7.133-7.133 7.133 3.188 7.133 7.133a7.126 7.126 0 0 1-7.133 7.133zM2.451 17.065c1.295-1.335 4.762-4.563 9.186-6.396-1.654 1.634-2.71 3.885-2.71 6.396s1.036 4.762 2.67 6.396c-4.384-1.833-7.851-5.061-9.146-6.396zm21.778 6.396c1.654-1.634 2.67-3.885 2.67-6.396s-1.036-4.762-2.67-6.396c4.443 1.833 7.89 5.061 9.186 6.396-1.295 1.335-4.762 4.563-9.186 6.396zm-6.296-9.684c-1.833 0-3.288 1.474-3.288 3.288s1.474 3.288 3.288 3.288 3.288-1.474 3.288-3.288a3.279 3.279 0 0 0-3.288-3.288zM29.137.672l1.894 1.459L7.517 32.663l-1.894-1.459L29.137.672z"/>
</svg>
