<svg xmlns="http://www.w3.org/2000/svg" width="32" height="32" viewBox="0 0 32 32">
    <path d="M31.538 16.471c-.284-.32-7.004-8-15.538-8s-15.271 7.68-15.538 8L0 16.987l.462.516c.284.32 7.004 8 15.538 8s15.271-7.68 15.538-8l.462-.516-.462-.516zM16 23.351c-3.52 0-6.364-2.844-6.364-6.364S12.48 10.623 16 10.623s6.364 2.844 6.364 6.364S19.52 23.351 16 23.351zM2.187 16.987c1.156-1.191 4.249-4.071 8.196-5.707-1.476 1.458-2.418 3.467-2.418 5.707s.924 4.249 2.382 5.707c-3.911-1.636-7.004-4.516-8.16-5.707zm19.431 5.706C23.094 21.235 24 19.226 24 16.986s-.924-4.249-2.382-5.707c3.964 1.636 7.04 4.516 8.196 5.707-1.156 1.191-4.249 4.071-8.196 5.707zM16 14.053c-1.636 0-2.933 1.316-2.933 2.933s1.316 2.933 2.933 2.933 2.933-1.316 2.933-2.933-1.298-2.933-2.933-2.933z"/>
</svg>
