<!-- Generated by IcoMoon.io -->
<svg version="1.1" xmlns="http://www.w3.org/2000/svg" width="24" height="24" viewBox="0 0 24 24">
<path d="M22.8 11.4c-0.1-0.2-4.3-6.4-10.8-6.4s-10.7 6.2-10.8 6.5c-0.2 0.3-0.2 0.8 0 1.1 0.1 0.2 4.3 6.4 10.8 6.4s10.7-6.2 10.8-6.5c0.2-0.3 0.2-0.8 0-1.1zM15 10c0 1.7-1.3 3-3 3s-3-1.3-3-3 1.3-3 3-3 3 1.3 3 3zM12 17c-4.4 0-7.7-3.6-8.8-5 0.7-0.8 2.1-2.4 4.1-3.6-0.2 0.5-0.3 1-0.3 1.6 0 2.8 2.2 5 5 5s5-2.2 5-5c0-0.6-0.1-1.1-0.3-1.6 2 1.2 3.4 2.8 4.1 3.6-1.2 1.4-4.4 5-8.8 5z"></path>
</svg>
