<svg xmlns="http://www.w3.org/2000/svg" width="32" height="32" viewBox="0 0 32 32">
    <path d="M12.047 13.937h1.694v-1.6c0-.753 0-1.788.565-2.541.471-.753 1.224-1.224 2.635-1.224 2.165 0 3.106.282 3.106.282l-.376 2.541s-.659-.188-1.318-.188-1.224.188-1.224.847v1.882h2.729l-.188 2.447h-2.541v8.565h-3.2v-8.471h-1.694v-2.541h-.188zM16 .667c-8.753 0-16 7.247-16 16s7.247 16 16 16 16-7.247 16-16c0-8.847-7.247-16-16-16zm0 30.4c-8 0-14.4-6.588-14.4-14.4s6.588-14.4 14.4-14.4 14.4 6.588 14.4 14.4-6.4 14.4-14.4 14.4z"/>
</svg>
