<?xml version="1.0" encoding="utf-8"?>
<!-- Generator: Adobe Illustrator 21.0.2, SVG Export Plug-In . SVG Version: 6.00 Build 0)  -->
<svg version="1.1" id="Layer_1" xmlns="http://www.w3.org/2000/svg" xmlns:xlink="http://www.w3.org/1999/xlink" x="0px" y="0px"
	 viewBox="0 0 24 24" style="enable-background:new 0 0 24 24;" xml:space="preserve">
<path d="M22.7,0c0.4,0,0.7,0.1,0.9,0.4S24,1,24,1.3v21.3c0,0.4-0.1,0.7-0.4,0.9S23,24,22.7,24h-6.1v-9.3h3.1l0.5-3.6h-3.6V8.8
	c0-0.6,0.1-1,0.4-1.3S17.7,7,18.4,7h1.9V3.8c-0.7-0.1-1.6-0.1-2.8-0.1c-1.4,0-2.5,0.4-3.4,1.2c-0.8,0.8-1.3,2-1.3,3.5v2.7H9.7v3.6
	h3.1V24H1.3c-0.4,0-0.7-0.1-0.9-0.4S0,23,0,22.7V1.3C0,1,0.1,0.7,0.4,0.4S1,0,1.3,0H22.7z"/>
</svg>
