<!-- Generated by IcoMoon.io -->
<svg version="1.1" xmlns="http://www.w3.org/2000/svg" width="24" height="24" viewBox="0 0 24 24">
<title>facebook</title>
<path d="M23.6 0.4c-0.2-0.3-0.5-0.4-0.9-0.4h-21.4c-0.3 0-0.6 0.1-0.9 0.4s-0.4 0.6-0.4 0.9v21.4c0 0.3 0.2 0.6 0.4 0.9s0.5 0.4 0.9 0.4h11.5v-9.3h-3.1v-3.6h3.1v-2.7c0-1.5 0.5-2.7 1.3-3.5 0.9-0.8 2-1.2 3.4-1.2 1.2 0 2.1 0 2.8 0.1v3.2h-1.9c-0.7 0-1.1 0.2-1.4 0.5s-0.4 0.7-0.4 1.3v2.3h3.6l-0.5 3.6h-3.1v9.3h6.1c0.3 0 0.6-0.3 0.9-0.5s0.4-0.5 0.4-0.9v-21.3c0-0.3-0.2-0.6-0.4-0.9z"></path>
</svg>
