<!-- Generated by IcoMoon.io -->
<svg version="1.1" xmlns="http://www.w3.org/2000/svg" width="24" height="24" viewBox="0 0 24 24">
<title>faq-full</title>
<path d="M12 0c-6.617 0-12 5.383-12 12s5.383 12 12 12 12-5.383 12-12-5.383-12-12-12zM11.5 19c-0.828 0-1.5-0.672-1.5-1.5s0.672-1.5 1.5-1.5 1.5 0.672 1.5 1.5-0.672 1.5-1.5 1.5zM15.811 10.127c-0.309 0.495-0.896 1.051-1.762 1.669-1.401 1.036-1.363 1.266-1.363 2.204h-2.457c0-0.733-0.016-1.296 0.38-1.981 0.253-0.439 0.717-0.906 1.391-1.4 0.809-0.578 1.595-1.135 1.595-2.105 0-0.909-0.778-1.233-1.687-1.233-0.927 0-1.984 0.303-3.171 0.909l-1.011-2.030c2.157-1.209 5.561-1.756 7.422-0.241 1.366 1.113 1.374 3.070 0.663 4.208z"></path>
</svg>
