<?xml version="1.0" encoding="utf-8"?>
<!-- Generator: Adobe Illustrator 21.0.2, SVG Export Plug-In . SVG Version: 6.00 Build 0)  -->
<svg version="1.1" id="Layer_1" xmlns="http://www.w3.org/2000/svg" xmlns:xlink="http://www.w3.org/1999/xlink" x="0px" y="0px"
	 viewBox="0 0 24 24" style="enable-background:new 0 0 24 24;" xml:space="preserve">
<g transform="translate(0, 0)">
	<g>
		<path d="M12,24C5.4,24,0,18.6,0,12S5.4,0,12,0s12,5.4,12,12S18.6,24,12,24z M12,2C6.5,2,2,6.5,2,12s4.5,10,10,10s10-4.5,10-10
			S17.5,2,12,2z"/>
	</g>
	<g>
		<path d="M12,15c-0.6,0-1-0.4-1-1v-1c0-0.6,0.4-1,1-1c1,0,2-1,2-2s-1-2-2-2c-0.8,0-1.6,0.7-1.9,1.3C9.8,9.8,9.2,10,8.8,9.8
			C8.3,9.5,8.1,8.9,8.3,8.5C8.9,7.2,10.3,6,12,6c2.2,0,4,1.8,4,4c0,1.8-1.3,3.4-3,3.9V14C13,14.6,12.6,15,12,15z"/>
	</g>
	<g>
		<path d="M12,19c-0.6,0-1-0.4-1-1v-1c0-0.6,0.4-1,1-1s1,0.4,1,1v1C13,18.6,12.6,19,12,19z"/>
	</g>
</g>
</svg>
