<!-- Generated by IcoMoon.io -->
<svg version="1.1" xmlns="http://www.w3.org/2000/svg" width="24" height="24" viewBox="0 0 24 24">
<path d="M12 0c-6.6 0-12 5.4-12 12s5.4 12 12 12 12-5.4 12-12-5.4-12-12-12zM12 22c-5.5 0-10-4.5-10-10s4.5-10 10-10 10 4.5 10 10-4.5 10-10 10z"></path>
<path d="M12 6c-1.7 0-3.1 1.2-3.7 2.5-0.2 0.4 0 1 0.5 1.3 0.4 0.2 1 0 1.3-0.5 0.3-0.6 1.1-1.3 1.9-1.3 1 0 2 1 2 2s-1 2-2 2c-0.6 0-1 0.4-1 1v1c0 0.6 0.4 1 1 1s1-0.4 1-1v-0.1c1.7-0.5 3-2.1 3-3.9 0-2.2-1.8-4-4-4z"></path>
<path d="M12 16c-0.6 0-1 0.4-1 1v1c0 0.6 0.4 1 1 1s1-0.4 1-1v-1c0-0.6-0.4-1-1-1z"></path>
</svg>
