<svg xmlns="http://www.w3.org/2000/svg" width="32" height="32" viewBox="0 0 32 32">
    <path d="M16.733 28.333H14.4c-.6 0-.933.467-.933.933v2.333c0 .6.467.933.933.933h2.333c.6 0 .933-.467.933-.933v-2.333c.133-.467-.333-.933-.933-.933zm6.2-25.066C21.066 1.534 18.6.8 15.666.8s-5.267.8-7 2.333C7.133 4.533 6.199 6.4 5.733 8.866c0 .333 0 .6.133.8.133.133.467.333.6.467l2 .333c.467 0 .933-.333 1.067-.8.333-1.733 1.067-3.067 2-3.867C12.6 4.732 14 4.266 15.733 4.266s3.067.6 4.333 1.733 1.733 2.467 1.733 4c0 .8-.133 1.533-.6 2.333s-1.267 1.733-2.667 2.8c-1.4 1.267-2.333 2-2.8 2.667-.6.8-1.267 1.733-1.533 2.467-.467 1.067-.6 2.467-.6 4.2 0 .6.467.933.933.933h1.733c.467 0 .933-.467.933-.933 0-1.067.133-1.867.333-2.333.133-.6.467-1.267.933-1.867.333-.467 1.267-1.4 2.467-2.467 1.867-1.733 3.067-3.067 3.733-4.2.6-1.067.933-2.467.933-3.867.133-2.8-.8-4.8-2.667-6.467z"/>
</svg>
