<?xml version="1.0" encoding="utf-8"?>
<!-- Generator: Adobe Illustrator 21.0.2, SVG Export Plug-In . SVG Version: 6.00 Build 0)  -->
<svg version="1.1" id="Layer_1" xmlns="http://www.w3.org/2000/svg" xmlns:xlink="http://www.w3.org/1999/xlink" x="0px" y="0px"
	 viewBox="0 0 24 24" style="enable-background:new 0 0 24 24;" xml:space="preserve">
<g transform="translate(0, 0)">
	<g>
		<path d="M16,22c-0.2,0-0.4-0.1-0.6-0.2l-12-9C3.1,12.6,3,12.3,3,12s0.1-0.6,0.4-0.8l12-9c0.3-0.2,0.7-0.3,1-0.1
			C16.8,2.3,17,2.6,17,3v18c0,0.4-0.2,0.7-0.6,0.9C16.3,22,16.2,22,16,22z M5.7,12l9.3,7V5L5.7,12z"/>
	</g>
	<g>
		<path d="M20,22c-0.6,0-1-0.4-1-1V3c0-0.6,0.4-1,1-1s1,0.4,1,1v18C21,21.6,20.6,22,20,22z"/>
	</g>
</g>
</svg>
