<?xml version="1.0" encoding="utf-8"?>
<!-- Generator: Adobe Illustrator 21.0.2, SVG Export Plug-In . SVG Version: 6.00 Build 0)  -->
<svg version="1.1" id="Layer_1" xmlns="http://www.w3.org/2000/svg" xmlns:xlink="http://www.w3.org/1999/xlink" x="0px" y="0px"
	 viewBox="0 0 24 24" style="enable-background:new 0 0 24 24;" xml:space="preserve">
<g transform="translate(0, 0)">
	<g>
		<path d="M4,22c-0.2,0-0.3,0-0.4-0.1C3.2,21.7,3,21.4,3,21V3c0-0.4,0.2-0.7,0.6-0.9c0.3-0.2,0.7-0.1,1,0.1l12,9
			c0.3,0.2,0.4,0.5,0.4,0.8s-0.1,0.6-0.4,0.8l-12,9C4.4,21.9,4.2,22,4,22z M5,5v14l9.3-7L5,5z"/>
	</g>
	<g>
		<path d="M20,22c-0.6,0-1-0.4-1-1V3c0-0.6,0.4-1,1-1s1,0.4,1,1v18C21,21.6,20.6,22,20,22z"/>
	</g>
</g>
</svg>
