<?xml version="1.0" encoding="utf-8"?>
<!-- Generator: Adobe Illustrator 21.0.2, SVG Export Plug-In . SVG Version: 6.00 Build 0)  -->
<svg version="1.1" id="Layer_1" xmlns="http://www.w3.org/2000/svg" xmlns:xlink="http://www.w3.org/1999/xlink" x="0px" y="0px"
	 viewBox="0 0 24 24" style="enable-background:new 0 0 24 24;" xml:space="preserve">
<g transform="translate(0, 0)">
	<g>
		<path d="M22,24H2c-0.6,0-1-0.4-1-1V1c0-0.6,0.4-1,1-1h20c0.6,0,1,0.4,1,1v22C23,23.6,22.6,24,22,24z M3,22h18V2H3V22z"/>
	</g>
	<g>
		<path d="M17,8H7C6.4,8,6,7.6,6,7s0.4-1,1-1h10c0.6,0,1,0.4,1,1S17.6,8,17,8z"/>
	</g>
	<g>
		<path d="M17,13H7c-0.6,0-1-0.4-1-1s0.4-1,1-1h10c0.6,0,1,0.4,1,1S17.6,13,17,13z"/>
	</g>
	<g>
		<path d="M11,18H7c-0.6,0-1-0.4-1-1s0.4-1,1-1h4c0.6,0,1,0.4,1,1S11.6,18,11,18z"/>
	</g>
</g>
</svg>
