<svg xmlns="http://www.w3.org/2000/svg" width="32" height="32" viewBox="0 0 32 32">
    <path d="M18.4 1.271c-.391-.409-.924-.604-1.529-.604H7.804c-2.062 0-3.662 1.671-3.662 3.804v20.604c0 2.062 1.6 3.804 3.538 3.804h12.942c1.938 0 3.609-1.671 3.609-3.609V7.937c0-.533-.267-1.067-.676-1.529L18.399 1.27zM22.009 6.8h-3.342c-.462 0-.942-.267-.942-.729V2.533L22.009 6.8zm-1.405 20.676H7.662c-1.209 0-2.204-1.067-2.204-2.4V4.472c0-1.333.996-2.471 2.329-2.471h8.533v4.071c0 1.138 1.067 2.062 2.329 2.062h4.142v17.067c.018 1.209-1.067 2.276-2.187 2.276zm3.805 3.733H11.467c-.729 0-1.404-.409-1.867-1.067-.196-.338-.604-.391-.942-.196s-.409.604-.196.942a3.53 3.53 0 0 0 3.004 1.671h12.942c1.938 0 3.538-1.671 3.538-3.609V11.599c0-.533-.267-1.138-.676-1.529l-.604-.462c-.267-.267-.676-.267-.942 0s-.267.676 0 .924l.533.533c.142.142.267.409.267.533v17.333c.018 1.262-.996 2.276-2.116 2.276zm-8.231-14.062H14.88v-.853h.942c.409 0 .711-.32.711-.711a.702.702 0 0 0-.711-.711h-.924v-1.031h.924c.409 0 .711-.32.711-.711 0-.409-.267-.711-.658-.711h-.942v-1.031h.924c.409 0 .711-.32.711-.711a.702.702 0 0 0-.711-.711h-.924v-.533a.702.702 0 0 0-.711-.711h-1.653a.702.702 0 0 0-.711.711c0 .409.32.711.711.711h.942v1.031h-.924a.702.702 0 0 0-.711.711c0 .409.32.711.711.711h.924v1.031h-.924c-.409 0-.711.32-.711.711s.32.711.711.711h.924v2.098h-1.369a.702.702 0 0 0-.711.711v4.427c0 .409.32.711.711.711h4.089a.691.691 0 0 0 .711-.711v-4.427c-.053-.356-.356-.711-.764-.711zm-.427 4.906h-3.218v-3.964h3.236v3.964z"/>
</svg>
