<svg xmlns="http://www.w3.org/2000/svg" width="32" height="32" viewBox="0 0 32 32">
    <path d="M18.667 1.267c-.4-.4-.933-.6-1.533-.6H8.067C6 .667 4.4 2.334 4.4 4.467v20.6c0 2.067 1.6 3.8 3.533 3.8h12.933c1.933 0 3.6-1.667 3.6-3.6V7.934c0-.533-.267-1.067-.667-1.533l-5.133-5.133zm3.6 5.533h-3.333c-.467 0-.933-.267-.933-.733V2.534l4.267 4.267zm-1.4 20.667H7.934c-1.2 0-2.2-1.067-2.2-2.4v-20.6c0-1.333 1-2.467 2.333-2.467H16.6v4.067c0 1.133 1.067 2.067 2.333 2.067h4.133v17.067c0 1.2-1.067 2.267-2.2 2.267zM24.4 31.2H11.467c-.733 0-1.4-.4-1.867-1.067-.2-.333-.6-.4-.933-.2s-.4.6-.2.933a3.518 3.518 0 0 0 3 1.667H24.4c1.933 0 3.533-1.667 3.533-3.6V11.6c0-.533-.267-1.133-.667-1.533l-.6-.467c-.267-.267-.667-.267-.933 0s-.267.667 0 .933l.533.533c.133.133.267.4.267.533v17.333c0 1.267-1 2.267-2.133 2.267zm-5.933-14c-.2-.333-.533-.467-1.133-.467-.333 0-.667 0-1.067.133-.533-.6-1.133-1.467-1.6-2.333.467-1.933.133-2.333 0-2.533s-.333-.267-.6-.267c-.133 0-.2 0-.267.067a.723.723 0 0 0-.533.533c-.2.467-.067 1.267.4 2.333-.267 1.133-.733 2.4-1.2 3.467-1.333.6-2 1.2-2.067 1.867 0 .2 0 .6.467.933.133.133.267.133.467.133.333 0 .733-.267 1.133-.8.267-.333.533-.8.8-1.4.867-.333 1.867-.667 2.733-.867.533.533 1.067.733 1.467.733.333 0 .667-.2.867-.467.267-.533.267-.867.133-1.067zm-7.2 3c-.133-.133-.133-.2-.133-.2 0-.2.333-.533 1-.933-.533 1-.8 1.133-.867 1.133zm2.666-7.667c0-.067.067-.067.067-.067.067.067.133.4 0 1.133-.067-.467-.133-.867-.067-1.067zm-.6 5.334c.333-.8.667-1.733.867-2.533.4.667.867 1.333 1.267 1.867-.667.133-1.4.4-2.133.667zm4.334-.2c-.133.133-.2.133-.267.133-.2 0-.467-.133-.667-.333.2 0 .467-.067.6-.067.333 0 .4.067.467.067-.067.133-.067.2-.133.2z"/>
</svg>
