<svg xmlns="http://www.w3.org/2000/svg" width="32" height="32" viewBox="0 0 32 32">
    <path d="M18.668 1.267c-.4-.4-.932-.6-1.532-.6H8.068C6 .667 4.4 2.335 4.4 4.467v20.6c0 2.068 1.6 3.8 3.532 3.8h12.932c1.932 0 3.6-1.668 3.6-3.6V7.935c0-.532-.268-1.068-.668-1.532l-5.128-5.136zm3.6 5.532h-3.332c-.468 0-.932-.268-.932-.732V2.535l4.264 4.264zm-1.4 20.668H7.932c-1.2 0-2.2-1.068-2.2-2.4v-20.6c0-1.332 1-2.468 2.332-2.468H16.6v4.068c0 1.132 1.068 2.068 2.332 2.068h4.132v17.068c.004 1.196-1.064 2.264-2.196 2.264zm3.532 3.732H11.468c-.732 0-1.4-.4-1.868-1.068-.2-.332-.6-.4-.932-.2s-.4.6-.2.932a3.518 3.518 0 0 0 3 1.668H24.4c1.932 0 3.532-1.668 3.532-3.6V11.599c0-.532-.268-1.132-.668-1.532l-.6-.468a.64.64 0 0 0-.932 0 .64.64 0 0 0 0 .932l.532.532c.132.132.268.4.268.532v17.332c0 1.272-1 2.272-2.132 2.272zM11.28 18.727c.06 0 .108.024.152.068l.424.46a2.354 2.354 0 0 1-.864.668c-.344.156-.756.232-1.236.232-.428 0-.816-.072-1.156-.22-.344-.148-.636-.352-.88-.612s-.428-.572-.56-.936a3.558 3.558 0 0 1-.192-1.188c0-.436.072-.832.216-1.196.144-.36.348-.672.608-.936.26-.26.576-.464.94-.612.364-.144.764-.22 1.204-.22.428 0 .804.068 1.124.208.32.136.596.32.828.544l-.36.5a.28.28 0 0 1-.084.084.229.229 0 0 1-.136.036c-.06 0-.124-.024-.188-.072s-.144-.1-.244-.156c-.1-.056-.224-.108-.376-.156s-.34-.072-.572-.072c-.272 0-.524.048-.752.14-.228.096-.424.232-.588.404s-.292.392-.384.644a2.473 2.473 0 0 0-.136.852c0 .324.044.616.136.868s.216.468.376.64c.156.172.344.304.556.396s.444.14.688.14c.148 0 .28-.008.396-.024a1.577 1.577 0 0 0 .612-.208c.088-.056.176-.12.264-.2a.546.546 0 0 1 .084-.06c.032-.008.064-.016.1-.016zm4.488-3.368c-.028.06-.064.1-.104.124s-.084.036-.136.036a.34.34 0 0 1-.18-.064c-.068-.04-.144-.088-.236-.136a2.015 2.015 0 0 0-.32-.14c-.12-.04-.264-.06-.432-.06-.148 0-.28.016-.392.052s-.204.088-.28.152a.618.618 0 0 0-.172.232.78.78 0 0 0-.056.296c0 .136.036.248.116.34.076.092.176.168.3.232s.268.12.428.172c.16.052.324.104.492.16s.332.124.492.2c.16.076.304.172.428.288s.224.26.3.428c.076.168.112.372.112.612 0 .26-.044.504-.132.732s-.22.428-.392.596c-.172.168-.38.304-.632.4a2.348 2.348 0 0 1-.852.144c-.184 0-.364-.016-.544-.052s-.352-.088-.516-.152c-.164-.068-.316-.148-.46-.24s-.272-.196-.38-.312l.312-.516a.479.479 0 0 1 .104-.096.27.27 0 0 1 .14-.036.39.39 0 0 1 .216.08c.076.056.168.116.276.18.104.068.228.128.372.18.144.056.316.08.516.08.308 0 .544-.072.712-.216s.252-.356.252-.628c0-.152-.04-.276-.116-.372s-.176-.176-.3-.24a2.513 2.513 0 0 0-.428-.168c-.16-.044-.324-.096-.488-.148s-.328-.116-.488-.192c-.16-.076-.304-.172-.428-.292s-.224-.272-.3-.452-.116-.404-.116-.668c0-.212.044-.416.124-.616.084-.2.208-.376.368-.532s.36-.28.596-.372a2.2 2.2 0 0 1 .804-.14c.34 0 .656.052.944.16s.532.256.736.448l-.26.516zm.624-1.052h.868c.092 0 .168.024.228.068s.104.104.132.176l1.36 3.528a6.839 6.839 0 0 1 .252.812c.06-.308.136-.576.228-.812l1.356-3.528c.024-.06.068-.116.128-.168s.136-.076.228-.076h.868l-2.336 5.784h-.972l-2.34-5.784z"/>
</svg>
