<svg xmlns="http://www.w3.org/2000/svg" width="32" height="32" viewBox="0 0 32 32">
    <path d="M18.667 1.267c-.4-.4-.933-.6-1.533-.6H8.067C6 .667 4.4 2.334 4.4 4.467v20.6c0 2.067 1.6 3.8 3.533 3.8h12.933c1.933 0 3.6-1.667 3.6-3.6V7.934c0-.533-.267-1.067-.667-1.533l-5.133-5.133zm3.6 5.533h-3.333c-.467 0-.933-.267-.933-.733V2.534l4.267 4.267zm-1.4 20.667H7.934c-1.2 0-2.2-1.067-2.2-2.4v-20.6c0-1.333 1-2.467 2.333-2.467H16.6v4.067c0 1.133 1.067 2.067 2.333 2.067h4.133v17.067c0 1.2-1.067 2.267-2.2 2.267zM24.4 31.2H11.467c-.733 0-1.4-.4-1.867-1.067-.2-.333-.6-.4-.933-.2s-.4.6-.2.933a3.518 3.518 0 0 0 3 1.667H24.4c1.933 0 3.533-1.667 3.533-3.6V11.6c0-.533-.267-1.133-.667-1.533l-.6-.467c-.267-.267-.667-.267-.933 0s-.267.667 0 .933l.533.533c.133.133.267.4.267.533v17.333c0 1.267-1 2.267-2.133 2.267zM13.2 18.467v3.267H12v-8.733h2.6c.533 0 1.067.067 1.467.2s.733.333 1 .533c.267.267.467.533.6.867s.2.733.2 1.133-.067.8-.2 1.133-.333.6-.6.867c-.267.267-.6.467-1 .6s-.867.2-1.4.2H13.2zm0-.934h1.4c.333 0 .667-.067.867-.133.267-.067.467-.2.667-.4.2-.133.333-.333.4-.6.133-.2.133-.4.133-.733 0-.533-.2-1-.533-1.333s-.867-.467-1.6-.467h-1.4v3.667z"/>
</svg>
