<?xml version="1.0" encoding="utf-8"?>
<!-- Generator: Adobe Illustrator 21.0.2, SVG Export Plug-In . SVG Version: 6.00 Build 0)  -->
<svg version="1.1" id="Layer_1" xmlns="http://www.w3.org/2000/svg" xmlns:xlink="http://www.w3.org/1999/xlink" x="0px" y="0px"
	 viewBox="0 0 24 24" style="enable-background:new 0 0 24 24;" xml:space="preserve">
<g transform="translate(0, 0)">
	<g>
		<path d="M22,24H2c-0.6,0-1-0.4-1-1V1c0-0.6,0.4-1,1-1h20c0.6,0,1,0.4,1,1v22C23,23.6,22.6,24,22,24z M3,22h18V2H3V22z"/>
	</g>
	<g>
		<path d="M10,17c-0.2,0-0.3,0-0.5-0.1C9.2,16.7,9,16.4,9,16V8c0-0.4,0.2-0.7,0.5-0.9c0.3-0.2,0.7-0.2,1,0l6,4
			c0.3,0.2,0.4,0.5,0.4,0.8s-0.2,0.6-0.4,0.8l-6,4C10.4,16.9,10.2,17,10,17z M11,9.9v4.3l3.2-2.1L11,9.9z"/>
	</g>
</g>
</svg>
