<svg xmlns="http://www.w3.org/2000/svg" width="32" height="32" viewBox="0 0 32 32">
    <path d="M18.868 1.335c-.4-.4-.932-.6-1.532-.6H8.268C6.2.735 4.6 2.403 4.6 4.535v20.6c0 2.068 1.6 3.8 3.532 3.8h12.932c1.932 0 3.6-1.668 3.6-3.6V8.003c0-.532-.268-1.068-.668-1.532l-5.128-5.136zm3.6 5.532h-3.332c-.468 0-.932-.268-.932-.732V2.603l4.264 4.264zm-1.4 20.668H8.132c-1.2 0-2.2-1.068-2.2-2.4v-20.6c0-1.332 1-2.468 2.332-2.468H16.8v4.068c0 1.132 1.068 2.068 2.332 2.068h4.132v17.068c.004 1.196-1.064 2.264-2.196 2.264zm3.532 3.732H11.668c-.732 0-1.4-.4-1.868-1.068-.2-.332-.6-.4-.932-.2s-.4.6-.2.932a3.518 3.518 0 0 0 3 1.668H24.6c1.932 0 3.532-1.668 3.532-3.6V11.667c0-.532-.268-1.132-.668-1.532l-.6-.468a.64.64 0 0 0-.932 0 .64.64 0 0 0 0 .932l.532.532c.132.132.268.4.268.532v17.332c0 1.272-1 2.272-2.132 2.272zm-17.068-11.3v-5.168h1.096v4.264h2.096v.904H7.532zm8.78-2.592c0 .856-.212 1.512-.636 1.972s-1.032.688-1.824.688-1.4-.228-1.824-.688c-.424-.46-.636-1.12-.636-1.98s.212-1.516.64-1.972c.424-.452 1.036-.68 1.828-.68s1.4.228 1.824.684c.416.46.628 1.116.628 1.976zm-3.772 0c0 .576.108 1.012.328 1.304s.548.44.984.44c.876 0 1.312-.58 1.312-1.744s-.436-1.748-1.304-1.748c-.436 0-.764.148-.988.44-.22.296-.332.732-.332 1.308zm6.804-.312h2.052v2.68a5.808 5.808 0 0 1-.94.228 6.035 6.035 0 0 1-.9.064c-.78 0-1.376-.228-1.788-.688s-.616-1.116-.616-1.976c0-.836.24-1.484.716-1.952s1.14-.7 1.984-.7c.532 0 1.04.108 1.536.32l-.364.876a2.6 2.6 0 0 0-1.176-.284c-.472 0-.852.16-1.14.476-.284.32-.428.744-.428 1.284 0 .56.116.988.344 1.284s.564.444 1.004.444c.228 0 .46-.024.696-.072v-1.08h-.98v-.904z"/>
</svg>
