<?xml version="1.0" encoding="utf-8"?>
<!-- Generated by IcoMoon.io -->
<!DOCTYPE svg PUBLIC "-//W3C//DTD SVG 1.1//EN" "http://www.w3.org/Graphics/SVG/1.1/DTD/svg11.dtd">
<svg version="1.1" xmlns="http://www.w3.org/2000/svg" xmlns:xlink="http://www.w3.org/1999/xlink" width="32" height="32" viewBox="0 0 32 32">
<path d="M18.667 1.271c-0.391-0.409-0.924-0.604-1.529-0.604h-9.067c-2.062 0-3.662 1.671-3.662 3.804v20.604c0 2.062 1.6 3.804 3.538 3.804h12.942c1.938 0 3.609-1.671 3.609-3.609v-17.333c0-0.533-0.267-1.067-0.676-1.529l-5.156-5.138zM22.276 6.8h-3.342c-0.462 0-0.942-0.267-0.942-0.729v-3.538l4.284 4.267zM20.871 27.476h-12.942c-1.209 0-2.204-1.067-2.204-2.4v-20.604c0-1.333 0.996-2.471 2.329-2.471h8.533v4.071c0 1.138 1.067 2.062 2.329 2.062h4.142v17.067c0.018 1.209-1.049 2.276-2.187 2.276zM24.409 31.209h-12.942c-0.729 0-1.404-0.409-1.867-1.067-0.196-0.338-0.604-0.391-0.942-0.196s-0.409 0.604-0.196 0.942c0.676 1.067 1.796 1.671 3.004 1.671h12.942c1.938 0 3.538-1.671 3.538-3.609v-17.351c0-0.533-0.267-1.138-0.676-1.529l-0.604-0.462c-0.267-0.267-0.676-0.267-0.942 0s-0.267 0.676 0 0.924l0.533 0.533c0.142 0.142 0.267 0.409 0.267 0.533v17.333c0.018 1.262-0.996 2.276-2.116 2.276zM12.942 14.196l-0.569-0.569-4.089 4.124 4.089 4.107 0.569-0.569-3.538-3.538zM15.36 14.196l3.52 3.556-3.52 3.538 0.551 0.569 4.107-4.107-4.107-4.124z"></path>
</svg>
