<?xml version="1.0" encoding="utf-8"?>
<!-- Generator: Adobe Illustrator 21.0.2, SVG Export Plug-In . SVG Version: 6.00 Build 0)  -->
<svg version="1.1" id="Layer_1" xmlns="http://www.w3.org/2000/svg" xmlns:xlink="http://www.w3.org/1999/xlink" x="0px" y="0px"
	 viewBox="0 0 24 24" style="enable-background:new 0 0 24 24;" xml:space="preserve">
<g transform="translate(0, 0)">
	<g>
		<path d="M22,24H2c-0.6,0-1-0.4-1-1V1c0-0.6,0.4-1,1-1h20c0.6,0,1,0.4,1,1v22C23,23.6,22.6,24,22,24z M3,22h18V2H3V22z"/>
	</g>
	<g>
		<path d="M9,16c-0.3,0-0.5-0.1-0.7-0.3l-3-3c-0.4-0.4-0.4-1,0-1.4l3-3c0.4-0.4,1-0.4,1.4,0c0.4,0.4,0.4,1,0,1.4L7.4,12l2.3,2.3
			c0.4,0.4,0.4,1,0,1.4C9.5,15.9,9.3,16,9,16z"/>
	</g>
	<g>
		<path d="M15,16c-0.3,0-0.5-0.1-0.7-0.3c-0.4-0.4-0.4-1,0-1.4l2.3-2.3l-2.3-2.3c-0.4-0.4-0.4-1,0-1.4s1-0.4,1.4,0l3,3
			c0.4,0.4,0.4,1,0,1.4l-3,3C15.5,15.9,15.3,16,15,16z"/>
	</g>
</g>
</svg>
