<?xml version="1.0" encoding="utf-8"?>
<!-- Generated by IcoMoon.io -->
<!DOCTYPE svg PUBLIC "-//W3C//DTD SVG 1.1//EN" "http://www.w3.org/Graphics/SVG/1.1/DTD/svg11.dtd">
<svg version="1.1" xmlns="http://www.w3.org/2000/svg" xmlns:xlink="http://www.w3.org/1999/xlink" width="32" height="32" viewBox="0 0 32 32">
<path d="M18.667 1.267c-0.4-0.4-0.933-0.6-1.533-0.6h-9.067c-2.067 0-3.667 1.667-3.667 3.8v20.6c0 2.067 1.6 3.8 3.533 3.8h12.933c1.933 0 3.6-1.667 3.6-3.6v-17.333c0-0.533-0.267-1.067-0.667-1.533l-5.133-5.133zM22.267 6.8h-3.333c-0.467 0-0.933-0.267-0.933-0.733v-3.533l4.267 4.267zM20.867 27.467h-12.933c-1.2 0-2.2-1.067-2.2-2.4v-20.6c0-1.333 1-2.467 2.333-2.467h8.533v4.067c0 1.133 1.067 2.067 2.333 2.067h4.133v17.067c0 1.2-1.067 2.267-2.2 2.267zM24.4 31.2h-12.933c-0.733 0-1.4-0.4-1.867-1.067-0.2-0.333-0.6-0.4-0.933-0.2s-0.4 0.6-0.2 0.933c0.667 1.067 1.8 1.667 3 1.667h12.933c1.933 0 3.533-1.667 3.533-3.6v-17.333c0-0.533-0.267-1.133-0.667-1.533l-0.6-0.467c-0.267-0.267-0.667-0.267-0.933 0s-0.267 0.667 0 0.933l0.533 0.533c0.133 0.133 0.267 0.4 0.267 0.533v17.333c0 1.267-1 2.267-2.133 2.267zM18.467 17.2c-0.2-0.333-0.533-0.467-1.133-0.467-0.333 0-0.667 0-1.067 0.133-0.533-0.6-1.133-1.467-1.6-2.333 0.467-1.933 0.133-2.333 0-2.533s-0.333-0.267-0.6-0.267c-0.133 0-0.2 0-0.267 0.067-0.267 0.067-0.467 0.267-0.533 0.533-0.2 0.467-0.067 1.267 0.4 2.333-0.267 1.133-0.733 2.4-1.2 3.467-1.333 0.6-2 1.2-2.067 1.867 0 0.2 0 0.6 0.467 0.933 0.133 0.133 0.267 0.133 0.467 0.133 0.333 0 0.733-0.267 1.133-0.8 0.267-0.333 0.533-0.8 0.8-1.4 0.867-0.333 1.867-0.667 2.733-0.867 0.533 0.533 1.067 0.733 1.467 0.733 0.333 0 0.667-0.2 0.867-0.467 0.267-0.533 0.267-0.867 0.133-1.067zM11.267 20.2c-0.133-0.133-0.133-0.2-0.133-0.2 0-0.2 0.333-0.533 1-0.933-0.533 1-0.8 1.133-0.867 1.133zM13.933 12.533c0-0.067 0.067-0.067 0.067-0.067s0 0 0 0c0.067 0.067 0.133 0.4 0 1.133-0.067-0.467-0.133-0.867-0.067-1.067zM13.333 17.867c0.333-0.8 0.667-1.733 0.867-2.533 0.4 0.667 0.867 1.333 1.267 1.867-0.667 0.133-1.4 0.4-2.133 0.667zM17.667 17.667c-0.133 0.133-0.2 0.133-0.267 0.133-0.2 0-0.467-0.133-0.667-0.333 0.2 0 0.467-0.067 0.6-0.067 0.333 0 0.4 0.067 0.467 0.067-0.067 0.133-0.067 0.2-0.133 0.2z"></path>
</svg>
