<!-- Generated by IcoMoon.io -->
<svg version="1.1" xmlns="http://www.w3.org/2000/svg" width="24" height="24" viewBox="0 0 24 24">
<title>file-log</title>
<path d="M18 4h-16c-0.6 0-1 0.4-1 1v18c0 0.6 0.4 1 1 1h16c0.6 0 1-0.4 1-1v-18c0-0.6-0.4-1-1-1zM17 22h-14v-16h14v16z"></path>
<path d="M22 0h-17c-0.6 0-1 0.4-1 1s0.4 1 1 1h16v19c0 0.6 0.4 1 1 1s1-0.4 1-1v-20c0-0.6-0.4-1-1-1z"></path>
<path d="M6 11h8c0.6 0 1-0.4 1-1s-0.4-1-1-1h-8c-0.6 0-1 0.4-1 1s0.4 1 1 1z"></path>
<path d="M6 15h8c0.6 0 1-0.4 1-1s-0.4-1-1-1h-8c-0.6 0-1 0.4-1 1s0.4 1 1 1z"></path>
<path d="M6 19h4c0.6 0 1-0.4 1-1s-0.4-1-1-1h-4c-0.6 0-1 0.4-1 1s0.4 1 1 1z"></path>
</svg>
