<?xml version="1.0" encoding="utf-8"?>
<!-- Generator: Adobe Illustrator 21.0.2, SVG Export Plug-In . SVG Version: 6.00 Build 0)  -->
<svg version="1.1" id="Layer_1" xmlns="http://www.w3.org/2000/svg" xmlns:xlink="http://www.w3.org/1999/xlink" x="0px" y="0px"
	 viewBox="0 0 24 24" style="enable-background:new 0 0 24 24;" xml:space="preserve">
<g transform="translate(0, 0)">
	<g>
		<polygon points="16,1 16,7 22,7 		"/>
	</g>
	<g>
		<path d="M22,8h-6c-0.6,0-1-0.4-1-1V1c0-0.6,0.4-1,1-1s1,0.4,1,1v5h5c0.6,0,1,0.4,1,1S22.6,8,22,8z"/>
	</g>
	<g>
		<path d="M22,24H2c-0.6,0-1-0.4-1-1V1c0-0.6,0.4-1,1-1h14c0.3,0,0.5,0.1,0.7,0.3l6,6C22.9,6.5,23,6.7,23,7v16
			C23,23.6,22.6,24,22,24z M3,22h18V7.4L15.6,2H3V22z"/>
	</g>
</g>
</svg>
