<svg xmlns="http://www.w3.org/2000/svg" width="32" height="32" viewBox="0 0 32 32">
    <path d="M18.667 1.271c-.391-.409-.924-.604-1.529-.604H8.071c-2.062 0-3.662 1.671-3.662 3.804v20.604c0 2.062 1.6 3.804 3.538 3.804h12.942c1.938 0 3.609-1.671 3.609-3.609V7.937c0-.533-.267-1.067-.676-1.529L18.666 1.27zM22.276 6.8h-3.342c-.462 0-.942-.267-.942-.729V2.533L22.276 6.8zm-1.405 20.676H7.929c-1.209 0-2.204-1.067-2.204-2.4V4.472c0-1.333.996-2.471 2.329-2.471h8.533v4.071c0 1.138 1.067 2.062 2.329 2.062h4.142v17.067c.018 1.209-1.049 2.276-2.187 2.276zm3.538 3.733H11.467c-.729 0-1.404-.409-1.867-1.067-.196-.338-.604-.391-.942-.196s-.409.604-.196.942a3.53 3.53 0 0 0 3.004 1.671h12.942c1.938 0 3.538-1.671 3.538-3.609V11.599c0-.533-.267-1.138-.676-1.529l-.604-.462c-.267-.267-.676-.267-.942 0s-.267.676 0 .924l.533.533c.142.142.267.409.267.533v17.333c.018 1.262-.996 2.276-2.116 2.276zM12.942 14.196l-.569-.569-4.089 4.124 4.089 4.107.569-.569-3.538-3.538zm2.418 0l3.52 3.556-3.52 3.538.551.569 4.107-4.107-4.107-4.124z"/>
</svg>
