<svg xmlns="http://www.w3.org/2000/svg" width="32" height="32" viewBox="0 0 32 32">
    <path d="M18.756 32.613a2.003 2.003 0 0 1-1.44-.604l-5.564-5.564a1.993 1.993 0 0 1-.604-1.422V14.676L.606 4.116c-.64-.604-.8-1.387-.462-2.222C.5 1.094 1.157.667 2.011.667h27.911c.853 0 1.511.427 1.849 1.227.356.836.196 1.618-.444 2.222l-10.56 10.56v15.929c0 .853-.427 1.511-1.227 1.849l-.018.018a2.32 2.32 0 0 1-.764.142zM2.009 1.911c-.356 0-.569.142-.711.48-.16.409-.053.622.16.818L12.409 14.16v10.862c0 .213.071.373.231.533l5.582 5.582c.16.16.32.231.533.231a.678.678 0 0 0 .302-.071c.338-.142.462-.356.462-.711V14.159L30.47 3.208c.213-.196.32-.427.16-.836-.142-.32-.356-.462-.711-.462H2.008z"/>
</svg>
