<?xml version="1.0" encoding="utf-8"?>
<!-- Generator: Adobe Illustrator 21.0.2, SVG Export Plug-In . SVG Version: 6.00 Build 0)  -->
<svg version="1.1" id="Layer_1" xmlns="http://www.w3.org/2000/svg" xmlns:xlink="http://www.w3.org/1999/xlink" x="0px" y="0px"
	 viewBox="0 0 24 24" style="enable-background:new 0 0 24 24;" xml:space="preserve">
<g transform="translate(0, 0)">
	<g>
		<path d="M10,23c-0.2,0-0.4,0-0.5-0.1C9.2,22.7,9,22.3,9,22V11.5L2.3,5.8C2.1,5.6,2,5.3,2,5V1c0-0.6,0.4-1,1-1h18c0.6,0,1,0.4,1,1
			v4c0,0.3-0.1,0.6-0.3,0.8L15,11.5V20c0,0.4-0.2,0.7-0.6,0.9l-4,2C10.3,23,10.2,23,10,23z M4,4.5l6.7,5.7c0.2,0.2,0.3,0.5,0.3,0.8
			v9.4l2-1V11c0-0.3,0.1-0.6,0.3-0.8L20,4.5V2H4V4.5z M21,5L21,5L21,5z"/>
	</g>
</g>
</svg>
