<?xml version="1.0" encoding="utf-8"?>
<!-- Generated by IcoMoon.io -->
<!DOCTYPE svg PUBLIC "-//W3C//DTD SVG 1.1//EN" "http://www.w3.org/Graphics/SVG/1.1/DTD/svg11.dtd">
<svg version="1.1" xmlns="http://www.w3.org/2000/svg" xmlns:xlink="http://www.w3.org/1999/xlink" width="32" height="32" viewBox="0 0 32 32">
<path d="M1.333 8.133h29.267c0.533 0 0.933-0.4 0.933-0.933s-0.4-0.933-0.933-0.933h-29.267c-0.533 0-0.933 0.4-0.933 0.933s0.4 0.933 0.933 0.933zM1.333 17.533h22.667c0.533 0 0.933-0.4 0.933-0.933s-0.4-0.933-0.933-0.933h-22.667c-0.533 0-0.933 0.4-0.933 0.933s0.4 0.933 0.933 0.933zM1.333 27h16.133c0.533 0 0.933-0.4 0.933-0.933s-0.4-0.933-0.933-0.933h-16.133c-0.533 0-0.933 0.4-0.933 0.933s0.4 0.933 0.933 0.933z"></path>
</svg>
