<svg xmlns="http://www.w3.org/2000/svg" width="32" height="32" viewBox="0 0 32 32">
    <path d="M31.467 12.467c-.4-.533-1.067-.8-1.733-.8h-2.8V8.6c0-1.2-.933-2.133-2.133-2.133h-9.667c-.4 0-1.067-.267-1.333-.667l-.8-1.067c-.533-.8-1.733-1.333-2.667-1.333h-3.4c-1.067 0-2.133.8-2.533 1.733l-.133.667c-.133.4-.533.667-.933.667h-1C1.268 6.467.202 7.4.202 8.6V28c0 .4.133.8.4 1.067.4.533 1.067.8 1.867.8h21.533c1.333 0 2.667-.933 3.067-2.267l4.6-13.333c.2-.533.2-1.333-.2-1.8zM2.333 8.2h1c1.067 0 2.133-.8 2.533-1.733l.267-.667c.133-.267.533-.667.933-.667h3.4c.4 0 1.067.267 1.333.667l.8 1.067c.533.8 1.733 1.333 2.667 1.333h9.8c.267 0 .4.133.4.4v3.067H8.133c-1.333 0-2.667.933-3.067 2.267l-3.133 8.933V8.6c0-.267.267-.4.4-.4zm27.734 5.533l-4.6 13.333c-.133.533-.933 1.067-1.467 1.067H2.467c-.133 0-.267 0-.4-.133v-.4l4.6-13.333C6.8 13.734 7.6 13.2 8.134 13.2h21.533c.133 0 .267 0 .4.133s.133.267 0 .4z"/>
</svg>
