<!-- Generated by IcoMoon.io -->
<svg version="1.1" xmlns="http://www.w3.org/2000/svg" width="24" height="24" viewBox="0 0 24 24">
<path d="M23.8 8.4c-0.2-0.3-0.5-0.4-0.8-0.4h-17c-0.5 0-0.9 0.3-1 0.8l-3 13c0 0.3 0 0.6 0.2 0.8 0.2 0.3 0.5 0.4 0.8 0.4h17c0.5 0 0.9-0.3 1-0.8l3-13c0-0.3 0-0.6-0.2-0.8zM19.2 21h-14.9l2.5-11h14.9l-2.5 11z"></path>
<path d="M2 3h5.5l1.7 2.6c0.2 0.2 0.5 0.4 0.8 0.4h9c0.6 0 1-0.4 1-1s-0.4-1-1-1h-8.5l-1.7-2.6c-0.2-0.2-0.5-0.4-0.8-0.4h-7c-0.6 0-1 0.4-1 1v16c0 0.6 0.4 1 1 1s1-0.4 1-1v-15z"></path>
</svg>
