<?xml version="1.0" encoding="utf-8"?>
<!-- Generator: Adobe Illustrator 21.0.2, SVG Export Plug-In . SVG Version: 6.00 Build 0)  -->
<svg version="1.1" id="Layer_1" xmlns="http://www.w3.org/2000/svg" xmlns:xlink="http://www.w3.org/1999/xlink" x="0px" y="0px"
	 viewBox="0 0 24 24" style="enable-background:new 0 0 24 24;" xml:space="preserve">
<g transform="translate(0, 0)">
	<g>
		<path d="M20,23H3c-0.3,0-0.6-0.1-0.8-0.4C2,22.4,2,22.1,2,21.8l3-13C5.1,8.3,5.5,8,6,8h17c0.3,0,0.6,0.1,0.8,0.4
			C24,8.6,24,8.9,24,9.2l-3,13C20.9,22.7,20.5,23,20,23z M4.3,21h14.9l2.5-11H6.8L4.3,21z"/>
	</g>
	<g>
		<path d="M1,19c-0.6,0-1-0.4-1-1V2c0-0.6,0.4-1,1-1h7c0.3,0,0.6,0.2,0.8,0.4L10.5,4H19c0.6,0,1,0.4,1,1s-0.4,1-1,1h-9
			C9.7,6,9.4,5.8,9.2,5.6L7.5,3H2v15C2,18.6,1.6,19,1,19z"/>
	</g>
</g>
</svg>
