<?xml version="1.0" encoding="utf-8"?>
<!-- Generated by IcoMoon.io -->
<!DOCTYPE svg PUBLIC "-//W3C//DTD SVG 1.1//EN" "http://www.w3.org/Graphics/SVG/1.1/DTD/svg11.dtd">
<svg version="1.1" xmlns="http://www.w3.org/2000/svg" xmlns:xlink="http://www.w3.org/1999/xlink" width="32" height="32" viewBox="0 0 32 32">
<path d="M31.467 12.467c-0.4-0.533-1.067-0.8-1.733-0.8h-2.8v-3.067c0-1.2-0.933-2.133-2.133-2.133h-9.667c-0.4 0-1.067-0.267-1.333-0.667l-0.8-1.067c-0.533-0.8-1.733-1.333-2.667-1.333h-3.4c-1.067 0-2.133 0.8-2.533 1.733l-0.133 0.667c-0.133 0.4-0.533 0.667-0.933 0.667h-1c-1.067 0-2.133 0.933-2.133 2.133v19.133c0 0.133 0 0.133 0 0.267 0 0.4 0.133 0.8 0.4 1.067 0.4 0.533 1.067 0.8 1.867 0.8h21.533c1.333 0 2.667-0.933 3.067-2.267l4.6-13.333c0.2-0.533 0.2-1.333-0.2-1.8zM2.333 8.2h1c1.067 0 2.133-0.8 2.533-1.733l0.267-0.667c0.133-0.267 0.533-0.667 0.933-0.667h3.4c0.4 0 1.067 0.267 1.333 0.667l0.8 1.067c0.533 0.8 1.733 1.333 2.667 1.333h9.8c0.267 0 0.4 0.133 0.4 0.4v3.067h-17.333c-1.333 0-2.667 0.933-3.067 2.267l-3.133 8.933v-14.267c0-0.267 0.267-0.4 0.4-0.4zM30.067 13.733l-4.6 13.333c-0.133 0.533-0.933 1.067-1.467 1.067h-21.533c-0.133 0-0.267 0-0.4-0.133 0-0.133 0-0.267 0-0.4l4.6-13.333c0.133-0.533 0.933-1.067 1.467-1.067h21.533c0.133 0 0.267 0 0.4 0.133s0.133 0.267 0 0.4z"></path>
</svg>
