<!-- Generated by IcoMoon.io -->
<svg version="1.1" xmlns="http://www.w3.org/2000/svg" width="24" height="24" viewBox="0 0 24 24">
<path d="M22.7 11.2l-10-8c-0.3-0.2-0.8-0.3-1.1-0.1-0.4 0.2-0.6 0.5-0.6 0.9v6.7l-9.4-7.5c-0.3-0.2-0.7-0.3-1-0.1-0.4 0.2-0.6 0.5-0.6 0.9v16c0 0.4 0.2 0.7 0.6 0.9 0.1 0.1 0.3 0.1 0.4 0.1 0.2 0 0.4-0.1 0.6-0.2l9.4-7.5v6.7c0 0.4 0.2 0.7 0.6 0.9 0.1 0.1 0.3 0.1 0.4 0.1 0.2 0 0.4-0.1 0.7-0.2l10-8c0.3-0.2 0.4-0.5 0.4-0.8s-0.2-0.6-0.4-0.8zM2 17.9v-11.8l7.4 5.9-7.4 5.9zM13 17.9v-11.8l7.4 5.9-7.4 5.9z"></path>
</svg>
