<!-- Generated by IcoMoon.io -->
<svg version="1.1" xmlns="http://www.w3.org/2000/svg" width="24" height="24" viewBox="0 0 24 24">
<title>forward-full</title>
<path d="M12.625 3.219c-0.301-0.241-0.712-0.288-1.058-0.12-0.347 0.167-0.567 0.516-0.567 0.901v6.719l-9.375-7.5c-0.301-0.241-0.713-0.288-1.058-0.12-0.347 0.167-0.567 0.516-0.567 0.901v16c0 0.385 0.22 0.734 0.567 0.901 0.138 0.067 0.286 0.099 0.433 0.099 0.223 0 0.444-0.074 0.625-0.219l9.375-7.5v6.719c0 0.385 0.22 0.734 0.567 0.901 0.138 0.067 0.286 0.099 0.433 0.099 0.223 0 0.444-0.074 0.625-0.219l10-8c0.237-0.19 0.375-0.477 0.375-0.781s-0.138-0.591-0.375-0.781l-10-8z"></path>
</svg>
