<svg xmlns="http://www.w3.org/2000/svg" width="32" height="32" viewBox="0 0 32 32">
    <path d="M16 10.6c-3.533 0-6.4 2.867-6.4 6.4s2.867 6.333 6.4 6.333c3.533 0 6.4-2.867 6.4-6.4S19.533 10.6 16 10.6zm0 11.333c-2.733 0-5-2.2-5-5S13.267 12 16 12s5 2.2 5 5-2.267 4.933-5 4.933zm15.467-2.266l-2.4-1.4v-3.133l2.4-1.4c.267-.133.4-.467.333-.8-.4-1.8-1.067-3.533-2-5-.133-.267-.467-.4-.8-.333l-2.667.733-2.2-2.2.733-2.667c.067-.333-.067-.6-.333-.8-1.6-.933-3.267-1.667-5-2A.67.67 0 0 0 18.8 1l-1 1.733h-3.133L13.6.933A.669.669 0 0 0 12.867.6C10.867 1 9 1.733 7.334 2.867c-.267.133-.4.467-.333.8l.533 2-2.2 2.2-2-.533c-.4 0-.667.067-.867.333-1.067 1.6-1.8 3.4-2.267 5.4-.067.333.133.6.4.8l1.933 1.067v3.067l-2 1.133c-.267.133-.467.467-.4.733.4 1.867 1.067 3.667 2.067 5.333.133.267.467.4.8.333l2.067-.6 2.2 2.2-.6 2.267c-.067.267.067.6.267.8 1.667 1.133 3.4 1.933 5.2 2.333.333.067.6-.067.8-.333l1.2-2h3.133l1.267 2.133c.133.2.333.333.6.333h.133c1.933-.4 3.733-1.067 5.2-2 .267-.133.4-.467.333-.8l-.6-2.467 2.2-2.2 2.533.667a.67.67 0 0 0 .733-.333c.933-1.4 1.6-3.067 2.067-5.067.2-.333.067-.6-.267-.8zm-2.6 4.666l-2.467-.6c-.267-.067-.467 0-.667.2L23 26.666c-.2.2-.267.4-.2.667l.6 2.333c-1.133.6-2.4 1.133-3.8 1.4l-1.2-2.067c-.133-.2-.333-.333-.6-.4h-3.933c-.267 0-.467.133-.6.4l-1.133 1.933c-1.333-.4-2.6-.933-3.867-1.733l.6-2.133c.067-.267 0-.533-.2-.667l-2.8-2.8c-.2-.2-.467-.267-.667-.2l-2 .533c-.733-1.267-1.2-2.533-1.533-3.933L3.6 18.932c.2-.133.4-.333.4-.6v-3.933c0-.267-.2-.467-.4-.6l-1.8-1c.4-1.467.933-2.8 1.667-4l1.867.6c.267.067.467 0 .667-.2l2.8-2.8c.2-.2.267-.467.2-.667l-.467-1.867c1.267-.8 2.667-1.333 4.133-1.667l1 1.733c.133.2.333.333.6.333H18.2a.699.699 0 0 0 .6-.333l1-1.667c1.267.333 2.467.8 3.6 1.467l-.667 2.533c-.067.267 0 .533.2.667l2.8 2.8c.2.2.467.267.667.2l2.533-.667a15.71 15.71 0 0 1 1.467 3.6l-2.267 1.333a.699.699 0 0 0-.333.6v3.933c0 .267.133.467.333.6l2.267 1.333c-.467 1.4-.933 2.6-1.533 3.667z"/>
</svg>
