<?xml version="1.0" encoding="utf-8"?>
<!-- Generator: Adobe Illustrator 21.0.2, SVG Export Plug-In . SVG Version: 6.00 Build 0)  -->
<svg version="1.1" id="Layer_1" xmlns="http://www.w3.org/2000/svg" xmlns:xlink="http://www.w3.org/1999/xlink" x="0px" y="0px"
	 viewBox="0 0 24 24" style="enable-background:new 0 0 24 24;" xml:space="preserve">
<g transform="translate(0, 0)">
	<g>
		<path d="M14,24h-4c-0.6,0-1-0.4-1-1v-2.5c-0.3-0.1-0.6-0.2-0.9-0.4l-1.8,1.8c-0.4,0.4-1,0.4-1.4,0l-2.8-2.8c-0.4-0.4-0.4-1,0-1.4
			l1.8-1.8c-0.1-0.3-0.3-0.6-0.4-0.9H1c-0.6,0-1-0.4-1-1v-4c0-0.6,0.4-1,1-1h2.5c0.1-0.3,0.2-0.6,0.4-0.9L2.1,6.3
			c-0.4-0.4-0.4-1,0-1.4l2.8-2.8c0.4-0.4,1-0.4,1.4,0l1.8,1.8C8.4,3.7,8.7,3.6,9,3.5V1c0-0.6,0.4-1,1-1h4c0.6,0,1,0.4,1,1v2.5
			c0.3,0.1,0.6,0.2,0.9,0.4l1.8-1.8c0.4-0.4,1-0.4,1.4,0l2.8,2.8c0.2,0.2,0.3,0.4,0.3,0.7s-0.1,0.5-0.3,0.7l-1.8,1.8
			c0.1,0.3,0.3,0.6,0.4,0.9H23c0.6,0,1,0.4,1,1v4c0,0.6-0.4,1-1,1h-2.5c-0.1,0.3-0.2,0.6-0.4,0.9l1.8,1.8c0.4,0.4,0.4,1,0,1.4
			l-2.8,2.8c-0.4,0.4-1,0.4-1.4,0l-1.8-1.8c-0.3,0.1-0.6,0.3-0.9,0.4V23C15,23.6,14.6,24,14,24z M11,22h2v-2.3c0-0.5,0.3-0.9,0.8-1
			c0.6-0.2,1.2-0.4,1.8-0.7c0.4-0.2,0.9-0.2,1.2,0.2l1.6,1.6l1.4-1.4l-1.6-1.6c-0.3-0.3-0.4-0.8-0.2-1.2c0.3-0.6,0.6-1.2,0.7-1.8
			c0.1-0.4,0.5-0.8,1-0.8H22v-2h-2.3c-0.5,0-0.9-0.3-1-0.7C18.6,9.6,18.4,9,18,8.4c-0.2-0.4-0.2-0.9,0.2-1.2l1.6-1.6l-1.4-1.4
			l-1.6,1.6C16.5,6.1,16,6.2,15.6,6c-0.6-0.3-1.2-0.6-1.8-0.7c-0.4-0.1-0.8-0.5-0.8-1V2h-2v2.3c0,0.5-0.3,0.9-0.8,1
			C9.6,5.4,9,5.6,8.4,6C8.1,6.2,7.6,6.1,7.2,5.8L5.6,4.2L4.2,5.6l1.6,1.6C6.1,7.6,6.2,8.1,6,8.4C5.6,9,5.4,9.6,5.2,10.2
			c-0.1,0.4-0.5,0.8-1,0.8H2v2h2.3c0.5,0,0.9,0.3,1,0.8C5.4,14.4,5.6,15,6,15.5c0.2,0.4,0.2,0.9-0.2,1.2l-1.6,1.6l1.4,1.4l1.6-1.6
			c0.3-0.3,0.8-0.4,1.2-0.2c0.6,0.3,1.2,0.6,1.8,0.7c0.4,0.1,0.7,0.5,0.7,1L11,22L11,22z"/>
	</g>
	<g>
		<path d="M12,16c-2.2,0-4-1.8-4-4s1.8-4,4-4s4,1.8,4,4S14.2,16,12,16z M12,10c-1.1,0-2,0.9-2,2s0.9,2,2,2s2-0.9,2-2S13.1,10,12,10z
			"/>
	</g>
</g>
</svg>
