<?xml version="1.0" encoding="utf-8"?>
<!-- Generator: Adobe Illustrator 21.0.2, SVG Export Plug-In . SVG Version: 6.00 Build 0)  -->
<svg version="1.1" id="Layer_1" xmlns="http://www.w3.org/2000/svg" xmlns:xlink="http://www.w3.org/1999/xlink" x="0px" y="0px"
	 viewBox="0 0 24 24" style="enable-background:new 0 0 24 24;" xml:space="preserve">
<g transform="translate(0, 0)">
	<g>
		<path d="M7,18c-3.9,0-7-3.1-7-7s3.1-7,7-7s7,3.1,7,7S10.9,18,7,18z M7,6c-2.8,0-5,2.2-5,5s2.2,5,5,5s5-2.2,5-5S9.8,6,7,6z"/>
	</g>
	<g>
		<path d="M7,24c-0.6,0-1-0.4-1-1v-6c0-0.6,0.4-1,1-1s1,0.4,1,1v6C8,23.6,7.6,24,7,24z"/>
	</g>
	<g>
		<path d="M9,22H5c-0.6,0-1-0.4-1-1s0.4-1,1-1h4c0.6,0,1,0.4,1,1S9.6,22,9,22z"/>
	</g>
	<g>
		<path d="M18.2,7.8c-0.3,0-0.5-0.1-0.7-0.3c-0.4-0.4-0.4-1,0-1.4l4.8-4.8c0.4-0.4,1-0.4,1.4,0s0.4,1,0,1.4l-4.8,4.8
			C18.7,7.7,18.5,7.8,18.2,7.8z"/>
	</g>
	<g>
		<path d="M14,18c-3.9,0-7-3.1-7-7s3.1-7,7-7s7,3.1,7,7S17.9,18,14,18z M14,6c-2.8,0-5,2.2-5,5s2.2,5,5,5s5-2.2,5-5S16.8,6,14,6z"/>
	</g>
	<g>
		<path d="M23,7c-0.6,0-1-0.4-1-1V3h-3c-0.6,0-1-0.4-1-1s0.4-1,1-1h4c0.6,0,1,0.4,1,1v4C24,6.6,23.6,7,23,7z"/>
	</g>
</g>
</svg>
