<!-- Generated by IcoMoon.io -->
<svg version="1.1" xmlns="http://www.w3.org/2000/svg" width="24" height="24" viewBox="0 0 24 24">
<path d="M23 1h-4c-0.6 0-1 0.4-1 1s0.4 1 1 1h1.6l-2.4 2.4c-1.2-0.9-2.6-1.4-4.2-1.4-1.3 0-2.5 0.3-3.5 0.9-1-0.6-2.2-0.9-3.5-0.9-3.9 0-7 3.1-7 7 0 3.6 2.6 6.4 6 6.9v2.1h-1c-0.6 0-1 0.4-1 1s0.4 1 1 1h1v1c0 0.6 0.4 1 1 1s1-0.4 1-1v-1h1c0.6 0 1-0.4 1-1s-0.4-1-1-1h-1v-2.1c0.9-0.1 1.7-0.4 2.5-0.8 1 0.6 2.2 0.9 3.5 0.9 3.9 0 7-3.1 7-7 0-1.6-0.5-3-1.4-4.2l2.4-2.4v1.6c0 0.6 0.4 1 1 1s1-0.4 1-1v-4c0-0.6-0.4-1-1-1zM12 11c0 1.4-0.6 2.7-1.5 3.6-0.9-0.9-1.5-2.2-1.5-3.6s0.6-2.7 1.5-3.6c0.9 0.9 1.5 2.2 1.5 3.6zM2 11c0-2.8 2.2-5 5-5 0.6 0 1.2 0.1 1.8 0.3-1.1 1.3-1.8 2.9-1.8 4.7s0.7 3.4 1.8 4.7c-0.6 0.2-1.2 0.3-1.8 0.3-2.8 0-5-2.2-5-5zM14 16c-0.6 0-1.2-0.1-1.8-0.3 1.1-1.2 1.8-2.9 1.8-4.7s-0.7-3.4-1.8-4.7c0.6-0.2 1.2-0.3 1.8-0.3 1.3 0 2.5 0.5 3.4 1.3 0 0.1 0.1 0.1 0.1 0.2 0.1 0.1 0.1 0.1 0.2 0.2 0.8 0.9 1.3 2 1.3 3.3 0 2.8-2.2 5-5 5z"></path>
</svg>
