<svg xmlns="http://www.w3.org/2000/svg" width="32" height="32" viewBox="0 0 32 32">
    <path d="M31.993 1.913c0-.007 0-.013-.007-.026 0-.013-.007-.026-.007-.039 0-.007-.007-.02-.007-.026-.007-.013-.007-.026-.013-.033s-.007-.02-.013-.026c-.007-.013-.007-.02-.013-.033s-.013-.02-.013-.026-.007-.013-.007-.02-.007-.007-.007-.013-.007-.007-.007-.013c-.007-.007-.007-.013-.013-.02s-.013-.02-.02-.026l-.02-.02c-.007-.007-.013-.02-.026-.026l-.02-.02-.026-.026c-.007-.007-.013-.013-.02-.013-.013-.007-.02-.02-.033-.026-.007-.007-.013-.007-.02-.013l-.033-.02c-.007-.007-.013-.007-.02-.013-.013-.007-.02-.013-.033-.013-.007-.007-.02-.007-.026-.013-.013-.007-.02-.007-.033-.013-.007 0-.02-.007-.026-.007-.013 0-.02-.007-.033-.007h-.013L28.133.68a.653.653 0 1 0-.269 1.279l1.705.354-4.972 2.972C22.124 1.447 17.002.188 12.975 2.497l-.007.007a8.705 8.705 0 0 0-3.883 4.874 8.608 8.608 0 0 0-6.546 2.513 8.612 8.612 0 0 0-2.545 6.14c0 4.559 3.529 8.305 8.002 8.646V29.4H6.002c-.361 0-.656.295-.656.656s.295.656.656.656h1.994v1.299c0 .361.295.656.656.656s.656-.295.656-.656v-1.299h1.994c.361 0 .656-.295.656-.656s-.295-.656-.656-.656H9.308v-4.723a8.547 8.547 0 0 0 5.477-2.526 8.69 8.69 0 0 0 2.125-3.503c.144.007.295.013.439.013a8.695 8.695 0 0 0 4.329-1.161c3.843-2.23 5.326-7.045 3.542-11.067l5.175-3.096-.387 1.837a.664.664 0 0 0 .505.781.659.659 0 0 0 .781-.505l.702-3.306v-.19c0-.013 0-.026-.007-.039zM8.658 23.397c-4.047 0-7.346-3.3-7.346-7.36 0-4.054 3.292-7.36 7.346-7.36h.125a8.687 8.687 0 0 0 1.056 5.674l.007.007a8.692 8.692 0 0 0 5.273 4.008c.157.039.315.079.472.112-1.017 2.867-3.745 4.92-6.933 4.92zm7.24-6.166c-1.987-.394-3.797-1.614-4.932-3.523a7.45 7.45 0 0 1-.899-4.894c3.417.643 5.922 3.588 5.922 7.223.007.407-.026.807-.092 1.194zm5.129-.859a7.437 7.437 0 0 1-3.817.997c.066-.433.098-.879.098-1.325a8.629 8.629 0 0 0-6.913-8.495 7.387 7.387 0 0 1 3.233-3.91c3.529-2.014 8.034-.82 10.048 2.663 2.02 3.536.826 8.056-2.65 10.07z"/>
</svg>
