<!-- Generated by IcoMoon.io -->
<svg version="1.1" xmlns="http://www.w3.org/2000/svg" width="24" height="24" viewBox="0 0 24 24">
<title>gift-full</title>
<path d="M23 4h-4.184c0.112-0.314 0.184-0.648 0.184-1 0-1.654-1.346-3-3-3-1.974 0-3.238 1.303-4 2.545-0.761-1.242-2.026-2.545-4-2.545-1.654 0-3 1.346-3 3 0 0.352 0.072 0.686 0.184 1h-4.184c-0.552 0-1 0.447-1 1v2c0 0.553 0.448 1 1 1h22c0.552 0 1-0.447 1-1v-2c0-0.553-0.448-1-1-1zM16 2c0.551 0 1 0.448 1 1s-0.449 1-1 1h-2.531c0.47-0.917 1.288-2 2.531-2zM7 3c0-0.552 0.449-1 1-1 1.243 0 2.061 1.083 2.531 2h-2.531c-0.551 0-1-0.448-1-1z"></path>
<path d="M11 10h-9v13c0 0.552 0.448 1 1 1h8v-14z"></path>
<path d="M22 10h-9v14h8c0.552 0 1-0.448 1-1v-13z"></path>
</svg>
