<!-- Generated by IcoMoon.io -->
<svg version="1.1" xmlns="http://www.w3.org/2000/svg" width="24" height="24" viewBox="0 0 24 24">
<path d="M23 4h-4.2c0.1-0.3 0.2-0.6 0.2-1 0-1.7-1.3-3-3-3-2 0-3.2 1.3-4 2.6-0.8-1.3-2-2.6-4-2.6-1.7 0-3 1.3-3 3 0 0.4 0.1 0.7 0.2 1h-4.2c-0.6 0-1 0.4-1 1v4c0 0.6 0.4 1 1 1h1v13c0 0.6 0.4 1 1 1h18c0.6 0 1-0.4 1-1v-13h1c0.6 0 1-0.4 1-1v-4c0-0.6-0.4-1-1-1zM16 2c0.6 0 1 0.4 1 1s-0.4 1-1 1h-2.5c0.4-0.9 1.3-2 2.5-2zM12 6h1v2h-2v-2h1zM7 3c0-0.6 0.4-1 1-1 1.2 0 2.1 1.1 2.5 2h-2.5c-0.6 0-1-0.4-1-1zM2 6h7v2h-7v-2zM4 10h5v12h-5v-12zM11 22v-12h2v12h-2zM20 22h-5v-12h5v12zM22 8h-7v-2h7v2z"></path>
</svg>
