<svg xmlns="http://www.w3.org/2000/svg" width="32" height="32" viewBox="0 0 32 32">
    <path d="M24.575 7.285a3.537 3.537 0 0 0 .944-2.413c0-1.956-1.563-3.519-3.456-3.519-1.438 0-4.75 2.15-6.075 4.081-1.369-1.931-4.669-4.019-6.05-4.019-1.887 0-3.456 1.563-3.456 3.519 0 .906.338 1.725.881 2.344H.688v8.406h1.825v16.294h26.981V15.69h1.819V7.284h-6.738zM22.063 2.66c1.175 0 2.15.975 2.15 2.281 0 1.1-.769 2.044-1.762 2.244h-5.287c-.337-.1-.444-.219-.444-.287 0-1.112 3.906-4.237 5.344-4.237zm-12.125 0c1.369 0 5.344 3.125 5.344 4.238 0 .1-.231.213-.4.287H9.557c-.994-.2-1.763-1.144-1.763-2.244-.006-1.244.975-2.281 2.144-2.281zm2.15 28.013H3.813V15.692h8.275v14.981zm0-16.219H1.994V8.591h10.1v5.863zM18.6 30.673h-5.213V8.586H18.6v22.087zm9.581 0h-8.275V15.692h8.275v14.981zM30 14.454H19.906V8.591h10.1v5.863z"/>
</svg>
