<?xml version="1.0" encoding="utf-8"?>
<!-- Generator: Adobe Illustrator 21.0.2, SVG Export Plug-In . SVG Version: 6.00 Build 0)  -->
<svg version="1.1" id="Layer_1" xmlns="http://www.w3.org/2000/svg" xmlns:xlink="http://www.w3.org/1999/xlink" x="0px" y="0px"
	 viewBox="0 0 24 24" style="enable-background:new 0 0 24 24;" xml:space="preserve">
<g transform="translate(0, 0)">
	<g>
		<path d="M21,24H3c-0.6,0-1-0.4-1-1V9c0-0.6,0.4-1,1-1s1,0.4,1,1v13h16V9c0-0.6,0.4-1,1-1s1,0.4,1,1v14C22,23.6,21.6,24,21,24z"/>
	</g>
	<g>
		<path d="M23,10H1c-0.6,0-1-0.4-1-1V5c0-0.6,0.4-1,1-1h22c0.6,0,1,0.4,1,1v4C24,9.6,23.6,10,23,10z M2,8h20V6H2V8z"/>
	</g>
	<g>
		<path d="M12,6H8C6.3,6,5,4.7,5,3s1.3-3,3-3c3.7,0,4.9,4.6,5,4.7c0,0.3,0,0.7-0.2,0.9C12.6,5.9,12.3,6,12,6z M8,2C7.4,2,7,2.4,7,3
			s0.4,1,1,1h2.5C10.1,3.1,9.2,2,8,2z"/>
	</g>
	<g>
		<path d="M16,6h-4c-0.3,0-0.6-0.1-0.8-0.4C11,5.4,11,5,11,4.7C11.1,4.6,12.3,0,16,0c1.7,0,3,1.3,3,3S17.7,6,16,6z M13.5,4H16
			c0.6,0,1-0.4,1-1s-0.4-1-1-1C14.8,2,13.9,3.1,13.5,4z"/>
	</g>
	<g>
		<path d="M14,24h-4c-0.6,0-1-0.4-1-1V5c0-0.6,0.4-1,1-1s1,0.4,1,1v17h2V5c0-0.6,0.4-1,1-1s1,0.4,1,1v18C15,23.6,14.6,24,14,24z"/>
	</g>
</g>
</svg>
