<?xml version="1.0" encoding="utf-8"?>
<!-- Generator: Adobe Illustrator 21.0.2, SVG Export Plug-In . SVG Version: 6.00 Build 0)  -->
<svg version="1.1" id="Layer_1" xmlns="http://www.w3.org/2000/svg" xmlns:xlink="http://www.w3.org/1999/xlink" x="0px" y="0px"
	 viewBox="0 0 24 24" style="enable-background:new 0 0 24 24;" xml:space="preserve">
<title>google-plus</title>
<path d="M15,12.2c0,1.3-0.3,2.6-0.9,3.8c-0.6,1.1-1.5,2-2.6,2.6c-1.2,0.7-2.5,1-3.8,1c-1,0-2.1-0.2-3-0.6c-1.8-0.8-3.3-2.2-4-4
	c-0.8-1.9-0.8-4.1,0-6c0.8-1.8,2.2-3.3,4.1-4c0.9-0.4,2-0.6,3-0.6c1.9,0,3.7,0.7,5.1,2l-2.1,2c-0.8-0.8-1.9-1.2-3-1.2
	c-0.8,0-1.7,0.2-2.4,0.7C3.9,8.7,2.9,10.3,2.9,12c0,1.7,0.9,3.3,2.4,4.2c0.7,0.4,1.5,0.7,2.4,0.6c0.5,0,1.1-0.1,1.6-0.2
	c0.4-0.1,0.8-0.3,1.2-0.6c0.3-0.2,0.6-0.5,0.8-0.8c0.2-0.3,0.4-0.6,0.5-0.9c0.1-0.2,0.2-0.5,0.2-0.8H7.6v-2.6h7.2
	C14.9,11.3,15,11.8,15,12.2z M24,10.9v2.2h-2.2v2.2h-2.2v-2.2h-2.2v-2.2h2.2V8.7h2.2v2.2H24z"/>
</svg>
