<svg xmlns="http://www.w3.org/2000/svg" width="37" height="32" viewBox="0 0 37 32">
    <path d="M18.706 32.667L2.737 16.703C.944 14.91 0 12.614 0 10.061c0-1.245.242-2.456.712-3.605a9.335 9.335 0 0 1 2.025-3.038C4.481 1.679 6.899.681 9.379.681s4.903.998 6.642 2.737L18.7 6.097l2.679-2.679C23.162 1.645 25.516.666 28.026.666s4.869.979 6.642 2.752l.005.005a9.48 9.48 0 0 1 2.747 6.686 9.338 9.338 0 0 1-2.752 6.647l-15.964 15.91zM9.38 1.989c-2.137 0-4.22.858-5.717 2.355s-2.355 3.58-2.355 5.717c0 2.2.814 4.176 2.355 5.717l15.043 15.043 15.038-14.99c3.139-3.139 3.139-8.294-.005-11.487-1.526-1.526-3.556-2.369-5.717-2.369s-4.191.843-5.717 2.369L18.7 7.949l-3.605-3.605a8.133 8.133 0 0 0-5.717-2.355z"/>
</svg>
