<?xml version="1.0" encoding="utf-8"?>
<!-- Generator: Adobe Illustrator 21.0.2, SVG Export Plug-In . SVG Version: 6.00 Build 0)  -->
<svg version="1.1" id="Layer_1" xmlns="http://www.w3.org/2000/svg" xmlns:xlink="http://www.w3.org/1999/xlink" x="0px" y="0px"
	 viewBox="0 0 24 24" style="enable-background:new 0 0 24 24;" xml:space="preserve">
<g transform="translate(0, 0)">
	<g>
		<path d="M12,22.5L12,22.5c-0.3,0-0.5-0.1-0.7-0.3L2.1,13c-2.7-2.7-2.7-7.2,0-9.9C4.8,0.3,9.2,0.3,12,3c0,0,0,0,0,0.1l0,0
			c2.7-2.7,7.2-2.7,9.9,0l0,0c2.7,2.7,2.7,7.2,0,9.9l-9.2,9.2C12.5,22.4,12.3,22.5,12,22.5z M7,3C5.7,3,4.4,3.5,3.5,4.5
			c-1.9,1.9-1.9,5.1,0,7.1l8.5,8.5l8.5-8.5c1.9-1.9,1.9-5.1,0-7.1l0,0c-1.9-1.9-5.1-1.9-7.1,0C13.2,4.7,13,5,12.8,5.2
			c-0.4,0.6-1.3,0.6-1.7,0C11,5,10.8,4.7,10.5,4.5C9.6,3.5,8.3,3,7,3z"/>
	</g>
</g>
</svg>
