<!-- Generated by IcoMoon.io -->
<svg version="1.1" xmlns="http://www.w3.org/2000/svg" width="24" height="24" viewBox="0 0 24 24">
<path d="M22 3.62v0 0c-1.262-1.237-2.991-2.001-4.9-2.001-0.035 0-0.070 0-0.106 0.001-1.935-0-3.696 0.762-4.998 2.003l0.003-0.003c-1.237-1.307-2.984-2.12-4.921-2.12-0.028 0-0.056 0-0.083 0-0.019-0-0.047-0-0.075-0-1.937 0-3.684 0.813-4.918 2.117-1.231 1.275-1.987 3.008-1.987 4.918s0.756 3.643 1.986 4.917l-0.002-0.002 8.46 8.39c0.388 0.375 0.917 0.606 1.5 0.606s1.112-0.231 1.501-0.606l8.539-8.349c1.239-1.274 2.003-3.015 2.003-4.935s-0.764-3.661-2.005-4.937z"></path>
</svg>
