<?xml version="1.0" encoding="utf-8"?>
<!-- Generated by IcoMoon.io -->
<!DOCTYPE svg PUBLIC "-//W3C//DTD SVG 1.1//EN" "http://www.w3.org/Graphics/SVG/1.1/DTD/svg11.dtd">
<svg version="1.1" xmlns="http://www.w3.org/2000/svg" xmlns:xlink="http://www.w3.org/1999/xlink" width="37" height="32" viewBox="0 0 37 32">
<path d="M18.706 32.667l-15.969-15.964c-1.793-1.793-2.737-4.089-2.737-6.642 0-1.245 0.242-2.456 0.712-3.605 0.475-1.143 1.153-2.166 2.025-3.038 1.744-1.739 4.162-2.737 6.642-2.737s4.903 0.998 6.642 2.737l2.679 2.679 2.679-2.679c1.783-1.773 4.137-2.752 6.647-2.752s4.869 0.979 6.642 2.752l0.005 0.005c1.773 1.802 2.747 4.176 2.747 6.686 0 2.514-0.979 4.874-2.752 6.647l-15.964 15.91zM9.38 1.989c-2.137 0-4.22 0.858-5.717 2.355s-2.355 3.58-2.355 5.717c0 2.2 0.814 4.176 2.355 5.717l15.043 15.043 15.038-14.99c3.139-3.139 3.139-8.294-0.005-11.487-1.526-1.526-3.556-2.369-5.717-2.369s-4.191 0.843-5.717 2.369l-3.605 3.605-3.605-3.605c-1.497-1.497-3.58-2.355-5.717-2.355z"></path>
</svg>
