<?xml version="1.0" encoding="utf-8"?>
<!-- Generator: Adobe Illustrator 21.0.2, SVG Export Plug-In . SVG Version: 6.00 Build 0)  -->
<svg version="1.1" id="Layer_1" xmlns="http://www.w3.org/2000/svg" xmlns:xlink="http://www.w3.org/1999/xlink" x="0px" y="0px"
	 viewBox="0 0 24 24" style="enable-background:new 0 0 24 24;" xml:space="preserve">
<g>
	<path d="M22,3.1C20.6,1.7,18.9,1,17,1s-3.6,0.7-4.9,2c0,0,0,0-0.1,0.1c0,0,0,0-0.1-0.1c-1.3-1.3-3-2-4.9-2S3.4,1.7,2,3.1S0,6.1,0,8
		s0.7,3.6,2,4.9l9.9,9.9l10-9.9c1.3-1.3,2-3.1,2-4.9C24,6.1,23.3,4.4,22,3.1z"/>
</g>
</svg>
