<!-- Generated by IcoMoon.io -->
<svg version="1.1" xmlns="http://www.w3.org/2000/svg" width="24" height="24" viewBox="0 0 24 24">
<path d="M23 1h-22c-0.6 0-1 0.4-1 1v20c0 0.6 0.4 1 1 1h22c0.6 0 1-0.4 1-1v-20c0-0.6-0.4-1-1-1zM22 3v9.9l-4.4-3.7c-0.4-0.4-1-0.3-1.4 0.1l-5.4 6.3-4.2-3.4c-0.3-0.3-0.8-0.3-1.2 0l-3.4 2.7v-11.9h20zM2 21v-3.5l4-3.2 4.3 3.4c0.4 0.4 1 0.3 1.4-0.1l5.4-6.3 4.9 4.1v5.6h-20z"></path>
<path d="M10 11c1.7 0 3-1.3 3-3s-1.3-3-3-3-3 1.3-3 3 1.3 3 3 3zM10 7c0.6 0 1 0.4 1 1s-0.4 1-1 1-1-0.4-1-1 0.4-1 1-1z"></path>
</svg>
