<?xml version="1.0" encoding="utf-8"?>
<!-- Generator: Adobe Illustrator 21.0.2, SVG Export Plug-In . SVG Version: 6.00 Build 0)  -->
<svg version="1.1" id="Layer_1" xmlns="http://www.w3.org/2000/svg" xmlns:xlink="http://www.w3.org/1999/xlink" x="0px" y="0px"
	 viewBox="0 0 24 24" style="enable-background:new 0 0 24 24;" xml:space="preserve">
<g transform="translate(0, 0)">
	<g>
		<path d="M1,18c-0.3,0-0.6-0.1-0.8-0.4c-0.3-0.4-0.3-1.1,0.2-1.4l5-4c0.4-0.3,0.9-0.3,1.2,0l4.2,3.4l5.4-6.3c0.4-0.4,1-0.5,1.4-0.1
			l6,5c0.4,0.4,0.5,1,0.1,1.4s-1,0.5-1.4,0.1l-5.2-4.4l-5.4,6.3c-0.4,0.4-1,0.5-1.4,0.1L6,14.3l-4.4,3.5C1.4,17.9,1.2,18,1,18z"/>
	</g>
	<g>
		<path d="M23,23H1c-0.6,0-1-0.4-1-1V2c0-0.6,0.4-1,1-1h22c0.6,0,1,0.4,1,1v20C24,22.6,23.6,23,23,23z M2,21h20V3H2V21z"/>
	</g>
	<g>
		<path d="M10,11c-1.7,0-3-1.3-3-3s1.3-3,3-3s3,1.3,3,3S11.7,11,10,11z M10,7C9.4,7,9,7.4,9,8s0.4,1,1,1s1-0.4,1-1S10.6,7,10,7z"/>
	</g>
</g>
</svg>
