<svg xmlns="http://www.w3.org/2000/svg" width="32" height="32" viewBox="0 0 32 32">
    <path d="M1.067 28.133h29.867c.533 0 1-.467 1-1V6.2c0-.533-.467-1-1-1H1.067c-.533 0-1 .467-1 1v20.933c0 .533.467 1 1 1zm1-2V24.6l9.933-9 5.333 5.333c.2.2.467.267.8.267s.533-.133.733-.4l2.333-3.133 8.733 7.933v.533H2.065zM29.933 7.2v15.667L21.6 15.4c-.2-.2-.467-.267-.733-.267-.267.067-.533.133-.667.4l-2.333 3.133-5.2-5.2c-.4-.4-1-.4-1.4-.067l-9.2 8.467V7.199h27.867zm-4.466 8c1.933 0 3.467-1.533 3.467-3.467s-1.533-3.467-3.467-3.467C23.534 8.266 22 9.799 22 11.733s1.533 3.467 3.467 3.467zm0-5c.867 0 1.467.667 1.467 1.467s-.667 1.467-1.467 1.467c-.867 0-1.467-.667-1.467-1.467s.6-1.467 1.467-1.467z"/>
</svg>
