<!-- Generated by IcoMoon.io -->
<svg version="1.1" xmlns="http://www.w3.org/2000/svg" width="24" height="24" viewBox="0 0 24 24">
<path d="M12 0c-6.6 0-12 5.4-12 12s5.4 12 12 12 12-5.4 12-12-5.4-12-12-12zM12 22c-5.5 0-10-4.5-10-10s4.5-10 10-10 10 4.5 10 10-4.5 10-10 10z"></path>
<path d="M14 16h-1v-5c0-0.6-0.4-1-1-1h-2c-0.6 0-1 0.4-1 1s0.4 1 1 1h1v4h-1c-0.6 0-1 0.4-1 1s0.4 1 1 1h4c0.6 0 1-0.4 1-1s-0.4-1-1-1z"></path>
<path d="M12 9c0.6 0 1-0.4 1-1v-1c0-0.6-0.4-1-1-1s-1 0.4-1 1v1c0 0.6 0.4 1 1 1z"></path>
</svg>
