<!-- Generated by IcoMoon.io -->
<svg version="1.1" xmlns="http://www.w3.org/2000/svg" width="24" height="24" viewBox="0 0 24 24">
<path d="M23.9 7c-0.1-2.2-0.8-3.8-1.9-5s-2.9-1.8-5-1.9c-1-0.1-2.6-0.1-5-0.1s-4 0-5 0.1c-2.1 0.1-3.8 0.7-5 1.9s-1.8 2.9-1.9 5c-0.1 1-0.1 2.6-0.1 5s0 4 0.1 5c0.1 2.2 0.8 3.8 1.9 5s2.9 1.8 5 1.9c1 0.1 2.6 0.1 5 0.1s4 0 5-0.1c2.2-0.1 3.8-0.8 5-1.9s1.8-2.9 1.9-5c0.1-1 0.1-2.6 0.1-5s0-4-0.1-5zM21.8 13.2c0 0.7 0 1.3 0 1.7s0 0.9 0 1.5c0 0.6-0.1 1.2-0.2 1.6s-0.2 0.8-0.3 1.1c-0.2 0.5-0.5 1-0.9 1.4s-0.9 0.7-1.4 0.9c-0.3 0.1-0.7 0.2-1.1 0.3s-1 0.1-1.6 0.2c-0.6 0-1.1 0-1.5 0s-0.9 0-1.7 0c-0.7 0-1.1 0-1.2 0s-0.5 0-1.2 0c-0.7 0-1.3 0-1.7 0s-0.9 0-1.5 0c-0.6 0-1.2-0.1-1.6-0.2s-0.8-0.2-1.1-0.3c-0.5-0.2-1-0.5-1.4-0.9s-0.7-0.9-0.9-1.4c-0.1-0.3-0.2-0.7-0.3-1.1s-0.1-1-0.2-1.6c0-0.6 0-1.1 0-1.5s0-0.9 0-1.7c0-0.7 0-1.1 0-1.2s0-0.5 0-1.2c0-0.7 0-1.3 0-1.6 0-0.4 0-0.9 0-1.5 0.2-0.7 0.3-1.2 0.4-1.7 0.1-0.4 0.2-0.8 0.3-1.1 0.2-0.5 0.5-1 0.9-1.4s0.9-0.7 1.4-0.9c0.2-0.1 0.6-0.2 1-0.3s1-0.1 1.6-0.2c0.6 0 1.1 0 1.5 0s0.9 0 1.7 0c0.7 0 1.1 0 1.2 0s0.5 0 1.2 0c0.7 0 1.3 0 1.7 0s0.9 0 1.5 0c0.6 0 1.2 0.1 1.6 0.2s0.8 0.2 1.1 0.3c0.5 0.2 1 0.5 1.4 0.9s0.7 0.9 0.9 1.4c0.1 0.3 0.2 0.7 0.3 1.1s0.1 1 0.2 1.6c0 0.6 0 1.1 0 1.5s0 0.9 0 1.6c0 0.7 0 1.1 0 1.2-0.1 0.2-0.1 0.6-0.1 1.3z"></path>
<path d="M18.4 4.2c-0.4 0-0.7 0.1-1 0.4s-0.4 0.6-0.4 1 0.1 0.7 0.4 1 0.6 0.4 1 0.4 0.7-0.1 1-0.4 0.4-0.6 0.4-1-0.1-0.7-0.4-1-0.6-0.4-1-0.4z"></path>
<path d="M12 5.8c-1.7 0-3.2 0.6-4.4 1.8s-1.8 2.7-1.8 4.4 0.6 3.2 1.8 4.4 2.7 1.8 4.4 1.8 3.2-0.6 4.4-1.8 1.8-2.7 1.8-4.4-0.6-3.2-1.8-4.4-2.7-1.8-4.4-1.8zM14.8 14.8c-0.8 0.8-1.7 1.2-2.8 1.2s-2-0.4-2.8-1.2-1.2-1.7-1.2-2.8 0.4-2 1.2-2.8 1.7-1.2 2.8-1.2 2 0.4 2.8 1.2 1.2 1.7 1.2 2.8-0.4 2-1.2 2.8z"></path>
</svg>
