<?xml version="1.0" encoding="utf-8"?>
<!-- Generator: Adobe Illustrator 21.0.2, SVG Export Plug-In . SVG Version: 6.00 Build 0)  -->
<svg version="1.1" id="Layer_1" xmlns="http://www.w3.org/2000/svg" xmlns:xlink="http://www.w3.org/1999/xlink" x="0px" y="0px"
	 viewBox="0 0 24 24" style="enable-background:new 0 0 24 24;" xml:space="preserve">
<g transform="translate(0, 0)">
	<g transform="scale(0.03125 0.03125)">
		<path d="M512,384c0-35.3-12.5-65.5-37.5-90.5S419.3,256,384,256s-65.5,12.5-90.5,37.5S256,348.7,256,384s12.5,65.5,37.5,90.5
			S348.7,512,384,512s65.5-12.5,90.5-37.5S512,419.3,512,384z M581,384c0,54.7-19.2,101.2-57.5,139.5S438.7,581,384,581
			s-101.2-19.2-139.5-57.5S187,438.7,187,384s19.2-101.2,57.5-139.5S329.3,187,384,187s101.2,19.2,139.5,57.5S581,329.3,581,384z
			 M635,179c0,12.7-4.5,23.5-13.5,32.5S601.7,225,589,225s-23.5-4.5-32.5-13.5S543,191.7,543,179s4.5-23.5,13.5-32.5
			S576.3,133,589,133s23.5,4.5,32.5,13.5S635,166.3,635,179z M384,69c-2.3,0-15.1-0.1-38.2-0.3c-23.2-0.2-40.7-0.2-52.8,0
			c-12,0.2-28.1,0.7-48.3,1.5s-37.3,2.5-51.5,5s-26.1,5.6-35.7,9.2c-16.7,6.7-31.3,16.3-44,29s-22.3,27.3-29,44
			c-3.7,9.7-6.8,21.6-9.2,35.7c-2.5,14.2-4.2,31.3-5,51.5s-1.3,36.2-1.5,48.3c-0.2,12-0.2,29.6,0,52.8c0.2,23.2,0.2,35.9,0.3,38.2
			c0,2.3-0.1,15.1-0.3,38.2c-0.2,23.2-0.2,40.7,0,52.8s0.7,28.1,1.5,48.3s2.5,37.3,5,51.5s5.6,26.1,9.2,35.7
			c6.7,16.7,16.3,31.3,29,44s27.3,22.3,44,29c9.7,3.7,21.6,6.8,35.7,9.2c14.2,2.5,31.3,4.2,51.5,5s36.2,1.3,48.3,1.5
			c12,0.2,29.6,0.2,52.8,0c23.2-0.2,35.9-0.2,38.2-0.3c2.3,0,15.1,0.1,38.2,0.3c23.2,0.2,40.7,0.2,52.8,0c12-0.2,28.1-0.7,48.3-1.5
			c20.2-0.8,37.3-2.5,51.5-5s26.1-5.6,35.7-9.2c16.7-6.7,31.3-16.3,44-29s22.3-27.3,29-44c3.7-9.7,6.8-21.6,9.2-35.7
			c2.5-14.2,4.2-31.3,5-51.5s1.3-36.2,1.5-48.3s0.2-29.6,0-52.8c-0.2-23.2-0.2-35.9-0.3-38.2c0-2.3,0.1-15.1,0.3-38.2
			c0.2-23.2,0.2-40.7,0-52.8c-0.2-12-0.7-28.1-1.5-48.3s-2.5-37.3-5-51.5s-5.6-26.1-9.2-35.7c-6.7-16.7-16.3-31.3-29-44
			s-27.3-22.3-44-29c-9.7-3.7-21.6-6.8-35.7-9.2c-14.2-2.5-31.3-4.2-51.5-5s-36.2-1.3-48.3-1.5c-12-0.2-29.6-0.2-52.8,0
			S386.3,69,384,69z M768,384c0,76.3-0.8,129.2-2.5,158.5c-3.3,69.3-24,123-62,161s-91.7,58.7-161,62c-29.3,1.7-82.2,2.5-158.5,2.5
			s-129.2-0.8-158.5-2.5c-69.3-3.3-123-24-161-62s-58.7-91.7-62-161C0.8,513.2,0,460.3,0,384s0.8-129.2,2.5-158.5
			c3.3-69.3,24-123,62-161s91.7-58.7,161-62C254.8,0.8,307.7,0,384,0s129.2,0.8,158.5,2.5c69.3,3.3,123,24,161,62s58.7,91.7,62,161
			C767.2,254.8,768,307.7,768,384z"/>
	</g>
</g>
</svg>
