<svg xmlns="http://www.w3.org/2000/svg" width="24" height="24" viewBox="0 0 24 24"><g><rect class="nc-transparent-rect" x="0" y="0" width="24" height="24" rx="0" ry="0" fill="none" stroke="none"></rect><g class="nc-icon-wrapper" fill="inherit"><path data-color="color-2" d="M19,19c0,1.654-1.346,3-3,3s-3-1.346-3-3V5c0-2.757-2.243-5-5-5S3,2.243,3,5v9h2V5 c0-1.654,1.346-3,3-3s3,1.346,3,3v14c0,2.757,2.243,5,5,5s5-2.243,5-5v-9h-2V19z"></path> <circle fill="inherit" cx="20" cy="4" r="4"></circle> <circle fill="inherit" cx="4" cy="20" r="4"></circle></g></g></svg>