<?xml version="1.0" encoding="utf-8"?>
<!-- Generator: Adobe Illustrator 21.0.2, SVG Export Plug-In . SVG Version: 6.00 Build 0)  -->
<svg version="1.1" id="Layer_1" xmlns="http://www.w3.org/2000/svg" xmlns:xlink="http://www.w3.org/1999/xlink" x="0px" y="0px"
	 viewBox="0 0 24 24" style="enable-background:new 0 0 24 24;" xml:space="preserve">
<g transform="translate(0, 0)">
	<g>
		<path d="M21,14c-0.6,0-1-0.4-1-1V5c0-0.6-0.4-1-1-1H5C4.4,4,4,4.4,4,5v8c0,0.6-0.4,1-1,1s-1-0.4-1-1V5c0-1.7,1.3-3,3-3h14
			c1.7,0,3,1.3,3,3v8C22,13.6,21.6,14,21,14z"/>
	</g>
	<g>
		<circle cx="12" cy="7" r="1"/>
	</g>
	<g>
		<path d="M21,21H3c-1.7,0-3-1.3-3-3v-2c0-0.6,0.4-1,1-1h22c0.6,0,1,0.4,1,1v2C24,19.7,22.7,21,21,21z M2,17v1c0,0.6,0.4,1,1,1h18
			c0.6,0,1-0.4,1-1v-1H2z"/>
	</g>
</g>
</svg>
