<!-- Generated by IcoMoon.io -->
<svg version="1.1" xmlns="http://www.w3.org/2000/svg" width="24" height="24" viewBox="0 0 24 24">
<path d="M3 14c0.6 0 1-0.4 1-1v-8c0-0.6 0.4-1 1-1h14c0.6 0 1 0.4 1 1v8c0 0.6 0.4 1 1 1s1-0.4 1-1v-8c0-1.7-1.3-3-3-3h-14c-1.7 0-3 1.3-3 3v8c0 0.6 0.4 1 1 1z"></path>
<path d="M13 7c0 0.552-0.448 1-1 1s-1-0.448-1-1c0-0.552 0.448-1 1-1s1 0.448 1 1z"></path>
<path d="M23 15h-22c-0.6 0-1 0.4-1 1v2c0 1.7 1.3 3 3 3h18c1.7 0 3-1.3 3-3v-2c0-0.6-0.4-1-1-1zM22 18c0 0.6-0.4 1-1 1h-18c-0.6 0-1-0.4-1-1v-1h20v1z"></path>
</svg>
