<?xml version="1.0" encoding="utf-8"?>
<!-- Generated by IcoMoon.io -->
<!DOCTYPE svg PUBLIC "-//W3C//DTD SVG 1.1//EN" "http://www.w3.org/Graphics/SVG/1.1/DTD/svg11.dtd">
<svg version="1.1" xmlns="http://www.w3.org/2000/svg" xmlns:xlink="http://www.w3.org/1999/xlink" width="32" height="32" viewBox="0 0 32 32">
<path d="M11.482 24.008h-3.106v-9.976h3.106v9.976zM9.976 12.808v0c-1.129 0-1.882-0.753-1.882-1.694 0-1.035 0.753-1.788 1.882-1.788s1.882 0.753 1.882 1.694c0 1.035-0.659 1.788-1.882 1.788zM24.094 24.008h-3.576v-5.176c0-1.318-0.565-2.259-1.788-2.259-0.941 0-1.412 0.659-1.694 1.224-0.094 0.188-0.094 0.471-0.094 0.847v5.365h-3.482c0 0 0-9.129 0-9.976h3.482v1.6c0.188-0.659 1.318-1.694 3.106-1.694 2.259 0 3.953 1.412 3.953 4.518v5.553h0.094zM16.094 0.667c-8.753 0-16 7.247-16 16s7.247 16 16 16c8.753 0 16-7.247 16-16s-7.247-16-16-16zM16.094 31.067c-8 0-14.4-6.588-14.4-14.4s6.588-14.4 14.4-14.4c7.812 0 14.4 6.588 14.4 14.4s-6.4 14.4-14.4 14.4z"></path>
</svg>
