<svg xmlns="http://www.w3.org/2000/svg" width="32" height="32" viewBox="0 0 32 32">
    <path d="M11.482 24.008H8.376v-9.976h3.106v9.976zm-1.506-11.2c-1.129 0-1.882-.753-1.882-1.694 0-1.035.753-1.788 1.882-1.788s1.882.753 1.882 1.694c0 1.035-.659 1.788-1.882 1.788zm14.118 11.2h-3.576v-5.176c0-1.318-.565-2.259-1.788-2.259-.941 0-1.412.659-1.694 1.224-.094.188-.094.471-.094.847v5.365H13.46v-9.976h3.482v1.6c.188-.659 1.318-1.694 3.106-1.694 2.259 0 3.953 1.412 3.953 4.518v5.553h.094zm-8-23.341c-8.753 0-16 7.247-16 16s7.247 16 16 16 16-7.247 16-16-7.247-16-16-16zm0 30.4c-8 0-14.4-6.588-14.4-14.4s6.588-14.4 14.4-14.4 14.4 6.588 14.4 14.4-6.4 14.4-14.4 14.4z"/>
</svg>
