<svg xmlns="http://www.w3.org/2000/svg" width="32" height="32" viewBox="0 0 32 32">
    <path d="M21.259 17.625l10.62-10.62a.4.4 0 0 0 0-.57L26.236.787a.4.4 0 0 0-.57 0l-10.62 10.62a.4.4 0 0 0 0 .57l2.042 2.037a.4.4 0 0 1 0 .57l-3.162 3.162a.4.4 0 0 1-.57 0l-2.037-2.037a.4.4 0 0 0-.57 0L.129 26.324a.4.4 0 0 0 0 .57l5.633 5.653a.4.4 0 0 0 .57 0l10.62-10.62a.4.4 0 0 0 0-.57l-2.037-2.042a.4.4 0 0 1 0-.57l3.157-3.157a.4.4 0 0 1 .57 0l2.042 2.037c.164.154.42.154.574 0zM15.5 21.641l-9.452 9.452-4.475-4.475 9.447-9.447 1.738 1.738-3.48 3.48.869.869 3.485-3.485 1.868 1.868zm.995-9.949l9.457-9.452 4.475 4.475-9.452 9.452-1.738-1.738 3.485-3.485-.869-.869-3.49 3.48-1.868-1.863z"/>
</svg>
