<?xml version="1.0" encoding="utf-8"?>
<!-- Generator: Adobe Illustrator 21.0.2, SVG Export Plug-In . SVG Version: 6.00 Build 0)  -->
<svg version="1.1" id="Layer_1" xmlns="http://www.w3.org/2000/svg" xmlns:xlink="http://www.w3.org/1999/xlink" x="0px" y="0px"
	 viewBox="0 0 24 24" style="enable-background:new 0 0 24 24;" xml:space="preserve">
<path d="M3.7,20.1h3.6V9.2H3.7V20.1z M7.5,5.9c0-0.5-0.2-1-0.6-1.3S6.1,4,5.5,4S4.4,4.2,4.1,4.6S3.5,5.4,3.5,5.9s0.2,1,0.6,1.3
	S5,7.7,5.5,7.7l0,0c0.6,0,1.1-0.2,1.5-0.5S7.5,6.4,7.5,5.9z M16.7,20.1h3.6v-6.2c0-1.6-0.4-2.8-1.1-3.6S17.4,9,16.1,9
	c-1.4,0-2.5,0.6-3.3,1.8l0,0V9.2H9.3c0,0.7,0,4.3,0,10.8h3.6v-6c0-0.4,0-0.7,0.1-0.9c0.2-0.4,0.4-0.7,0.7-0.9s0.7-0.4,1.2-0.4
	c1.2,0,1.8,0.8,1.8,2.5C16.7,14.3,16.7,20.1,16.7,20.1z M24,4.5v15c0,1.2-0.4,2.3-1.3,3.2s-2,1.3-3.2,1.3h-15
	c-1.2,0-2.3-0.4-3.2-1.3S0,20.7,0,19.5v-15c0-1.2,0.4-2.3,1.3-3.2S3.3,0,4.5,0h15c1.2,0,2.3,0.4,3.2,1.3S24,3.3,24,4.5z"/>
</svg>
