<?xml version="1.0" encoding="utf-8"?>
<!-- Generator: Adobe Illustrator 21.0.2, SVG Export Plug-In . SVG Version: 6.00 Build 0)  -->
<svg version="1.1" id="Layer_1" xmlns="http://www.w3.org/2000/svg" xmlns:xlink="http://www.w3.org/1999/xlink" x="0px" y="0px"
	 viewBox="0 0 24 24" style="enable-background:new 0 0 24 24;" xml:space="preserve">
<g transform="translate(0, 0)">
	<g>
		<path d="M7.1,23c-1.5,0-3.1-0.6-4.3-1.8c-2.4-2.4-2.4-6.1,0-8.5l2.5-2.4c0.4-0.4,1-0.4,1.4,0s0.4,1,0,1.4l-2.5,2.4
			c-1.6,1.6-1.6,4,0,5.7s4.1,1.6,5.7,0l2.8-2.8c1.6-1.6,1.6-4.1,0-5.7c-0.4-0.4-0.4-1,0-1.4s1-0.4,1.4,0c2.4,2.4,2.4,6.1,0,8.5
			l-2.8,2.8C10.1,22.4,8.6,23,7.1,23z"/>
	</g>
	<g>
		<path d="M10.6,14.4c-0.3,0-0.5-0.1-0.7-0.3c-2.4-2.4-2.4-6.1,0-8.5l2.8-2.8c2.4-2.4,6.1-2.4,8.5,0s2.4,6.1,0,8.5l-2.5,2.4
			c-0.4,0.4-1,0.4-1.4,0s-0.4-1,0-1.4l2.5-2.4c1.6-1.6,1.6-4.1,0-5.7s-4.1-1.6-5.7,0L11.3,7c-1.6,1.6-1.6,4.1,0,5.7
			c0.4,0.4,0.4,1,0,1.4C11.1,14.3,10.9,14.4,10.6,14.4z"/>
	</g>
</g>
</svg>
