<!-- Generated by IcoMoon.io -->
<svg version="1.1" xmlns="http://www.w3.org/2000/svg" width="24" height="24" viewBox="0 0 24 24">
<path d="M12.7 9.9c-0.177 0.18-0.286 0.427-0.286 0.7s0.109 0.52 0.286 0.7c0.737 0.726 1.193 1.734 1.193 2.85s-0.456 2.124-1.193 2.85l-2.8 2.8c-0.714 0.763-1.726 1.238-2.85 1.238s-2.136-0.475-2.848-1.236c-0.739-0.728-1.195-1.737-1.195-2.852s0.456-2.124 1.193-2.85l2.501-2.4c0.125-0.165 0.2-0.374 0.2-0.6 0-0.552-0.448-1-1-1-0.226 0-0.435 0.075-0.603 0.202l-2.497 2.398c-1.11 1.077-1.799 2.583-1.799 4.25s0.689 3.173 1.797 4.249c1.103 1.103 2.621 1.788 4.299 1.801 1.651-0.015 3.137-0.701 4.201-1.798l2.801-2.802c1.11-1.077 1.799-2.583 1.799-4.25s-0.689-3.173-1.797-4.249c-0.182-0.178-0.429-0.287-0.701-0.287s-0.52 0.109-0.7 0.286z"></path>
<path d="M21.2 2.8c-1.077-1.11-2.583-1.799-4.25-1.799s-3.173 0.689-4.249 1.797l-2.801 2.801c-1.11 1.077-1.799 2.583-1.799 4.25s0.689 3.173 1.797 4.249c0.182 0.178 0.429 0.287 0.701 0.287s0.52-0.109 0.7-0.286c0.177-0.18 0.286-0.427 0.286-0.7s-0.109-0.52-0.286-0.7c-0.737-0.726-1.193-1.734-1.193-2.85s0.456-2.124 1.193-2.85l2.8-2.8c0.729-0.729 1.737-1.18 2.85-1.18 2.226 0 4.030 1.805 4.030 4.030 0 1.113-0.451 2.121-1.181 2.85l-2.5 2.4c-0.125 0.165-0.2 0.374-0.2 0.6 0 0.552 0.448 1 1 1 0.226 0 0.435-0.075 0.603-0.202l2.497-2.398c1.11-1.077 1.799-2.583 1.799-4.25s-0.689-3.173-1.797-4.249z"></path>
</svg>
