<?xml version="1.0" encoding="utf-8"?>
<!-- Generated by IcoMoon.io -->
<!DOCTYPE svg PUBLIC "-//W3C//DTD SVG 1.1//EN" "http://www.w3.org/Graphics/SVG/1.1/DTD/svg11.dtd">
<svg version="1.1" xmlns="http://www.w3.org/2000/svg" xmlns:xlink="http://www.w3.org/1999/xlink" width="32" height="32" viewBox="0 0 32 32">
<path d="M10.2 7.933h20.667c0.533 0 0.933-0.4 0.933-0.933s-0.4-0.933-0.933-0.933h-20.667c-0.533 0-0.933 0.4-0.933 0.933 0 0.467 0.4 0.933 0.933 0.933zM1.133 7.933h2.4c0.533 0 0.933-0.4 0.933-0.933 0-0.6-0.467-1-0.933-1h-2.4c-0.533 0-1 0.4-1 0.933s0.467 1 1 1zM10.2 17.533h20.667c0.533 0 0.933-0.4 0.933-0.933s-0.4-0.933-0.933-0.933h-20.667c-0.533 0-0.933 0.4-0.933 0.933s0.4 0.933 0.933 0.933zM1.133 17.533h2.4c0.533 0 0.933-0.4 0.933-0.933s-0.467-1-0.933-1h-2.4c-0.533 0-0.933 0.4-0.933 0.933s0.4 1 0.933 1zM10.2 27.133h20.667c0.533 0 0.933-0.4 0.933-0.933s-0.4-0.933-0.933-0.933h-20.667c-0.533 0-0.933 0.4-0.933 0.933s0.4 0.933 0.933 0.933zM1.133 27.133h2.4c0.533 0 0.933-0.4 0.933-0.933s-0.467-1-0.933-1h-2.4c-0.533 0-0.933 0.4-0.933 0.933s0.4 1 0.933 1z"></path>
</svg>
