<svg xmlns="http://www.w3.org/2000/svg" width="32" height="32" viewBox="0 0 32 32">
    <path d="M10.2 7.933h20.667c.533 0 .933-.4.933-.933s-.4-.933-.933-.933H10.2c-.533 0-.933.4-.933.933 0 .467.4.933.933.933zm-9.067 0h2.4c.533 0 .933-.4.933-.933 0-.6-.467-1-.933-1h-2.4c-.533 0-1 .4-1 .933s.467 1 1 1zm9.067 9.6h20.667c.533 0 .933-.4.933-.933s-.4-.933-.933-.933H10.2c-.533 0-.933.4-.933.933s.4.933.933.933zm-9.067 0h2.4c.533 0 .933-.4.933-.933s-.467-1-.933-1h-2.4C.6 15.6.2 16 .2 16.533s.4 1 .933 1zm9.067 9.6h20.667c.533 0 .933-.4.933-.933s-.4-.933-.933-.933H10.2c-.533 0-.933.4-.933.933s.4.933.933.933zm-9.067 0h2.4c.533 0 .933-.4.933-.933s-.467-1-.933-1h-2.4c-.533 0-.933.4-.933.933s.4 1 .933 1z"/>
</svg>
