<?xml version="1.0" encoding="utf-8"?>
<!-- Generator: Adobe Illustrator 21.0.2, SVG Export Plug-In . SVG Version: 6.00 Build 0)  -->
<svg version="1.1" id="Layer_1" xmlns="http://www.w3.org/2000/svg" xmlns:xlink="http://www.w3.org/1999/xlink" x="0px" y="0px"
	 viewBox="0 0 24 24" style="enable-background:new 0 0 24 24;" xml:space="preserve">
<g transform="translate(0, 0)">
	<g>
		<path d="M4,7C2.3,7,1,5.7,1,4s1.3-3,3-3s3,1.3,3,3S5.7,7,4,7z M4,3C3.4,3,3,3.4,3,4s0.4,1,1,1s1-0.4,1-1S4.6,3,4,3z"/>
	</g>
	<g>
		<path d="M4,15c-1.7,0-3-1.3-3-3s1.3-3,3-3s3,1.3,3,3S5.7,15,4,15z M4,11c-0.6,0-1,0.4-1,1s0.4,1,1,1s1-0.4,1-1S4.6,11,4,11z"/>
	</g>
	<g>
		<path d="M4,23c-1.7,0-3-1.3-3-3s1.3-3,3-3s3,1.3,3,3S5.7,23,4,23z M4,19c-0.6,0-1,0.4-1,1s0.4,1,1,1s1-0.4,1-1S4.6,19,4,19z"/>
	</g>
	<g>
		<path d="M22,5H10C9.4,5,9,4.6,9,4s0.4-1,1-1h12c0.6,0,1,0.4,1,1S22.6,5,22,5z"/>
	</g>
	<g>
		<path d="M22,13H10c-0.6,0-1-0.4-1-1s0.4-1,1-1h12c0.6,0,1,0.4,1,1S22.6,13,22,13z"/>
	</g>
	<g>
		<path d="M22,21H10c-0.6,0-1-0.4-1-1s0.4-1,1-1h12c0.6,0,1,0.4,1,1S22.6,21,22,21z"/>
	</g>
</g>
</svg>
