<svg xmlns="http://www.w3.org/2000/svg" width="23" height="32" viewBox="0 0 23 32">
    <path d="M22.044 13.465h-2.846V8.487c0-4.303-3.521-7.823-7.823-7.823S3.552 4.185 3.552 8.487v4.978H.71a.714.714 0 0 0-.71.713v17.779c0 .391.318.71.71.71h21.334a.71.71 0 0 0 .71-.71V14.178a.711.711 0 0 0-.71-.713zM4.978 8.487c0-3.521 2.88-6.401 6.401-6.401s6.401 2.88 6.401 6.401v4.978H4.979V8.487zm16.356 22.757H1.422V14.887h19.912v16.357zm-10.669-7.609v2.274a.71.71 0 0 0 1.42 0v-2.274a2.118 2.118 0 0 0 1.423-1.99c0-1.174-.959-2.132-2.132-2.132s-2.132.959-2.132 2.132a2.121 2.121 0 0 0 1.423 1.99z"/>
</svg>
