<?xml version="1.0" encoding="utf-8"?>
<!-- Generator: Adobe Illustrator 21.0.2, SVG Export Plug-In . SVG Version: 6.00 Build 0)  -->
<svg version="1.1" id="Layer_1" xmlns="http://www.w3.org/2000/svg" xmlns:xlink="http://www.w3.org/1999/xlink" x="0px" y="0px"
	 viewBox="0 0 24 24" style="enable-background:new 0 0 24 24;" xml:space="preserve">
<g transform="translate(0, 0)">
	<g>
		<path d="M7,10c-0.6,0-1-0.4-1-1V6c0-3.4,2.6-6,6-6c2.4,0,4.5,1.4,5.5,3.6c0.2,0.5,0,1.1-0.5,1.3s-1.1,0-1.3-0.5
			C15,2.9,13.6,2,12,2C9.8,2,8,3.8,8,6v3C8,9.6,7.6,10,7,10z"/>
	</g>
	<g>
		<path d="M12,18c-1.7,0-3-1.3-3-3s1.3-3,3-3s3,1.3,3,3S13.7,18,12,18z M12,14c-0.6,0-1,0.4-1,1s0.4,1,1,1s1-0.4,1-1S12.6,14,12,14z
			"/>
	</g>
	<g>
		<path d="M12,20c-0.6,0-1-0.4-1-1v-2c0-0.6,0.4-1,1-1s1,0.4,1,1v2C13,19.6,12.6,20,12,20z"/>
	</g>
	<g>
		<path d="M20,24H4c-0.6,0-1-0.4-1-1V9c0-0.6,0.4-1,1-1h16c0.6,0,1,0.4,1,1v14C21,23.6,20.6,24,20,24z M5,22h14V10H5V22z"/>
	</g>
</g>
</svg>
