<svg xmlns="http://www.w3.org/2000/svg" width="32" height="32" viewBox="0 0 32 32">
    <path d="M31.067 3.933h-24.4a.74.74 0 0 0-.733.733v21.267c0 1.133-.933 2.133-2.067 2.133h-.133c-1.133 0-2.133-.933-2.133-2.133V7.466c0-.4-.333-.733-.733-.733s-.733.333-.733.733v18.467c0 1.933 1.6 3.533 3.533 3.533h24.467c1.933 0 3.533-1.6 3.533-3.533V4.6c.133-.4-.2-.667-.6-.667zm-.734 21.934C30.333 27 29.4 28 28.2 28H6.667c.467-.6.667-1.333.667-2.133V5.334h23.067v20.533zM3.067 7.533v18c0 .4.333.733.733.733s.733-.333.733-.733v-18c0-.4-.333-.733-.733-.733s-.733.333-.733.733zm7.066 9.867h17.4a.74.74 0 0 0 .733-.733V11a.74.74 0 0 0-.733-.733h-17.4A.74.74 0 0 0 9.4 11v5.667c.067.4.333.733.733.733zm.734-5.667H26.8V16H10.867v-4.267zm-.734 8.467H17.2c.4 0 .733-.333.733-.733s-.333-.733-.733-.733h-7.067c-.4 0-.733.333-.733.733s.333.733.733.733zm0-11.333h17.4c.4 0 .733-.333.733-.733s-.333-.733-.733-.733h-17.4c-.4 0-.733.333-.733.733s.333.733.733.733zm0 14.2h6.333c.4 0 .733-.333.733-.733s-.333-.733-.733-.733h-6.333c-.4 0-.733.333-.733.733s.333.733.733.733zm0 2.8h5.333c.4 0 .733-.333.733-.733s-.333-.733-.733-.733h-5.333c-.4 0-.733.333-.733.733s.333.733.733.733zM27.2 18.8h-7.133c-.4 0-.733.333-.733.733s.333.733.733.733h7.067c.4 0 .733-.333.733-.733s-.333-.733-.667-.733zm-.8 2.8h-6.333c-.4 0-.733.333-.733.733s.333.733.733.733H26.4c.4 0 .733-.333.733-.733S26.8 21.6 26.4 21.6zm-1 2.867h-5.333c-.4 0-.733.333-.733.733s.333.733.733.733H25.4c.4 0 .733-.333.733-.733s-.333-.733-.733-.733z"/>
</svg>
