<?xml version="1.0" encoding="utf-8"?>
<!-- Generated by IcoMoon.io -->
<!DOCTYPE svg PUBLIC "-//W3C//DTD SVG 1.1//EN" "http://www.w3.org/Graphics/SVG/1.1/DTD/svg11.dtd">
<svg version="1.1" xmlns="http://www.w3.org/2000/svg" xmlns:xlink="http://www.w3.org/1999/xlink" width="32" height="32" viewBox="0 0 32 32">
<path d="M31.067 3.933h-24.4c-0.4 0-0.733 0.333-0.733 0.733v21.267c0 1.133-0.933 2.133-2.067 2.133h-0.133c-1.133 0-2.133-0.933-2.133-2.133v-18.467c0-0.4-0.333-0.733-0.733-0.733s-0.733 0.333-0.733 0.733v18.467c0 1.933 1.6 3.533 3.533 3.533h0.067c0.067 0 0.133 0 0.2 0 0 0 0.067 0 0.067 0h24.133c1.933 0 3.533-1.6 3.533-3.533v-21.333c0.133-0.4-0.2-0.667-0.6-0.667zM30.333 25.867c0 1.133-0.933 2.133-2.133 2.133h-21.533c0.467-0.6 0.667-1.333 0.667-2.133v-20.533h23.067v20.533zM3.067 7.533v18c0 0.4 0.333 0.733 0.733 0.733s0.733-0.333 0.733-0.733v-18c0-0.4-0.333-0.733-0.733-0.733s-0.733 0.333-0.733 0.733zM10.133 17.4h17.4c0.4 0 0.733-0.333 0.733-0.733v-5.667c0-0.4-0.333-0.733-0.733-0.733h-17.4c-0.4 0-0.733 0.333-0.733 0.733v5.667c0.067 0.4 0.333 0.733 0.733 0.733zM10.867 11.733h15.933v4.267h-15.933v-4.267zM10.133 20.2h7.067c0.4 0 0.733-0.333 0.733-0.733s-0.333-0.733-0.733-0.733h-7.067c-0.4 0-0.733 0.333-0.733 0.733s0.333 0.733 0.733 0.733zM10.133 8.867h17.4c0.4 0 0.733-0.333 0.733-0.733s-0.333-0.733-0.733-0.733h-17.4c-0.4 0-0.733 0.333-0.733 0.733s0.333 0.733 0.733 0.733zM10.133 23.067h6.333c0.4 0 0.733-0.333 0.733-0.733s-0.333-0.733-0.733-0.733h-6.333c-0.4 0-0.733 0.333-0.733 0.733s0.333 0.733 0.733 0.733zM10.133 25.867h5.333c0.4 0 0.733-0.333 0.733-0.733s-0.333-0.733-0.733-0.733h-5.333c-0.4 0-0.733 0.333-0.733 0.733s0.333 0.733 0.733 0.733zM27.2 18.8h-7.133c-0.4 0-0.733 0.333-0.733 0.733s0.333 0.733 0.733 0.733h7.067c0.4 0 0.733-0.333 0.733-0.733s-0.333-0.733-0.667-0.733zM26.4 21.6h-6.333c-0.4 0-0.733 0.333-0.733 0.733s0.333 0.733 0.733 0.733h6.333c0.4 0 0.733-0.333 0.733-0.733s-0.333-0.733-0.733-0.733zM25.4 24.467h-5.333c-0.4 0-0.733 0.333-0.733 0.733s0.333 0.733 0.733 0.733h5.333c0.4 0 0.733-0.333 0.733-0.733s-0.333-0.733-0.733-0.733z"></path>
</svg>
