<!-- Generated by IcoMoon.io -->
<svg version="1.1" xmlns="http://www.w3.org/2000/svg" width="24" height="24" viewBox="0 0 24 24">
<path d="M23 0h-18c-0.6 0-1 0.4-1 1v11h-3c-0.6 0-1 0.4-1 1v8c0 1.7 1.3 3 3 3h18c1.7 0 3-1.3 3-3v-20c0-0.6-0.4-1-1-1zM3 22c-0.6 0-1-0.4-1-1v-7h2v7c0 0.6-0.4 1-1 1zM22 21c0 0.6-0.4 1-1 1h-15.2c0.1-0.3 0.2-0.6 0.2-1v-19h16v19z"></path>
<path d="M17 7h2c0.6 0 1-0.4 1-1s-0.4-1-1-1h-2c-0.6 0-1 0.4-1 1s0.4 1 1 1z"></path>
<path d="M17 11h2c0.6 0 1-0.4 1-1s-0.4-1-1-1h-2c-0.6 0-1 0.4-1 1s0.4 1 1 1z"></path>
<path d="M9 15h10c0.6 0 1-0.4 1-1s-0.4-1-1-1h-10c-0.6 0-1 0.4-1 1s0.4 1 1 1z"></path>
<path d="M9 19h10c0.6 0 1-0.4 1-1s-0.4-1-1-1h-10c-0.6 0-1 0.4-1 1s0.4 1 1 1z"></path>
<path d="M9 11h4c0.6 0 1-0.4 1-1v-4c0-0.6-0.4-1-1-1h-4c-0.6 0-1 0.4-1 1v4c0 0.6 0.4 1 1 1zM10 7h2v2h-2v-2z"></path>
</svg>
