<?xml version="1.0" encoding="utf-8"?>
<!-- Generator: Adobe Illustrator 21.0.2, SVG Export Plug-In . SVG Version: 6.00 Build 0)  -->
<svg version="1.1" id="Layer_1" xmlns="http://www.w3.org/2000/svg" xmlns:xlink="http://www.w3.org/1999/xlink" x="0px" y="0px"
	 viewBox="0 0 24 24" style="enable-background:new 0 0 24 24;" xml:space="preserve">
<g transform="translate(0, 0)">
	<g>
		<path d="M3,24c-1.7,0-3-1.3-3-3v-8c0-0.6,0.4-1,1-1h4c0.6,0,1,0.4,1,1s-0.4,1-1,1H2v7c0,0.6,0.4,1,1,1s1,0.4,1,1S3.6,24,3,24z"/>
	</g>
	<g>
		<path d="M21,24H3c-0.6,0-1-0.4-1-1s0.4-1,1-1s1-0.4,1-1V1c0-0.6,0.4-1,1-1h18c0.6,0,1,0.4,1,1v20C24,22.7,22.7,24,21,24z M5.8,22
			H21c0.6,0,1-0.4,1-1V2H6v19C6,21.4,5.9,21.7,5.8,22z"/>
	</g>
	<g>
		<path d="M19,7h-2c-0.6,0-1-0.4-1-1s0.4-1,1-1h2c0.6,0,1,0.4,1,1S19.6,7,19,7z"/>
	</g>
	<g>
		<path d="M19,11h-2c-0.6,0-1-0.4-1-1s0.4-1,1-1h2c0.6,0,1,0.4,1,1S19.6,11,19,11z"/>
	</g>
	<g>
		<path d="M19,15H9c-0.6,0-1-0.4-1-1s0.4-1,1-1h10c0.6,0,1,0.4,1,1S19.6,15,19,15z"/>
	</g>
	<g>
		<path d="M19,19H9c-0.6,0-1-0.4-1-1s0.4-1,1-1h10c0.6,0,1,0.4,1,1S19.6,19,19,19z"/>
	</g>
	<g>
		<path d="M13,11H9c-0.6,0-1-0.4-1-1V6c0-0.6,0.4-1,1-1h4c0.6,0,1,0.4,1,1v4C14,10.6,13.6,11,13,11z M10,9h2V7h-2V9z"/>
	</g>
</g>
</svg>
