<?xml version="1.0" encoding="utf-8"?>
<!-- Generator: Adobe Illustrator 21.0.2, SVG Export Plug-In . SVG Version: 6.00 Build 0)  -->
<svg version="1.1" id="Layer_1" xmlns="http://www.w3.org/2000/svg" xmlns:xlink="http://www.w3.org/1999/xlink" x="0px" y="0px"
	 viewBox="0 0 24 24" style="enable-background:new 0 0 24 24;" xml:space="preserve">
<g transform="translate(0, 0)">
	<g>
		<path d="M9,23H3c-0.6,0-1-0.4-1-1V2c0-0.6,0.4-1,1-1h6c0.6,0,1,0.4,1,1v20C10,22.6,9.6,23,9,23z M4,21h4V3H4V21z"/>
	</g>
	<g>
		<path d="M21,23h-6c-0.6,0-1-0.4-1-1V2c0-0.6,0.4-1,1-1h6c0.6,0,1,0.4,1,1v20C22,22.6,21.6,23,21,23z M16,21h4V3h-4V21z"/>
	</g>
</g>
</svg>
