<?xml version="1.0" encoding="utf-8"?>
<!-- Generated by IcoMoon.io -->
<!DOCTYPE svg PUBLIC "-//W3C//DTD SVG 1.1//EN" "http://www.w3.org/Graphics/SVG/1.1/DTD/svg11.dtd">
<svg version="1.1" xmlns="http://www.w3.org/2000/svg" xmlns:xlink="http://www.w3.org/1999/xlink" width="32" height="32" viewBox="0 0 32 32">
<path d="M30.836 23.648c-1.338-1.338-2.676-2.676-3.956-3.956-1.455-1.455-3.433-1.455-4.945 0l-0.175 0.175c-0.698 0.64-1.396 1.338-2.036 2.036-0.116-0.058-0.233-0.116-0.349-0.175-0.291-0.175-0.64-0.291-0.873-0.465-2.095-1.338-4.015-3.084-5.876-5.353-0.873-1.047-1.513-2.036-1.92-3.025 0.582-0.582 1.164-1.164 1.745-1.745l0.465-0.465c1.513-1.513 1.513-3.491 0-5.004-0.465-0.465-0.873-0.873-1.338-1.338l-0.582-0.582c-0.233-0.233-0.407-0.407-0.64-0.64-0.465-0.465-0.931-0.931-1.338-1.338-1.455-1.455-3.433-1.455-4.945 0-0.349 0.349-0.64 0.64-0.989 0.989-0.465 0.465-0.931 0.989-1.455 1.455-0.931 0.873-1.455 2.036-1.571 3.375-0.175 2.095 0.407 3.956 0.931 5.353 1.164 3.142 2.967 6.109 5.469 9.135 3.142 3.724 6.865 6.633 11.171 8.727 2.385 1.164 4.422 1.745 6.4 1.862 0.175 0 0.291 0 0.465 0 1.745 0 3.084-0.582 4.131-1.804 0.465-0.524 0.931-0.931 1.396-1.455 0.233-0.233 0.524-0.524 0.756-0.756 1.571-1.513 1.571-3.549 0.058-5.004zM29.382 27.198c-0.233 0.233-0.524 0.524-0.756 0.756-0.524 0.465-1.047 0.989-1.513 1.571-0.756 0.815-1.629 1.164-2.967 1.105-1.687-0.116-3.491-0.64-5.644-1.629-4.015-1.978-7.564-4.713-10.531-8.204-2.327-2.793-4.015-5.585-5.12-8.495-0.64-1.804-0.931-3.142-0.815-4.48 0.058-0.815 0.349-1.455 0.931-2.036 0.524-0.465 0.989-0.989 1.513-1.455 0.349-0.349 0.64-0.64 0.989-0.989s0.698-0.524 1.047-0.524 0.698 0.175 1.047 0.524c0.465 0.465 0.931 0.931 1.338 1.338 0.233 0.233 0.407 0.407 0.64 0.64l0.582 0.582c0.465 0.465 0.873 0.873 1.338 1.338 0.756 0.756 0.756 1.396 0 2.153l-0.465 0.465c-0.64 0.64-1.28 1.28-1.978 1.92-0.349 0.349-0.698 0.931-0.349 1.745 0.524 1.222 1.28 2.444 2.327 3.782 1.978 2.444 4.073 4.364 6.4 5.818 0.349 0.233 0.698 0.407 1.047 0.582 0.233 0.116 0.407 0.175 0.582 0.291 0.64 0.349 1.338 0.233 1.92-0.291 0.756-0.756 1.513-1.513 2.269-2.269l0.175-0.175c0.698-0.64 1.396-0.64 2.036 0 1.28 1.28 2.618 2.618 3.956 3.898 0.698 0.582 0.698 1.338 0 2.036z"></path>
</svg>
