<svg xmlns="http://www.w3.org/2000/svg" width="32" height="32" viewBox="0 0 32 32">
    <path d="M30.836 23.648l-3.956-3.956c-1.455-1.455-3.433-1.455-4.945 0l-.175.175a33.707 33.707 0 0 0-2.036 2.036l-.349-.175c-.291-.175-.64-.291-.873-.465-2.095-1.338-4.015-3.084-5.876-5.353-.873-1.047-1.513-2.036-1.92-3.025l1.745-1.745.465-.465c1.513-1.513 1.513-3.491 0-5.004l-1.338-1.338-.582-.582-.64-.64-1.338-1.338C7.563.318 5.585.318 4.073 1.773l-.989.989c-.465.465-.931.989-1.455 1.455C.698 5.09.174 6.253.058 7.592c-.175 2.095.407 3.956.931 5.353 1.164 3.142 2.967 6.109 5.469 9.135 3.142 3.724 6.865 6.633 11.171 8.727 2.385 1.164 4.422 1.745 6.4 1.862h.465c1.745 0 3.084-.582 4.131-1.804.465-.524.931-.931 1.396-1.455l.756-.756c1.571-1.513 1.571-3.549.058-5.004zm-1.454 3.55l-.756.756c-.524.465-1.047.989-1.513 1.571-.756.815-1.629 1.164-2.967 1.105-1.687-.116-3.491-.64-5.644-1.629a32.67 32.67 0 0 1-10.531-8.204c-2.327-2.793-4.015-5.585-5.12-8.495-.64-1.804-.931-3.142-.815-4.48.058-.815.349-1.455.931-2.036.524-.465.989-.989 1.513-1.455l.989-.989c.349-.349.698-.524 1.047-.524s.698.175 1.047.524L8.901 4.68l.64.64.582.582 1.338 1.338c.756.756.756 1.396 0 2.153l-.465.465c-.64.64-1.28 1.28-1.978 1.92-.349.349-.698.931-.349 1.745.524 1.222 1.28 2.444 2.327 3.782 1.978 2.444 4.073 4.364 6.4 5.818.349.233.698.407 1.047.582.233.116.407.175.582.291.64.349 1.338.233 1.92-.291l2.269-2.269.175-.175c.698-.64 1.396-.64 2.036 0 1.28 1.28 2.618 2.618 3.956 3.898.698.582.698 1.338 0 2.036z"/>
</svg>
