<?xml version="1.0" encoding="utf-8"?>
<!-- Generator: Adobe Illustrator 21.0.2, SVG Export Plug-In . SVG Version: 6.00 Build 0)  -->
<svg version="1.1" id="Layer_1" xmlns="http://www.w3.org/2000/svg" xmlns:xlink="http://www.w3.org/1999/xlink" x="0px" y="0px"
	 viewBox="0 0 24 24" style="enable-background:new 0 0 24 24;" xml:space="preserve">
<g transform="translate(0, 0)">
	<g>
		<path d="M19,24C8.5,24,0,15.5,0,5c0-0.3,0.1-0.5,0.3-0.7l3-3c0.4-0.4,1-0.4,1.4,0l5,5c0.4,0.4,0.4,1,0,1.4L7.4,10l6.6,6.6l2.3-2.3
			c0.4-0.4,1-0.4,1.4,0l5,5c0.4,0.4,0.4,1,0,1.4l-3,3C19.5,23.9,19.3,24,19,24z M2,5.4c0.2,9,7.5,16.4,16.6,16.6l2-2L17,16.4
			l-2.3,2.3c-0.4,0.4-1,0.4-1.4,0l-8-8c-0.4-0.4-0.4-1,0-1.4L7.6,7L4,3.4L2,5.4z"/>
	</g>
</g>
</svg>
