<!-- Generated by IcoMoon.io -->
<svg version="1.1" xmlns="http://www.w3.org/2000/svg" width="24" height="24" viewBox="0 0 24 24">
<title>pin</title>
<path d="M12 0c-4.4 0-9 3.4-9 9 0 5.3 8 13.4 8.3 13.7 0.2 0.2 0.4 0.3 0.7 0.3s0.5-0.1 0.7-0.3c0.3-0.3 8.3-8.4 8.3-13.7 0-5.6-4.6-9-9-9zM12 20.6c-2.5-2.7-7-8.3-7-11.6 0-4.5 3.6-7 7-7s7 2.5 7 7c0 3.4-4.5 8.9-7 11.6z"></path>
<path d="M12 5c-2.2 0-4 1.8-4 4s1.8 4 4 4 4-1.8 4-4-1.8-4-4-4zM12 11c-1.1 0-2-0.9-2-2s0.9-2 2-2 2 0.9 2 2-0.9 2-2 2z"></path>
</svg>
