<?xml version="1.0" encoding="utf-8"?>
<!-- Generator: Adobe Illustrator 21.0.2, SVG Export Plug-In . SVG Version: 6.00 Build 0)  -->
<svg version="1.1" id="Layer_1" xmlns="http://www.w3.org/2000/svg" xmlns:xlink="http://www.w3.org/1999/xlink" x="0px" y="0px"
	 viewBox="0 0 24 24" style="enable-background:new 0 0 24 24;" xml:space="preserve">
<g transform="translate(0, 0)">
	<g>
		<path d="M12,23c-0.3,0-0.5-0.1-0.7-0.3C11,22.4,3,14.3,3,9c0-5.6,4.6-9,9-9s9,3.4,9,9c0,5.3-8,13.4-8.3,13.7
			C12.5,22.9,12.3,23,12,23z M12,2C8.6,2,5,4.5,5,9c0,3.3,4.5,8.9,7,11.6c2.5-2.7,7-8.2,7-11.6C19,4.5,15.4,2,12,2z"/>
	</g>
	<g>
		<path d="M12,13c-2.2,0-4-1.8-4-4s1.8-4,4-4s4,1.8,4,4S14.2,13,12,13z M12,7c-1.1,0-2,0.9-2,2s0.9,2,2,2s2-0.9,2-2S13.1,7,12,7z"/>
	</g>
</g>
</svg>
