<svg xmlns="http://www.w3.org/2000/svg" width="21" height="32" viewBox="0 0 21 32">
    <path d="M10.697 6.971c-2.39 0-4.347 1.957-4.347 4.347s1.957 4.347 4.347 4.347 4.347-1.957 4.347-4.347-1.957-4.347-4.347-4.347zm0 7.647a3.327 3.327 0 0 1-3.323-3.323c0-1.821 1.479-3.323 3.323-3.323s3.323 1.479 3.323 3.323a3.327 3.327 0 0 1-3.323 3.323zm10.697-3.254c0-5.895-4.802-10.697-10.697-10.697S0 5.469 0 11.364c0 .956.137 1.912.387 2.845.205.706.478 1.411.819 2.048v.023c.546 1.161 7.647 14.703 7.966 15.294.387.706.933 1.092 1.525 1.092s1.161-.387 1.548-1.092c.296-.592 7.511-14.316 7.966-15.272.341-.66.614-1.366.819-2.071l.091-.228-.023-.023c.205-.865.296-1.73.296-2.617zm-1.366 2.549v.023a10.21 10.21 0 0 1-.728 1.866l-.023.046c-.432.956-7.875 15.112-7.943 15.249-.182.341-.432.546-.637.546s-.432-.205-.614-.546c-.068-.137-7.511-14.293-7.943-15.249l-.023-.023a7.895 7.895 0 0 1-.728-1.889l-.023-.046a9.374 9.374 0 0 1-.341-2.526c0-5.326 4.347-9.673 9.673-9.673s9.673 4.347 9.673 9.673a9.71 9.71 0 0 1-.341 2.549z"/>
</svg>
