<?xml version="1.0" encoding="utf-8"?>
<!-- Generated by IcoMoon.io -->
<!DOCTYPE svg PUBLIC "-//W3C//DTD SVG 1.1//EN" "http://www.w3.org/Graphics/SVG/1.1/DTD/svg11.dtd">
<svg version="1.1" xmlns="http://www.w3.org/2000/svg" xmlns:xlink="http://www.w3.org/1999/xlink" width="32" height="32" viewBox="0 0 32 32">
<path d="M16 0.867c-8.667 0-15.8 7.133-15.8 15.8s7.133 15.8 15.8 15.8 15.8-7.133 15.8-15.8-7.133-15.8-15.8-15.8zM16 30.867c-7.933 0-14.2-6.467-14.2-14.2s6.467-14.2 14.2-14.2 14.2 6.467 14.2 14.2-6.267 14.2-14.2 14.2zM9.533 16c-0.467 0-0.8 0.4-0.8 0.867s0.467 0.733 0.867 0.733h12.133c0.467 0 0.867-0.4 0.867-0.867 0-0.4-0.467-0.867-0.867-0.733h-12.2zM14.933 23c0 0.467 0.4 0.8 0.867 0.8s0.733-0.467 0.733-0.867v-12.2c0-0.467-0.4-0.867-0.867-0.867-0.4 0-0.867 0.467-0.733 0.867v12.267z"></path>
</svg>
