<svg xmlns="http://www.w3.org/2000/svg" width="32" height="32" viewBox="0 0 32 32">
    <path d="M16 32.6C8.133 32.6 1.533 26 1.533 18.133c0-5.867 3.733-11.267 9.267-13.467.467-.2 1 .067 1.133.467.2.467-.067 1-.467 1.133-4.867 1.933-8.133 6.667-8.133 11.867 0 6.867 5.8 12.733 12.733 12.733s12.733-5.8 12.733-12.733c0-5.133-3.267-9.933-8.133-11.867-.467-.2-.667-.667-.467-1.133s.667-.667 1.133-.467c5.533 2.2 9.267 7.6 9.267 13.467-.133 7.8-6.733 14.467-14.6 14.467zm0-16.4a.883.883 0 0 1-.867-.867V1.6c0-.467.4-.867.867-.867s.867.4.867.867v13.733c0 .533-.4.867-.867.867z"/>
</svg>
