<?xml version="1.0" encoding="utf-8"?>
<!-- Generator: Adobe Illustrator 21.0.2, SVG Export Plug-In . SVG Version: 6.00 Build 0)  -->
<svg version="1.1" id="Layer_1" xmlns="http://www.w3.org/2000/svg" xmlns:xlink="http://www.w3.org/1999/xlink" x="0px" y="0px"
	 viewBox="0 0 24 24" style="enable-background:new 0 0 24 24;" xml:space="preserve">
<g transform="translate(0, 0)">
	<g>
		<path d="M12,24C5.9,24,1,19.1,1,13c0-3.9,2.1-7.5,5.5-9.6C7,3.2,7.6,3.3,7.9,3.8C8.2,4.3,8,4.9,7.5,5.2C4.7,6.9,3,9.8,3,13
			c0,5,4,9,9,9s9-4,9-9c0-3.3-1.7-6.3-4.5-7.8c-0.5-0.3-0.6-0.9-0.4-1.4c0.3-0.5,0.9-0.6,1.4-0.4C20.9,5.4,23,9,23,13
			C23,19.1,18.1,24,12,24z"/>
	</g>
	<g>
		<path d="M12,9c-0.6,0-1-0.4-1-1V1c0-0.6,0.4-1,1-1s1,0.4,1,1v7C13,8.6,12.6,9,12,9z"/>
	</g>
</g>
</svg>
