<svg xmlns="http://www.w3.org/2000/svg" width="32" height="32" viewBox="0 0 32 32">
    <path d="M5.829 16.46l-2.274 2.274c-.124.124-.331.207-.455.207s-.372-.083-.455-.207L.371 16.46c-.248-.248-.248-.662 0-.951.248-.248.661-.248.951 0l1.116 1.116c0-7.525 6.119-13.602 13.643-13.602.372 0 .662.289.662.662 0 .083 0 .124-.041.165a.671.671 0 0 1-.662.496c-6.78 0-12.279 5.54-12.279 12.279l1.158-1.158c.248-.248.662-.248.951 0 .248.289.248.744-.041.992zM18.563 4.636h.124c.331 0 .62-.207.662-.537.083-.372-.124-.703-.537-.786-.372-.083-.703.124-.786.537-.041.331.165.703.537.786zm4.631 2.026a.664.664 0 0 0 .372.124.706.706 0 0 0 .537-.289c.207-.331.124-.703-.124-.91-.331-.207-.703-.124-.91.124-.248.331-.165.744.124.951zm2.398 1.901c.165 0 .331-.083.455-.165.289-.248.289-.662.041-.951s-.662-.289-.951-.041c-.289.248-.289.662-.041.951.124.165.331.207.496.207zm2.108 4.135c.124.289.372.455.662.455.083 0 .124 0 .207-.041.372-.124.537-.496.413-.868s-.496-.537-.868-.413c-.331.165-.579.579-.413.868zM4.465 20.884c-.124-.372-.496-.537-.868-.372-.372.124-.537.496-.372.868.124.289.372.413.662.413.083 0 .124 0 .248-.041.289-.124.496-.537.331-.868zm22.739-10.129a.664.664 0 0 0 .372-.124c.331-.165.413-.62.248-.91-.165-.331-.62-.413-.91-.248s-.413.62-.248.91a.637.637 0 0 0 .537.372zm-6.201-5.334c.083.041.165.083.289.083a.682.682 0 0 0 .62-.372c.124-.372 0-.744-.372-.91-.372-.124-.744 0-.91.372-.124.248 0 .662.372.827zM11.37 28.036a.739.739 0 0 0-.91.372.739.739 0 0 0 .372.91c.083.041.165.041.248.041.248 0 .537-.124.62-.413.165-.372.041-.786-.331-.91zm2.48.703c-.372-.083-.703.165-.786.537s.165.703.537.786h.124c.331 0 .62-.207.662-.579.041-.331-.207-.662-.537-.744zm-7.648-3.556c-.289.248-.289.662-.041.951.124.124.331.207.496.207s.331-.083.455-.165c.289-.248.289-.662 0-.951-.165-.289-.62-.331-.91-.041zm-1.53-2.232c-.331.207-.413.62-.207.91a.712.712 0 0 0 .579.331.664.664 0 0 0 .372-.124c.331-.207.372-.62.207-.91-.207-.289-.62-.413-.951-.207zm4.465 3.845c-.331-.207-.703-.124-.91.165s-.124.703.165.91a.664.664 0 0 0 .372.124c.207 0 .413-.124.579-.289.207-.248.083-.662-.207-.91zm22.532-9.923l-2.274-2.274c-.248-.248-.662-.248-.951 0l-2.274 2.274c-.248.248-.248.662 0 .951.124.124.331.207.455.207s.372-.083.455-.207l1.158-1.158c0 6.78-5.54 12.279-12.279 12.279-.372 0-.662.289-.662.662s.289.662.662.662c7.525 0 13.643-6.078 13.643-13.602l1.116 1.116c.124.124.331.207.455.207s.372-.083.455-.207a.616.616 0 0 0 .041-.91z"/>
</svg>
