<?xml version="1.0" encoding="utf-8"?>
<!-- Generated by IcoMoon.io -->
<!DOCTYPE svg PUBLIC "-//W3C//DTD SVG 1.1//EN" "http://www.w3.org/Graphics/SVG/1.1/DTD/svg11.dtd">
<svg version="1.1" xmlns="http://www.w3.org/2000/svg" xmlns:xlink="http://www.w3.org/1999/xlink" width="32" height="32" viewBox="0 0 32 32">
<path d="M5.829 16.46l-2.274 2.274c-0.124 0.124-0.331 0.207-0.455 0.207s-0.372-0.083-0.455-0.207l-2.274-2.274c-0.248-0.248-0.248-0.662 0-0.951 0.248-0.248 0.661-0.248 0.951 0l1.116 1.116c0-7.525 6.119-13.602 13.643-13.602 0.372 0 0.662 0.289 0.662 0.662 0 0.083 0 0.124-0.041 0.165-0.083 0.289-0.331 0.496-0.662 0.496v0c-6.78 0-12.279 5.54-12.279 12.279v0l1.158-1.158c0.248-0.248 0.662-0.248 0.951 0 0.248 0.289 0.248 0.744-0.041 0.992zM18.563 4.636c0.041 0 0.124 0 0.124 0 0.331 0 0.62-0.207 0.662-0.537 0.083-0.372-0.124-0.703-0.537-0.786-0.372-0.083-0.703 0.124-0.786 0.537-0.041 0.331 0.165 0.703 0.537 0.786zM23.194 6.662c0.124 0.083 0.248 0.124 0.372 0.124 0.207 0 0.413-0.124 0.537-0.289 0.207-0.331 0.124-0.703-0.124-0.91v0c-0.331-0.207-0.703-0.124-0.91 0.124-0.248 0.331-0.165 0.744 0.124 0.951zM25.592 8.563c0.165 0 0.331-0.083 0.455-0.165 0.289-0.248 0.289-0.662 0.041-0.951s-0.662-0.289-0.951-0.041c-0.289 0.248-0.289 0.662-0.041 0.951 0.124 0.165 0.331 0.207 0.496 0.207zM27.7 12.698v0c0.124 0.289 0.372 0.455 0.662 0.455 0.083 0 0.124 0 0.207-0.041 0.372-0.124 0.537-0.496 0.413-0.868s-0.496-0.537-0.868-0.413c-0.331 0.165-0.579 0.579-0.413 0.868zM4.465 20.884c-0.124-0.372-0.496-0.537-0.868-0.372-0.372 0.124-0.537 0.496-0.372 0.868 0.124 0.289 0.372 0.413 0.662 0.413 0.083 0 0.124 0 0.248-0.041 0.289-0.124 0.496-0.537 0.331-0.868zM27.204 10.755c0.124 0 0.248-0.041 0.372-0.124 0.331-0.165 0.413-0.62 0.248-0.91-0.165-0.331-0.62-0.413-0.91-0.248s-0.413 0.62-0.248 0.91c0.083 0.207 0.331 0.372 0.537 0.372zM21.003 5.421c0.083 0.041 0.165 0.083 0.289 0.083 0.248 0 0.496-0.124 0.62-0.372 0.124-0.372 0-0.744-0.372-0.91-0.372-0.124-0.744 0-0.91 0.372-0.124 0.248 0 0.662 0.372 0.827zM11.37 28.036c-0.372-0.124-0.744 0.041-0.91 0.372-0.124 0.372 0.041 0.744 0.372 0.91 0.083 0.041 0.165 0.041 0.248 0.041 0.248 0 0.537-0.124 0.62-0.413 0.165-0.372 0.041-0.786-0.331-0.91zM13.85 28.739c-0.372-0.083-0.703 0.165-0.786 0.537s0.165 0.703 0.537 0.786c0.041 0 0.083 0 0.124 0 0.331 0 0.62-0.207 0.662-0.579 0.041-0.331-0.207-0.662-0.537-0.744zM6.202 25.183c-0.289 0.248-0.289 0.662-0.041 0.951 0.124 0.124 0.331 0.207 0.496 0.207s0.331-0.083 0.455-0.165c0.289-0.248 0.289-0.662 0-0.951-0.165-0.289-0.62-0.331-0.91-0.041zM4.672 22.951c-0.331 0.207-0.413 0.62-0.207 0.91 0.124 0.207 0.372 0.331 0.579 0.331 0.124 0 0.248-0.041 0.372-0.124 0.331-0.207 0.372-0.62 0.207-0.91-0.207-0.289-0.62-0.413-0.951-0.207zM9.137 26.796c-0.331-0.207-0.703-0.124-0.91 0.165s-0.124 0.703 0.165 0.91c0.124 0.083 0.248 0.124 0.372 0.124 0.207 0 0.413-0.124 0.579-0.289 0.207-0.248 0.083-0.662-0.207-0.91zM31.669 16.873l-2.274-2.274c-0.248-0.248-0.662-0.248-0.951 0l-2.274 2.274c-0.248 0.248-0.248 0.662 0 0.951 0.124 0.124 0.331 0.207 0.455 0.207s0.372-0.083 0.455-0.207l1.158-1.158c0 6.78-5.54 12.279-12.279 12.279-0.372 0-0.662 0.289-0.662 0.662s0.289 0.662 0.662 0.662c7.525 0 13.643-6.078 13.643-13.602l1.116 1.116c0.124 0.124 0.331 0.207 0.455 0.207s0.372-0.083 0.455-0.207c0.289-0.248 0.289-0.662 0.041-0.91z"></path>
</svg>
