<!-- Generated by IcoMoon.io -->
<svg version="1.1" xmlns="http://www.w3.org/2000/svg" width="24" height="24" viewBox="0 0 24 24">
<path d="M2 13c0.6 0 1-0.4 1-1 0-5 4-9 9-9 2.8 0 5.3 1.3 7 3.3l-3.9-0.5c-0.5 0-1.1 0.4-1.1 0.9s0.4 1 0.9 1.1l6 0.8h0.1c0.5 0 0.9-0.4 1-0.9l0.8-5.9c0-0.5-0.4-1-0.9-1.1-0.5 0-1 0.4-1.1 0.9l-0.5 3.2c-2-2.4-5-3.8-8.3-3.8-6.1 0-11 4.9-11 11 0 0.6 0.4 1 1 1z"></path>
<path d="M22 11c-0.6 0-1 0.4-1 1 0 5-4 9-9 9-2.8 0-5.3-1.3-7-3.3l3.9 0.5c0.5 0 1-0.4 1.1-0.9 0-0.5-0.4-1-0.9-1.1l-6-0.8c-0.5 0-1 0.4-1.1 0.9l-0.8 5.9c0 0.5 0.4 1 1 1.1 0.5 0 0.9-0.4 1-0.9l0.5-3.2c2 2.4 5.1 3.8 8.3 3.8 6.1 0 11-4.9 11-11 0-0.6-0.4-1-1-1z"></path>
</svg>
