<?xml version="1.0" encoding="utf-8"?>
<!-- Generator: Adobe Illustrator 21.0.2, SVG Export Plug-In . SVG Version: 6.00 Build 0)  -->
<svg version="1.1" id="Layer_1" xmlns="http://www.w3.org/2000/svg" xmlns:xlink="http://www.w3.org/1999/xlink" x="0px" y="0px"
	 viewBox="0 0 24 24" style="enable-background:new 0 0 24 24;" xml:space="preserve">
<g transform="translate(0, 0)">
	<g>
		<path d="M2,13c-0.6,0-1-0.4-1-1C1,5.9,5.9,1,12,1c4.2,0,8,2.3,9.8,6.1c0.2,0.5,0,1.1-0.5,1.3s-1.1,0-1.3-0.5c-1.5-3-4.5-4.9-8-4.9
			c-5,0-9,4-9,9C3,12.6,2.6,13,2,13z"/>
	</g>
	<g>
		<path d="M12,23c-4.2,0-8-2.3-9.8-6.1c-0.2-0.5,0-1.1,0.5-1.3s1.1,0,1.3,0.5c1.5,3,4.5,4.9,8,4.9c5,0,9-4,9-9c0-0.6,0.4-1,1-1
			s1,0.4,1,1C23,18.1,18.1,23,12,23z"/>
	</g>
	<g>
		<path d="M21,8.6h-0.1l-6-0.8C14.4,7.7,14,7.2,14,6.7s0.6-0.9,1.1-0.9l5,0.7l0.7-4.9c0.1-0.5,0.6-0.9,1.1-0.9
			c0.5,0.1,0.9,0.6,0.9,1.1L22,7.7C21.9,8.2,21.5,8.6,21,8.6z"/>
	</g>
	<g>
		<path d="M2.2,23.3L2.2,23.3c-0.6-0.1-1-0.6-1-1.1L2,16.3c0.1-0.5,0.6-0.9,1.1-0.9l6,0.8c0.5,0.1,0.9,0.6,0.9,1.1
			c-0.1,0.5-0.6,0.9-1.1,0.9l-5-0.7l-0.7,4.9C3.1,22.9,2.7,23.3,2.2,23.3z"/>
	</g>
</g>
</svg>
