<?xml version="1.0" encoding="utf-8"?>
<!-- Generated by IcoMoon.io -->
<!DOCTYPE svg PUBLIC "-//W3C//DTD SVG 1.1//EN" "http://www.w3.org/Graphics/SVG/1.1/DTD/svg11.dtd">
<svg version="1.1" xmlns="http://www.w3.org/2000/svg" xmlns:xlink="http://www.w3.org/1999/xlink" width="32" height="32" viewBox="0 0 32 32">
<path d="M12.133 30c0.4 0 0.8-0.4 0.8-0.8v-8.667c0-0.4-0.4-0.8-0.8-0.8h-8.667c-0.4 0-0.8 0.4-0.8 0.8s0.4 0.8 0.8 0.8h6.933l-10 10c-0.267 0.267-0.267 0.8 0 1.067 0.133 0.133 0.4 0.267 0.533 0.267s0.4-0.133 0.533-0.267l10-10v6.933c0 0.267 0.267 0.667 0.667 0.667zM19.733 3.467c-0.4 0-0.8 0.4-0.8 0.8v8.667c0 0.4 0.4 0.8 0.8 0.8h8.667c0.4 0 0.8-0.4 0.8-0.8s-0.4-0.8-0.8-0.8h-6.933l10.133-10.133c0.267-0.267 0.267-0.8 0-1.067s-0.667-0.267-0.933 0l-10.133 10.133v-6.933c0-0.4-0.4-0.667-0.8-0.667z"></path>
</svg>
