<!-- Generated by IcoMoon.io -->
<svg version="1.1" xmlns="http://www.w3.org/2000/svg" width="24" height="24" viewBox="0 0 24 24">
<title>resize</title>
<path d="M10.6 11.2l-3.9-3.9c-0.4-0.4-1-0.4-1.4 0s-0.4 1 0 1.4l2.3 2.3h-6.6c-0.6 0-1 0.4-1 1s0.4 1 1 1h6.6l-2.3 2.3c-0.4 0.4-0.4 1 0 1.4 0.2 0.2 0.4 0.3 0.7 0.3s0.5-0.1 0.7-0.3l3.9-3.9c0.3-0.2 0.4-0.4 0.4-0.8s-0.2-0.6-0.4-0.8z"></path>
<path d="M23 11h-6.6l2.3-2.3c0.4-0.4 0.4-1 0-1.4s-1-0.4-1.4 0l-3.9 3.9c-0.2 0.2-0.4 0.4-0.4 0.8s0.2 0.6 0.4 0.8l3.9 3.9c0.2 0.2 0.4 0.3 0.7 0.3s0.5-0.1 0.7-0.3c0.4-0.4 0.4-1 0-1.4l-2.3-2.3h6.6c0.6 0 1-0.4 1-1s-0.4-1-1-1z"></path>
</svg>
