<!-- Generated by IcoMoon.io -->
<svg version="1.1" xmlns="http://www.w3.org/2000/svg" width="24" height="24" viewBox="0 0 24 24">
<path d="M23 9c0-0.2 0-0.3-0.1-0.4l-4-8c-0.2-0.4-0.5-0.6-0.9-0.6h-12c-0.4 0-0.7 0.2-0.9 0.6l-4 8c-0.1 0.1-0.1 0.2-0.1 0.4 0 2 0.9 3.1 2 3.7v10.3c0 0.6 0.4 1 1 1h6c0.6 0 1-0.4 1-1v-4h2v4c0 0.6 0.4 1 1 1h6c0.6 0 1-0.4 1-1v-10.3c1.1-0.6 2-1.7 2-3.7zM15 22v-4c0-0.6-0.4-1-1-1h-4c-0.6 0-1 0.4-1 1v4h-4v-9c0.8-0.1 1.5-0.5 2-1 0.6 0.6 1.5 1 2.5 1s1.9-0.4 2.5-1c0.6 0.6 1.5 1 2.5 1s1.9-0.4 2.5-1c0.5 0.5 1.2 0.8 2 1v9h-4zM19.5 11c-0.8 0-1.5-0.7-1.5-1.5 0-0.6-0.4-1-1-1s-1 0.4-1 1c0 0.8-0.7 1.5-1.5 1.5s-1.5-0.7-1.5-1.5c0-0.6-0.4-1-1-1s-1 0.4-1 1c0 0.8-0.7 1.5-1.5 1.5s-1.5-0.7-1.5-1.5c0-0.6-0.4-1-1-1s-1 0.4-1 1c0 0.8-0.7 1.5-1.5 1.5-1.2 0-1.5-1-1.5-1.8l3.6-7.2h10.8l3.6 7.2c0 0.8-0.3 1.8-1.5 1.8z"></path>
</svg>
