<?xml version="1.0" encoding="utf-8"?>
<!-- Generator: Adobe Illustrator 21.0.2, SVG Export Plug-In . SVG Version: 6.00 Build 0)  -->
<svg version="1.1" id="Layer_1" xmlns="http://www.w3.org/2000/svg" xmlns:xlink="http://www.w3.org/1999/xlink" x="0px" y="0px"
	 viewBox="0 0 24 24" style="enable-background:new 0 0 24 24;" xml:space="preserve">
<g transform="translate(0, 0)">
	<g>
		<path d="M20,24h-6c-0.6,0-1-0.4-1-1v-4h-2v4c0,0.6-0.4,1-1,1H4c-0.6,0-1-0.4-1-1V12c0-0.6,0.4-1,1-1s1,0.4,1,1v10h4v-4
			c0-0.6,0.4-1,1-1h4c0.6,0,1,0.4,1,1v4h4V12c0-0.6,0.4-1,1-1s1,0.4,1,1v11C21,23.6,20.6,24,20,24z"/>
	</g>
	<g>
		<path d="M19.5,13c-1,0-1.9-0.4-2.5-1c-0.6,0.6-1.5,1-2.5,1s-1.9-0.4-2.5-1c-0.6,0.6-1.5,1-2.5,1S7.6,12.6,7,12
			c-0.6,0.6-1.5,1-2.5,1C2.8,13,1,11.8,1,9c0-0.2,0-0.3,0.1-0.4l4-8C5.3,0.2,5.6,0,6,0h12c0.4,0,0.7,0.2,0.9,0.6l4,8
			C23,8.7,23,8.8,23,9C23,11.8,21.2,13,19.5,13z M18,9.5c0,0.8,0.7,1.5,1.5,1.5c1.2,0,1.5-1,1.5-1.8L17.4,2H6.6L3,9.2
			C3,10,3.3,11,4.5,11C5.3,11,6,10.3,6,9.5c0-0.6,0.4-1,1-1s1,0.4,1,1C8,10.3,8.7,11,9.5,11S11,10.3,11,9.5c0-0.6,0.4-1,1-1
			s1,0.4,1,1c0,0.8,0.7,1.5,1.5,1.5S16,10.3,16,9.5c0-0.6,0.4-1,1-1S18,8.9,18,9.5z"/>
	</g>
</g>
</svg>
