<?xml version="1.0" encoding="utf-8"?>
<!-- Generated by IcoMoon.io -->
<!DOCTYPE svg PUBLIC "-//W3C//DTD SVG 1.1//EN" "http://www.w3.org/Graphics/SVG/1.1/DTD/svg11.dtd">
<svg version="1.1" xmlns="http://www.w3.org/2000/svg" xmlns:xlink="http://www.w3.org/1999/xlink" width="32" height="32" viewBox="0 0 32 32">
<path d="M31.867 28.267v-19.733c0-0.733-0.333-1.467-0.867-2l-4.8-4.8c-0.533-0.533-1.267-0.867-2-0.867h-19.8c-2.267 0-4.267 2-4.267 4.267v23.2c0 2.267 2 4.267 4.267 4.267h23.2c2.267-0.067 4.267-2.067 4.267-4.333zM9.467 2.2h13.067v10.6c0 0.6-0.4 1.133-0.933 1.133h-11.2c-0.6 0-0.933-0.533-0.933-1.133v-10.6zM9.467 31.133v-8.467c0-0.6 0.4-1.2 1-1.2h11.133c0.6 0 1 0.6 1 1.2v8.467h-13.133zM30.467 28.267c0 1.533-1.333 2.867-2.867 2.867h-3.667v-8.467c0-1.333-1-2.6-2.333-2.6h-11.2c-1.333 0-2.333 1.267-2.333 2.6v8.467h-3.667c-1.533 0-2.867-1.333-2.867-2.867v-23.2c0-1.533 1.333-2.867 2.867-2.867h3.667v10.6c0 1.333 1 2.467 2.333 2.467h11.2c1.333 0 2.333-1.133 2.333-2.467v-10.6h0.2c0.4 0 0.733 0.2 1 0.467l4.8 4.8c0.267 0.267 0.467 0.667 0.467 1.067 0.067 0 0.067 19.733 0.067 19.733zM19.067 11c0.4 0 0.667-0.333 0.667-0.667v-5.933c0-0.4-0.333-0.667-0.667-0.667-0.4 0-0.667 0.333-0.667 0.667v5.867c0 0.4 0.333 0.733 0.667 0.733z"></path>
</svg>
