<!-- Generated by IcoMoon.io -->
<svg version="1.1" xmlns="http://www.w3.org/2000/svg" width="24" height="24" viewBox="0 0 24 24">
<title>save-full</title>
<path d="M23.813 7.419l-5-7c-0.187-0.263-0.49-0.419-0.813-0.419h-3v7c0 0.553-0.447 1-1 1h-8c-0.553 0-1-0.447-1-1v-7h-4c-0.553 0-1 0.447-1 1v22c0 0.553 0.447 1 1 1h22c0.553 0 1-0.447 1-1v-15c0-0.208-0.065-0.412-0.187-0.581zM19 20c0 0.553-0.447 1-1 1h-12c-0.553 0-1-0.447-1-1v-5c0-0.553 0.447-1 1-1h12c0.553 0 1 0.447 1 1v5z"></path>
<path d="M10 0h3v6h-3v-6z"></path>
</svg>
