<?xml version="1.0" encoding="utf-8"?>
<!-- Generator: Adobe Illustrator 21.0.2, SVG Export Plug-In . SVG Version: 6.00 Build 0)  -->
<svg version="1.1" id="Layer_1" xmlns="http://www.w3.org/2000/svg" xmlns:xlink="http://www.w3.org/1999/xlink" x="0px" y="0px"
	 viewBox="0 0 24 24" style="enable-background:new 0 0 24 24;" xml:space="preserve">
<g transform="translate(0, 0)">
	<g>
		<path d="M15,9H5C4.4,9,4,8.6,4,8V1c0-0.6,0.4-1,1-1s1,0.4,1,1v6h8V1c0-0.6,0.4-1,1-1s1,0.4,1,1v7C16,8.6,15.6,9,15,9z"/>
	</g>
	<g>
		<path d="M19,24c-0.6,0-1-0.4-1-1v-9H6v9c0,0.6-0.4,1-1,1s-1-0.4-1-1V13c0-0.6,0.4-1,1-1h14c0.6,0,1,0.4,1,1v10
			C20,23.6,19.6,24,19,24z"/>
	</g>
	<g>
		<path d="M23,24H1c-0.6,0-1-0.4-1-1V1c0-0.6,0.4-1,1-1h17c0.3,0,0.6,0.2,0.8,0.4l5,7C23.9,7.6,24,7.8,24,8v15
			C24,23.6,23.6,24,23,24z M2,22h20V8.3L17.5,2H2V22z"/>
	</g>
	<g>
		<path d="M15,19H9c-0.6,0-1-0.4-1-1s0.4-1,1-1h6c0.6,0,1,0.4,1,1S15.6,19,15,19z"/>
	</g>
</g>
</svg>
