<?xml version="1.0" encoding="utf-8"?>
<!-- Generated by IcoMoon.io -->
<!DOCTYPE svg PUBLIC "-//W3C//DTD SVG 1.1//EN" "http://www.w3.org/Graphics/SVG/1.1/DTD/svg11.dtd">
<svg version="1.1" xmlns="http://www.w3.org/2000/svg" xmlns:xlink="http://www.w3.org/1999/xlink" width="32" height="32" viewBox="0 0 32 32">
<path d="M21.933 21.467c2.067-2.2 3.333-5.067 3.333-8.4 0-6.8-5.533-12.333-12.333-12.333s-12.4 5.533-12.4 12.4 5.533 12.333 12.333 12.333c2.667 0 5.4-0.933 7.467-2.4l9.2 9.2c0.133 0.133 0.467 0.333 0.8 0.333s0.667-0.133 0.8-0.333c0.467-0.467 0.467-1.133 0-1.6l-9.2-9.2zM2.733 13.133c0-5.533 4.6-10.133 10.133-10.133s10.133 4.6 10.133 10.133-4.6 10.133-10.133 10.133-10.133-4.6-10.133-10.133z"></path>
</svg>
