<!-- Generated by IcoMoon.io -->
<svg version="1.1" xmlns="http://www.w3.org/2000/svg" width="24" height="24" viewBox="0 0 24 24">
<title>search-full</title>
<path d="M19.707 18.293c-0.391-0.391-1.023-0.391-1.414 0s-0.391 1.023 0 1.414l3 3c0.195 0.195 0.451 0.293 0.707 0.293s0.512-0.098 0.707-0.293c0.391-0.391 0.391-1.023 0-1.414l-3-3z"></path>
<path d="M10 0c-5.514 0-10 4.486-10 10s4.486 10 10 10 10-4.486 10-10-4.486-10-10-10zM9.199 6.080c-1.575 0.32-2.799 1.544-3.119 3.119l-0.199 0.98-1.96-0.397 0.199-0.98c0.48-2.365 2.317-4.202 4.681-4.682l0.98-0.199 0.397 1.96-0.979 0.199z"></path>
</svg>
