<svg xmlns="http://www.w3.org/2000/svg" width="32" height="32" viewBox="0 0 32 32">
    <path d="M13.667 4.067H.934a.74.74 0 0 0-.733.733v12.733c0 .4.333.733.733.733h12.733a.74.74 0 0 0 .733-.733V4.8a.74.74 0 0 0-.733-.733zM13.4 16.6a.74.74 0 0 1-.733.733h-10.8a.74.74 0 0 1-.733-.733V5.8c0-.4.333-.733.733-.733h10.8c.4 0 .733.333.733.733v10.8zM31.067.867H18.334a.74.74 0 0 0-.733.733v12.733c0 .4.333.733.733.733h12.733a.74.74 0 0 0 .733-.733V1.6c.067-.4-.267-.733-.733-.733zm-.2 12.533a.74.74 0 0 1-.733.733h-10.8a.74.74 0 0 1-.733-.733V2.6c0-.4.333-.733.733-.733h10.8c.4 0 .733.333.733.733v10.8zm-17.2 4.8H.934a.74.74 0 0 0-.733.733v12.733c0 .4.333.733.733.733h12.733a.74.74 0 0 0 .733-.733V18.999c0-.467-.333-.8-.733-.8zM13.4 30.733a.74.74 0 0 1-.733.733h-10.8a.74.74 0 0 1-.733-.733v-10.8c0-.4.333-.733.733-.733h10.8c.4 0 .733.333.733.733v10.8zM27.867 18.2H15.134a.74.74 0 0 0-.733.733v12.733c0 .4.333.733.733.733h12.733a.74.74 0 0 0 .733-.733V18.999c.067-.467-.267-.8-.733-.8zm-.2 12.533a.74.74 0 0 1-.733.733h-10.8a.74.74 0 0 1-.733-.733v-10.8c0-.4.333-.733.733-.733h10.8c.4 0 .733.333.733.733v10.8z"/>
</svg>
