<?xml version="1.0" encoding="utf-8"?>
<!-- Generated by IcoMoon.io -->
<!DOCTYPE svg PUBLIC "-//W3C//DTD SVG 1.1//EN" "http://www.w3.org/Graphics/SVG/1.1/DTD/svg11.dtd">
<svg version="1.1" xmlns="http://www.w3.org/2000/svg" xmlns:xlink="http://www.w3.org/1999/xlink" width="32" height="32" viewBox="0 0 32 32">
<path d="M13.667 4.067h-12.733c-0.4 0-0.733 0.333-0.733 0.733v12.733c0 0.4 0.333 0.733 0.733 0.733h12.733c0.4 0 0.733-0.333 0.733-0.733v-12.733c0-0.4-0.333-0.733-0.733-0.733zM13.4 16.6c0 0.4-0.333 0.733-0.733 0.733h-10.8c-0.4 0-0.733-0.333-0.733-0.733v-10.8c0-0.4 0.333-0.733 0.733-0.733h10.8c0.4 0 0.733 0.333 0.733 0.733v10.8zM31.067 0.867h-12.733c-0.4 0-0.733 0.333-0.733 0.733v12.733c0 0.4 0.333 0.733 0.733 0.733h12.733c0.4 0 0.733-0.333 0.733-0.733v-12.733c0.067-0.4-0.267-0.733-0.733-0.733zM30.867 13.4c0 0.4-0.333 0.733-0.733 0.733h-10.8c-0.4 0-0.733-0.333-0.733-0.733v-10.8c0-0.4 0.333-0.733 0.733-0.733h10.8c0.4 0 0.733 0.333 0.733 0.733v10.8zM13.667 18.2h-12.733c-0.4 0-0.733 0.333-0.733 0.733v12.733c0 0.4 0.333 0.733 0.733 0.733h12.733c0.4 0 0.733-0.333 0.733-0.733v-12.667c0-0.467-0.333-0.8-0.733-0.8zM13.4 30.733c0 0.4-0.333 0.733-0.733 0.733h-10.8c-0.4 0-0.733-0.333-0.733-0.733v-10.8c0-0.4 0.333-0.733 0.733-0.733h10.8c0.4 0 0.733 0.333 0.733 0.733v10.8zM27.867 18.2h-12.733c-0.4 0-0.733 0.333-0.733 0.733v12.733c0 0.4 0.333 0.733 0.733 0.733h12.733c0.4 0 0.733-0.333 0.733-0.733v-12.667c0.067-0.467-0.267-0.8-0.733-0.8zM27.667 30.733c0 0.4-0.333 0.733-0.733 0.733h-10.8c-0.4 0-0.733-0.333-0.733-0.733v-10.8c0-0.4 0.333-0.733 0.733-0.733h10.8c0.4 0 0.733 0.333 0.733 0.733v10.8z"></path>
</svg>
