<?xml version="1.0" encoding="utf-8"?>
<!-- Generator: Adobe Illustrator 21.0.2, SVG Export Plug-In . SVG Version: 6.00 Build 0)  -->
<svg version="1.1" id="Layer_1" xmlns="http://www.w3.org/2000/svg" xmlns:xlink="http://www.w3.org/1999/xlink" x="0px" y="0px"
	 viewBox="0 0 24 24" style="enable-background:new 0 0 24 24;" xml:space="preserve">
<g transform="translate(0, 0)">
	<g>
		<path d="M16,17H8c-0.6,0-1-0.4-1-1V8c0-0.6,0.4-1,1-1h8c0.6,0,1,0.4,1,1v8C17,16.6,16.6,17,16,17z M9,15h6V9H9V15z"/>
	</g>
	<g>
		<path d="M8,4C7.4,4,7,3.6,7,3V1c0-0.6,0.4-1,1-1h2c0.6,0,1,0.4,1,1s-0.4,1-1,1H9v1C9,3.6,8.6,4,8,4z"/>
	</g>
	<g>
		<path d="M23,4c-0.6,0-1-0.4-1-1V2h-1c-0.6,0-1-0.4-1-1s0.4-1,1-1h2c0.6,0,1,0.4,1,1v2C24,3.6,23.6,4,23,4z"/>
	</g>
	<g>
		<path d="M23,17h-2c-0.6,0-1-0.4-1-1s0.4-1,1-1h1v-1c0-0.6,0.4-1,1-1s1,0.4,1,1v2C24,16.6,23.6,17,23,17z"/>
	</g>
	<g>
		<path d="M17,2h-3c-0.6,0-1-0.4-1-1s0.4-1,1-1h3c0.6,0,1,0.4,1,1S17.6,2,17,2z"/>
	</g>
	<g>
		<path d="M23,11c-0.6,0-1-0.4-1-1V7c0-0.6,0.4-1,1-1s1,0.4,1,1v3C24,10.6,23.6,11,23,11z"/>
	</g>
	<g>
		<path d="M1,11c-0.6,0-1-0.4-1-1V8c0-0.6,0.4-1,1-1h2c0.6,0,1,0.4,1,1S3.6,9,3,9H2v1C2,10.6,1.6,11,1,11z"/>
	</g>
	<g>
		<path d="M3,24H1c-0.6,0-1-0.4-1-1v-2c0-0.6,0.4-1,1-1s1,0.4,1,1v1h1c0.6,0,1,0.4,1,1S3.6,24,3,24z"/>
	</g>
	<g>
		<path d="M16,24h-2c-0.6,0-1-0.4-1-1s0.4-1,1-1h1v-1c0-0.6,0.4-1,1-1s1,0.4,1,1v2C17,23.6,16.6,24,16,24z"/>
	</g>
	<g>
		<path d="M1,18c-0.6,0-1-0.4-1-1v-3c0-0.6,0.4-1,1-1s1,0.4,1,1v3C2,17.6,1.6,18,1,18z"/>
	</g>
	<g>
		<path d="M10,24H7c-0.6,0-1-0.4-1-1s0.4-1,1-1h3c0.6,0,1,0.4,1,1S10.6,24,10,24z"/>
	</g>
</g>
</svg>
