<!-- Generated by IcoMoon.io -->
<svg version="1.1" xmlns="http://www.w3.org/2000/svg" width="24" height="24" viewBox="0 0 24 24">
<title>segment</title>
<path d="M16 7h-8c-0.6 0-1 0.4-1 1v8c0 0.6 0.4 1 1 1h8c0.6 0 1-0.4 1-1v-8c0-0.6-0.4-1-1-1zM15 15h-6v-6h6v6z"></path>
<path d="M8 4c0.6 0 1-0.4 1-1v-1h1c0.6 0 1-0.4 1-1s-0.4-1-1-1h-2c-0.6 0-1 0.4-1 1v2c0 0.6 0.4 1 1 1z"></path>
<path d="M23 0h-2c-0.6 0-1 0.4-1 1s0.4 1 1 1h1v1c0 0.6 0.4 1 1 1s1-0.4 1-1v-2c0-0.6-0.4-1-1-1z"></path>
<path d="M23 13c-0.6 0-1 0.4-1 1v1h-1c-0.6 0-1 0.4-1 1s0.4 1 1 1h2c0.6 0 1-0.4 1-1v-2c0-0.6-0.4-1-1-1z"></path>
<path d="M17 0h-3c-0.6 0-1 0.4-1 1s0.4 1 1 1h3c0.6 0 1-0.4 1-1s-0.4-1-1-1z"></path>
<path d="M23 6c-0.6 0-1 0.4-1 1v3c0 0.6 0.4 1 1 1s1-0.4 1-1v-3c0-0.6-0.4-1-1-1z"></path>
<path d="M3 7h-2c-0.6 0-1 0.4-1 1v2c0 0.6 0.4 1 1 1s1-0.4 1-1v-1h1c0.6 0 1-0.4 1-1s-0.4-1-1-1z"></path>
<path d="M3 22h-1v-1c0-0.6-0.4-1-1-1s-1 0.4-1 1v2c0 0.6 0.4 1 1 1h2c0.6 0 1-0.4 1-1s-0.4-1-1-1z"></path>
<path d="M16 20c-0.6 0-1 0.4-1 1v1h-1c-0.6 0-1 0.4-1 1s0.4 1 1 1h2c0.6 0 1-0.4 1-1v-2c0-0.6-0.4-1-1-1z"></path>
<path d="M1 18c0.6 0 1-0.4 1-1v-3c0-0.6-0.4-1-1-1s-1 0.4-1 1v3c0 0.6 0.4 1 1 1z"></path>
<path d="M10 22h-3c-0.6 0-1 0.4-1 1s0.4 1 1 1h3c0.6 0 1-0.4 1-1s-0.4-1-1-1z"></path>
</svg>
