<?xml version="1.0" encoding="utf-8"?>
<!-- Generator: Adobe Illustrator 21.0.2, SVG Export Plug-In . SVG Version: 6.00 Build 0)  -->
<svg version="1.1" id="Layer_1" xmlns="http://www.w3.org/2000/svg" xmlns:xlink="http://www.w3.org/1999/xlink" x="0px" y="0px"
	 viewBox="0 0 24 24" style="enable-background:new 0 0 24 24;" xml:space="preserve">
<g transform="translate(0, 0)">
	<g>
		<path d="M23,24H1c-0.6,0-1-0.4-1-1V11c0-0.3,0.2-0.6,0.4-0.8l4-2.9C4.9,7,5.5,7.1,5.8,7.5C6.1,8,6,8.6,5.6,8.9L2,11.5V22h20V11.5
			l-3.6-2.6C18,8.6,17.9,8,18.2,7.5c0.3-0.4,0.9-0.5,1.4-0.2l4,2.9c0.3,0.2,0.4,0.5,0.4,0.8v12C24,23.6,23.6,24,23,24z"/>
	</g>
	<g>
		<path d="M19,14.2c-0.6,0-1-0.4-1-1V2H6v11.2c0,0.6-0.4,1-1,1s-1-0.4-1-1V1c0-0.6,0.4-1,1-1h14c0.6,0,1,0.4,1,1v12.2
			C20,13.8,19.6,14.2,19,14.2z"/>
	</g>
	<g>
		<path d="M23,24c-0.2,0-0.3,0-0.5-0.1l-22-12C0,11.6-0.1,11,0.1,10.5C0.4,10,1,9.9,1.5,10.1l22,12c0.5,0.3,0.7,0.9,0.4,1.4
			C23.7,23.8,23.4,24,23,24z"/>
	</g>
	<g>
		<path d="M12,18c-0.4,0-0.7-0.2-0.9-0.5c-0.3-0.5-0.1-1.1,0.4-1.4l11-6c0.5-0.3,1.1-0.1,1.4,0.4s0.1,1.1-0.4,1.4l-11,6
			C12.3,18,12.2,18,12,18z"/>
	</g>
	<g>
		<path d="M15,7H9C8.4,7,8,6.6,8,6s0.4-1,1-1h6c0.6,0,1,0.4,1,1S15.6,7,15,7z"/>
	</g>
	<g>
		<path d="M15,11H9c-0.6,0-1-0.4-1-1s0.4-1,1-1h6c0.6,0,1,0.4,1,1S15.6,11,15,11z"/>
	</g>
</g>
</svg>
