<!-- Generated by IcoMoon.io -->
<svg version="1.1" xmlns="http://www.w3.org/2000/svg" width="24" height="24" viewBox="0 0 24 24">
<title>send</title>
<path d="M23 1.9c0-0.1 0-0.2-0.1-0.3 0 0 0-0.1 0-0.1 0-0.1-0.1-0.2-0.2-0.3s-0.2-0.1-0.3-0.2c0 0-0.1 0-0.1 0-0.1 0-0.2 0-0.3-0.1 0 0.1 0 0.1 0 0.1-0.1 0-0.2 0-0.3 0.1l-19 7c-0.4 0.1-0.7 0.4-0.7 0.8s0.2 0.8 0.6 0.9l7.7 3.9 3.9 7.7c0.2 0.3 0.5 0.6 0.9 0.6 0 0 0 0 0.1 0 0.4 0 0.7-0.3 0.9-0.7l7-19c-0.1-0.1-0.1-0.2-0.1-0.4 0 0.1 0 0.1 0 0zM18.1 4.5l-7.3 7.3-5.3-2.7 12.6-4.6zM14.9 18.5l-2.6-5.3 7.3-7.3-4.7 12.6z"></path>
</svg>
