<svg xmlns="http://www.w3.org/2000/svg" width="32" height="32" viewBox="0 0 32 32">
    <path d="M31.2 12.733L26.933 11V1.867c0-.533-.467-1-1-1H6.2c-.533 0-1 .467-1 1V11L.933 12.733c-.4.133-.667.533-.667.933v17.733c0 .533.467 1 1 1h29.533c.533 0 1-.467 1-1V13.666c0-.4-.267-.733-.6-.933zm-2.333 1.2l-2 1.2v-2l2 .8zM24.933 2.867v13.467l-8.867 5.533L7.199 16.4V2.867h17.733zM5.2 15.2l-2-1.2 2-.8v2zM2.267 30.4V15.667l13.267 8.2c.133.067.333.133.533.133s.333-.067.533-.133l13.267-8.2v14.8h-27.6zM18 6.8h3.933c.533 0 1-.467 1-1s-.467-1-1-1H18c-.533 0-1 .467-1 1s.467 1 1 1zm-7.867 3.933h11.8c.533 0 1-.467 1-1s-.467-1-1-1h-11.8c-.533 0-1 .467-1 1s.467 1 1 1zm0 3.934h11.8c.533 0 1-.467 1-1s-.467-1-1-1h-11.8c-.533 0-1 .467-1 1s.467 1 1 1z"/>
</svg>
