<?xml version="1.0" encoding="utf-8"?>
<!-- Generated by IcoMoon.io -->
<!DOCTYPE svg PUBLIC "-//W3C//DTD SVG 1.1//EN" "http://www.w3.org/Graphics/SVG/1.1/DTD/svg11.dtd">
<svg version="1.1" xmlns="http://www.w3.org/2000/svg" xmlns:xlink="http://www.w3.org/1999/xlink" width="32" height="32" viewBox="0 0 32 32">
<path d="M31.2 12.733l-4.267-1.733v-9.133c0-0.533-0.467-1-1-1h-19.733c-0.533 0-1 0.467-1 1v9.133l-4.267 1.733c-0.4 0.133-0.667 0.533-0.667 0.933v0 17.733c0 0.533 0.467 1 1 1h29.533c0.533 0 1-0.467 1-1v-17.733c0-0.4-0.267-0.733-0.6-0.933zM28.867 13.933l-2 1.2v-2l2 0.8zM24.933 2.867v13.467l-8.867 5.533-8.867-5.467v-13.533h17.733zM5.2 15.2l-2-1.2 2-0.8v2zM2.267 30.4v-14.733l13.267 8.2c0.133 0.067 0.333 0.133 0.533 0.133s0.333-0.067 0.533-0.133l13.267-8.2v14.8h-27.6zM18 6.8h3.933c0.533 0 1-0.467 1-1s-0.467-1-1-1h-3.933c-0.533 0-1 0.467-1 1s0.467 1 1 1zM10.133 10.733h11.8c0.533 0 1-0.467 1-1s-0.467-1-1-1h-11.8c-0.533 0-1 0.467-1 1s0.467 1 1 1zM10.133 14.667h11.8c0.533 0 1-0.467 1-1s-0.467-1-1-1h-11.8c-0.533 0-1 0.467-1 1s0.467 1 1 1z"></path>
</svg>
