<!-- Generated by IcoMoon.io -->
<svg version="1.1" xmlns="http://www.w3.org/2000/svg" width="24" height="24" viewBox="0 0 24 24">
<title>send</title>
<path d="M23 2.1c0-0.1 0-0.2 0-0.3 0 0 0-0.1 0-0.1 0-0.1-0.1-0.2-0.2-0.3 0 0 0 0 0 0s0 0 0 0-0.1-0.1-0.1-0.1c0 0-0.1-0.1-0.1-0.1s0 0-0.1 0c-0.2-0.1-0.3-0.2-0.4-0.2 0 0 0 0-0.1 0s-0.2 0-0.3 0c0 0-0.1 0-0.1 0s0 0-0.1 0l-20 8c-0.2 0.2-0.4 0.5-0.5 0.9 0 0.4 0.1 0.7 0.4 0.9l4.6 3.4v6.8c0 0.4 0.3 0.8 0.7 0.9 0.1 0.1 0.2 0.1 0.3 0.1 0.3 0 0.6-0.1 0.8-0.4l3.1-3.7 6.5 4.9c0.2 0.1 0.4 0.2 0.6 0.2 0.1 0 0.2 0 0.4-0.1 0.3-0.1 0.6-0.4 0.6-0.7l4-20c0 0 0 0 0-0.1 0 0 0 0 0 0zM16.1 5.4l-9 7.2-3.1-2.3 12.1-4.9zM8 18.2v-2.5l1.3 1-1.3 1.5zM17.3 20.2l-8.5-6.4 11.7-9.3-3.2 15.7z"></path>
</svg>
