<!-- Generated by IcoMoon.io -->
<svg version="1.1" xmlns="http://www.w3.org/2000/svg" width="24" height="24" viewBox="0 0 24 24">
<path d="M24 11.3c0.1-0.2 0.1-0.5-0.1-0.8 0 0-0.1-0.1-0.1-0.1s0 0 0 0c-0.1-0.1-0.2-0.2-0.3-0.3l-3.5-2.5v-6.6c0-0.6-0.4-1-1-1h-14c-0.6 0-1 0.4-1 1v6.6l-3.6 2.6c-0.1 0.1-0.3 0.2-0.3 0.3-0.1 0.1-0.1 0.3-0.1 0.4 0 0 0 0 0 0.1v12c0 0.6 0.4 1 1 1h22c0.1 0 0.2 0 0.3-0.1 0.1 0 0.1 0 0.1-0.1 0 0 0.1 0 0.1-0.1 0.1 0 0.1-0.1 0.2-0.1 0-0.1 0.1-0.1 0.1-0.2 0.2-0.2 0.2-0.5 0.1-0.8v-11.3zM14.2 17l7.8-4.3v8.6l-7.8-4.3zM21.1 10.9l-1.1 0.6v-1.4l1.1 0.8zM18 2v10.6l-6 3.3-6-3.3v-10.6h12zM4 11.5l-1.1-0.6 1.1-0.8v1.4zM2 12.7l17 9.3h-17v-9.3z"></path>
<path d="M9 7h6c0.6 0 1-0.4 1-1s-0.4-1-1-1h-6c-0.6 0-1 0.4-1 1s0.4 1 1 1z"></path>
<path d="M9 11h6c0.6 0 1-0.4 1-1s-0.4-1-1-1h-6c-0.6 0-1 0.4-1 1s0.4 1 1 1z"></path>
</svg>
