<!-- Generated by IcoMoon.io -->
<svg version="1.1" xmlns="http://www.w3.org/2000/svg" width="24" height="24" viewBox="0 0 24 24">
<path d="M4 11c0.6 0 1-0.4 1-1v-9c0-0.6-0.4-1-1-1s-1 0.4-1 1v9c0 0.6 0.4 1 1 1z"></path>
<path d="M12 3c0.6 0 1-0.4 1-1v-1c0-0.6-0.4-1-1-1s-1 0.4-1 1v1c0 0.6 0.4 1 1 1z"></path>
<path d="M20 11c0.6 0 1-0.4 1-1v-9c0-0.6-0.4-1-1-1s-1 0.4-1 1v9c0 0.6 0.4 1 1 1z"></path>
<path d="M4 13c-2.2 0-4 1.8-4 4 0 1.9 1.3 3.4 3 3.9v2.1c0 0.6 0.4 1 1 1s1-0.4 1-1v-2.1c1.7-0.4 3-2 3-3.9 0-2.2-1.8-4-4-4zM4 19c-1.1 0-2-0.9-2-2s0.9-2 2-2 2 0.9 2 2-0.9 2-2 2z"></path>
<path d="M16 9c0-2.2-1.8-4-4-4s-4 1.8-4 4c0 1.9 1.3 3.4 3 3.9v10.1c0 0.6 0.4 1 1 1s1-0.4 1-1v-10.1c1.7-0.5 3-2 3-3.9zM12 11c-1.1 0-2-0.9-2-2s0.9-2 2-2 2 0.9 2 2-0.9 2-2 2z"></path>
<path d="M24 17c0-2.2-1.8-4-4-4s-4 1.8-4 4c0 1.9 1.3 3.4 3 3.9v2.1c0 0.6 0.4 1 1 1s1-0.4 1-1v-2.1c1.7-0.5 3-2 3-3.9zM20 19c-1.1 0-2-0.9-2-2s0.9-2 2-2 2 0.9 2 2-0.9 2-2 2z"></path>
</svg>
