<svg xmlns="http://www.w3.org/2000/svg" width="32" height="32" viewBox="0 0 32 32">
    <path d="M16.8 16.533V1.466c0-.467-.333-.8-.8-.8s-.8.333-.8.8v14.867c-2.133.333-3.733 2.267-3.733 4.4a4.455 4.455 0 0 0 3.733 4.4V31.8c0 .467.333.8.8.8s.8-.333.8-.8v-6.667c2.133-.333 3.733-2.267 3.733-4.4s-1.6-3.933-3.733-4.2zm-.8 7.134c-1.667 0-2.8-1.333-2.8-2.8s1.333-2.8 2.8-2.8 2.8 1.333 2.8 2.8-1.133 2.8-2.8 2.8zM5.667 8.8V1.467c0-.467-.267-.8-.8-.8s-.8.333-.8.8V8.8C1.934 9.133.334 11.067.334 13.2a4.455 4.455 0 0 0 3.733 4.4v14.2c0 .467.333.8.8.8s.8-.333.8-.8v-14C7.8 17.467 9.4 15.533 9.4 13.4c.067-2.267-1.6-4.267-3.733-4.6zm-.8 7.4c-1.667 0-2.8-1.333-2.8-2.8 0-1.667 1.333-2.8 2.8-2.8 1.667 0 2.8 1.333 2.8 2.8s-1.133 2.8-2.8 2.8zm26.8-3.467a4.455 4.455 0 0 0-3.733-4.4V1.466c0-.467-.333-.8-.8-.8s-.8.333-.8.8v6.867c-2.133.333-3.733 2.267-3.733 4.4a4.455 4.455 0 0 0 3.733 4.4v14.733c0 .467.333.8.8.8s.8-.333.8-.8V17.133c2.133-.333 3.733-2.133 3.733-4.4zm-4.534 2.934c-1.667 0-2.8-1.333-2.8-2.8s1.333-2.8 2.8-2.8c1.667 0 2.8 1.333 2.8 2.8-.067 1.533-1.2 2.8-2.8 2.8z"/>
</svg>
