<?xml version="1.0" encoding="utf-8"?>
<!-- Generator: Adobe Illustrator 21.0.2, SVG Export Plug-In . SVG Version: 6.00 Build 0)  -->
<svg version="1.1" id="Layer_1" xmlns="http://www.w3.org/2000/svg" xmlns:xlink="http://www.w3.org/1999/xlink" x="0px" y="0px"
	 viewBox="0 0 24 24" style="enable-background:new 0 0 24 24;" xml:space="preserve">
<g transform="translate(0, 0)">
	<g>
		<path d="M4,11c-0.6,0-1-0.4-1-1V1c0-0.6,0.4-1,1-1s1,0.4,1,1v9C5,10.6,4.6,11,4,11z"/>
	</g>
	<g>
		<path d="M4,24c-0.6,0-1-0.4-1-1v-3c0-0.6,0.4-1,1-1s1,0.4,1,1v3C5,23.6,4.6,24,4,24z"/>
	</g>
	<g>
		<path d="M12,3c-0.6,0-1-0.4-1-1V1c0-0.6,0.4-1,1-1s1,0.4,1,1v1C13,2.6,12.6,3,12,3z"/>
	</g>
	<g>
		<path d="M12,24c-0.6,0-1-0.4-1-1V12c0-0.6,0.4-1,1-1s1,0.4,1,1v11C13,23.6,12.6,24,12,24z"/>
	</g>
	<g>
		<path d="M20,11c-0.6,0-1-0.4-1-1V1c0-0.6,0.4-1,1-1s1,0.4,1,1v9C21,10.6,20.6,11,20,11z"/>
	</g>
	<g>
		<path d="M20,24c-0.6,0-1-0.4-1-1v-3c0-0.6,0.4-1,1-1s1,0.4,1,1v3C21,23.6,20.6,24,20,24z"/>
	</g>
	<g>
		<path d="M4,21c-2.2,0-4-1.8-4-4s1.8-4,4-4s4,1.8,4,4S6.2,21,4,21z M4,15c-1.1,0-2,0.9-2,2s0.9,2,2,2s2-0.9,2-2S5.1,15,4,15z"/>
	</g>
	<g>
		<path d="M12,13c-2.2,0-4-1.8-4-4s1.8-4,4-4s4,1.8,4,4S14.2,13,12,13z M12,7c-1.1,0-2,0.9-2,2s0.9,2,2,2s2-0.9,2-2S13.1,7,12,7z"/>
	</g>
	<g>
		<path d="M20,21c-2.2,0-4-1.8-4-4s1.8-4,4-4s4,1.8,4,4S22.2,21,20,21z M20,15c-1.1,0-2,0.9-2,2s0.9,2,2,2s2-0.9,2-2S21.1,15,20,15z
			"/>
	</g>
</g>
</svg>
