<svg xmlns="http://www.w3.org/2000/svg" width="104" height="32" viewBox="0 0 104 32">
    <path d="M16.031 32.667c-.942 0-1.884-.084-2.804-.251-4.207-.753-7.869-3.077-10.318-6.593a15.834 15.834 0 0 1-2.637-11.95C1.632 6.213 8.246.646 16.01.646c.921 0 1.863.084 2.804.251 8.685 1.528 14.504 9.857 12.976 18.543-1.381 7.66-7.995 13.227-15.759 13.227zm36.165 0c-.942 0-1.884-.084-2.804-.251-4.207-.753-7.869-3.077-10.318-6.593a15.834 15.834 0 0 1-2.637-11.95C37.797 6.213 44.411.646 52.175.646c.921 0 1.863.084 2.804.251 8.685 1.528 14.504 9.857 12.976 18.543-1.381 7.66-7.995 13.227-15.759 13.227zm36.165 0c-.942 0-1.884-.084-2.804-.251-4.207-.753-7.869-3.077-10.318-6.593a15.834 15.834 0 0 1-2.637-11.95C73.962 6.213 80.576.646 88.34.646c.921 0 1.863.084 2.804.251 8.685 1.528 14.504 9.857 12.976 18.543-1.381 7.66-7.995 13.227-15.759 13.227z"/>
</svg>
