<?xml version="1.0" encoding="utf-8"?>
<!-- Generated by IcoMoon.io -->
<!DOCTYPE svg PUBLIC "-//W3C//DTD SVG 1.1//EN" "http://www.w3.org/Graphics/SVG/1.1/DTD/svg11.dtd">
<svg version="1.1" xmlns="http://www.w3.org/2000/svg" xmlns:xlink="http://www.w3.org/1999/xlink" width="104" height="32" viewBox="0 0 104 32">
<path d="M16.031 32.667c-0.942 0-1.884-0.084-2.804-0.251-4.207-0.753-7.869-3.077-10.318-6.593-2.449-3.495-3.39-7.744-2.637-11.95 1.36-7.66 7.974-13.227 15.738-13.227 0.921 0 1.863 0.084 2.804 0.251 8.685 1.528 14.504 9.857 12.976 18.543-1.381 7.66-7.995 13.227-15.759 13.227v0zM52.196 32.667c-0.942 0-1.884-0.084-2.804-0.251-4.207-0.753-7.869-3.077-10.318-6.593-2.449-3.495-3.39-7.744-2.637-11.95 1.36-7.66 7.974-13.227 15.738-13.227 0.921 0 1.863 0.084 2.804 0.251 8.685 1.528 14.504 9.857 12.976 18.543-1.381 7.66-7.995 13.227-15.759 13.227v0zM88.361 32.667c-0.942 0-1.884-0.084-2.804-0.251-4.207-0.753-7.869-3.077-10.318-6.593-2.449-3.495-3.39-7.744-2.637-11.95 1.36-7.66 7.974-13.227 15.738-13.227 0.921 0 1.863 0.084 2.804 0.251 8.685 1.528 14.504 9.857 12.976 18.543-1.381 7.66-7.995 13.227-15.759 13.227v0z"></path>
</svg>
