<?xml version="1.0" encoding="utf-8"?>
<!-- Generator: Adobe Illustrator 21.0.2, SVG Export Plug-In . SVG Version: 6.00 Build 0)  -->
<svg version="1.1" id="Layer_1" xmlns="http://www.w3.org/2000/svg" xmlns:xlink="http://www.w3.org/1999/xlink" x="0px" y="0px"
	 viewBox="0 0 24 24" style="enable-background:new 0 0 24 24;" xml:space="preserve">
<g transform="translate(0, 0)">
	<g>
		<path d="M20,8H4C3.4,8,3,7.6,3,7s0.4-1,1-1h16c0.6,0,1,0.4,1,1S20.6,8,20,8z"/>
	</g>
	<g>
		<path d="M20,20H4c-0.6,0-1-0.4-1-1s0.4-1,1-1h16c0.6,0,1,0.4,1,1S20.6,20,20,20z"/>
	</g>
	<g>
		<circle cx="12" cy="4" r="1"/>
	</g>
	<g>
		<path d="M18,24H6c-1.7,0-3-1.3-3-3V3c0-1.7,1.3-3,3-3h12c1.7,0,3,1.3,3,3v18C21,22.7,19.7,24,18,24z M6,2C5.4,2,5,2.4,5,3v18
			c0,0.6,0.4,1,1,1h12c0.6,0,1-0.4,1-1V3c0-0.6-0.4-1-1-1H6z"/>
	</g>
</g>
</svg>
