<!-- Generated by IcoMoon.io -->
<svg version="1.1" xmlns="http://www.w3.org/2000/svg" width="24" height="24" viewBox="0 0 24 24">
<title>smartwatch</title>
<path d="M22 9h-1v-3c0-1.7-1.3-3-3-3h-12c-1.7 0-3 1.3-3 3v12c0 1.7 1.3 3 3 3h12c1.7 0 3-1.3 3-3v-3h1c0.6 0 1-0.4 1-1v-4c0-0.6-0.4-1-1-1zM19 18c0 0.6-0.4 1-1 1h-12c-0.6 0-1-0.4-1-1v-12c0-0.6 0.4-1 1-1h12c0.6 0 1 0.4 1 1v12z"></path>
<path d="M6 2h12c0.6 0 1-0.4 1-1s-0.4-1-1-1h-12c-0.6 0-1 0.4-1 1s0.4 1 1 1z"></path>
<path d="M18 22h-12c-0.6 0-1 0.4-1 1s0.4 1 1 1h12c0.6 0 1-0.4 1-1s-0.4-1-1-1z"></path>
</svg>
