<svg xmlns="http://www.w3.org/2000/svg" width="32" height="32" viewBox="0 0 32 32">
    <path d="M7.065 10.516v12.26a3.619 3.619 0 0 0 3.616 3.616h9.683a3.619 3.619 0 0 0 3.616-3.616V14.61a.604.604 0 0 0 .873-.541v-1.517a.604.604 0 0 0-.873-.541v-1.496a3.619 3.619 0 0 0-3.616-3.616h-9.683a3.619 3.619 0 0 0-3.616 3.616zm1.808 0c0-.997.81-1.829 1.829-1.829h9.683c.997 0 1.829.81 1.829 1.829v12.26c0 .997-.81 1.829-1.829 1.829h-9.704c-.997 0-1.829-.81-1.829-1.829.021 0 .021-12.26.021-12.26zm8.124 6.13a1.475 1.475 0 1 1-2.95 0 1.475 1.475 0 0 1 2.95 0zM9.974 6.402a4.02 4.02 0 0 1 .707-.062h9.683c.249 0 .478.021.706.062.312.062.374-.042.229-.312-.395-.686-.914-2.119-1.247-4.987a.515.515 0 0 0-.499-.457h-8.062a.515.515 0 0 0-.499.457c-.332 2.868-.852 4.301-1.247 4.987-.145.291-.083.374.229.312zm11.158 20.467a3.132 3.132 0 0 1-.769.083H10.68c-.27 0-.519-.021-.769-.083-.312-.062-.353.021-.208.291.395.665.935 2.078 1.288 5.049a.515.515 0 0 0 .499.457h8.062a.515.515 0 0 0 .499-.457c.353-2.971.893-4.384 1.288-5.049.166-.27.104-.353-.208-.291z"/>
</svg>
