<?xml version="1.0" encoding="utf-8"?>
<!-- Generator: Adobe Illustrator 21.0.2, SVG Export Plug-In . SVG Version: 6.00 Build 0)  -->
<svg version="1.1" id="Layer_1" xmlns="http://www.w3.org/2000/svg" xmlns:xlink="http://www.w3.org/1999/xlink" x="0px" y="0px"
	 viewBox="0 0 24 24" style="enable-background:new 0 0 24 24;" xml:space="preserve">
<g transform="translate(0, 0)">
	<g>
		<path d="M18,21H6c-1.7,0-3-1.3-3-3V6c0-1.7,1.3-3,3-3h12c1.7,0,3,1.3,3,3v12C21,19.7,19.7,21,18,21z M6,5C5.4,5,5,5.4,5,6v12
			c0,0.6,0.4,1,1,1h12c0.6,0,1-0.4,1-1V6c0-0.6-0.4-1-1-1H6z"/>
	</g>
	<g>
		<path d="M22,15h-2c-0.6,0-1-0.4-1-1s0.4-1,1-1h1v-2h-1c-0.6,0-1-0.4-1-1s0.4-1,1-1h2c0.6,0,1,0.4,1,1v4C23,14.6,22.6,15,22,15z"/>
	</g>
	<g>
		<path d="M18,2H6C5.4,2,5,1.6,5,1s0.4-1,1-1h12c0.6,0,1,0.4,1,1S18.6,2,18,2z"/>
	</g>
	<g>
		<path d="M18,24H6c-0.6,0-1-0.4-1-1s0.4-1,1-1h12c0.6,0,1,0.4,1,1S18.6,24,18,24z"/>
	</g>
</g>
</svg>
