<svg xmlns="http://www.w3.org/2000/svg" width="32" height="32" viewBox="0 0 32 32">
    <path d="M23.467.667H8.676A1.33 1.33 0 0 0 7.343 2v29.333a1.33 1.33 0 0 0 1.333 1.333h14.791a1.33 1.33 0 0 0 1.333-1.333V2c.018-.729-.587-1.333-1.333-1.333zm-9.245 1.049h3.876c.142 0 .213.107.213.213 0 .142-.107.213-.213.213h-3.876c-.142 0-.213-.107-.213-.213-.036-.107.071-.213.213-.213zm1.938 29.866a.937.937 0 0 1-.942-.942c0-.533.427-.942.942-.942.533 0 .942.427.942.942s-.409.942-.942.942zm6.542-2.791H9.582V3.12h13.12v25.671z"/>
</svg>
