<svg xmlns="http://www.w3.org/2000/svg" width="32" height="32" viewBox="0 0 32 32">
    <path d="M11.423 14.034c.729 0 1.377-.648 1.377-1.377s-.648-1.377-1.377-1.377-1.377.648-1.377 1.377c0 .81.648 1.377 1.377 1.377zm9.397 0c.729 0 1.377-.648 1.377-1.377s-.648-1.377-1.377-1.377-1.377.648-1.377 1.377c0 .81.648 1.377 1.377 1.377zM16.041.667C7.211.667 0 7.877 0 16.708s7.21 16.041 16.041 16.041 16.041-7.21 16.041-16.041C32.001 7.797 24.872.667 16.041.667zm0 30.946c-8.263 0-14.906-6.724-14.906-14.906 0-8.263 6.724-14.906 14.906-14.906s14.906 6.724 14.906 14.906-6.724 14.906-14.906 14.906zm8.587-12.799a.554.554 0 0 0-.567.567c0 3.16-3.727 7.048-8.182 7.048-4.375 0-8.182-3.889-8.182-7.048 0-.324-.243-.567-.567-.567s-.567.243-.567.567c0 3.646 4.132 8.101 9.235 8.101s9.235-4.456 9.235-8.101a.441.441 0 0 0-.405-.567z"/>
</svg>
