<?xml version="1.0" encoding="utf-8"?>
<!-- Generated by IcoMoon.io -->
<!DOCTYPE svg PUBLIC "-//W3C//DTD SVG 1.1//EN" "http://www.w3.org/Graphics/SVG/1.1/DTD/svg11.dtd">
<svg version="1.1" xmlns="http://www.w3.org/2000/svg" xmlns:xlink="http://www.w3.org/1999/xlink" width="32" height="32" viewBox="0 0 32 32">
<path d="M11.423 14.034c0.729 0 1.377-0.648 1.377-1.377s-0.648-1.377-1.377-1.377c-0.729 0-1.377 0.648-1.377 1.377 0 0.81 0.648 1.377 1.377 1.377zM20.82 14.034c0.729 0 1.377-0.648 1.377-1.377s-0.648-1.377-1.377-1.377c-0.729 0-1.377 0.648-1.377 1.377 0 0.81 0.648 1.377 1.377 1.377zM16.041 0.667c-8.83 0-16.041 7.21-16.041 16.041s7.21 16.041 16.041 16.041 16.041-7.21 16.041-16.041c-0.081-8.911-7.21-16.041-16.041-16.041zM16.041 31.613c-8.263 0-14.906-6.724-14.906-14.906 0-8.263 6.724-14.906 14.906-14.906s14.906 6.724 14.906 14.906c0 8.182-6.724 14.906-14.906 14.906zM24.628 18.814c-0.324 0-0.567 0.243-0.567 0.567 0 3.16-3.727 7.048-8.182 7.048-4.375 0-8.182-3.889-8.182-7.048 0-0.324-0.243-0.567-0.567-0.567s-0.567 0.243-0.567 0.567c0 3.646 4.132 8.101 9.235 8.101s9.235-4.456 9.235-8.101c0.081-0.324-0.162-0.567-0.405-0.567z"></path>
</svg>
