<?xml version="1.0" encoding="utf-8"?>
<!-- Generator: Adobe Illustrator 21.0.2, SVG Export Plug-In . SVG Version: 6.00 Build 0)  -->
<svg version="1.1" id="Layer_1" xmlns="http://www.w3.org/2000/svg" xmlns:xlink="http://www.w3.org/1999/xlink" x="0px" y="0px"
	 viewBox="0 0 24 24" style="enable-background:new 0 0 24 24;" xml:space="preserve">
<g transform="translate(0, 0)">
	<g>
		<path d="M18,10c-0.6,0-1-0.4-1-1s-0.4-1-1-1s-1,0.4-1,1s-0.4,1-1,1s-1-0.4-1-1c0-1.7,1.3-3,3-3s3,1.3,3,3C19,9.6,18.6,10,18,10z"
			/>
	</g>
	<g>
		<path d="M10,10c-0.6,0-1-0.4-1-1S8.6,8,8,8S7,8.4,7,9s-0.4,1-1,1S5,9.6,5,9c0-1.7,1.3-3,3-3s3,1.3,3,3C11,9.6,10.6,10,10,10z"/>
	</g>
	<g>
		<path d="M11.6,18H8c-0.6,0-1-0.4-1-1s0.4-1,1-1h3.6c1.3,0,2.5-0.5,3.4-1.4l0.3-0.3c0.4-0.4,1-0.4,1.4,0s0.4,1,0,1.4L16.4,16
			C15.1,17.3,13.4,18,11.6,18z"/>
	</g>
	<g>
		<path d="M12,24C5.4,24,0,18.6,0,12S5.4,0,12,0s12,5.4,12,12S18.6,24,12,24z M12,2C6.5,2,2,6.5,2,12s4.5,10,10,10s10-4.5,10-10
			S17.5,2,12,2z"/>
	</g>
</g>
</svg>
