<?xml version="1.0" encoding="utf-8"?>
<!-- Generator: Adobe Illustrator 21.0.2, SVG Export Plug-In . SVG Version: 6.00 Build 0)  -->
<svg version="1.1" id="Layer_1" xmlns="http://www.w3.org/2000/svg" xmlns:xlink="http://www.w3.org/1999/xlink" x="0px" y="0px"
	 viewBox="0 0 24 24" style="enable-background:new 0 0 24 24;" xml:space="preserve">
<style type="text/css">
	.st0{fill:#444444;}
</style>
<g transform="translate(0, 0)">
	<g>
		<path class="st0" d="M12,24H8c-2.8,0-5-2.2-5-5v-1.4h2V19c0,1.7,1.3,3,3,3h4V24z"/>
	</g>
	<g>
		<path class="st0" d="M21,8.4h-2V8c0-3.3-2.7-6-6-6h-2C7.7,2,5,4.7,5,8v0.4H3V8c0-4.4,3.6-8,8-8h2c4.4,0,8,3.6,8,8V8.4z"/>
	</g>
	<g>
		<path class="st0" d="M6,19c-3.3,0-6-2.7-6-6s2.7-6,6-6c0.4,0,0.8,0,1.2,0.1L8,7.3v11.4l-0.8,0.2C6.8,19,6.4,19,6,19z M6,9
			c-2.2,0-4,1.8-4,4c0,2.2,1.8,4,4,4V9z"/>
	</g>
	<g>
		<path class="st0" d="M18,19c-0.4,0-0.8,0-1.2-0.1L16,18.7V7.3l0.8-0.2C17.2,7,17.6,7,18,7c3.3,0,6,2.7,6,6S21.3,19,18,19z M18,9v8
			c2.2,0,4-1.8,4-4C22,10.8,20.2,9,18,9z"/>
	</g>
</g>
</svg>
