<!-- Generated by IcoMoon.io -->
<svg version="1.1" xmlns="http://www.w3.org/2000/svg" width="24" height="24" viewBox="0 0 24 24">
<title>support</title>
<path d="M21 7.8c-0.1-4.3-3.7-7.8-8-7.8h-2c-4.3 0-7.9 3.5-8 7.8-1.8 1-3 3-3 5.2s1.2 4.1 3 5.2v0.8c0 2.8 2.2 5 5 5h4v-2h-4c-1.7 0-3-1.3-3-3v-0.1c0.3 0.1 0.7 0.1 1 0.1 0.4 0 0.8 0 1.2-0.1l0.8-0.2v-11.4l-0.8-0.2c-0.4-0.1-0.8-0.1-1.2-0.1-0.3 0-0.6 0-0.9 0.1 0.4-2.9 2.9-5.1 5.9-5.1h2c3 0 5.5 2.2 5.9 5.1-0.3-0.1-0.6-0.1-0.9-0.1-0.4 0-0.8 0-1.2 0.1l-0.8 0.2v11.4l0.8 0.2c0.4 0.1 0.8 0.1 1.2 0.1 3.3 0 6-2.7 6-6 0-2.2-1.2-4.1-3-5.2zM6 17c-2.2 0-4-1.8-4-4s1.8-4 4-4v8zM18 17v-8c2.2 0 4 1.8 4 4s-1.8 4-4 4z"></path>
</svg>
