<svg xmlns="http://www.w3.org/2000/svg" width="32" height="32" viewBox="0 0 32 32">
    <path d="M22.267 17.067c1.867-1.733 3.067-4.133 3.067-6.867 0-5.133-4.2-9.4-9.4-9.4s-9.467 4.267-9.467 9.4c0 2.733 1.2 5.067 3.067 6.867C4.334 19.6.801 25.2.667 31.334v.533c0 .4.267.8.8.8s.8-.267.8-.8V31.2c.467-5.933 4.2-10.8 9.533-12.533 1.267.6 2.6.933 4.067.933 1.533 0 3-.4 4.267-1 5.4 1.733 9.333 6.933 9.733 12.733v.533c0 .4.267.8.667.8s.8-.267.8-.8v-1.2c-.333-6.067-3.933-11.2-9.067-13.6zm-6.534.733c-4.133 0-7.467-3.467-7.467-7.6s3.467-7.6 7.6-7.6 7.467 3.467 7.467 7.6a7.238 7.238 0 0 1-.933 3.6c-.2.133-.467.267-.733.4-.867.4-1.733.667-2.733.867-.2-.333-.6-.6-1-.6h-1.8c-.667 0-1.2.533-1.2 1.2v.133c0 .667.533 1.2 1.2 1.2h1.8c.533 0 1-.4 1.133-.933a11.15 11.15 0 0 0 2.133-.6 7.648 7.648 0 0 1-5.467 2.333z"/>
</svg>
