<?xml version="1.0" encoding="utf-8"?>
<!-- Generated by IcoMoon.io -->
<!DOCTYPE svg PUBLIC "-//W3C//DTD SVG 1.1//EN" "http://www.w3.org/Graphics/SVG/1.1/DTD/svg11.dtd">
<svg version="1.1" xmlns="http://www.w3.org/2000/svg" xmlns:xlink="http://www.w3.org/1999/xlink" width="38" height="32" viewBox="0 0 38 32">
<path d="M24.875 7.667c0 3.348-2.714 6.062-6.063 6.062s-6.063-2.714-6.063-6.063c0-3.348 2.714-6.063 6.063-6.063s6.063 2.714 6.063 6.063zM9.438 27.479c0 2.347-1.903 4.25-4.25 4.25s-4.25-1.903-4.25-4.25c0-2.347 1.903-4.25 4.25-4.25s4.25 1.903 4.25 4.25zM23.063 27.479c0 2.347-1.903 4.25-4.25 4.25s-4.25-1.903-4.25-4.25c0-2.347 1.903-4.25 4.25-4.25s4.25 1.903 4.25 4.25zM36.75 27.479c0 2.347-1.903 4.25-4.25 4.25s-4.25-1.903-4.25-4.25c0-2.347 1.903-4.25 4.25-4.25s4.25 1.903 4.25 4.25zM6.188 23.354l12.625-9.625M18.813 13.729v9.5M18.813 13.729l13.688 9.5"></path>
</svg>
