<?xml version="1.0" encoding="utf-8"?>
<!-- Generator: Adobe Illustrator 21.0.2, SVG Export Plug-In . SVG Version: 6.00 Build 0)  -->
<svg version="1.1" id="Layer_1" xmlns="http://www.w3.org/2000/svg" xmlns:xlink="http://www.w3.org/1999/xlink" x="0px" y="0px"
	 viewBox="0 0 24 24" style="enable-background:new 0 0 24 24;" xml:space="preserve">
<style type="text/css">
	.st0{fill:#444444;}
</style>
<g transform="translate(0, 0)">
	<g>
		<polygon class="st0" points="8.4,16.9 7.2,15.3 11,12.5 11,9 13,9 13,13.5 		"/>
	</g>
	<g>
		<rect x="13.1" y="11.9" transform="matrix(0.5938 -0.8046 0.8046 0.5938 -5.9795 17.2556)" class="st0" width="2" height="5.2"/>
	</g>
	<g>
		<path class="st0" d="M12,10c-2.8,0-5-2.2-5-5s2.2-5,5-5s5,2.2,5,5S14.8,10,12,10z M12,2c-1.7,0-3,1.3-3,3s1.3,3,3,3s3-1.3,3-3
			S13.7,2,12,2z"/>
	</g>
	<g>
		<path class="st0" d="M5,24c-2.8,0-5-2.2-5-5s2.2-5,5-5s5,2.2,5,5S7.8,24,5,24z M5,16c-1.7,0-3,1.3-3,3s1.3,3,3,3s3-1.3,3-3
			S6.7,16,5,16z"/>
	</g>
	<g>
		<path class="st0" d="M19,24c-2.8,0-5-2.2-5-5s2.2-5,5-5s5,2.2,5,5S21.8,24,19,24z M19,16c-1.7,0-3,1.3-3,3s1.3,3,3,3s3-1.3,3-3
			S20.7,16,19,16z"/>
	</g>
</g>
</svg>
