<svg xmlns="http://www.w3.org/2000/svg" width="26" height="32" viewBox="0 0 26 32">
    <path d="M24.622.667H.995a.994.994 0 0 0-.996.996v30.009c0 .551.444.996.996.996h23.627a.994.994 0 0 0 .996-.996V1.663a.994.994 0 0 0-.996-.996zM10.951 1.804h3.698c.124 0 .213.107.213.213a.216.216 0 0 1-.213.213h-3.698c-.124 0-.213-.107-.213-.213s.089-.213.213-.213zm1.867 29.956a1.331 1.331 0 0 1-1.333-1.333c0-.729.587-1.333 1.333-1.333.729 0 1.333.587 1.333 1.333-.018.729-.604 1.333-1.333 1.333zm10.151-3.893H2.649V3.654h20.32v24.213z"/>
</svg>
