<?xml version="1.0" encoding="utf-8"?>
<!-- Generator: Adobe Illustrator 21.0.2, SVG Export Plug-In . SVG Version: 6.00 Build 0)  -->
<svg version="1.1" id="Layer_1" xmlns="http://www.w3.org/2000/svg" xmlns:xlink="http://www.w3.org/1999/xlink" x="0px" y="0px"
	 viewBox="0 0 24 24" style="enable-background:new 0 0 24 24;" xml:space="preserve">
<g transform="translate(0, 0)">
	<g>
		<path d="M20,24H4c-1.7,0-3-1.3-3-3V3c0-1.7,1.3-3,3-3h16c1.7,0,3,1.3,3,3v18C23,22.7,21.7,24,20,24z M4,2C3.4,2,3,2.4,3,3v18
			c0,0.6,0.4,1,1,1h16c0.6,0,1-0.4,1-1V3c0-0.6-0.4-1-1-1H4z"/>
	</g>
	<g>
		<path d="M19,18H5c-0.6,0-1-0.4-1-1V4c0-0.6,0.4-1,1-1h14c0.6,0,1,0.4,1,1v13C20,17.6,19.6,18,19,18z M6,16h12V5H6V16z"/>
	</g>
	<g>
		<circle cx="12" cy="20" r="1"/>
	</g>
</g>
</svg>
