<svg xmlns="http://www.w3.org/2000/svg" width="32" height="32" viewBox="0 0 32 32">
    <path d="M30.684 17.662L16.106 3.12c-.516-.516-1.209-.96-2.08-1.316s-1.671-.533-2.382-.533H3.182c-.711 0-1.316.267-1.831.782S.569 3.173.569 3.884v8.48c0 .711.178 1.511.533 2.382s.8 1.547 1.316 2.062l14.56 14.578c.498.498 1.12.747 1.831.747s1.316-.249 1.849-.747l10.009-10.027c.498-.498.747-1.12.747-1.831.018-.711-.231-1.333-.729-1.867zM8.924 9.627a2.495 2.495 0 0 1-1.849.764c-.711 0-1.333-.249-1.849-.764s-.764-1.12-.764-1.849.249-1.333.764-1.849a2.495 2.495 0 0 1 1.849-.764c.711 0 1.333.249 1.849.764s.764 1.12.764 1.849-.249 1.351-.764 1.849z"/>
</svg>
