<?xml version="1.0" encoding="utf-8"?>
<!-- Generator: Adobe Illustrator 21.0.2, SVG Export Plug-In . SVG Version: 6.00 Build 0)  -->
<svg version="1.1" id="Layer_1" xmlns="http://www.w3.org/2000/svg" xmlns:xlink="http://www.w3.org/1999/xlink" x="0px" y="0px"
	 viewBox="0 0 24 24" style="enable-background:new 0 0 24 24;" xml:space="preserve">
<style type="text/css">
	.st0{fill:#444444;}
</style>
<g>
	<path class="st0" d="M22.7,12.3l-11-11C11.5,1.1,11.3,1,11,1H2C1.4,1,1,1.4,1,2v9c0,0.3,0.1,0.5,0.3,0.7l11,11
		c0.2,0.2,0.5,0.3,0.7,0.3s0.5-0.1,0.7-0.3l9-9C23.1,13.3,23.1,12.7,22.7,12.3z M7,9C5.9,9,5,8.1,5,7s0.9-2,2-2s2,0.9,2,2S8.1,9,7,9
		z"/>
</g>
</svg>
