<svg xmlns="http://www.w3.org/2000/svg" width="32" height="32" viewBox="0 0 32 32">
    <path d="M18.809 32.844a3.222 3.222 0 0 1-2.329-.96L1.92 17.306c-.604-.604-1.084-1.369-1.476-2.293-.391-.96-.587-1.849-.587-2.649v-8.48c0-.889.338-1.671.996-2.329S2.293.559 3.182.559h8.462c.8 0 1.707.196 2.649.587s1.724.889 2.311 1.476L31.2 17.182c.64.676.942 1.476.924 2.364 0 .889-.338 1.689-.96 2.311L21.137 31.901c-.658.622-1.44.942-2.329.942zM3.182 1.982c-.516 0-.942.178-1.333.569s-.569.818-.569 1.333v8.48c0 .622.16 1.333.48 2.116.302.747.693 1.369 1.156 1.831l14.56 14.578c.356.356.8.533 1.333.533.516 0 .96-.178 1.351-.551l9.991-10.009c.356-.356.533-.8.533-1.333.018-.533-.16-.978-.533-1.369L15.609 3.618c-.462-.462-1.084-.853-1.849-1.156-.782-.32-1.493-.48-2.116-.48H3.182zm3.894 9.12c-.907 0-1.707-.32-2.347-.978-.64-.64-.978-1.44-.978-2.347s.32-1.707.978-2.347c.64-.64 1.44-.978 2.347-.978s1.707.32 2.347.978c.64.64.978 1.44.978 2.347 0 .942-.338 1.724-.978 2.364s-1.44.96-2.347.96zm0-5.226c-.533 0-.96.178-1.351.551-.373.373-.551.8-.551 1.351s.178.96.551 1.351c.373.373.818.551 1.351.551s.96-.178 1.351-.551c.373-.356.551-.8.551-1.351 0-.533-.178-.96-.551-1.351a1.825 1.825 0 0 0-1.351-.551z"/>
</svg>
