<?xml version="1.0" encoding="utf-8"?>
<!-- Generator: Adobe Illustrator 21.0.2, SVG Export Plug-In . SVG Version: 6.00 Build 0)  -->
<svg version="1.1" id="Layer_1" xmlns="http://www.w3.org/2000/svg" xmlns:xlink="http://www.w3.org/1999/xlink" x="0px" y="0px"
	 viewBox="0 0 24 24" style="enable-background:new 0 0 24 24;" xml:space="preserve">
<style type="text/css">
	.st0{fill:#444444;}
</style>
<g transform="translate(0, 0)">
	<g>
		<path class="st0" d="M13,23.4l-13-13V0h10.4l13,13L13,23.4z M2,9.6l11,11l7.6-7.6L9.6,2H2V9.6z"/>
	</g>
	<g>
		<path class="st0" d="M7,10c-1.7,0-3-1.3-3-3s1.3-3,3-3s3,1.3,3,3S8.7,10,7,10z M7,6C6.4,6,6,6.4,6,7s0.4,1,1,1s1-0.4,1-1
			S7.6,6,7,6z"/>
	</g>
</g>
</svg>
