<svg xmlns="http://www.w3.org/2000/svg" width="32" height="32" viewBox="0 0 32 32">
    <path d="M3.267 5.733h1.8v22.533c0 2.4 1.933 4.333 4.267 4.333h13.267c2.4 0 4.267-1.933 4.267-4.333V5.733h1.8c.4 0 .733-.333.733-.733s-.333-.733-.733-.733h-6.866c0-2.067-1.667-3.6-3.733-3.6h-3.933c-2.067 0-3.8 1.533-3.8 3.6H3.27c-.4.067-.667.4-.667.733s.267.733.667.733zm22.2 22.534c0 1.6-1.267 2.867-2.867 2.867H9.4a2.846 2.846 0 0 1-2.867-2.867V5.734h19v22.533zm-13.6-23.934c0-1.267 1.133-2.133 2.4-2.133H18.2c1.267 0 2.267.867 2.267 2.133h-8.6zM11.2 9.667a.74.74 0 0 0-.733.733v16.133c0 .4.333.733.733.733s.733-.333.733-.733V10.4c-.067-.4-.4-.733-.733-.733zm5 0a.74.74 0 0 0-.733.733v16.133c0 .4.333.733.733.733s.733-.333.733-.733V10.4c-.067-.4-.333-.733-.733-.733zm4.267.733v16.133c0 .4.333.733.733.733s.733-.333.733-.733V10.4c0-.4-.333-.733-.733-.733s-.733.333-.733.733z"/>
</svg>
