<?xml version="1.0" encoding="utf-8"?>
<!-- Generator: Adobe Illustrator 21.0.2, SVG Export Plug-In . SVG Version: 6.00 Build 0)  -->
<svg version="1.1" id="Layer_1" xmlns="http://www.w3.org/2000/svg" xmlns:xlink="http://www.w3.org/1999/xlink" x="0px" y="0px"
	 viewBox="0 0 24 24" style="enable-background:new 0 0 24 24;" xml:space="preserve">
<title>twitter</title>
<path d="M24,4.6c-0.7,1-1.5,1.8-2.5,2.5c0,0.1,0,0.4,0,0.6c0,1.4-0.2,2.7-0.6,4c-0.4,1.3-1,2.6-1.8,3.8c-0.8,1.2-1.7,2.3-2.8,3.2
	c-1.2,1-2.5,1.7-3.9,2.2c-1.6,0.6-3.2,0.8-4.9,0.8c-2.7,0-5.3-0.8-7.5-2.2c0.4,0,0.8,0.1,1.2,0.1c2.2,0,4.4-0.7,6.1-2.1
	c-2.1,0-4-1.4-4.6-3.4c0.3,0,0.6,0.1,0.9,0.1c0.4,0,0.9-0.1,1.3-0.2c-1.1-0.2-2.1-0.8-2.8-1.7C1.4,11.4,1,10.3,1,9.2V9.1
	c0.7,0.4,1.4,0.6,2.2,0.6C2.5,9.3,2,8.7,1.6,8C1.2,7.3,1,6.5,1,5.6c0-0.9,0.2-1.7,0.7-2.5c1.2,1.5,2.8,2.7,4.5,3.6
	c1.8,0.9,3.7,1.4,5.7,1.5c-0.1-0.4-0.1-0.8-0.1-1.1c0-1.3,0.5-2.6,1.4-3.5c1.9-1.9,5-1.9,7,0c0,0,0.1,0.1,0.1,0.1
	c1.1-0.2,2.2-0.6,3.1-1.2c-0.4,1.1-1.1,2.1-2.2,2.7C22.1,5.2,23.1,5,24,4.6z"/>
</svg>
