<svg xmlns="http://www.w3.org/2000/svg" width="32" height="32" viewBox="0 0 32 32">
    <path d="M24 11.678a6.261 6.261 0 0 1-1.882.565c.659-.376 1.224-1.035 1.412-1.788-.659.376-1.318.659-2.071.753-.565-.659-1.412-1.035-2.447-1.035-1.788 0-3.294 1.506-3.294 3.294 0 .282 0 .471.094.753a8.935 8.935 0 0 1-6.776-3.482 3.254 3.254 0 0 0-.471 1.694c0 1.129.565 2.165 1.506 2.729-.565 0-1.035-.188-1.506-.376 0 1.6 1.129 2.918 2.635 3.2-.282.094-.565.094-.847.094-.188 0-.376 0-.659-.094.376 1.318 1.6 2.259 3.106 2.259-1.129.941-2.541 1.412-4.047 1.412H8c1.412.941 3.2 1.506 5.082 1.506 6.024 0 9.318-4.988 9.318-9.318v-.471a9.2 9.2 0 0 0 1.6-1.694zM16 .667c-8.753 0-16 7.247-16 16s7.247 16 16 16 16-7.247 16-16-7.247-16-16-16zm0 30.4c-8 0-14.4-6.588-14.4-14.4s6.588-14.4 14.4-14.4 14.4 6.588 14.4 14.4-6.4 14.4-14.4 14.4z"/>
</svg>
