<svg xmlns="http://www.w3.org/2000/svg" width="32" height="32" viewBox="0 0 32 32">
    <path d="M18.648 15.583l2.042 2.037a.4.4 0 0 0 .57 0L31.88 7a.4.4 0 0 0 0-.57L26.237.787a.4.4 0 0 0-.57 0l-10.62 10.62a.4.4 0 0 0 0 .57l2.042 2.037zm-.285-2.028l-1.868-1.863 9.457-9.452 4.475 4.475-9.452 9.452-1.738-1.738zm-5.016 4.195l-2.042-2.037a.4.4 0 0 0-.57 0L.115 26.333a.4.4 0 0 0 0 .57l5.643 5.643a.4.4 0 0 0 .57 0l10.62-10.62a.4.4 0 0 0 0-.57l-2.032-2.037zm.29 2.028l1.868 1.863-9.457 9.452-4.475-4.475 9.452-9.452 1.738 1.738zm-.531-9.742c-.01 0-.014.005-.024.005a.183.183 0 0 0-.145.188v2.636c0 .106.082.188.188.188s.188-.082.188-.188v-2.636a.182.182 0 0 0-.183-.193c-.01-.005-.014 0-.024 0zm-3.384.377c-.01 0-.014.005-.024.005a.187.187 0 0 0-.15.217.23.23 0 0 0 .058.106L11.865 13c.072.072.198.072.27 0s.072-.198 0-.27l-2.259-2.259a.195.195 0 0 0-.154-.058zm-.396 3.389c-.106.01-.179.101-.169.208s.101.179.208.169h2.636c.106 0 .188-.082.188-.188s-.082-.188-.188-.188H9.327zm10.533 5.648c-.106.01-.179.101-.169.208s.101.179.208.169h2.636c.106 0 .188-.082.188-.188s-.082-.188-.188-.188H19.86zm-1.11 1.12c-.01 0-.014.005-.024.005a.183.183 0 0 0-.145.188v2.636c0 .106.082.188.188.188s.188-.082.188-.188v-2.636a.182.182 0 0 0-.183-.193h-.024zm1.13 0c-.01 0-.014.005-.024.005a.187.187 0 0 0-.15.217.23.23 0 0 0 .058.106l2.259 2.259c.072.072.198.072.27 0s.072-.198 0-.27l-2.259-2.259a.199.199 0 0 0-.154-.058z"/>
</svg>
