<?xml version="1.0" encoding="utf-8"?>
<!-- Generator: Adobe Illustrator 21.0.2, SVG Export Plug-In . SVG Version: 6.00 Build 0)  -->
<svg version="1.1" id="Layer_1" xmlns="http://www.w3.org/2000/svg" xmlns:xlink="http://www.w3.org/1999/xlink" x="0px" y="0px"
	 viewBox="0 0 24 24" style="enable-background:new 0 0 24 24;" xml:space="preserve">
<style type="text/css">
	.st0{fill:#444444;}
</style>
<g transform="translate(0, 0)">
	<g>
		<path class="st0" d="M18,14.4L16.6,13l3.2-3.2c0.7-0.7,1.1-1.7,1.1-2.8s-0.4-2.1-1.1-2.8c-1.5-1.5-4.1-1.5-5.6,0L11,7.4L9.6,6
			l3.2-3.2c2.3-2.3,6.1-2.3,8.4,0c1.1,1.1,1.7,2.6,1.7,4.2s-0.6,3.1-1.7,4.2L18,14.4z"/>
	</g>
	<g>
		<path class="st0" d="M7,22.9c-1.6,0-3.1-0.6-4.2-1.7c-2.3-2.3-2.3-6.1,0-8.4L6,9.6L7.4,11l-3.2,3.2c-1.5,1.5-1.5,4.1,0,5.6
			c0.7,0.7,1.7,1.1,2.8,1.1s2.1-0.4,2.8-1.1l3.2-3.2l1.4,1.4l-3.2,3.2C10.1,22.3,8.6,22.9,7,22.9z"/>
	</g>
	<g>
		<rect x="6.8" y="11" transform="matrix(0.7071 -0.7071 0.7071 0.7071 -4.9706 12)" class="st0" width="10.5" height="2"/>
	</g>
	<g>
		<rect x="20" y="15.4" transform="matrix(0.4472 -0.8944 0.8944 0.4472 -4.044 28.4567)" class="st0" width="2" height="4.2"/>
	</g>
	<g>
		<rect x="16.5" y="18.9" transform="matrix(0.8944 -0.4472 0.4472 0.8944 -7.544 10.0433)" class="st0" width="2" height="4.2"/>
	</g>
	<g>
		<rect x="5.5" y="0.9" transform="matrix(0.8944 -0.4472 0.4472 0.8944 -0.6554 3.2236)" class="st0" width="2" height="4.2"/>
	</g>
	<g>
		<rect x="2" y="4.4" transform="matrix(0.4472 -0.8944 0.8944 0.4472 -4.1554 6.2764)" class="st0" width="2" height="4.2"/>
	</g>
</g>
</svg>
