<!-- Generated by IcoMoon.io -->
<svg version="1.1" xmlns="http://www.w3.org/2000/svg" width="24" height="24" viewBox="0 0 24 24">
<path d="M14.2 4.2c1.5-1.5 4.1-1.5 5.6 0 0.7 0.7 1.1 1.7 1.1 2.8s-0.4 2.1-1.1 2.8l-3.2 3.2 1.4 1.4 3.2-3.2c1.1-1.1 1.7-2.6 1.7-4.2s-0.6-3.1-1.7-4.2c-2.3-2.3-6.1-2.3-8.4 0l-3.2 3.2 1.4 1.4 3.2-3.2z"></path>
<path d="M9.8 19.8c-0.7 0.7-1.7 1.1-2.8 1.1s-2.1-0.4-2.8-1.1c-1.5-1.5-1.5-4.1 0-5.6l3.2-3.2-1.4-1.4-3.2 3.2c-2.3 2.3-2.3 6.1 0 8.4 1.1 1.1 2.6 1.7 4.2 1.7s3.1-0.6 4.2-1.7l3.2-3.2-1.4-1.4-3.2 3.2z"></path>
<path d="M7.651 14.984l7.425-7.425 1.414 1.414-7.425 7.425-1.414-1.414z"></path>
<path d="M18.673 17.455l0.894-1.789 3.756 1.878-0.894 1.789-3.756-1.878z"></path>
<path d="M15.666 19.569l1.789-0.894 1.878 3.756-1.789 0.894-1.878-3.756z"></path>
<path d="M4.666 1.569l1.789-0.894 1.878 3.756-1.789 0.894-1.878-3.756z"></path>
<path d="M0.674 6.455l0.894-1.789 3.756 1.878-0.894 1.789-3.756-1.878z"></path>
</svg>
