<svg xmlns="http://www.w3.org/2000/svg" width="32" height="32" viewBox="0 0 32 32">
    <path d="M30.868 19.535c-.532 0-1.068.4-1.068 1.068v7.4H2.4v-7.4c0-.532-.4-1.068-1.068-1.068s-1.068.4-1.068 1.068v8.464c0 .532.4 1.068 1.068 1.068H30.8c.532 0 1.068-.4 1.068-1.068v-8.468c-.068-.532-.468-1.064-1-1.064zm-21.936-9.4c-.4.468-.4 1.132 0 1.532.468.4 1.132.4 1.532 0L15 6.467v16.2c0 .668.532 1.068 1.068 1.068.532 0 1.068-.4 1.068-1.068v-16l4.532 5.2c.468.4 1.132.4 1.532 0 .4-.468.4-1.132 0-1.532l-6.332-7.4c-.268-.132-.532-.268-.8-.268s-.532 0-.8.268l-6.336 7.2z"/>
</svg>
