<?xml version="1.0" encoding="utf-8"?>
<!-- Generator: Adobe Illustrator 21.0.2, SVG Export Plug-In . SVG Version: 6.00 Build 0)  -->
<svg version="1.1" id="Layer_1" xmlns="http://www.w3.org/2000/svg" xmlns:xlink="http://www.w3.org/1999/xlink" x="0px" y="0px"
	 viewBox="0 0 24 24" style="enable-background:new 0 0 24 24;" xml:space="preserve">
<g transform="translate(0, 0)">
	<g>
		<path d="M23,16h-6.3c-0.6,0-1-0.4-1-1s0.4-1,1-1H22v-2.9c0-0.3-0.2-0.6-0.5-0.8l-2.8-1.7c-0.5-0.3-0.6-0.9-0.3-1.4
			c0.3-0.5,0.9-0.6,1.4-0.3l2.8,1.7C23.5,9.1,24,10,24,11.1V15C24,15.6,23.6,16,23,16z"/>
	</g>
	<g>
		<path d="M16.5,10c-0.7,0-1.3-0.1-1.9-0.4c-0.5-0.2-0.7-0.8-0.5-1.3s0.8-0.7,1.3-0.5C15.8,7.9,16.1,8,16.5,8C17.9,8,19,6.9,19,5.5
			v-1C19,3.1,17.9,2,16.5,2c-1,0-1.9,0.6-2.3,1.6c-0.2,0.5-0.8,0.8-1.3,0.6c-0.5-0.2-0.8-0.8-0.6-1.3C13,1.1,14.6,0,16.5,0
			C19,0,21,2,21,4.5v1C21,8,19,10,16.5,10z"/>
	</g>
	<g>
		<path d="M19,23H1c-0.6,0-1-0.4-1-1v-4.1c0-1.3,0.7-2.5,1.8-3.2L6.3,12c0.5-0.3,1.1-0.1,1.4,0.3c0.3,0.5,0.1,1.1-0.3,1.4l-4.5,2.7
			C2.3,16.8,2,17.3,2,17.9V21h16v-3.1c0-0.6-0.3-1.2-0.8-1.5l-4.5-2.7c-0.5-0.3-0.6-0.9-0.3-1.4s0.9-0.6,1.4-0.3l4.5,2.7
			c1.1,0.7,1.8,1.9,1.8,3.2V22C20,22.6,19.6,23,19,23z"/>
	</g>
	<g>
		<path d="M10,15c-3.3,0-6-2.7-6-6V7c0-3.3,2.7-6,6-6s6,2.7,6,6v2C16,12.3,13.3,15,10,15z M10,3C7.8,3,6,4.8,6,7v2c0,2.2,1.8,4,4,4
			s4-1.8,4-4V7C14,4.8,12.2,3,10,3z"/>
	</g>
</g>
</svg>
