<?xml version="1.0" encoding="utf-8"?>
<!-- Generated by IcoMoon.io -->
<!DOCTYPE svg PUBLIC "-//W3C//DTD SVG 1.1//EN" "http://www.w3.org/Graphics/SVG/1.1/DTD/svg11.dtd">
<svg version="1.1" xmlns="http://www.w3.org/2000/svg" xmlns:xlink="http://www.w3.org/1999/xlink" width="32" height="32" viewBox="0 0 32 32">
<path d="M31.333 31.333v0c0-0.2 0-0.4 0-0.6 0 0 0-0.067 0-0.067-0.333-6.067-3.933-11.2-9.067-13.6 1.867-1.733 3.067-4.133 3.067-6.867 0-5.133-4.2-9.4-9.4-9.4s-9.467 4.267-9.467 9.4c0 2.733 1.2 5.067 3.067 6.867-5.2 2.533-8.733 8.133-8.867 14.267v0c0 0.2 0 0.333 0 0.533 0 0.4 0.267 0.8 0.8 0.8s0.8-0.267 0.8-0.8c0-0.2 0-0.467 0-0.667 0.467-5.933 4.2-10.8 9.533-12.533 1.267 0.6 2.6 0.933 4.067 0.933 1.533 0 3-0.4 4.267-1 5.4 1.733 9.333 6.933 9.733 12.733v0c0 0.2 0 0.333 0 0.533 0 0.4 0.267 0.8 0.667 0.8s0.8-0.267 0.8-0.8c0-0.2 0-0.333 0-0.533zM15.733 17.8c-4.133 0-7.467-3.467-7.467-7.6s3.467-7.6 7.6-7.6c4.133 0 7.467 3.467 7.467 7.6s-3.467 7.6-7.6 7.6z"></path>
</svg>
