<svg xmlns="http://www.w3.org/2000/svg" width="32" height="32" viewBox="0 0 32 32">
    <path d="M31.333 31.333v-.667c-.333-6.067-3.933-11.2-9.067-13.6 1.867-1.733 3.067-4.133 3.067-6.867 0-5.133-4.2-9.4-9.4-9.4s-9.467 4.267-9.467 9.4c0 2.733 1.2 5.067 3.067 6.867C4.333 19.599.8 25.199.666 31.333v.533c0 .4.267.8.8.8s.8-.267.8-.8v-.667c.467-5.933 4.2-10.8 9.533-12.533 1.267.6 2.6.933 4.067.933 1.533 0 3-.4 4.267-1 5.4 1.733 9.333 6.933 9.733 12.733v.533c0 .4.267.8.667.8s.8-.267.8-.8v-.533zM15.733 17.8c-4.133 0-7.467-3.467-7.467-7.6s3.467-7.6 7.6-7.6c4.133 0 7.467 3.467 7.467 7.6s-3.467 7.6-7.6 7.6z"/>
</svg>
