<svg xmlns="http://www.w3.org/2000/svg" width="32" height="32" viewBox="0 0 32 32">
    <path d="M31.733 23.8v-.334c-.2-3-1.933-5.533-4.467-6.667.933-.867 1.533-2.067 1.533-3.4 0-2.533-2.067-4.6-4.6-4.6s-4.6 2.067-4.6 4.6c0 1.333.6 2.467 1.533 3.4-.8.4-1.6.933-2.2 1.667-.733-.6-1.533-1.133-2.467-1.533a6.95 6.95 0 0 0 2.267-5.133c-.067-3.933-3.2-7.133-7.067-7.133-3.933 0-7.067 3.2-7.067 7.067 0 2.067.867 3.8 2.267 5.133-3.933 1.867-6.533 6.067-6.6 10.667v.4c0 .267.2.6.6.6s.6-.2.6-.6v-.533c.333-4.467 3.133-8.067 7.133-9.333.933.467 1.933.733 3.067.733s2.267-.267 3.2-.8c4.067 1.267 7 5.2 7.267 9.533v.4c0 .267.2.6.467.6s.6-.2.6-.6v-.867c-.2-3.133-1.533-5.933-3.6-7.933.733-.667 1.6-1.2 2.533-1.533.6.267 1.267.467 2 .467s1.467-.2 2.067-.533c2.667.867 4.6 3.4 4.8 6.267v.267c0 .2.133.4.333.4s.4-.133.4-.4v-.267zm-20.2-6.4c-3.133 0-5.6-2.6-5.6-5.667 0-3.133 2.6-5.667 5.667-5.667 3.133 0 5.6 2.6 5.6 5.667S14.667 17.4 11.533 17.4zm12.534-.267C22 17.133 20.4 15.466 20.4 13.4s1.667-3.733 3.733-3.733S27.8 11.334 27.8 13.4s-1.667 3.733-3.733 3.733z"/>
</svg>
