<?xml version="1.0" encoding="utf-8"?>
<!-- Generator: Adobe Illustrator 21.0.2, SVG Export Plug-In . SVG Version: 6.00 Build 0)  -->
<svg version="1.1" id="Layer_1" xmlns="http://www.w3.org/2000/svg" xmlns:xlink="http://www.w3.org/1999/xlink" x="0px" y="0px"
	 viewBox="0 0 24 24" style="enable-background:new 0 0 24 24;" xml:space="preserve">
<g transform="translate(0, 0)">
	<g>
		<path d="M22,24H2c-0.6,0-1-0.4-1-1v-2.9c0-1,0.6-2,1.5-2.6l5.7-3.4c0.5-0.3,1.1-0.1,1.4,0.3c0.3,0.5,0.1,1.1-0.3,1.4l-5.7,3.4
			C3.2,19.5,3,19.8,3,20.1V22h18v-1.9c0-0.3-0.2-0.7-0.5-0.9l-5.7-3.4c-0.5-0.3-0.6-0.9-0.3-1.4c0.3-0.5,0.9-0.6,1.4-0.3l5.7,3.4
			c0.9,0.5,1.5,1.5,1.5,2.6V23C23,23.6,22.6,24,22,24z"/>
	</g>
	<g>
		<path d="M12,17c-3.9,0-7-3.1-7-7V7c0-3.9,3.1-7,7-7c3.9,0,7,3.1,7,7v3C19,13.9,15.9,17,12,17z M12,2C9.2,2,7,4.2,7,7v3
			c0,2.8,2.2,5,5,5s5-2.2,5-5V7C17,4.2,14.8,2,12,2z"/>
	</g>
</g>
</svg>
