<?xml version="1.0" encoding="utf-8"?>
<!-- Generated by IcoMoon.io -->
<!DOCTYPE svg PUBLIC "-//W3C//DTD SVG 1.1//EN" "http://www.w3.org/Graphics/SVG/1.1/DTD/svg11.dtd">
<svg version="1.1" xmlns="http://www.w3.org/2000/svg" xmlns:xlink="http://www.w3.org/1999/xlink" width="30" height="32" viewBox="0 0 30 32">
<path d="M0.944 31.723c0.795 0.795 1.64 1.143 1.938 0.845v0l21.068-21.068c0.298-0.298-0.050-1.193-0.845-1.938-0.795-0.795-1.64-1.143-1.938-0.845l-21.068 21.068c-0.298 0.298 0.050 1.143 0.845 1.938zM21.168 10.108c0.149-0.149 0.596 0.050 0.994 0.447s0.596 0.845 0.447 0.994l-5.168 5.168-1.391-1.391 5.118-5.217zM24.696 6.182c-3.578-0.845-3.975-0.646-5.516 2.683 0.845-3.578 0.646-3.975-2.683-5.516 3.578 0.845 3.975 0.646 5.516-2.683-0.845 3.578-0.646 3.975 2.683 5.516zM30.062 7.971c-2.087 2.137-2.087 2.484-0.447 4.919-2.137-2.087-2.435-2.087-4.919-0.447 2.087-2.137 2.087-2.435 0.447-4.919 2.137 2.087 2.484 2.087 4.919 0.447zM17.342 9.412c-1.54-1.292-1.789-1.292-3.379 0 1.292-1.54 1.292-1.789 0-3.379 1.54 1.292 1.789 1.292 3.379 0-1.242 1.59-1.242 1.838 0 3.379z"></path>
</svg>
