<svg xmlns="http://www.w3.org/2000/svg" width="30" height="32" viewBox="0 0 30 32">
    <path d="M.944 31.723c.795.795 1.64 1.143 1.938.845L23.95 11.5c.298-.298-.05-1.193-.845-1.938-.795-.795-1.64-1.143-1.938-.845L.099 29.785c-.298.298.05 1.143.845 1.938zm20.224-21.615c.149-.149.596.05.994.447s.596.845.447.994l-5.168 5.168-1.391-1.391 5.118-5.217zm3.528-3.926c-3.578-.845-3.975-.646-5.516 2.683.845-3.578.646-3.975-2.683-5.516 3.578.845 3.975.646 5.516-2.683-.845 3.578-.646 3.975 2.683 5.516zm5.366 1.789c-2.087 2.137-2.087 2.484-.447 4.919-2.137-2.087-2.435-2.087-4.919-.447 2.087-2.137 2.087-2.435.447-4.919 2.137 2.087 2.484 2.087 4.919.447zm-12.72 1.441c-1.54-1.292-1.789-1.292-3.379 0 1.292-1.54 1.292-1.789 0-3.379 1.54 1.292 1.789 1.292 3.379 0-1.242 1.59-1.242 1.838 0 3.379z"/>
</svg>
