<?xml version="1.0" encoding="utf-8"?>
<!-- Generator: Adobe Illustrator 21.0.2, SVG Export Plug-In . SVG Version: 6.00 Build 0)  -->
<svg version="1.1" id="Layer_1" xmlns="http://www.w3.org/2000/svg" xmlns:xlink="http://www.w3.org/1999/xlink" x="0px" y="0px"
	 viewBox="0 0 24 24" style="enable-background:new 0 0 24 24;" xml:space="preserve">
<g transform="translate(0, 0)">
	<g>
		<path d="M15,13c-0.3,0-0.5-0.1-0.7-0.3l-3-3c-0.4-0.4-0.4-1,0-1.4s1-0.4,1.4,0l3,3c0.4,0.4,0.4,1,0,1.4C15.5,12.9,15.3,13,15,13z"
			/>
	</g>
	<g>
		<path d="M5,23c-0.3,0-0.5-0.1-0.7-0.3l-3-3c-0.4-0.4-0.4-1,0-1.4l13-13c0.4-0.4,1-0.4,1.4,0l3,3c0.4,0.4,0.4,1,0,1.4l-13,13
			C5.5,22.9,5.2,23,5,23z M3.4,19L5,20.6L16.6,9L15,7.4L3.4,19z"/>
	</g>
	<g>
		<path d="M15,3c-0.6,0-1-0.4-1-1V1c0-0.6,0.4-1,1-1s1,0.4,1,1v1C16,2.6,15.6,3,15,3z"/>
	</g>
	<g>
		<path d="M19.9,5.1c-0.3,0-0.5-0.1-0.7-0.3c-0.4-0.4-0.4-1,0-1.4L20,2.6c0.4-0.4,1-0.4,1.4,0s0.4,1,0,1.4l-0.8,0.8
			C20.4,5,20.2,5.1,19.9,5.1z"/>
	</g>
	<g>
		<path d="M23,10h-1c-0.6,0-1-0.4-1-1s0.4-1,1-1h1c0.6,0,1,0.4,1,1S23.6,10,23,10z"/>
	</g>
	<g>
		<path d="M20.7,15.7c-0.3,0-0.5-0.1-0.7-0.3l-0.8-0.8c-0.4-0.4-0.4-1,0-1.4s1-0.4,1.4,0l0.8,0.8c0.4,0.4,0.4,1,0,1.4
			C21.2,15.6,21,15.7,20.7,15.7z"/>
	</g>
	<g>
		<path d="M10.1,5.1C9.8,5.1,9.6,5,9.4,4.8L8.6,4c-0.4-0.4-0.4-1,0-1.4s1-0.4,1.4,0l0.8,0.8c0.4,0.4,0.4,1,0,1.4
			C10.6,5,10.4,5.1,10.1,5.1z"/>
	</g>
</g>
</svg>
