<!-- Generated by IcoMoon.io -->
<svg version="1.1" xmlns="http://www.w3.org/2000/svg" width="24" height="24" viewBox="0 0 24 24">
<path d="M18.7 8.3l-3-3c-0.4-0.4-1-0.4-1.4 0l-13 13c-0.4 0.4-0.4 1 0 1.4l3 3c0.2 0.2 0.4 0.3 0.7 0.3 0.2 0 0.5-0.1 0.7-0.3l13-13c0.4-0.4 0.4-1 0-1.4zM5 20.6l-1.6-1.6 8.6-8.6 1.6 1.6-8.6 8.6zM15 10.6l-1.6-1.6 1.6-1.6 1.6 1.6-1.6 1.6z"></path>
<path d="M15 3c0.6 0 1-0.4 1-1v-1c0-0.6-0.4-1-1-1s-1 0.4-1 1v1c0 0.6 0.4 1 1 1z"></path>
<path d="M19.9 5.1c0.3 0 0.5-0.1 0.7-0.3l0.8-0.8c0.4-0.4 0.4-1 0-1.4s-1-0.4-1.4 0l-0.8 0.8c-0.4 0.4-0.4 1 0 1.4 0.2 0.2 0.4 0.3 0.7 0.3z"></path>
<path d="M23 8h-1c-0.6 0-1 0.4-1 1s0.4 1 1 1h1c0.6 0 1-0.4 1-1s-0.4-1-1-1z"></path>
<path d="M20.6 13.2c-0.4-0.4-1-0.4-1.4 0s-0.4 1 0 1.4l0.8 0.8c0.2 0.2 0.4 0.3 0.7 0.3s0.5-0.1 0.7-0.3c0.4-0.4 0.4-1 0-1.4l-0.8-0.8z"></path>
<path d="M9.4 4.8c0.2 0.2 0.4 0.3 0.7 0.3s0.5-0.1 0.7-0.3c0.4-0.4 0.4-1 0-1.4l-0.8-0.8c-0.4-0.4-1-0.4-1.4 0s-0.4 1 0 1.4l0.8 0.8z"></path>
</svg>
