<svg xmlns="http://www.w3.org/2000/svg" width="32" height="32" viewBox="0 0 32 32">
    <path d="M31.787 29.129L16.64 3.458c-.124-.213-.356-.356-.604-.356s-.48.124-.604.356L.268 29.129c-.124.231-.142.498-.018.729s.356.373.622.373h30.293a.717.717 0 0 0 .622-.373.677.677 0 0 0 0-.729zm-16.48-16.498c0-.569.338-.907.853-.907.498 0 .853.338.853.907v8.373c0 .569-.338.889-.853.889-.498 0-.853-.32-.853-.889v-8.373zm.853 13.031c-.622 0-1.156-.533-1.156-1.156s.533-1.156 1.156-1.156 1.156.533 1.156 1.156c0 .64-.533 1.156-1.156 1.156z"/>
</svg>
