<svg xmlns="http://www.w3.org/2000/svg" width="32" height="32" viewBox="0 0 32 32">
    <path d="M15.307 13.164v8.373c0 .569.338.889.853.889.498 0 .853-.32.853-.889v-8.373c0-.569-.338-.907-.853-.907-.498-.018-.853.338-.853.907zm.853 10.738c-.622 0-1.156.533-1.156 1.156s.533 1.156 1.156 1.156c.622 0 1.156-.533 1.156-1.156 0-.64-.533-1.156-1.156-1.156zm15.858 5.227L16.622 3.458a.72.72 0 0 0-1.244 0L-.018 29.129c-.142.231-.142.498-.018.729s.373.373.622.373h30.809a.696.696 0 0 0 .622-.373.677.677 0 0 0 0-.729zm-30.151-.356L16 5.235l14.133 23.556H1.866z"/>
</svg>
