<?xml version="1.0" encoding="utf-8"?>
<!-- Generator: Adobe Illustrator 21.0.2, SVG Export Plug-In . SVG Version: 6.00 Build 0)  -->
<svg version="1.1" id="Layer_1" xmlns="http://www.w3.org/2000/svg" xmlns:xlink="http://www.w3.org/1999/xlink" x="0px" y="0px"
	 viewBox="0 0 24 24" style="enable-background:new 0 0 24 24;" xml:space="preserve">
<g transform="translate(0, 0)">
	<g>
		<path d="M22,23H2c-0.4,0-0.7-0.2-0.9-0.5s-0.2-0.7,0-1l10-19c0.3-0.7,1.4-0.7,1.8,0l10,19c0.2,0.3,0.2,0.7,0,1S22.4,23,22,23z
			 M3.7,21h16.7L12,5.1L3.7,21z"/>
	</g>
	<g>
		<path d="M12,16c-0.6,0-1-0.4-1-1v-4c0-0.6,0.4-1,1-1s1,0.4,1,1v4C13,15.6,12.6,16,12,16z"/>
	</g>
	<g>
		<path d="M12,20c-0.6,0-1-0.4-1-1v-1c0-0.6,0.4-1,1-1s1,0.4,1,1v1C13,19.6,12.6,20,12,20z"/>
	</g>
</g>
</svg>
